<svg width="197" height="201" viewBox="0 0 197 201" fill="none" xmlns="http://www.w3.org/2000/svg">
<path d="M67.6419 0C71.1289 3.23793 72.4987 7.78337 74.6159 11.7685C75.7367 13.8856 76.6084 14.1348 78.7255 13.0139C89.7469 7.22304 103.072 11.5818 108.676 22.6032C114.28 33.6869 110.046 47.0122 98.9003 52.554C96.5341 53.7371 96.0982 54.6088 97.4681 56.9127C99.1494 59.7147 100.519 62.7037 101.889 65.6303C103.384 68.806 102.699 70.923 99.5852 72.5419C94.2302 75.344 88.8752 78.0838 83.4579 80.7613C79.4105 82.7539 76.7952 81.3217 76.048 76.8384C74.8649 69.9267 71.1289 65.6302 65.2757 64.5717C59.4848 63.5131 53.8184 66.1285 51.0786 71.1099C48.2143 76.3404 48.9615 82.3803 53.0712 86.8013C53.6316 87.424 54.3166 87.9845 54.877 88.6071C56.9318 90.9733 56.745 94.0243 54.0675 95.5188C48.2143 98.7567 42.1743 101.745 36.0721 104.61C33.2078 105.917 31.2152 104.734 29.4717 101.372C22.6845 88.0466 15.9596 74.6591 9.17241 61.3338C6.80624 56.6015 4.37779 51.9313 1.94935 47.2612C-2.03579 39.3532 0.143583 32.5037 7.98932 28.5186C25.5488 19.552 43.1706 10.5856 60.7924 1.61902C61.7264 1.12088 62.5982 0.56041 63.5322 0C64.9643 0 66.272 0 67.6419 0ZM102.138 32.7529C102.138 31.383 102.076 30.0753 101.64 28.7677C98.5267 18.9294 86.3845 16.2519 79.1614 23.7863C75.5499 27.5847 72.561 27.2111 70.1948 22.6032C68.4513 19.303 66.7701 15.9405 65.1511 12.578C64.2794 10.71 63.2831 10.3986 61.3528 11.3949C45.4745 19.552 29.5962 27.5847 13.6557 35.6795C8.4252 38.2948 8.11386 39.291 10.7914 44.5838C18.2635 59.4035 25.7979 74.161 33.3323 88.9807C36.2589 94.7716 36.1966 94.7093 41.9875 91.845C43.9801 90.8487 44.2914 90.0391 43.1706 88.0466C37.442 77.6478 41.1781 64.4471 51.39 58.4694C61.7264 52.4294 74.8027 55.4184 81.403 65.2567C82.4616 66.8757 82.5239 69.8645 84.5787 69.8645C86.4467 69.9267 88.3148 68.1209 90.2451 67.3115C92.1131 66.502 91.9886 65.5056 91.1791 63.949C89.4979 60.8356 87.9412 57.66 86.3222 54.4843C83.5824 49.1293 84.8278 46.763 90.8055 45.829C97.5304 44.8327 102.076 39.5401 102.138 32.7529Z" fill="white"/>
<path d="M196.224 124.411C196.224 145.146 196.224 165.819 196.224 186.554C196.224 195.521 191.242 200.502 182.4 200.502C140.681 200.502 98.9616 200.502 57.2422 200.502C48.8983 200.502 43.9169 195.459 43.7924 187.052C43.6056 175.533 43.6056 164.076 43.7301 152.556C43.8546 144.15 43.6056 135.682 43.481 127.275C43.4188 121.36 44.9755 119.741 50.8909 119.679C53.5061 119.679 56.0591 119.554 58.6744 119.679C61.0405 119.803 61.7878 118.931 61.7878 116.503C61.9123 105.544 69.1354 96.8265 79.8454 94.6471C92.9216 91.9073 105.873 102.119 106.434 115.507C106.496 116.814 105.624 118.807 107.368 119.367C109.734 120.052 112.287 120.052 114.715 119.243C115.587 118.931 115.4 117.748 115.4 116.877C115.4 113.203 115.338 109.591 115.463 105.918C115.587 100.749 118.016 99.0681 122.935 100.625C131.528 103.365 139.124 99.0681 140.868 90.5374C142.611 81.8199 134.33 73.4759 125.612 75.2194C124.305 75.4685 123.059 75.9667 121.752 76.278C118.451 77.1498 115.712 75.5931 115.587 72.2307C115.4 65.6925 115.4 59.2166 115.587 52.6785C115.649 49.8142 117.393 48.1952 120.319 47.8216C123.308 47.5103 126.235 47.9463 129.224 47.9463C137.941 47.9463 146.659 47.6972 155.376 47.7595C165.215 47.7595 175.115 47.8217 184.953 48.1331C191.492 48.3199 196.286 53.9238 196.286 61.0223C196.348 79.8272 196.286 98.6321 196.286 117.437C196.224 119.803 196.224 122.107 196.224 124.411ZM154.567 191.598C163.782 191.598 172.998 191.598 182.151 191.598C186.199 191.598 187.195 190.539 187.195 186.43C187.195 174.474 187.195 162.457 187.195 150.501C187.195 144.275 187.195 138.048 187.195 131.821C187.195 130.825 187.444 129.392 186.074 129.206C183.584 128.957 180.968 128.583 178.664 129.143C177.232 129.517 178.602 131.883 178.166 133.315C177.979 134.063 177.917 134.81 177.793 135.557C176.174 146.267 166.398 154.549 155.688 154.424C144.666 154.237 135.139 145.769 133.707 134.996C133.458 133.066 134.703 130.638 132.773 129.33C131.154 128.272 128.85 129.081 126.858 128.894C126.733 128.894 126.671 128.894 126.546 128.894C124.803 128.583 124.491 129.33 124.491 130.949C124.554 135.183 124.491 139.355 124.367 143.589C124.242 147.512 121.627 149.318 118.016 148.135C117.206 147.886 116.397 147.575 115.525 147.326C108.053 145.395 100.767 150.065 99.1484 157.849C97.654 164.947 102.635 171.921 109.983 173.229C112.785 173.727 115.276 172.98 117.891 172.295C121.814 171.174 124.18 172.793 124.305 176.778C124.429 180.826 124.678 184.811 124.491 188.858C124.367 191.162 125.176 191.598 127.231 191.598C136.322 191.536 145.476 191.598 154.567 191.598ZM155.003 57.0996C146.97 57.0996 138.875 57.0996 130.843 57.0996C124.554 57.0996 124.616 57.0995 124.616 63.3885C124.616 65.4434 125.052 66.1907 127.293 66.1907C139.685 66.1284 149.399 75.2817 150.146 87.4861C150.831 98.7566 142.113 108.906 130.407 110.65C128.477 110.961 125.799 109.591 124.865 111.522C124.056 113.203 124.803 115.631 124.678 117.748C124.616 119.305 125.301 119.741 126.733 119.741C129.784 119.679 132.898 119.803 135.949 119.741C143.981 119.679 145.164 121.111 143.109 128.77C140.556 138.359 149.523 147.263 159.112 144.959C166.211 143.278 171.317 135.432 168.452 127.462C166.584 122.232 168.452 119.803 173.994 119.741C177.232 119.741 180.532 119.616 183.77 119.803C186.448 119.928 187.444 119.118 187.444 116.254C187.32 98.3209 187.382 80.3877 187.382 62.4546C187.382 58.1581 186.386 57.1618 182.151 57.1618C172.998 57.0372 163.969 57.0996 155.003 57.0996ZM52.7589 159.219C52.7589 168.123 52.7589 177.027 52.7589 185.994C52.7589 190.788 53.6307 191.598 58.5498 191.598C67.6409 191.598 76.7943 191.598 85.8854 191.598C94.5406 191.598 103.134 191.473 111.789 191.66C114.778 191.722 115.836 190.664 115.4 187.862C115.338 187.364 115.4 186.928 115.4 186.43C115.4 182.756 115.4 182.756 111.602 182.569C110.357 182.507 109.111 182.32 107.928 182.071C97.2181 180.141 89.3724 170.053 89.9951 158.907C90.6177 148.01 99.522 138.733 110.17 137.985C115.525 137.612 115.463 137.612 115.463 132.132C115.463 129.828 114.715 128.832 112.287 128.894C108.675 129.019 105.002 129.019 101.328 128.832C96.4709 128.645 94.7897 126.092 96.3464 121.547C97.0936 119.243 97.654 116.939 97.2181 114.51C95.8482 106.851 88.6252 101.87 81.3398 103.551C73.4318 105.357 69.1354 112.829 71.5015 120.799C73.245 126.715 71.7506 128.832 65.5861 128.957C62.3482 129.019 59.048 129.081 55.81 128.894C53.4439 128.77 52.6344 129.455 52.6967 131.883C52.8212 140.974 52.7589 150.065 52.7589 159.219Z" fill="white"/>
</svg>
