<svg width="99" height="90" viewBox="0 0 99 90" fill="none" xmlns="http://www.w3.org/2000/svg">
<g clip-path="url(#clip0_483_5324)">
<path d="M70.2826 47.507C78.8056 50.5218 83.3215 60.8357 79.378 68.928C75.4028 77.1474 69.106 83.4309 61.4417 88.0642C51.8692 93.8716 35.1413 85.6206 33.8374 74.7038C29.6077 77.8455 28.5901 72.8949 26.0777 71.689C21.9752 69.7849 22.2614 67.0557 24.3286 63.5331C31.2932 51.7278 41.8515 44.1749 53.9046 38.3991C57.0848 36.8759 60.4558 36.9393 63.5406 39.0338C67.4523 41.6996 67.4841 44.1749 63.6678 47.031C62.8727 47.6022 61.6961 47.9196 61.6643 49.4429C64.7173 49.5063 66.9434 46.3328 70.2826 47.507ZM48.8798 66.7383C55.6537 67.7539 55.7173 67.6904 57.1802 61.28C57.4664 59.9788 58.2932 58.519 56.8621 57.5035C55.3674 56.4245 53.4275 55.409 51.7738 56.5197C48.7526 58.519 46.0176 60.9626 43.1872 63.2475C42.583 63.7553 42.3286 64.4852 42.8374 65.3737C44.6183 66.5797 46.8127 66.421 48.8798 66.7383Z" fill="white"/>
<path d="M35.3634 36.8441C36.8263 38.3674 38.1937 39.732 40.2927 40.1763C42.0418 40.5254 43.6637 40.5571 44.9676 39.129C46.2397 37.7327 46.3987 35.9873 45.4764 34.464C43.2503 30.6558 43.2503 26.0226 40.2291 22.4048C38.9252 20.8498 39.5612 17.7715 39.0524 15.4549C37.9711 10.7264 37.0489 5.87093 33.3916 2.18969C32.0559 0.856829 30.6566 -0.31736 28.5895 0.126928C26.427 0.53948 25.8227 2.34837 25.3457 4.12552C25.0595 5.29971 24.7733 6.5691 24.9323 7.74329C26.3316 18.1841 31.5789 27.2602 35.3634 36.8441Z" fill="white"/>
<path d="M27.4137 34.5275C24.6787 33.3533 24.6787 31.0049 24.3289 27.9901C23.9154 24.2137 21.4985 20.6594 19.8766 17.0416C19.0179 15.1375 17.8412 13.4556 15.4243 13.8364C13.1981 14.1855 11.9896 15.8991 11.3218 17.8032C10.4949 20.2468 11.0674 22.6587 11.926 25.007C14.8836 33.036 19.1451 40.4936 22.8342 48.2052C23.9154 50.4901 25.8554 52.3942 28.7176 51.2518C31.4525 50.1728 31.8978 47.7292 31.2617 45.0952C30.3713 41.5409 29.7352 37.8914 27.4137 34.5275Z" fill="white"/>
<path d="M90.4449 48.9351C94.1657 44.7144 98.0138 39.4464 98.8724 32.6234C99.5403 27.3872 97.2187 23.4838 93.4661 22.9125C89.8088 22.3413 85.1657 26.1812 85.1339 30.9415C85.1021 36.1142 84.4343 40.811 81.9537 45.3491C80.9996 47.1262 81.2541 49.3159 83.353 50.5536C85.7064 51.9817 87.7417 51.0931 90.4449 48.9351Z" fill="white"/>
<path d="M51.1692 29.799C53.6179 32.9725 55.6533 34.4323 58.3247 33.2264C60.8688 32.0839 61.155 29.5451 60.5508 27.2919C58.4837 19.5486 56.1939 11.8688 53.9042 4.15724C53.2999 2.12622 51.9006 0.602943 49.5155 0.888557C47.5437 1.14244 46.6851 2.69744 46.4625 4.44286C45.3494 13.8998 47.1621 22.6904 51.1692 29.799Z" fill="white"/>
<path d="M2.28961 50.8075C4.77018 53.8223 7.37795 55.4408 10.0493 56.964C12.4663 58.3286 14.7878 59.7884 16.6006 61.9147C18.2543 63.8822 20.1306 65.2785 22.2931 62.8032C24.4239 60.3279 24.4875 56.8053 21.6253 55.7264C16.696 53.854 15.2331 49.189 11.8621 46.1742C10.3674 44.8413 8.99986 43.4132 7.47336 42.1756C5.72424 40.7475 3.72071 39.8589 1.65357 41.6044C-0.254556 43.1911 -0.31816 45.3173 0.5723 47.4436C1.14474 48.8399 1.93979 50.141 2.28961 50.8075Z" fill="white"/>
</g>
<defs>
<clipPath id="clip0_483_5324">
<rect width="99" height="90" fill="white"/>
</clipPath>
</defs>
</svg>
