<svg width="196" height="197" viewBox="0 0 196 197" fill="none" xmlns="http://www.w3.org/2000/svg">
<path d="M133.344 171.476C133.278 177.302 127.783 182.731 121.957 182.731C115.865 182.731 110.37 177.037 110.503 170.88C110.635 165.186 116.329 159.824 122.155 159.956C128.511 160.088 133.41 165.12 133.344 171.476Z" fill="white"/>
<path d="M77.9283 160.486C84.2841 160.419 89.3821 165.451 89.3159 171.741C89.2497 177.832 84.1518 183.459 78.1931 183.194C72.2345 182.93 66.7393 179.09 66.6069 171.608C66.6069 165.451 71.7048 160.552 77.9283 160.486Z" fill="white"/>
<path d="M134.537 147.377C134.537 141.285 139.9 136.055 146.057 136.121C152.148 136.188 157.511 141.683 157.378 147.708C157.246 153.468 151.684 158.83 145.858 158.764C139.37 158.632 134.537 153.732 134.537 147.377Z" fill="white"/>
<path d="M158.437 122.417C158.504 116.127 163.469 111.095 169.56 111.161C176.048 111.161 180.948 116.061 180.948 122.417C180.882 128.706 175.718 133.804 169.494 133.672C163.072 133.539 158.371 128.706 158.437 122.417Z" fill="white"/>
<path d="M52.8371 134.599C58.7295 134.665 63.96 140.094 63.96 146.053C63.96 152.144 58.4648 157.506 52.3738 157.374C46.6138 157.242 41.3171 151.746 41.3171 145.788C41.3171 139.631 46.5474 134.533 52.8371 134.599Z" fill="white"/>
<path d="M133.345 32.9049C133.278 38.9297 127.849 44.4911 121.957 44.4911C116.065 44.4911 110.437 38.7973 110.569 32.9049C110.702 26.9463 116.33 21.5835 122.288 21.6497C127.783 21.7159 133.345 27.3435 133.345 32.9049Z" fill="white"/>
<path d="M40.7214 79.3159C40.7214 85.2745 35.0939 91.0345 29.2014 90.6373C23.309 90.24 18.4758 86.2676 18.3434 79.3821C18.2772 72.96 23.309 67.7959 29.5987 67.8621C35.6897 67.9945 40.7214 73.2248 40.7214 79.3159Z" fill="white"/>
<path d="M79.2545 19.6634C85.5441 19.6634 90.6419 24.5627 90.7081 30.5213C90.7081 36.4799 85.2792 41.9089 79.1882 41.9089C73.6268 41.9751 67.9991 36.4799 67.9329 30.9186C67.8005 24.7613 72.8986 19.6634 79.2545 19.6634Z" fill="white"/>
<path d="M148.639 45.0206C154.862 45.0868 159.828 50.0523 159.828 56.2096C159.828 62.2344 154.664 67.3323 148.573 67.3986C142.482 67.3986 137.185 62.102 137.185 55.9448C137.185 49.9199 142.415 44.9544 148.639 45.0206Z" fill="white"/>
<path d="M53.4971 65.5449C47.2074 65.5449 41.9109 60.3807 41.9109 54.3559C41.9109 48.3973 47.1412 43.2332 53.2322 43.2332C59.1908 43.2332 64.5536 48.4635 64.6198 54.3559C64.7522 60.2483 59.5219 65.5449 53.4971 65.5449Z" fill="white"/>
<path d="M29.8642 133.539C23.4421 133.473 18.9401 128.905 19.0063 122.35C19.0725 116.061 23.9057 111.228 30.1953 111.228C36.2202 111.228 41.4505 116.458 41.3843 122.417C41.3181 128.706 36.22 133.539 29.8642 133.539Z" fill="white"/>
<path d="M158.57 78.5213C158.57 72.1655 163.271 67.3324 169.56 67.2661C175.916 67.1999 180.948 72.2317 180.882 78.5213C180.816 84.6786 175.784 89.6441 169.626 89.6441C163.337 89.6441 158.57 84.811 158.57 78.5213Z" fill="white"/>
<path d="M195.713 137.114C195.646 141.021 192.005 144.596 188.165 144.53C183.928 144.463 180.551 141.153 180.485 136.916C180.419 133.142 184.457 129.103 188.165 129.17C192.27 129.302 195.713 132.943 195.713 137.114Z" fill="white"/>
<path d="M140.363 193.258C136.391 193.192 132.815 189.749 132.749 185.843C132.749 181.871 136.523 177.898 140.297 177.964C144.203 178.031 148.109 182.069 148.109 186.042C148.109 189.815 144.335 193.324 140.363 193.258Z" fill="white"/>
<path d="M70.2494 189.352C70.1832 193.192 66.4093 196.899 62.5693 196.899C58.4645 196.899 54.8231 193.324 54.8893 189.219C54.9555 185.181 58.7293 181.539 62.768 181.672C66.4755 181.804 70.3156 185.777 70.2494 189.352Z" fill="white"/>
<path d="M188.165 92.8222C192.071 92.756 195.647 96.3312 195.647 100.304C195.713 104.276 192.204 107.917 188.298 108.05C184.259 108.116 180.353 104.475 180.353 100.568C180.485 96.596 184.193 92.8884 188.165 92.8222Z" fill="white"/>
<path d="M44.4957 163.597C44.4957 167.503 40.9867 171.012 37.0805 171.079C33.1081 171.079 29.5991 167.57 29.5991 163.663C29.5991 159.426 33.0419 155.851 37.0805 155.851C41.053 155.851 44.4957 159.426 44.4957 163.597Z" fill="white"/>
<path d="M62.6347 6.81937C66.4085 6.81937 70.0499 10.5932 70.1161 14.4332C70.1161 17.9421 66.2761 21.9807 62.8333 22.047C58.8609 22.1132 54.8884 18.3394 54.8884 14.4994C54.8884 10.527 58.5961 6.81937 62.6347 6.81937Z" fill="white"/>
<path d="M162.807 29.9255C166.647 30.0579 170.421 33.8317 170.288 37.5393C170.156 41.6441 166.448 45.1531 162.41 44.9545C158.636 44.7559 154.994 41.1145 155.061 37.6055C155.061 33.6993 159.033 29.7931 162.807 29.9255Z" fill="white"/>
<path d="M14.5038 132.679C18.6086 132.679 22.1838 136.055 22.1838 139.962C22.1838 143.868 18.5424 147.575 14.7024 147.575C10.6637 147.575 6.82373 143.868 6.82373 139.962C6.82373 136.188 10.5975 132.679 14.5038 132.679Z" fill="white"/>
<path d="M91.8992 189.286C91.9654 185.247 95.4742 181.606 99.248 181.672C103.353 181.738 106.928 185.379 106.796 189.484C106.663 193.523 103.154 196.966 99.248 196.899C95.1432 196.767 91.833 193.324 91.8992 189.286Z" fill="white"/>
<path d="M171.679 161.876C171.679 166.179 168.568 169.357 164.396 169.357C159.828 169.357 156.783 166.312 156.783 161.876C156.783 157.97 160.358 154.461 164.264 154.461C168.501 154.461 171.679 157.639 171.679 161.876Z" fill="white"/>
<path d="M143.739 14.4994C143.739 18.207 139.833 22.1794 136.191 22.1132C132.417 22.047 128.644 18.207 128.644 14.4994C128.644 10.6594 132.351 6.88558 136.059 6.81937C140.097 6.75316 143.739 10.3945 143.739 14.4994Z" fill="white"/>
<path d="M176.511 59.7849C176.511 55.4814 179.557 52.4359 183.86 52.4359C188.362 52.5021 191.474 55.6138 191.407 59.9835C191.341 63.8235 187.898 67.2663 184.058 67.2663C179.556 67.3325 176.511 64.287 176.511 59.7849Z" fill="white"/>
<path d="M12.7166 70.4442C8.87665 70.4442 5.03662 66.8028 5.03662 63.1615C5.03662 59.3214 8.61183 55.6801 12.518 55.5477C16.6229 55.4815 20.3968 59.0566 20.3306 63.029C20.1982 66.9352 16.6229 70.4442 12.7166 70.4442Z" fill="white"/>
<path d="M36.4826 30.5876C40.3888 30.5876 44.0964 34.0966 44.1626 37.8704C44.2288 41.5118 40.3889 45.5504 36.7475 45.5504C32.6427 45.6166 29.0014 42.0414 29.0014 38.0028C28.9352 34.1628 32.5102 30.5876 36.4826 30.5876Z" fill="white"/>
<path d="M106.796 7.54759C106.729 11.7186 103.485 14.8966 99.3141 14.8966C95.2755 14.8304 91.8989 11.3876 91.9651 7.34897C92.0313 3.17793 95.2754 0 99.4465 0C103.419 0.0662069 106.862 3.50897 106.796 7.54759Z" fill="white"/>
<path d="M14.8344 100.965C14.7682 105.269 11.6565 108.314 7.35303 108.182C2.91716 108.116 -0.128259 105.004 0.00415437 100.767C0.136568 96.7282 3.57922 93.3517 7.55164 93.3517C11.5241 93.3517 14.9006 96.9269 14.8344 100.965Z" fill="white"/>
<path d="M102.89 91.7629C100.242 94.4111 97.6597 96.9932 95.0776 99.6415C89.9797 104.739 84.8817 109.837 79.7838 114.869C77.6652 116.988 74.4211 116.922 72.3687 114.869C70.3824 112.883 70.3825 109.639 72.4349 107.52C76.6722 103.217 80.9094 98.9794 85.2128 94.7422C90.7742 89.1808 96.3355 83.6194 101.897 78.1242C102.228 77.7932 102.559 77.396 103.089 76.8001C104.943 78.7201 106.598 80.5077 108.319 82.2291C116.595 90.5049 124.871 98.7808 133.213 107.123C134.206 108.116 135.067 109.241 135.133 110.698C135.265 113.148 134.206 115.002 132.153 115.995C130.167 116.922 127.983 116.59 126.261 114.935C124.076 112.817 121.891 110.632 119.773 108.447C115.668 104.342 111.629 100.304 107.525 96.1987C105.936 94.676 104.479 93.2856 102.89 91.7629Z" fill="white"/>
</svg>
