<svg width="196" height="197" viewBox="0 0 196 197" fill="none" xmlns="http://www.w3.org/2000/svg">
<path d="M62.3686 25.4245C62.4348 19.5983 67.93 14.1693 73.7562 14.1693C79.8472 14.1693 85.3423 19.8631 85.2099 26.0204C85.0774 31.7142 79.3838 37.0769 73.5576 36.9445C67.2017 36.8121 62.3024 31.7804 62.3686 25.4245Z" fill="white"/>
<path d="M117.784 36.4149C111.429 36.4811 106.331 31.4494 106.397 25.1597C106.463 19.0687 111.561 13.4411 117.52 13.7059C123.478 13.9707 128.973 17.8107 129.106 25.2921C129.106 31.4494 124.008 36.3487 117.784 36.4149Z" fill="white"/>
<path d="M61.1758 49.5239C61.1758 55.6149 55.8131 60.8452 49.6559 60.779C43.5649 60.7128 38.2021 55.2177 38.3346 49.1928C38.467 43.4328 44.0283 38.0701 49.8545 38.1363C56.3428 38.2687 61.1758 43.168 61.1758 49.5239Z" fill="white"/>
<path d="M37.2752 74.4839C37.209 80.7735 32.2436 85.8052 26.1525 85.739C19.6642 85.739 14.7647 80.8397 14.7647 74.4839C14.8309 68.1942 19.9951 63.0963 26.2186 63.2287C32.6407 63.3611 37.3414 68.1942 37.2752 74.4839Z" fill="white"/>
<path d="M142.876 62.3017C136.983 62.2355 131.753 56.8065 131.753 50.8479C131.753 44.7568 137.248 39.3941 143.339 39.5265C149.099 39.6589 154.396 45.1541 154.396 51.1127C154.396 57.2699 149.165 62.3679 142.876 62.3017Z" fill="white"/>
<path d="M62.3681 163.995C62.4343 157.971 67.8632 152.409 73.7557 152.409C79.6481 152.409 85.2757 158.103 85.1433 163.996C85.0108 169.954 79.3831 175.317 73.4245 175.251C67.9293 175.184 62.3681 169.557 62.3681 163.995Z" fill="white"/>
<path d="M154.991 117.585C154.991 111.626 160.619 105.866 166.511 106.263C172.404 106.66 177.237 110.633 177.369 117.518C177.435 123.94 172.404 129.105 166.114 129.038C160.023 128.906 154.991 123.676 154.991 117.585Z" fill="white"/>
<path d="M116.458 177.237C110.169 177.237 105.071 172.338 105.005 166.379C105.005 160.42 110.433 154.991 116.524 154.991C122.086 154.925 127.714 160.42 127.78 165.982C127.912 172.139 122.814 177.237 116.458 177.237Z" fill="white"/>
<path d="M47.074 151.88C40.8505 151.814 35.885 146.848 35.885 140.691C35.885 134.666 41.049 129.568 47.14 129.502C53.2311 129.502 58.5276 134.798 58.5276 140.956C58.5276 146.98 53.2974 151.946 47.074 151.88Z" fill="white"/>
<path d="M142.216 131.356C148.505 131.356 153.802 136.52 153.802 142.545C153.802 148.503 148.572 153.667 142.48 153.667C136.522 153.667 131.159 148.437 131.093 142.545C130.96 136.652 136.191 131.356 142.216 131.356Z" fill="white"/>
<path d="M165.849 63.3611C172.271 63.4273 176.773 67.9955 176.706 74.55C176.64 80.8397 171.807 85.6728 165.517 85.6728C159.493 85.6728 154.262 80.4424 154.328 74.4838C154.395 68.1942 159.493 63.3611 165.849 63.3611Z" fill="white"/>
<path d="M37.1431 118.379C37.1431 124.735 32.4424 129.568 26.1527 129.634C19.7969 129.7 14.765 124.669 14.8312 118.379C14.8974 112.222 19.9292 107.256 26.0865 107.256C32.3761 107.256 37.1431 112.089 37.1431 118.379Z" fill="white"/>
<path d="M2.04095e-06 59.7859C0.0662093 55.8797 3.70769 52.3046 7.54769 52.3708C11.7849 52.437 15.1613 55.7473 15.2275 59.9846C15.2937 63.7583 11.2553 67.797 7.54769 67.7308C3.44286 67.5984 1.6763e-06 63.957 2.04095e-06 59.7859Z" fill="white"/>
<path d="M55.3497 3.6423C59.3221 3.7085 62.8972 7.15127 62.9634 11.0575C62.9634 15.0299 59.1895 19.0023 55.4157 18.9361C51.5095 18.8699 47.6034 14.8313 47.6034 10.8589C47.6034 7.08506 51.3773 3.57609 55.3497 3.6423Z" fill="white"/>
<path d="M125.463 7.54873C125.53 3.70873 129.303 0.00114761 133.143 0.00114794C137.248 0.0011483 140.89 3.57632 140.823 7.68115C140.757 11.7198 136.983 15.3612 132.945 15.2287C129.237 15.0963 125.397 11.1239 125.463 7.54873Z" fill="white"/>
<path d="M7.54754 104.078C3.64133 104.144 0.0661264 100.569 0.0661268 96.5969C-7.98029e-05 92.6245 3.50879 88.9831 7.415 88.8507C11.4536 88.7845 15.3599 92.4258 15.3599 96.3321C15.2275 100.304 11.52 104.012 7.54754 104.078Z" fill="white"/>
<path d="M151.217 33.3031C151.217 29.3969 154.726 25.8879 158.632 25.8217C162.605 25.8217 166.114 29.3307 166.114 33.2369C166.114 37.4742 162.671 41.0493 158.632 41.0493C154.66 41.0493 151.217 37.4742 151.217 33.3031Z" fill="white"/>
<path d="M133.078 190.081C129.304 190.081 125.663 186.307 125.597 182.467C125.597 178.958 129.437 174.92 132.879 174.853C136.852 174.787 140.824 178.561 140.824 182.401C140.824 186.373 137.117 190.081 133.078 190.081Z" fill="white"/>
<path d="M32.9057 166.975C29.0657 166.843 25.2919 163.069 25.4243 159.361C25.5567 155.256 29.2643 151.747 33.3029 151.946C37.0767 152.145 40.7182 155.786 40.652 159.295C40.652 163.201 36.6795 167.107 32.9057 166.975Z" fill="white"/>
<path d="M181.209 64.2217C177.104 64.2217 173.529 60.8451 173.529 56.9389C173.529 53.0327 177.17 49.3251 181.01 49.3251C185.049 49.3251 188.889 53.0327 188.889 56.9389C188.889 60.7127 185.115 64.2217 181.209 64.2217Z" fill="white"/>
<path d="M103.814 7.61487C103.747 11.6535 100.238 15.2949 96.4647 15.2287C92.3598 15.1625 88.7846 11.5211 88.917 7.41625C89.0494 3.37763 92.5584 -0.0651265 96.4647 0.0010808C100.569 0.133495 103.88 3.57625 103.814 7.61487Z" fill="white"/>
<path d="M24.0337 35.0246C24.0337 30.7211 27.1454 27.5432 31.3165 27.5432C35.8847 27.5432 38.9302 30.5887 38.9302 35.0246C38.9302 38.9308 35.355 42.4398 31.4488 42.4398C27.2116 42.4398 24.0337 39.2618 24.0337 35.0246Z" fill="white"/>
<path d="M51.974 182.401C51.974 178.693 55.8801 174.721 59.5215 174.787C63.2952 174.853 67.0691 178.693 67.0691 182.401C67.0691 186.241 63.3616 190.015 59.654 190.081C55.6154 190.147 51.974 186.506 51.974 182.401Z" fill="white"/>
<path d="M19.2017 137.116C19.2017 141.419 16.1561 144.464 11.8526 144.464C7.35056 144.398 4.23914 141.287 4.30535 136.917C4.37156 133.077 7.81422 129.634 11.6542 129.634C16.1563 129.568 19.2017 132.613 19.2017 137.116Z" fill="white"/>
<path d="M182.996 126.456C186.836 126.456 190.676 130.098 190.676 133.739C190.676 137.579 187.101 141.22 183.195 141.353C179.09 141.419 175.316 137.844 175.382 133.871C175.515 129.965 179.09 126.456 182.996 126.456Z" fill="white"/>
<path d="M159.23 166.313C155.324 166.313 151.616 162.804 151.55 159.03C151.484 155.389 155.324 151.35 158.965 151.35C163.07 151.284 166.711 154.859 166.711 158.898C166.778 162.738 163.203 166.313 159.23 166.313Z" fill="white"/>
<path d="M88.9171 189.353C88.9833 185.182 92.2275 182.004 96.3986 182.004C100.437 182.07 103.814 185.513 103.748 189.551C103.681 193.723 100.437 196.9 96.2662 196.9C92.2938 196.834 88.8509 193.391 88.9171 189.353Z" fill="white"/>
<path d="M180.878 95.9349C180.944 91.6315 184.056 88.5859 188.36 88.7184C192.796 88.7846 195.841 91.8963 195.709 96.1335C195.576 100.172 192.133 103.549 188.161 103.549C184.189 103.549 180.812 99.9735 180.878 95.9349Z" fill="white"/>
<path d="M92.8227 105.138C95.471 102.489 98.053 99.9072 100.635 97.2589C105.733 92.161 110.831 87.063 115.929 82.0313C118.048 79.9127 121.292 79.9789 123.344 82.0313C125.33 84.0175 125.33 87.2617 123.278 89.3803C119.041 93.6837 114.803 97.921 110.5 102.158C104.938 107.72 99.3772 113.281 93.8158 118.776C93.4848 119.107 93.1536 119.504 92.6239 120.1C90.7701 118.18 89.1151 116.393 87.3937 114.671C79.1179 106.395 70.8419 98.1196 62.4999 89.7775C61.5068 88.7844 60.646 87.6589 60.5798 86.2023C60.4474 83.7527 61.5068 81.8989 63.5592 80.9058C65.5454 79.9789 67.7301 80.3099 69.4515 81.9651C71.6363 84.0837 73.8212 86.2685 75.9399 88.4534C80.0447 92.5582 84.0833 96.5968 88.1882 100.702C89.7771 102.224 91.2338 103.615 92.8227 105.138Z" fill="white"/>
</svg>
