<svg width="61" height="38" viewBox="0 0 61 38" fill="none" xmlns="http://www.w3.org/2000/svg">
<path d="M30.3349 23.2687C32.8256 20.778 35.254 18.3496 37.6825 15.8589C42.4771 11.0642 47.2717 6.26962 52.0663 1.53727C54.0589 -0.4553 57.11 -0.393032 59.0403 1.53727C60.9083 3.4053 60.9083 6.45643 58.978 8.449C54.9928 12.4964 51.0077 16.4815 46.9603 20.4667C41.7298 25.6972 36.4994 30.9277 31.2689 36.0959C30.9576 36.4072 30.6461 36.7808 30.1479 37.3412C28.4044 35.5355 26.8479 33.8543 25.2289 32.2353C17.4454 24.4518 9.66192 16.6683 1.81618 8.82259C0.882159 7.88858 0.0726231 6.83003 0.0103559 5.46014C-0.114179 3.15623 0.882182 1.41273 2.81248 0.478709C4.68051 -0.393037 6.73526 -0.0817003 8.35422 1.47499C10.4091 3.46756 12.464 5.52241 14.4565 7.57725C18.3171 11.4379 22.1155 15.2362 25.9761 19.0968C27.4705 20.5289 28.8405 21.8366 30.3349 23.2687Z" fill="white"/>
</svg>
