<svg width="199" height="199" viewBox="0 0 199 199" fill="none" xmlns="http://www.w3.org/2000/svg">
<path d="M137.212 198.522C97.458 198.522 57.6223 198.522 17.8687 198.522C17.5408 198.358 17.2129 198.276 16.8851 198.194C6.39337 195.408 0 185.736 0 175.326C0.245899 124.343 0.0819643 73.3599 0.0819643 22.3769C0.0819643 9.59015 9.67202 0 22.4588 0C59.1797 0 95.8186 0 132.54 0C144.916 0 154.834 9.59 154.916 21.9669C154.998 73.5237 154.998 125.163 154.916 176.719C154.916 185.408 150.654 191.965 143.031 196.227C141.146 197.129 139.097 197.785 137.212 198.522ZM11.7212 99.3431C11.7212 124.835 11.7212 150.326 11.7212 175.818C11.7212 182.867 15.8195 187.129 22.7047 187.129C59.1797 187.129 95.7367 187.129 132.212 187.129C138.851 187.129 143.277 182.703 143.277 176.064C143.277 124.917 143.277 73.7698 143.277 22.6228C143.277 16.0655 138.851 11.7212 132.212 11.5573C131.638 11.5573 130.982 11.5573 130.408 11.5573C95.0809 11.5573 59.8354 11.5573 24.5079 11.5573C22.7866 11.5573 21.0653 11.3934 19.344 11.8852C14.59 13.1967 11.7212 17.213 11.7212 22.8687C11.7212 48.3602 11.7212 73.8516 11.7212 99.3431Z" fill="white"/>
<path d="M198.687 168.031C193.851 174.424 189.753 181.309 185.245 187.866C181.884 192.784 182.458 192.866 179.097 187.866C175.081 181.883 171.146 175.817 167.048 169.834C165.9 168.112 165.409 166.391 165.409 164.26C165.409 128.031 165.409 91.8018 165.409 55.5727C165.409 47.0482 170.9 40.163 178.769 38.6876C187.048 37.1303 194.589 41.3926 197.785 49.2614C198.031 49.9171 198.277 50.4907 198.605 51.1464C198.687 90.1624 198.687 129.096 198.687 168.031ZM187.294 121.228C187.294 108.769 187.294 96.3101 187.294 83.8512C187.294 77.1299 187.949 77.7037 181.228 77.7037C177.13 77.7037 177.048 77.7035 177.048 81.8838C177.048 107.621 177.13 133.359 176.966 159.014C176.884 163.44 178.769 166.555 181.064 169.752C181.638 170.571 182.376 171.145 183.113 170.08C184.999 167.129 187.458 164.588 187.458 160.489C187.13 147.375 187.294 134.342 187.294 121.228ZM177.13 59.4251C177.048 60.8185 177.13 62.212 177.048 63.5234C176.966 65.4087 177.868 66.1463 179.671 66.0644C181.474 65.9824 183.277 66.0644 185.081 66.0644C186.474 66.0644 187.212 65.4907 187.212 64.0973C187.212 60.9006 187.294 57.7039 187.13 54.5891C186.966 51.9662 184.589 49.9991 182.048 50.0811C179.589 50.1631 177.376 52.0481 177.212 54.5071C177.048 56.1464 177.13 57.7858 177.13 59.4251Z" fill="white"/>
<path d="M41.6392 149.097C37.295 149.097 32.8689 149.097 28.5246 149.097C24.5083 149.097 22.2952 147.047 22.0493 142.949C21.8854 138.687 21.9673 134.343 21.9673 130.08C21.9673 125.818 21.8854 121.474 21.9673 117.212C22.0493 112.294 24.2624 110.081 29.0984 110.081C37.459 110.081 45.7376 110.081 54.0981 110.081C58.8522 110.081 61.1472 112.294 61.2292 116.966C61.3112 125.408 61.3112 133.851 61.2292 142.211C61.1472 147.047 59.0161 149.097 54.1801 149.097C54.0162 149.097 53.8522 149.097 53.6883 149.097C49.7539 149.097 45.6556 149.097 41.6392 149.097ZM33.5246 129.507C33.5246 131.392 33.5246 133.277 33.5246 135.162C33.5246 136.638 34.0983 137.457 35.6557 137.457C39.5901 137.457 43.5245 137.457 47.5408 137.457C49.0162 137.457 49.7539 136.802 49.7539 135.244C49.7539 131.474 49.7539 127.703 49.7539 123.933C49.7539 122.457 49.1801 121.638 47.6228 121.638C43.6884 121.638 39.754 121.638 35.7377 121.638C34.2623 121.638 33.5246 122.294 33.5246 123.769C33.6066 125.736 33.5246 127.621 33.5246 129.507Z" fill="white"/>
<path d="M66.5577 49.6715C66.6397 51.5567 65.7381 52.9502 64.5086 54.2616C56.5578 62.2943 48.6071 70.245 40.6564 78.2777C39.263 79.6711 38.3613 79.5073 37.0499 78.1959C32.8696 73.8517 28.5254 69.6714 24.3451 65.4092C21.4763 62.5403 21.3943 59.1797 23.8533 56.7208C26.3123 54.2618 29.5909 54.4255 32.5417 57.2943C34.0991 58.7697 35.6564 60.2451 37.0499 61.8844C38.3613 63.3598 39.263 63.2778 40.5744 61.8844C45.6563 56.7205 50.7382 51.6387 55.9021 46.5568C57.5414 44.9174 59.3447 43.688 61.8857 44.0979C64.6725 44.5077 66.5577 46.9666 66.5577 49.6715Z" fill="white"/>
<path d="M105.164 66.0649C112.213 66.0649 119.262 66.0649 126.311 66.0649C130.246 66.0649 132.623 68.1141 132.705 71.5567C132.787 74.9993 130.574 77.2942 126.639 77.5401C123.607 77.704 120.656 77.6221 117.623 77.6221C107.049 77.6221 96.4757 77.6221 85.902 77.6221C84.6725 77.6221 83.443 77.6222 82.2955 77.3763C79.0988 76.8025 76.9677 74.1796 77.2136 71.2288C77.4595 68.196 79.9185 66.0648 83.1972 65.9828C90.4922 66.0648 97.8691 66.0649 105.164 66.0649Z" fill="white"/>
<path d="M105.245 115.654C112.294 115.654 119.343 115.654 126.392 115.654C130.244 115.654 132.539 117.703 132.703 120.982C132.867 124.425 130.736 126.884 126.802 127.13C122.703 127.375 118.523 127.211 114.425 127.211C104.835 127.211 95.3266 127.211 85.7365 127.211C84.4251 127.211 83.1136 127.13 81.8841 126.884C78.8514 126.228 76.8842 123.605 77.1301 120.736C77.4579 117.867 79.753 115.654 82.9497 115.572C90.4086 115.654 97.8675 115.654 105.245 115.654Z" fill="white"/>
<path d="M105.163 43.8518C112.048 43.8518 118.933 43.8518 125.819 43.8518C130.163 43.8518 132.786 46.1467 132.704 49.8352C132.622 53.3598 130.081 55.4909 125.819 55.4909C111.966 55.4909 98.114 55.4909 84.2617 55.4909C83.9338 55.4909 83.606 55.4909 83.1961 55.4909C79.5896 55.245 77.1306 52.8681 77.1306 49.6714C77.1306 46.4747 79.5896 43.9339 83.1961 43.9339C90.5731 43.8519 97.8681 43.9338 105.163 43.8518Z" fill="white"/>
<path d="M104.835 149.096C97.8681 149.096 90.901 149.096 83.9338 149.096C79.9175 149.096 77.2945 146.883 77.2126 143.604C77.1306 140.162 79.7535 137.621 83.8518 137.621C91.8845 137.539 99.8353 137.539 107.868 137.539C113.852 137.539 119.917 137.457 125.901 137.539C130.081 137.621 132.54 139.67 132.704 143.113C132.868 146.637 130.491 149.096 126.802 149.096C119.507 149.096 112.212 149.096 104.835 149.096Z" fill="white"/>
</svg>
