<svg width="38" height="61" viewBox="0 0 38 61" fill="none" xmlns="http://www.w3.org/2000/svg">
<path d="M14.0725 30.335C16.5632 32.8257 18.9917 35.2541 21.4824 37.6825C26.277 42.4772 31.0716 47.2718 35.804 52.0664C37.7965 54.059 37.7343 57.11 35.804 59.0403C33.9359 60.9084 30.8848 60.9083 28.8922 58.978C24.8448 54.9929 20.8597 51.0078 16.8746 46.9604C11.6441 41.7299 6.41358 36.4995 1.24535 31.269C0.934014 30.9576 0.560409 30.6461 -1.32383e-06 30.148C1.80576 28.4045 3.48699 26.8479 5.10596 25.229C12.8894 17.4455 20.6729 9.66197 28.5186 1.81623C29.4527 0.882216 30.5112 0.0726801 31.8811 0.0104127C34.185 -0.114122 35.9285 0.882239 36.8625 2.81254C37.7343 4.68057 37.4229 6.73531 35.8662 8.35427C33.8737 10.4091 31.8188 12.464 29.764 14.4566C25.9034 18.3172 22.1051 22.1156 18.2445 25.9762C16.8123 27.4706 15.5047 28.8406 14.0725 30.335Z" fill="white"/>
</svg>
