<svg width="352" height="375" viewBox="0 0 352 375" fill="none" xmlns="http://www.w3.org/2000/svg">
<path d="M46.9781 255.143C36.265 255.022 26.176 244.482 26.1587 233.388C26.1414 221.79 36.7331 211.164 48.0528 211.441C58.5578 211.684 68.5082 222.64 68.3001 233.752C68.0921 245.886 58.7312 255.282 46.9781 255.143Z" fill="#8BA0A6"/>
<path d="M67.2945 149.07C67.3638 161.274 58.0722 171.016 46.4751 170.895C35.2593 170.791 24.8583 160.996 25.3091 149.659C25.7771 138.288 32.8498 127.713 46.7351 127.54C58.0896 127.401 67.2251 137.178 67.2945 149.07Z" fill="#8BA0A6"/>
<path d="M91.5639 257.397C102.78 257.397 112.435 267.624 112.366 279.429C112.297 291.027 102.121 301.341 90.9745 301.098C80.3308 300.855 70.4325 290.142 70.5538 278.996C70.7099 266.723 79.7761 257.397 91.5639 257.397Z" fill="#8BA0A6"/>
<path d="M137.657 303.178C149.237 303.282 158.529 312.765 158.511 324.431C158.494 336.878 149.497 346.256 137.657 346.186C126.008 346.117 116.578 336.184 116.838 324.258C117.098 312.106 126.008 303.074 137.657 303.178Z" fill="#8BA0A6"/>
<path d="M115.157 101C115.018 112.268 104.964 122.339 93.9385 122.27C82.6708 122.218 72.7725 111.713 72.9805 100.064C73.1885 89.0388 83.4162 78.9325 94.4239 78.9325C105.9 78.9152 115.313 88.9348 115.157 101Z" fill="#8BA0A6"/>
<path d="M303.172 255.091C292.008 255.022 281.815 244.603 281.815 233.284C281.815 222.033 292.39 211.251 303.189 211.494C314.163 211.736 324.078 222.467 323.957 233.942C323.818 244.534 313.382 255.16 303.172 255.091Z" fill="#8BA0A6"/>
<path d="M217.294 77.8752C206.287 77.8752 195.574 67.1449 196.336 55.8598C197.099 44.5573 204.362 35.2831 217.086 35.1271C228.926 34.9711 238.443 44.6787 238.339 56.6225C238.235 68.1503 228.597 77.8752 217.294 77.8752Z" fill="#8BA0A6"/>
<path d="M327.562 151.601C327.58 163.597 318.513 173.443 307.436 173.478C296.446 173.513 286.444 163.077 286.34 151.428C286.236 140.784 296.411 130.019 306.691 129.863C318.201 129.707 327.545 139.449 327.562 151.601Z" fill="#8BA0A6"/>
<path d="M280.775 284.37C280.689 296.279 271.536 305.796 260.129 305.831C249.018 305.865 239.518 295.932 239.466 284.249C239.414 272.547 249.26 262.389 260.597 262.441C271.622 262.476 280.862 272.53 280.775 284.37Z" fill="#8BA0A6"/>
<path d="M240.957 101.85C240.974 89.8018 250.439 79.6955 261.655 79.7302C272.663 79.7649 282.162 89.8018 282.214 101.451C282.266 112.805 272.507 123.189 261.707 123.293C250.716 123.414 240.939 113.291 240.957 101.85Z" fill="#8BA0A6"/>
<path d="M117.167 56.9865C117.254 44.6267 125.766 36.0978 137.848 36.2192C149.532 36.3405 158.407 45.5454 158.442 57.5759C158.477 69.069 148.786 79.0713 137.709 79.002C126.095 78.9327 117.081 69.277 117.167 56.9865Z" fill="#8BA0A6"/>
<path d="M218.855 303.404C230.642 303.369 239.483 312.366 239.622 324.466C239.743 336.6 230.486 346.256 218.803 346.186C207.431 346.117 198.243 336.479 198.278 324.674C198.313 312.591 207.171 303.438 218.855 303.404Z" fill="#8BA0A6"/>
<path d="M110.545 374.494C103.386 374.425 96.7466 367.456 96.816 360.089C96.9026 351.924 103.057 345.528 110.892 345.424C117.895 345.337 125.384 353.051 125.159 360.176C124.933 367.977 118.207 374.564 110.545 374.494Z" fill="#8BA0A6"/>
<path d="M6.69154 268.578C6.77821 260.968 13.2268 254.12 20.3515 254.051C27.6669 253.982 35.017 261.297 34.8783 268.508C34.7569 276.014 27.3029 283.486 19.9702 283.434C13.0535 283.399 6.60486 276.188 6.69154 268.578Z" fill="#8BA0A6"/>
<path d="M13.92 134.335C6.84733 134.197 0 126.985 0 119.687C0 111.8 6.67398 104.918 14.2147 104.987C21.7381 105.074 28.4294 112.303 28.1347 120.034C27.8747 127.176 20.6113 134.491 13.92 134.335Z" fill="#8BA0A6"/>
<path d="M192.419 360.107C192.523 367.561 185.936 374.391 178.551 374.477C171.27 374.564 164.44 367.873 164.267 360.471C164.076 352.739 170.889 345.268 178.083 345.302C185.364 345.337 192.298 352.514 192.419 360.107Z" fill="#8BA0A6"/>
<path d="M61.5568 85.0519C54.3281 85.0345 47.8448 78.3259 47.7928 70.8025C47.7408 63.2618 54.2588 56.4491 61.5221 56.4491C69.3229 56.4491 76.0142 63.0884 75.9795 70.8025C75.9275 78.5339 69.3229 85.0692 61.5568 85.0519Z" fill="#8BA0A6"/>
<path d="M351.329 119.774C351.294 127.02 344.378 134.023 337.218 134.093C330.77 134.145 323.212 126.708 323.142 120.207C323.056 112.597 329.99 105.056 337.114 105.022C344.551 104.987 351.381 112.077 351.329 119.774Z" fill="#8BA0A6"/>
<path d="M308.667 311.551C308.459 318.918 301.421 326.06 294.557 325.87C286.964 325.662 280.429 318.485 280.793 310.754C281.139 303.542 287.865 296.574 294.435 296.643C301.629 296.73 308.875 304.305 308.667 311.551Z" fill="#8BA0A6"/>
<path d="M118.727 27.6904C118.71 35.5605 112.47 42.3558 105.293 42.3211C98.0295 42.2864 91.2342 35.3698 91.2342 28.0024C91.2168 20.219 98.0295 12.9383 105.276 12.9556C112.227 12.9903 118.745 20.115 118.727 27.6904Z" fill="#8BA0A6"/>
<path d="M14.0414 175.801C21.4781 175.905 28.2388 182.631 28.1521 189.842C28.0654 197.747 21.3221 204.507 13.7467 204.299C6.2753 204.091 -0.0866529 197.348 0.104032 189.807C0.294717 182.041 6.58733 175.697 14.0414 175.801Z" fill="#8BA0A6"/>
<path d="M64.7982 328.505C56.8415 328.505 50.9995 322.576 51.0169 314.515C51.0516 305.778 56.5988 299.937 64.8502 299.954C72.0616 299.971 78.5969 306.853 78.5449 314.342C78.4755 322.42 72.5643 328.505 64.7982 328.505Z" fill="#8BA0A6"/>
<path d="M337.166 275.044C330.284 275.061 322.969 267.538 323.125 260.621C323.298 253.392 330.301 246.181 337.183 246.146C344.221 246.111 351.26 253.184 351.329 260.344C351.416 268.075 344.724 275.026 337.166 275.044Z" fill="#8BA0A6"/>
<path d="M253.49 337.71C261.464 337.675 267.115 343.552 267.029 351.803C266.942 360.436 261.152 366.382 253.022 366.208C245.932 366.052 239.605 359.465 239.518 352.167C239.449 343.656 245.152 337.744 253.49 337.71Z" fill="#8BA0A6"/>
<path d="M233.711 24.1887C233.659 16.804 240.402 9.41931 247.163 9.45398C254.322 9.48865 261.013 16.3186 261.169 23.7727C261.343 31.5908 254.651 38.8195 247.353 38.6981C240.194 38.5595 233.763 31.7295 233.711 24.1887Z" fill="#8BA0A6"/>
<path d="M307.385 69.7277C307.367 77.1644 300.849 84.2891 293.881 84.4451C287.155 84.6012 279.735 77.1991 279.649 70.2478C279.545 62.4297 286.132 55.4263 293.621 55.3743C300.849 55.3223 307.402 62.1523 307.385 69.7277Z" fill="#8BA0A6"/>
<path d="M177.337 28.349C169.328 28.2277 163.781 22.2991 163.954 14.0823C164.128 5.64016 169.831 -0.219073 177.632 0.00628228C185.068 0.214302 191.361 6.83628 191.378 14.4984C191.413 21.9351 184.791 28.453 177.337 28.349Z" fill="#8BA0A6"/>
</svg>
