<svg width="38" height="61" viewBox="0 0 38 61" fill="none" xmlns="http://www.w3.org/2000/svg">
<path d="M23.2688 30.0987C20.7781 27.608 18.3496 25.1796 15.8589 22.7511C11.0643 17.9565 6.26968 13.1619 1.53733 8.36727C-0.455239 6.3747 -0.392971 3.32361 1.53733 1.39331C3.40537 -0.474728 6.45649 -0.474667 8.44906 1.45563C12.4965 5.44077 16.4816 9.42587 20.4667 13.4733C25.6972 18.7038 30.9277 23.9342 36.096 29.1647C36.4073 29.476 36.7809 29.7875 37.3413 30.2857C35.5355 32.0292 33.8543 33.5857 32.2354 35.2047C24.4519 42.9881 16.6684 50.7717 8.82266 58.6174C7.88864 59.5514 6.8301 60.361 5.4602 60.4232C3.1563 60.5478 1.41279 59.5514 0.478773 57.6211C-0.392973 55.7531 -0.0816369 53.6983 1.47506 52.0794C3.46763 50.0245 5.52247 47.9696 7.57731 45.9771C11.4379 42.1165 15.2362 38.3181 19.0968 34.4575C20.529 32.9631 21.8366 31.5931 23.2688 30.0987Z" fill="white"/>
</svg>
