<svg width="196" height="150" viewBox="0 0 196 150" fill="none" xmlns="http://www.w3.org/2000/svg">
<path d="M97.8259 149.667C68.13 149.667 38.434 149.667 8.73811 149.667C1.63839 149.667 0 148.097 0 141.065C0 100.72 0 60.3744 0 20.0289C0 13.2022 1.6384 11.6321 8.53331 11.5638C12.2197 11.5638 15.9744 11.4956 19.6608 11.5638C21.777 11.5638 22.8693 10.9494 23.0058 8.49183C23.4837 0.914246 24.6442 -0.382818 32.1535 0.0950477C54.8863 1.52864 76.7998 5.82943 95.8462 19.4827C97.2798 20.5067 98.2355 20.5067 99.6691 19.4827C116.326 7.46783 135.509 2.89398 155.511 0.709447C158.993 0.299848 162.406 -0.109752 165.888 0.0267812C170.393 0.163314 172.373 2.14304 172.578 6.64863C172.783 11.4956 172.783 11.4956 177.698 11.4956C181.316 11.4956 184.866 11.4273 188.484 11.4956C193.467 11.5638 195.515 13.5435 195.515 18.4587C195.584 23.8518 195.515 29.2449 195.515 34.6379C195.515 69.9317 195.515 105.294 195.515 140.588C195.515 148.097 194.082 149.53 186.436 149.53C156.945 149.667 127.385 149.667 97.8259 149.667ZM34.6111 63.3781C34.6111 78.8063 34.6111 94.2346 34.6111 109.663C34.6111 114.988 34.7476 115.192 39.8676 115.602C56.9343 116.831 72.9086 121.882 88.132 129.597C91.8867 131.508 91.955 131.44 91.955 127.139C91.955 96.4874 91.955 65.8357 92.0232 35.2523C92.0232 32.4534 91.204 30.6102 88.883 28.9035C73.7278 17.8443 56.2516 14.0214 38.0244 12.3148C34.9524 12.0417 34.6111 13.8849 34.6111 16.3425C34.6794 32.0438 34.6111 47.7451 34.6111 63.3781ZM160.972 63.5829C160.972 47.6768 160.904 31.7707 161.041 15.7963C161.041 13.0657 160.426 11.7686 157.423 12.2465C153.19 12.9292 148.821 13.134 144.588 13.8849C130.73 16.479 117.418 20.5067 106.018 29.3814C104.243 30.815 103.56 32.3851 103.56 34.5696C103.629 42.6934 103.56 50.8171 103.56 59.009C103.56 81.8783 103.56 104.748 103.56 127.617C103.56 129.665 103.287 131.781 106.564 130.006C122.06 121.678 138.649 116.831 156.125 115.397C159.948 115.056 161.109 113.691 161.041 109.868C160.836 94.5076 160.972 79.0794 160.972 63.5829ZM117.965 137.993C118.92 137.993 119.876 137.993 120.832 137.993C140.219 137.993 159.607 137.993 178.995 137.993C183.978 137.993 183.978 137.993 183.978 133.01C183.978 98.0575 183.978 63.105 183.978 28.2208C183.978 27.4699 183.91 26.7873 183.978 26.0363C184.046 24.1249 183.227 23.1009 181.248 23.1691C180.019 23.1691 178.858 23.1691 177.629 23.1691C172.646 23.1691 172.646 23.1691 172.646 28.1526C172.646 57.4389 172.646 86.7935 172.646 116.08C172.646 117.65 172.714 119.22 172.578 120.722C172.305 124.272 170.393 126.252 166.98 126.525C163.293 126.866 159.607 126.934 155.921 127.276C142.609 128.573 129.979 131.918 117.965 137.993ZM77.5507 137.993C77.619 137.789 77.6873 137.584 77.7555 137.379C76.595 136.833 75.4345 136.218 74.2739 135.741C60.6206 130.279 46.3529 127.412 31.6757 126.729C24.5077 126.388 23.0741 125.091 23.0741 117.991C23.0741 88.705 23.0741 59.3504 23.0741 30.064C23.0741 23.1691 23.0741 23.3739 16.3157 23.1691C12.6293 22.9643 11.537 24.1249 11.537 27.8113C11.6736 48.7691 11.6053 69.6586 11.6053 90.6164C11.6053 105.089 11.6053 119.561 11.6053 134.034C11.6053 136.287 11.7418 138.062 14.7456 137.993C35.7034 137.993 56.5929 137.993 77.5507 137.993Z" fill="white"/>
</svg>
