<svg width="61" height="38" viewBox="0 0 61 38" fill="none" xmlns="http://www.w3.org/2000/svg">
<path d="M30.0987 14.0725C27.608 16.5632 25.1796 18.9917 22.7511 21.4824C17.9565 26.277 13.1619 31.0716 8.36727 35.804C6.3747 37.7965 3.32361 37.7343 1.39331 35.804C-0.474726 33.9359 -0.474665 30.8848 1.45564 28.8923C5.44077 24.8448 9.42587 20.8597 13.4733 16.8746C18.7038 11.6441 23.9342 6.41358 29.1647 1.24535C29.476 0.934016 29.7875 0.56041 30.2857 0C32.0292 1.80577 33.5857 3.48699 35.2047 5.10596C42.9881 12.8894 50.7717 20.6729 58.6174 28.5186C59.5514 29.4527 60.361 30.5112 60.4232 31.8811C60.5478 34.185 59.5514 35.9285 57.6211 36.8625C55.7531 37.7343 53.6983 37.4229 52.0794 35.8662C50.0245 33.8737 47.9696 31.8188 45.9771 29.764C42.1165 25.9034 38.3181 22.1051 34.4575 18.2445C32.9631 16.8123 31.5931 15.5047 30.0987 14.0725Z" fill="white"/>
</svg>
