<svg width="79" height="62" viewBox="0 0 79 62" fill="none" xmlns="http://www.w3.org/2000/svg">
<path d="M1.38 61.85C0.940001 61.85 0.660001 61.78 0.610001 61.74C0.430001 61.56 0.240001 60.64 0.360001 60.4L4.53 51.78L4.17 51.54C2.13 50.15 1.2 49.31 0 47.26L11.28 26.75C14.05 23.81 17.62 21.53 21.07 19.32C24.01 17.43 27.05 15.48 29.66 13.11L36.06 13.84L48.52 0C51.48 2.41 53.4 4.13 56.06 6.64L48.17 15.84L60.51 24.22L62.86 24.34C63.59 24.34 63.62 23.54 63.65 22.53C63.7 21.1 63.81 19.7 64.59 19.7L78.67 19.84L78.69 60.3L65.07 60.46C64.28 60.46 63.69 59.6 63.65 58.41L63.63 57.93L44.35 57.91C41.22 57.91 38.47 57.44 35.68 56.45L35.34 56.33L35.12 56.62C33.74 58.39 31.71 59.4 29.55 59.4C27.54 59.4 25.66 58.54 24.27 56.96L23.94 56.59L23.57 56.91C22.6 57.75 21.06 58.75 19.18 58.75C18.92 58.75 18.65 58.73 18.39 58.69C16.43 58.38 14.95 57.17 13.74 54.87L13.49 54.38L2.05 61.79C2.05 61.79 1.78 61.88 1.4 61.88L1.38 61.85ZM65.93 22.05V58.04H76.35V22.05H65.93ZM28.03 52.89C27.31 52.89 26.5 53 25.55 53.21L24.98 53.34L25.2 53.88C25.63 54.96 27.02 56.47 28.16 56.81C28.55 56.93 28.97 56.98 29.41 56.98C30.56 56.98 31.79 56.55 32.61 55.86L32.99 55.54L32.67 55.16C31.34 53.58 29.91 52.88 28.04 52.88L28.03 52.89ZM9.11 51.8C8.63 51.8 7.75 51.87 7.18 52.31C6.38 52.94 5.8 54.63 5.53 55.59L5.16 56.88L11.84 52.51L10.97 52.14C10.44 51.92 9.78 51.79 9.11 51.79V51.8ZM15.75 53L15.91 53.62C16.29 55.08 17.79 56.36 19.12 56.36C20.87 56.31 21.98 55.46 22.67 53.68L22.94 53H15.75ZM31.01 50.63C34.6 53.85 38.49 55.48 42.56 55.49L63.67 55.51V26.84L59.96 26.64L46.52 17.58L37.45 27.76L37.47 34.56C37.25 38.53 34.19 41.45 30.21 41.46L13.85 41.5C12.76 41.5 11.72 41.96 10.93 42.79C10.07 43.7 9.56 44.98 9.61 46.15C9.73 48.73 11.67 50.61 14.23 50.61L31 50.64L31.01 50.63ZM31.63 15.71C30.73 15.71 29.84 16.03 28.91 16.68L12.84 28.01L2.88 47.48L3.11 47.73C4.14 48.88 5.63 49.65 6.82 49.65C6.99 49.65 7.16 49.63 7.32 49.6L7.86 49.49L7.7 48.97C6.97 46.5 7.16 44.25 8.25 42.46C9.33 40.69 11.22 39.47 13.59 39.03L13.76 39L33.89 16.32L33.25 16.05C32.72 15.82 32.17 15.71 31.64 15.71H31.63ZM27.68 38.75L28.5 38.94C29.04 39.07 29.58 39.13 30.1 39.13C31.82 39.13 33.24 38.45 34.2 37.17C35.14 35.92 35.25 33.62 34.95 31.9L34.77 30.89L27.69 38.75H27.68ZM17.11 38.78L18.08 38.88C19.23 39 20.4 39.05 21.67 39.05C22.45 39.05 23.26 39.03 24.13 38.99H24.34L49.46 10.66L45.21 7.1L17.11 38.77V38.78ZM46.78 5.43L51.06 9.05L52.99 6.76L48.71 3.14L46.78 5.43Z" fill="white"/>
</svg>
