<svg width="150" height="150" viewBox="0 0 150 150" fill="none" xmlns="http://www.w3.org/2000/svg">
<path d="M126.75 102.43L91.1798 102.41C86.2998 102.41 82.4298 104.4 77.7898 106.73C88.5498 92.2701 109.3 94.92 125.32 100.28C126 100.51 127.6 100.08 127.73 99.4401C127.85 98.9101 127.58 97.8601 127.3 97.0801C121.45 95.2601 116.08 93.9501 110.11 92.9101C104.35 92.3701 99.0198 92.6201 92.8898 93.2201C101.15 88.2501 110.6 86.8801 120.08 88.8301C121.11 89.0401 122.58 88.31 122.66 87.34C122.71 86.69 121.89 85.7901 121.12 85.3601C102.53 81.5501 86.0498 89.8401 74.9898 104.44C63.7498 89.5701 47.1998 81.62 28.8698 85.35C28.1298 85.82 27.3698 86.6701 27.3098 87.3001C27.2598 87.9301 28.7098 89.0401 29.3598 88.9101C39.0498 86.8901 48.6798 88.0001 57.1498 93.1801C44.3998 91.6001 34.7898 93.2301 23.0598 96.9301C22.4998 97.5101 21.9798 98.8401 22.2398 99.4401C22.4998 100.04 23.9898 100.52 24.6798 100.29C34.1398 97.1101 43.6898 95.1001 53.5598 96.4301C60.9198 97.4301 67.9198 100.42 72.1998 106.76C67.2998 104.05 63.1198 102.39 57.8698 102.4L23.0298 102.43C20.2498 102.73 18.3398 104.94 18.3998 107.49C18.4698 109.93 20.3298 112.28 23.3398 112.28H126.1C129.35 112.29 131.48 110.42 131.59 107.45C131.67 105.21 129.79 102.43 126.75 102.43ZM23.3098 108.78L21.8698 107.48C21.5298 107.17 22.7898 106.07 23.2398 105.94H58.4798C61.5998 106.18 64.4498 106.37 67.5098 108.71L23.3098 108.78ZM127.12 108.78L82.3298 108.72C85.2198 106.68 88.2998 105.95 91.5098 105.95L126.45 105.93C126.92 105.93 128.29 106.66 128.12 106.97L127.12 108.78Z" fill="white"/>
<path d="M97.92 40.6999C97.92 40.6999 97.85 40.6299 97.78 40.5999C97.72 40.5799 97.63 40.5499 97.52 40.5399C97.4 40.5299 97.26 40.5199 97.09 40.5199C96.74 40.5199 96.49 40.5499 96.33 40.5999C96.17 40.6499 96.08 40.7299 96.06 40.8499L95.92 41.5299C95.65 41.1499 95.33 40.8699 94.96 40.6699C94.6 40.4699 94.18 40.3699 93.71 40.3699C93.2 40.3699 92.74 40.4599 92.34 40.6399C91.94 40.8199 91.58 41.0599 91.27 41.3699C90.96 41.6699 90.69 42.0199 90.47 42.4099C90.25 42.7999 90.07 43.1999 89.92 43.6299C89.78 44.0499 89.68 44.4699 89.61 44.8999C89.54 45.3199 89.5 45.7099 89.5 46.0699C89.5 46.4599 89.54 46.8199 89.62 47.1699C89.7 47.5199 89.83 47.8299 90.01 48.0999C90.19 48.3699 90.43 48.5799 90.74 48.7399C91.04 48.8999 91.42 48.9799 91.88 48.9799C92.21 48.9799 92.53 48.9299 92.84 48.8199C93.15 48.7099 93.43 48.5799 93.69 48.4099C93.95 48.2399 94.17 48.0599 94.36 47.8599C94.55 47.6599 94.68 47.4599 94.77 47.2799L94.53 48.4999C94.52 48.5699 94.52 48.6199 94.54 48.6599C94.56 48.7099 94.6 48.7399 94.67 48.7599C94.74 48.7899 94.83 48.8099 94.94 48.8199C95.05 48.8299 95.2 48.8399 95.38 48.8399C95.72 48.8399 95.98 48.8099 96.13 48.7599C96.29 48.7099 96.38 48.6199 96.4 48.4999L97.93 40.8499C97.93 40.8499 97.93 40.7499 97.92 40.6999ZM95.1 44.2999C95.02 44.6999 94.89 45.0599 94.72 45.4099C94.55 45.7599 94.35 46.0599 94.12 46.3199C93.89 46.5799 93.64 46.7799 93.38 46.9299C93.12 47.0899 92.86 47.1599 92.61 47.1599C92.43 47.1599 92.29 47.1299 92.17 47.0499C92.06 46.9799 91.97 46.8899 91.9 46.7699C91.83 46.6499 91.79 46.5099 91.76 46.3599C91.73 46.1999 91.72 46.0399 91.72 45.8699C91.72 45.6299 91.74 45.3799 91.78 45.0999C91.81 44.8299 91.87 44.5499 91.95 44.2799C92.02 44.0099 92.12 43.7499 92.24 43.4999C92.36 43.2499 92.49 43.0299 92.64 42.8299C92.8 42.6399 92.98 42.4899 93.18 42.3799C93.38 42.2599 93.6 42.2099 93.84 42.2099C94.15 42.2099 94.43 42.2799 94.68 42.4399C94.92 42.5999 95.14 42.8299 95.34 43.1499L95.1 44.2999Z" fill="white"/>
<path d="M62.8097 45.9699C62.6897 45.7099 62.5197 45.4799 62.2797 45.2699C62.0397 45.0699 61.7297 44.9099 61.3597 44.7899C60.9797 44.6599 60.5397 44.5999 60.0197 44.5999C59.4197 44.5999 58.8897 44.6899 58.4197 44.8699C57.9497 45.0399 57.5397 45.2799 57.1797 45.5699C56.8197 45.8699 56.5197 46.2099 56.2697 46.5899C56.0197 46.9799 55.8097 47.3899 55.6497 47.8099C55.4897 48.2399 55.3797 48.6699 55.3097 49.1099C55.2297 49.5399 55.1997 49.9499 55.1997 50.3399C55.1997 50.8299 55.2697 51.2599 55.3997 51.6199C55.5397 51.9899 55.7497 52.2799 56.0197 52.5199C56.2997 52.7499 56.6397 52.9199 57.0397 53.0399C57.4497 53.1499 57.9297 53.2099 58.4797 53.2099C58.8097 53.2099 59.1297 53.1899 59.4497 53.1599C59.7697 53.1199 60.0597 53.0699 60.3197 53.0099C60.5697 52.9599 60.7897 52.8899 60.9797 52.8299C61.1597 52.7599 61.2797 52.6899 61.3497 52.6199C61.4197 52.5599 61.4697 52.4799 61.5197 52.3699C61.5697 52.2599 61.6097 52.1499 61.6397 52.0299C61.6697 51.8999 61.6897 51.7799 61.7097 51.6499C61.7297 51.5299 61.7397 51.4199 61.7397 51.3199C61.7397 51.2299 61.7197 51.1699 61.6897 51.1299C61.6697 51.0899 61.6197 51.0699 61.5497 51.0699C61.4797 51.0699 61.3697 51.0999 61.2197 51.1499C61.0797 51.2099 60.8897 51.2699 60.6597 51.3299C60.4397 51.3999 60.1797 51.4599 59.8797 51.5099C59.5797 51.5699 59.2397 51.5899 58.8597 51.5899C58.3297 51.5899 57.9497 51.4799 57.7097 51.2399C57.4697 51.0099 57.3497 50.6599 57.3497 50.1999C57.3497 50.0899 57.3497 49.9699 57.3597 49.8399C57.3797 49.7099 57.3897 49.5899 57.4197 49.4499H58.1997C59.0397 49.4499 59.7497 49.3899 60.3597 49.2699C60.9597 49.1399 61.4497 48.9599 61.8397 48.7199C62.2397 48.4899 62.5197 48.1999 62.7097 47.8799C62.8897 47.5499 62.9897 47.1799 62.9897 46.7699C62.9897 46.4899 62.9297 46.2299 62.8097 45.9699ZM60.7497 47.3799C60.6597 47.5199 60.5197 47.6399 60.3297 47.7399C60.1497 47.8399 59.8997 47.9299 59.5897 47.9899C59.2797 48.0499 58.8997 48.0799 58.4397 48.0799H57.7197C57.7997 47.8099 57.8997 47.5499 58.0197 47.3199C58.1397 47.0799 58.2897 46.8799 58.4597 46.6999C58.6297 46.5299 58.8297 46.3899 59.0497 46.2899C59.2797 46.1799 59.5397 46.1299 59.8197 46.1299C60.1597 46.1299 60.4197 46.2099 60.5997 46.3599C60.7797 46.5099 60.8697 46.6999 60.8697 46.9299C60.8697 47.0899 60.8297 47.2399 60.7497 47.3799Z" fill="white"/>
<path d="M80.6999 38.3799C80.6999 38.3799 80.6999 38.4799 80.6799 38.5699C80.6799 38.6599 80.6599 38.7599 80.6399 38.8699C80.6199 38.9799 80.5999 39.0999 80.5799 39.2199C80.5599 39.3399 80.5199 39.4499 80.4899 39.5499C80.4499 39.6499 80.4099 39.7299 80.3699 39.7999C80.3199 39.8599 80.2699 39.8899 80.2199 39.8899C80.1799 39.8899 80.1299 39.8899 80.0699 39.8599C80.0099 39.8399 79.9399 39.8199 79.8599 39.7999C79.7799 39.7799 79.6899 39.7599 79.5899 39.7399C79.4899 39.7199 79.3799 39.7099 79.2599 39.7099C79.0499 39.7099 78.8699 39.7399 78.7099 39.7999C78.5499 39.8599 78.4199 39.9499 78.3099 40.0799C78.1999 40.2099 78.0999 40.3699 78.0199 40.5799C77.9399 40.7899 77.8699 41.0299 77.8199 41.3099L77.6699 42.0599H79.2799C79.3799 42.0599 79.4499 42.0899 79.4899 42.1499C79.5299 42.2099 79.5499 42.3099 79.5499 42.4499C79.5499 42.5199 79.5499 42.5999 79.5299 42.7099C79.5299 42.8199 79.4999 42.9299 79.4799 43.0499C79.4499 43.1699 79.4199 43.2899 79.3799 43.4099C79.3399 43.5299 79.2999 43.6399 79.2499 43.7399C79.1999 43.8399 79.1499 43.9199 79.0899 43.9799C79.0299 44.0399 78.9599 44.0699 78.8899 44.0699H77.2699L75.7099 51.8399C75.5999 52.3899 75.4399 52.8699 75.2499 53.2899C75.0499 53.7099 74.8099 54.0499 74.5099 54.3399C74.2099 54.6199 73.8599 54.8299 73.4499 54.9699C73.0399 55.1099 72.5799 55.1799 72.0699 55.1799C71.7299 55.1799 71.4399 55.1499 71.2099 55.0999C70.9799 55.0499 70.8299 54.9899 70.7599 54.9399C70.7299 54.8999 70.6999 54.8599 70.6899 54.8099C70.6799 54.7599 70.6699 54.6999 70.6699 54.6099C70.6699 54.5699 70.6699 54.4999 70.6799 54.4099C70.6799 54.3199 70.6999 54.2199 70.7199 54.1099C70.7399 53.9999 70.7599 53.8899 70.7999 53.7699C70.8299 53.6499 70.8599 53.5399 70.8999 53.4399C70.9399 53.3399 70.9799 53.2599 71.0199 53.1999C71.0599 53.1399 71.1199 53.1099 71.1799 53.1099C71.2199 53.1099 71.2599 53.1099 71.2999 53.1099C71.3399 53.1099 71.3799 53.1199 71.4299 53.1299C71.4799 53.1399 71.5299 53.1499 71.5899 53.1499C71.6499 53.1499 71.7299 53.1599 71.8299 53.1599C72.0399 53.1599 72.2199 53.1299 72.3799 53.0699C72.5399 53.0099 72.6699 52.9099 72.7799 52.7799C72.8899 52.6499 72.9899 52.4799 73.0699 52.2699C73.1499 52.0599 73.2199 51.8099 73.2799 51.5099L74.7799 44.0599H73.6699C73.5899 44.0599 73.5299 44.0299 73.4899 43.9799C73.4499 43.9199 73.4299 43.8199 73.4299 43.6599C73.4299 43.5899 73.4299 43.5099 73.4399 43.3999C73.4499 43.2899 73.4699 43.1799 73.4899 43.0599C73.5099 42.9399 73.5399 42.8199 73.5699 42.6999C73.5999 42.5799 73.6499 42.4699 73.6999 42.3699C73.7499 42.2699 73.8099 42.1899 73.8699 42.1299C73.9299 42.0699 74.0099 42.0399 74.0899 42.0399H75.1799L75.3699 41.0599C75.4799 40.5099 75.6299 40.0199 75.8299 39.5899C76.0399 39.1699 76.2899 38.8099 76.5899 38.5299C76.8899 38.2499 77.2399 38.0299 77.6499 37.8899C78.0599 37.7499 78.5199 37.6799 79.0299 37.6799C79.1999 37.6799 79.3699 37.6799 79.5499 37.6999C79.7299 37.7199 79.8799 37.7399 80.0199 37.7699C80.1599 37.7999 80.2799 37.8299 80.3899 37.8699C80.4999 37.9099 80.5699 37.9499 80.6099 37.9899C80.6499 38.0199 80.6799 38.0699 80.6899 38.1299C80.7099 38.1899 80.7199 38.2599 80.7199 38.3499L80.6999 38.3799Z" fill="white"/>
<path d="M52.0199 56.86C51.9799 56.79 51.8999 56.72 51.7699 56.67C51.6499 56.61 51.4699 56.57 51.2399 56.54C51.0199 56.52 50.7299 56.5 50.3699 56.5C50.0099 56.5 49.7199 56.52 49.4799 56.54C49.2499 56.57 49.0599 56.61 48.9099 56.67C48.7599 56.72 48.6499 56.79 48.5799 56.86C48.5199 56.94 48.4699 57.03 48.4499 57.12L47.0799 63.92C46.9199 63.7 46.7199 63.5 46.4899 63.31C46.2599 63.12 45.9999 62.95 45.7199 62.81C45.4399 62.67 45.1199 62.56 44.7799 62.48C44.4399 62.4 44.0799 62.36 43.7099 62.36C42.8599 62.36 42.0999 62.51 41.4199 62.81C40.7399 63.1 40.1399 63.5 39.6199 64C39.0999 64.5 38.6499 65.08 38.2699 65.73C37.8999 66.39 37.5899 67.07 37.3399 67.77C37.0999 68.48 36.9099 69.19 36.7999 69.91C36.6799 70.63 36.6299 71.3 36.6299 71.92C36.6299 72.3 36.6499 72.68 36.6999 73.07C36.7499 73.46 36.8299 73.83 36.9399 74.2C37.0599 74.57 37.2099 74.91 37.3999 75.24C37.5999 75.57 37.8399 75.85 38.1299 76.09C38.4299 76.33 38.7799 76.52 39.1899 76.66C39.5999 76.8 40.0699 76.87 40.6199 76.87C41.1699 76.87 41.7199 76.78 42.2399 76.6C42.7699 76.42 43.2499 76.19 43.6799 75.91C44.1099 75.63 44.4899 75.31 44.7999 74.97C45.1199 74.63 45.3499 74.31 45.4999 74L45.1099 76.06C45.0899 76.17 45.0999 76.26 45.1299 76.33C45.1599 76.4 45.2399 76.46 45.3499 76.5C45.4699 76.54 45.6199 76.57 45.8099 76.59C45.9899 76.61 46.2399 76.62 46.5399 76.62C47.1199 76.62 47.5499 76.58 47.8099 76.49C48.0799 76.41 48.2299 76.26 48.2699 76.06L52.0499 57.12C52.0599 57.03 52.0599 56.94 52.0199 56.86ZM46.0599 69.01C45.9199 69.67 45.7099 70.29 45.4199 70.88C45.1199 71.46 44.7799 71.96 44.3999 72.39C44.0199 72.82 43.5999 73.16 43.1599 73.41C42.7199 73.67 42.2799 73.8 41.8599 73.8C41.3399 73.8 40.9599 73.61 40.7199 73.24C40.4799 72.87 40.3599 72.32 40.3599 71.59C40.3599 71.18 40.3999 70.74 40.4599 70.28C40.5299 69.81 40.6299 69.35 40.7599 68.89C40.8899 68.43 41.0499 67.99 41.2499 67.57C41.4499 67.15 41.6799 66.79 41.9399 66.48C42.2099 66.16 42.4999 65.91 42.8399 65.73C43.1699 65.54 43.5299 65.44 43.9199 65.44C44.4599 65.44 44.9399 65.58 45.3499 65.85C45.7499 66.12 46.1299 66.52 46.4599 67.05L46.0599 69.01Z" fill="white"/>
<path d="M113.31 62.7C113.27 62.32 113.19 61.95 113.07 61.59C112.96 61.23 112.8 60.88 112.61 60.56C112.42 60.23 112.17 59.95 111.87 59.7C111.58 59.46 111.22 59.27 110.82 59.13C110.42 59 109.94 58.93 109.39 58.93C108.91 58.93 108.43 59 107.96 59.16C107.48 59.31 107.04 59.51 106.62 59.76C106.21 60.01 105.84 60.29 105.52 60.61C105.2 60.92 104.95 61.23 104.78 61.54C104.84 61.36 104.91 61.16 104.99 60.94C105.06 60.71 105.13 60.48 105.2 60.24C105.28 60 105.34 59.75 105.4 59.51C105.46 59.26 105.51 59.03 105.56 58.81L106.58 53.65C106.6 53.55 106.59 53.46 106.55 53.39C106.51 53.31 106.43 53.25 106.3 53.19C106.17 53.14 105.99 53.1 105.77 53.07C105.55 53.04 105.26 53.03 104.91 53.03C104.56 53.03 104.26 53.04 104.02 53.07C103.78 53.1 103.59 53.14 103.44 53.19C103.28 53.25 103.17 53.31 103.1 53.39C103.04 53.46 102.99 53.55 102.97 53.65L99.1797 72.61C99.1397 72.81 99.2297 72.95 99.4297 73.05C99.6397 73.14 100.03 73.19 100.61 73.19C101.19 73.19 101.62 73.15 101.88 73.05C102.15 72.96 102.3 72.82 102.34 72.61L102.56 71.52C103.01 72.16 103.54 72.64 104.16 72.96C104.78 73.28 105.5 73.44 106.31 73.44C107.12 73.44 107.9 73.29 108.58 72.99C109.26 72.69 109.86 72.29 110.39 71.79C110.92 71.29 111.37 70.71 111.74 70.06C112.12 69.41 112.43 68.72 112.67 68.01C112.91 67.3 113.09 66.58 113.2 65.86C113.32 65.14 113.37 64.46 113.37 63.83C113.37 63.46 113.35 63.09 113.31 62.7ZM109.54 65.56C109.47 66.03 109.37 66.5 109.23 66.95C109.1 67.41 108.93 67.84 108.74 68.26C108.54 68.67 108.31 69.03 108.04 69.34C107.78 69.65 107.48 69.9 107.16 70.08C106.83 70.27 106.47 70.36 106.09 70.36C105.55 70.36 105.08 70.24 104.67 69.98C104.26 69.73 103.89 69.33 103.55 68.81L103.96 66.86C104.08 66.2 104.29 65.57 104.59 64.98C104.89 64.4 105.23 63.88 105.61 63.44C106 63 106.41 62.65 106.85 62.39C107.28 62.14 107.72 62.01 108.15 62.01C108.47 62.01 108.72 62.08 108.92 62.21C109.11 62.35 109.26 62.52 109.37 62.73C109.48 62.95 109.55 63.18 109.59 63.44C109.62 63.7 109.64 63.95 109.64 64.19C109.64 64.63 109.6 65.09 109.54 65.56Z" fill="white"/>
<path d="M82.5299 65.44C82.5299 65.79 82.4699 66.2599 82.3499 66.8499C82.2299 67.4399 82.0799 67.9099 81.8999 68.2699C81.7199 68.6299 81.5199 68.8 81.2899 68.8C81.1299 68.8 80.9299 68.6999 80.7099 68.4899C80.4899 68.2799 80.1899 68.0599 79.8299 67.82C79.4699 67.58 79.0099 67.36 78.4399 67.15C77.8799 66.94 77.1799 66.8399 76.3399 66.8399C75.4199 66.8399 74.5699 67.0199 73.8099 67.3899C73.0499 67.7599 72.3699 68.2499 71.7699 68.8499C71.1699 69.4599 70.6499 70.15 70.1999 70.94C69.7499 71.73 69.3799 72.55 69.0799 73.4C68.7899 74.25 68.5699 75.1 68.4199 75.94C68.2799 76.78 68.2099 77.57 68.2099 78.29C68.2099 79.17 68.3199 79.9299 68.5399 80.5899C68.7599 81.2499 69.0699 81.7999 69.4899 82.2399C69.8999 82.6799 70.4099 83.01 71.0099 83.22C71.6099 83.43 72.2799 83.55 73.0299 83.55C73.9199 83.55 74.6799 83.4599 75.3099 83.2699C75.9399 83.0799 76.4799 82.88 76.9199 82.65C77.3599 82.43 77.7299 82.2199 78.0299 82.0299C78.3199 81.8399 78.5899 81.75 78.8299 81.75C78.9899 81.75 79.0999 81.8099 79.1599 81.93C79.2199 82.05 79.2399 82.21 79.2399 82.43C79.2399 82.52 79.2299 82.65 79.1999 82.82C79.1699 82.99 79.1399 83.19 79.1099 83.41C79.0799 83.63 79.0299 83.87 78.9799 84.12C78.9299 84.38 78.8699 84.61 78.8099 84.83C78.7499 85.05 78.6799 85.25 78.5899 85.43C78.5099 85.61 78.3999 85.77 78.2599 85.91C78.1199 86.05 77.8499 86.23 77.4499 86.44C77.0499 86.66 76.5599 86.86 75.9899 87.05C75.4199 87.24 74.7699 87.4 74.0399 87.5299C73.3199 87.6599 72.5399 87.73 71.7199 87.73C70.3599 87.73 69.1299 87.55 68.0399 87.19C66.9499 86.83 66.0199 86.28 65.2599 85.54C64.4999 84.8 63.9099 83.8799 63.4999 82.7699C63.0899 81.6599 62.8799 80.36 62.8799 78.87C62.8799 77.71 62.9999 76.4999 63.2399 75.2399C63.4799 73.9799 63.8399 72.7599 64.3199 71.5599C64.7999 70.3599 65.4099 69.22 66.1499 68.15C66.8899 67.08 67.7599 66.14 68.7599 65.33C69.7599 64.52 70.9099 63.88 72.1899 63.41C73.4699 62.94 74.8899 62.7 76.4499 62.7C77.3199 62.7 78.1499 62.79 78.9299 62.97C79.7099 63.15 80.3899 63.3899 80.9699 63.6899C81.5499 63.9899 81.9599 64.26 82.1899 64.51C82.4199 64.75 82.5399 65.06 82.5399 65.44H82.5299Z" fill="white"/>
</svg>
