<svg width="98" height="71" viewBox="0 0 98 71" fill="none" xmlns="http://www.w3.org/2000/svg">
<path d="M59.5268 8.69569L58.5268 6.42569L55.0768 14.4957C54.8468 15.0457 54.2268 15.4457 53.7368 15.4757C53.0868 15.5057 52.4068 15.1857 52.1468 14.5657L48.6668 6.43569L45.2668 14.4057C45.0268 14.9657 44.5068 15.4057 44.0068 15.4657C43.3668 15.5457 42.5968 15.2657 42.3368 14.6557L38.8368 6.47569L37.8668 8.64569C37.6568 9.10569 37.1568 9.67569 36.5268 9.67569H10.8368V22.8957C13.5468 23.4457 15.7468 25.1657 16.8668 27.3457C18.2268 29.9857 18.3268 33.0457 16.8368 35.4957C15.3868 37.8857 14.2068 40.2457 13.9168 43.0757H4.57681C4.22681 40.5657 3.34681 38.2357 1.95681 36.0757C1.13681 34.8057 0.63681 33.4857 0.56681 31.9657C0.34681 27.5557 3.26681 23.7457 7.62681 22.8657V7.98568C7.62681 7.16568 8.25681 6.35569 9.16681 6.35569H35.3068L37.3368 1.59569C37.5868 1.00569 38.2068 0.575685 38.7768 0.555685C39.3468 0.535685 40.0468 0.915687 40.2968 1.49569L43.7968 9.59569L47.2868 1.45569C47.5368 0.865686 48.2668 0.515687 48.8368 0.565687C49.5468 0.625687 50.0168 1.10569 50.3068 1.78569L53.6668 9.63569L57.2268 1.32569C57.4168 0.875685 58.1668 0.575685 58.5868 0.575685C59.0068 0.575685 59.7868 0.875685 59.9568 1.30568L62.0568 6.44569H87.8368C88.8368 6.43569 89.7068 6.91569 89.7068 8.02569V22.1957H91.1368C91.6968 22.1957 92.2068 22.7157 92.2068 23.3057V27.5457H84.0068V23.0957C84.0068 22.6957 84.5568 22.2057 84.9268 22.1957H86.4868V9.66569H61.2068C60.4768 9.66569 59.8268 9.39569 59.5168 8.69569H59.5268ZM7.60681 68.3657C7.60681 69.2257 8.35681 69.7657 9.16681 69.8457C35.5168 69.8457 61.8668 69.8457 88.2168 69.8457C89.1768 69.8157 89.8768 69.1357 89.8768 68.1857V53.4757H96.1968C96.5468 53.4757 96.8968 53.0757 96.9168 52.6857V30.0057C96.9168 29.6357 96.5168 29.2357 96.1668 29.2357H80.3068C79.9468 29.2357 79.5568 29.6157 79.5568 30.0057V52.6857C79.6068 53.1157 79.9068 53.4157 80.2868 53.4757H86.5968V66.5457C61.3468 66.5457 36.0968 66.5457 10.8468 66.5457V53.1657C12.1068 52.6057 12.9668 51.6657 13.3268 50.3157H5.12681C5.47681 51.6657 6.35681 52.5857 7.60681 53.1857V68.3557V68.3657ZM88.1368 41.2457C87.5968 41.1857 87.0968 40.7057 87.0968 40.1157V38.2357L85.3268 38.2557C84.6768 38.2557 84.1568 37.8657 84.0768 37.2857C83.9868 36.6357 84.4468 35.9957 85.1668 35.9957H87.0868V34.1157C87.0868 33.5257 87.5868 33.0457 88.1368 32.9857C88.5868 32.9357 89.3068 33.4057 89.3168 33.9357L89.3668 35.9957H91.1068C91.8468 35.9757 92.3768 36.4457 92.3668 37.1157C92.3668 37.7857 91.8468 38.2557 91.1068 38.2557H89.3568L89.3168 40.2357C89.3068 40.8457 88.5968 41.3057 88.1268 41.2557L88.1368 41.2457ZM85.3368 49.7757C84.6668 49.7757 84.1668 49.4157 84.0668 48.7957C83.9868 48.3157 84.3768 47.5257 85.0068 47.5257H91.4568C92.0768 47.5257 92.4568 48.3057 92.3768 48.7957C92.2768 49.3957 91.7868 49.7757 91.1268 49.7757H85.3468H85.3368ZM3.07681 45.2957V48.1157H15.3168V45.2957H3.07681Z" stroke="white" stroke-width="1.11" stroke-miterlimit="10"/>
</svg>
