<svg width="98" height="51" viewBox="0 0 98 51" fill="none" xmlns="http://www.w3.org/2000/svg">
<path d="M62.81 0.0300026H97.61V50.62H0.119999L0 22.74L25.51 0.0600014L55.89 0C56.34 0.75 56.57 1.91 56.73 3.21L61.47 3.16L62.82 0.0300026H62.81ZM2.92 22.72L31.36 22.82L51.4 1.92L26.06 2L2.91 22.72H2.92ZM33.14 28.2L53.6 5.17C54.49 4.17 55.01 3.14 54.23 1.74L33.05 23.75C32.83 24.8 32.88 26.75 33.14 28.2ZM95.79 22.84L95.76 1.91L64.07 1.93L55.27 22.86L95.79 22.84ZM56.57 37.13C57.91 36.55 59.31 35.75 60.74 34.85C62.11 35.96 64.16 37.37 66.06 37.22C67.56 37.1 69.39 35.78 70.84 34.8C72.47 36.23 74.14 37.22 76.18 37.2C77.61 37.19 79.44 35.87 80.87 34.78C82.53 36.21 84.29 37.3 86.21 37.19C87.57 37.11 89.49 35.81 90.62 34.82L95.71 37.41V31.66L53.26 31.64C53.26 29.04 52.34 25.49 53.24 23.29L60.6 5.24L56.19 5.07L32.64 31.65H1.85L1.89 48.79H95.74L95.75 39.05L90.66 37.4C87.68 39.41 83.8 39.52 80.73 37.23C77.58 39.64 73.88 39.36 70.73 37.23C67.55 39.69 63.74 39.24 60.71 37.39L56.46 38.99C56.09 39.13 54.88 37.85 55.25 37.69L56.56 37.12L56.57 37.13ZM1.85 24.65V29.8H31.06V24.65H1.85ZM95.78 24.61L54.95 24.63V29.82L95.78 29.8V24.61ZM37.35 37.94L37.18 36.37C37.11 35.72 32.19 39.41 28.23 34.65C26.46 36.1 24.87 37.26 22.9 37.23C21.36 37.21 19.36 35.75 17.97 34.86C16.45 36.04 14.67 37.32 12.92 37.24C11.25 37.16 9.3 35.88 7.96 34.85C5.14 37.13 3.67 36.53 2.64 38.04C2.49 38.26 3.49 39.07 3.74 38.98L8.02 37.36C11.15 39.33 15 39.65 18.21 37.21C21.43 39.75 25.08 39.29 28.36 37.25C31.4 39.56 34.47 39.35 37.36 37.94H37.35ZM37.45 43.47C35.73 42.52 32.49 46.37 28.05 41.47C26.34 43.09 24.79 44.13 22.87 44.09C21.16 44.05 19.6 42.95 17.92 41.51C13.28 47.23 8.45 41.22 7.94 42.65C7.12 44.97 13.48 47.63 18.18 44.1C21.47 46.42 24.78 46.47 28.16 44.06C33.41 48.06 38.98 44.29 37.45 43.45V43.47ZM82.79 44.63L78.16 41.69C76.65 43.17 75.01 44.12 73.06 44.08C71.54 44.05 69.9 42.92 68.39 41.55C66.06 44.2 62.99 44.54 59.83 42.86L58.73 42.27C58.48 42.14 57.85 42.78 57.9 43.05C58.39 45.57 64.44 47.16 68.45 44.18C71.53 46.45 75.08 46.33 78.33 44.18C79.75 44.96 81.09 46.31 82.79 44.63Z" fill="white"/>
</svg>
