<svg width="312" height="240" viewBox="0 0 312 240" fill="none" xmlns="http://www.w3.org/2000/svg">
<g clip-path="url(#clip0_10_1631)">
<path d="M128.452 74.6114C129.666 75.1697 129.974 75.9783 130.013 77.249C130.475 93.6715 130.109 110.094 130.495 126.517C130.745 137.048 130.803 147.579 130.707 158.11C130.687 159.188 130.63 160.286 130.514 161.345C130.321 163.154 129.974 164.906 132.46 165.561C133.385 165.811 133.617 166.966 133.886 167.852C136.218 175.264 138.242 182.696 136.97 190.647C136.7 192.322 136.141 192.996 134.561 192.996C127.508 192.996 120.454 193.015 113.382 193.054C111.821 193.054 111.108 192.322 111.069 190.801C110.857 183.658 110.761 176.535 112.9 169.623C113.517 167.621 114.172 165.561 116.581 164.926C117.641 164.637 117.506 163.828 117.487 163.058C116.677 135.084 117.217 107.129 117.082 79.155C117.082 78.4619 116.947 77.7303 117.12 77.0757C117.544 75.497 117.024 74.6114 115.579 73.8413C113.478 72.7246 112.669 70.6068 112.495 68.3928C112.36 66.6793 111.956 66.2942 110.144 66.429C96.288 67.5071 83.6845 72.7054 71.1003 77.9806C65.396 80.3679 59.9229 83.3521 53.9873 85.2196C50.4414 86.3362 50.4414 86.2785 52.1565 89.5707C59.0364 102.874 64.2975 116.871 70.4065 130.521C73.6249 137.741 77.0937 144.826 81.1407 151.641C81.5647 152.354 81.873 153.336 82.7209 153.586C85.0721 154.279 84.2819 155.55 83.2413 156.628C76.5734 163.597 68.8648 168.949 59.2677 170.875C47.2231 173.281 35.3519 172.569 23.8854 167.891C18.5858 165.734 14.3654 162.115 11.494 157.09C10.2799 154.972 10.5689 154.24 12.9971 154.26C14.7701 154.26 15.406 153.201 16.1384 151.988C22.5943 141.091 27.5277 129.481 32.519 117.872C36.9514 107.553 41.0755 97.0985 46.6257 87.2989C47.5507 85.6817 46.3173 85.6816 45.4501 85.3929C41.1333 83.9682 38.339 81.1188 37.2598 76.6714C37.0285 75.728 36.6238 74.4766 37.8765 74.0338C39.0906 73.6102 39.9963 74.5536 40.3625 75.6125C41.1141 77.6918 41.8078 79.6171 44.1397 80.5797C46.8184 81.6771 49.3429 81.1765 51.8482 80.2909C59.3448 77.6533 66.1668 73.6487 73.066 69.7597C82.1043 64.6577 91.0269 59.3248 100.855 55.763C104.517 54.4346 108.236 53.4142 112.168 53.3757C113.17 53.3757 113.979 53.2217 114.326 52.0665C114.923 50.1027 116.292 48.755 118.007 47.7539C118.913 47.2148 119.221 46.8105 118.508 45.8094C117.332 44.1729 117.39 42.3246 118.065 40.4764C119.144 37.473 120.763 34.7391 122.15 31.8705C122.844 30.4458 123.846 30.7153 124.347 31.8512C125.735 34.8739 127.392 37.8003 128.028 41.1117C128.221 42.0936 128.452 43.2873 127.816 44.0574C125.966 46.2329 127.353 46.9838 129.126 47.9464C130.899 48.9091 131.882 50.6418 132.422 52.5671C132.692 53.549 133.173 54.011 134.253 53.7607C139.032 52.6441 143.484 54.1073 147.858 55.6667C157.629 59.1322 166.532 64.3497 175.474 69.4902C181.853 73.1482 188.29 76.7292 195.131 79.5208C196.769 80.1946 198.503 80.676 200.238 81.0418C204.15 81.8504 207.272 80.0214 208.621 76.2863C208.968 75.3045 209.16 73.8028 210.587 74.2456C212.051 74.6884 211.916 76.0938 211.531 77.3838C210.49 80.9647 208.216 83.4483 204.824 84.9308C203.861 85.3544 202.955 85.6239 203.764 87.0678C210.798 99.6783 215.828 113.213 221.629 126.382C225.445 135.026 229.395 143.613 234.213 151.757C235.08 153.239 235.909 154.337 237.933 154.279C239.783 154.221 240.11 155.126 239.108 156.917C236.506 161.479 232.941 165.311 228.123 167.274C211.974 173.82 195.748 174.629 179.829 166.504C175.127 164.098 171.003 160.729 167.669 156.551C166.783 155.434 165.703 154.414 168.016 153.47C168.845 153.124 169.269 151.776 169.828 150.852C176.977 138.569 182.335 125.438 187.904 112.404C191.431 104.145 194.919 95.8663 199.236 87.9535C199.544 87.3759 200.951 86.3362 198.908 86.0667C192.722 85.2196 187.326 82.2354 181.757 79.7326C174.626 76.5174 167.38 73.5525 159.999 70.9534C152.098 68.1617 143.83 67.5071 135.602 66.4675C134.542 66.3327 134.233 66.7178 134.156 67.6804C134.041 69.1629 133.54 70.5491 132.923 71.8967C131.979 73.6872 130.803 74.9772 128.452 74.6114ZM233.866 153.817C220.781 132.215 213.94 107.957 201.587 85.8934C198.523 92.2661 195.458 98.2536 192.703 104.395C185.495 120.413 179.54 137.009 170.483 152.161C169.654 153.547 170.097 153.836 171.504 153.855C176.38 153.894 181.275 154.202 186.15 154.067C198.619 153.74 211.107 153.913 223.575 153.836C226.909 153.817 230.224 153.817 233.866 153.817ZM49.0346 86.4903C48.283 86.6058 48.1481 86.9716 47.9747 87.3181C45.373 92.5934 42.6172 97.8108 40.2083 103.163C32.8274 119.682 26.5642 136.72 17.391 152.431C16.3889 154.106 17.5644 154.048 18.6244 154.009C26.7569 153.644 34.9087 153.875 43.0412 153.855C54.6618 153.817 66.2825 153.855 77.9031 153.855C80.736 153.855 80.7167 153.836 79.3292 151.295C77.7682 148.445 76.2072 145.596 74.7233 142.708C68.0362 129.751 63.0449 116.062 56.9937 102.836C54.4498 97.2718 51.6555 91.8618 49.0346 86.4903ZM46.5871 83.5061C48.3794 84.0452 50.2101 84.1414 52.0409 83.6601C57.938 82.1584 63.3147 79.3475 68.7877 76.8062C81.4683 70.8956 94.3994 65.8322 108.333 63.6373C113.574 62.8095 114.249 63.1368 115.078 68.3735C115.559 71.4154 118.2 73.3214 121.322 73.0519C123.48 72.8594 125.658 72.7824 127.835 72.8786C129.531 72.9556 130.456 72.301 130.938 70.7608C131.227 69.7982 131.478 68.8356 131.535 67.8152C131.728 63.9261 133.385 62.6555 137.278 63.1753C150.441 64.9465 162.928 68.9703 174.973 74.4766C181.236 77.3452 187.422 80.4257 193.897 82.8323C196.615 83.8334 199.371 84.488 202.743 83.4483C198.214 83.044 194.514 81.5808 190.891 79.8866C181.063 75.2852 171.774 69.6442 161.907 65.1005C152.252 60.6532 143.175 54.4731 131.709 55.9363C130.668 56.0711 129.955 55.5127 129.685 54.4346C129.531 53.8377 129.358 53.2409 129.069 52.6826C127.797 50.1797 124.867 48.6395 122.092 49.0246C118.797 49.4866 117.544 50.6225 117.043 53.9918C116.851 55.3202 115.983 55.3202 115.078 55.455C113.15 55.7053 111.223 55.8785 109.315 56.1866C99.8725 57.6883 91.6436 62.3089 83.2798 66.506C74.7041 70.8186 66.5715 75.9976 57.8223 80.0021C54.2186 81.6193 50.5763 83.0825 46.5871 83.5061ZM119.452 119.528C119.529 119.528 119.606 119.528 119.683 119.528C119.683 131.907 119.683 144.306 119.683 156.685C119.683 163.039 119.683 163.039 125.966 163.27C126.043 163.27 126.12 163.289 126.197 163.289C127.296 163.501 127.739 163 127.797 161.922C127.912 159.381 128.182 156.82 128.201 154.279C128.298 140.417 128.182 126.574 127.932 112.712C127.72 101.411 127.777 90.1098 127.777 78.8084C127.777 77.0565 127.353 76.1708 125.446 76.3634C124.058 76.4981 122.651 76.4404 121.264 76.3634C119.895 76.2864 119.433 76.6907 119.433 78.1924C119.491 91.958 119.452 105.743 119.452 119.528ZM203.109 169.989C211.569 170.143 220.049 168.738 227.95 164.695C230.783 163.231 233.462 161.518 235.215 158.726C236.102 157.302 235.871 156.493 234.059 156.185C231.881 155.819 229.742 156.3 227.565 156.262C213.631 156.069 199.679 155.915 185.746 155.8C181.641 155.761 177.536 155.858 173.431 155.915C172.66 155.935 171.658 155.915 171.331 156.608C170.926 157.456 171.909 157.975 172.468 158.399C175.532 160.748 178.519 163.251 181.776 165.33C188.155 169.392 195.401 170.047 203.109 169.989ZM31.8831 156.32C27.1616 156.32 22.4401 156.3 17.6993 156.339C16.8707 156.339 15.7722 156.262 15.4446 157.148C15.117 158.014 15.9649 158.688 16.5431 159.304C18.2775 161.094 20.3395 162.481 22.4208 163.828C28.5106 167.814 35.4097 168.853 42.4823 169.7C56.2421 171.356 67.8627 166.562 78.5005 158.457C79.0401 158.052 79.7724 157.61 79.4448 156.782C79.1557 156.05 78.4042 155.915 77.6719 155.896C76.9781 155.877 76.2843 155.877 75.5713 155.877C61.0021 155.8 46.433 155.896 31.8831 156.32ZM134.754 183.312C134.889 179.5 134.619 175.726 133.328 172.107C131.998 168.372 129.782 166.755 125.87 166.62C124.097 166.562 122.304 166.524 120.531 166.601C117.024 166.755 115.251 168.199 114.538 171.626C113.382 177.267 113.497 182.985 113.517 188.722C113.517 191.09 114.48 191.899 116.677 191.822C121.861 191.648 127.045 191.494 132.229 191.398C133.559 191.379 134.156 190.801 134.445 189.55C134.927 187.471 134.599 185.372 134.754 183.312ZM123.114 36.6451C121.379 38.8207 120.146 40.8999 120.82 43.5376C121.129 44.712 121.591 46.0404 123.229 45.8094C124.81 45.5976 125.311 44.4232 125.426 42.9792C125.619 40.5919 124.077 38.8784 123.114 36.6451Z" fill="#0088A1"/>
<path d="M154.854 215.849C144.678 216.061 133.694 215.002 122.69 215.425C107.658 216.022 92.6264 215.753 77.5947 215.83C74.203 215.849 73.6827 215.117 74.5113 211.787C75.2244 208.899 76.9202 206.627 79.0594 204.644C85.7851 198.425 93.7827 194.883 102.86 194.228C114.981 193.362 127.161 192.977 139.321 193.304C147.531 193.516 155.49 195.056 162.524 199.734C166.802 202.584 169.943 206.473 172.564 210.843C172.949 211.498 173.258 212.229 173.47 212.98C174.067 215.079 173.489 215.849 171.273 215.849C166.07 215.868 160.866 215.849 154.854 215.849ZM156.819 213.75C160.462 213.75 164.104 213.789 167.746 213.731C170.83 213.673 171.157 213.288 169.596 210.535C165.299 203.027 158.477 198.81 150.267 196.847C145.372 195.672 140.304 195.48 135.255 195.364C126.949 195.152 118.662 195.884 110.375 195.788C99.8917 195.672 90.5644 198.849 82.162 204.933C80.1964 206.357 78.4427 207.955 77.6718 210.4C76.9395 212.749 77.2286 213.231 79.599 213.288C86.5752 213.423 93.5514 213.539 100.528 213.654C119.298 213.962 138.068 212.961 156.819 213.75Z" fill="#0088A1"/>
<path d="M127.064 55.84C127.045 58.0541 125.253 59.7676 122.998 59.6905C121.09 59.6328 119.934 58.6894 119.857 56.7064C119.78 54.6078 121.707 52.6248 123.788 52.6056C125.6 52.6056 127.084 54.0688 127.064 55.84Z" fill="#0088A1"/>
<path d="M199.525 159.477C207.946 159.477 216.368 159.477 224.963 159.477C223.71 160.671 202.974 161.094 199.486 160.151C199.505 159.92 199.525 159.708 199.525 159.477Z" fill="#0088A1"/>
<path d="M69.944 160.478C69.1346 161.768 67.8049 161.537 66.7642 161.691C59.9036 162.692 53.0623 162.558 46.2209 161.518C45.6235 161.422 44.5058 161.71 44.66 160.709C44.7948 159.901 45.8355 160.209 46.4715 160.247C49.4007 160.382 52.33 160.613 55.2592 160.767C59.6723 161.017 64.0469 160.266 68.4408 160.151C68.9226 160.132 69.3851 159.958 69.944 160.478Z" fill="#0088A1"/>
<path d="M119.452 211.825C119.953 210.978 120.705 211.036 121.379 210.997C135.12 210.035 148.88 209.573 162.62 210.805C163.853 210.92 165.087 210.901 166.32 211.017C166.898 211.074 167.669 211.151 167.592 212.018C167.515 212.769 166.898 213 166.243 213.019C165.087 213.038 163.911 213.077 162.755 213C149.246 212.056 135.717 211.96 122.169 212.441C121.302 212.48 120.319 212.749 119.452 211.825Z" fill="#0088A1"/>
<path d="M141.171 207.955C142.289 206.8 143.676 207.185 144.89 207.031C148.725 206.55 152.58 206.608 156.434 206.704C156.954 206.723 157.629 206.646 157.764 207.339C157.899 208.071 157.205 208.244 156.723 208.302C151.539 208.822 146.355 209.014 141.171 207.955Z" fill="#0088A1"/>
<path d="M221.976 211.363L224.442 227.15L238.607 226.38L234.598 207.416L221.976 211.363Z" fill="#F9F9F8"/>
<path d="M253.407 209.553C253.407 209.553 254.371 228.036 254.718 228.055C255.045 228.074 269.653 227.978 269.653 227.978L267.919 209.553H253.407Z" fill="#F9F9F8"/>
<path d="M238.433 221.336C237.528 216.215 236.776 211.074 236.198 205.895C235.466 205.915 234.733 205.915 234.001 205.934C234.849 205.915 234.56 206.935 234.598 207.416C235.042 212.48 235.986 217.485 236.834 222.491C237.007 223.473 236.776 223.627 235.813 223.685C232.421 223.877 228.99 223.82 225.657 224.551C225.021 224.686 224.751 224.513 224.654 223.839C223.826 218.621 222.939 213.404 222.091 208.167C222.033 207.821 221.744 207.378 222.361 207.262C222.862 207.166 223.17 207.378 223.19 207.917C223.209 208.129 223.267 208.321 223.344 208.533C223.421 208.783 223.402 209.226 223.845 209.091C224.25 208.976 223.999 208.61 223.999 208.36C223.999 207.955 223.498 207.435 224.173 207.166C224.943 206.839 225.464 206.954 225.483 207.955C225.502 208.34 225.522 208.956 226.08 208.899C226.736 208.822 226.389 208.244 226.35 207.878C226.292 207.358 225.926 206.839 226.851 206.665C227.68 206.511 228.162 206.646 228.2 207.57C228.22 207.801 228.181 208.09 228.624 208.206C228.817 208.032 228.778 207.821 228.759 207.609C228.721 207.07 228.123 206.377 229.318 206.28C230.224 206.203 230.918 206.165 230.802 207.416C230.763 207.724 230.802 208.225 231.245 208.186C231.746 208.148 231.476 207.667 231.476 207.378C231.496 207.127 231.419 206.877 231.399 206.627C231.361 206.165 231.65 206.069 232.016 206.03C232.382 205.992 232.594 206.126 232.633 206.473C232.691 206.8 232.71 207.147 232.768 207.474C232.825 207.744 232.98 207.955 233.269 207.917C233.577 207.878 233.616 207.628 233.654 207.358C233.731 206.858 233.134 206.011 233.943 205.915C230.455 205.972 226.967 206.049 223.479 206.107C223.46 206.107 223.44 206.126 223.402 206.126C222.573 206.3 222.168 206.377 221.937 206.146C221.398 206.146 220.858 206.165 220.318 206.165C221.32 212.018 222.342 217.89 223.363 223.742C223.537 224.705 223.382 225.109 222.303 225.09C219.085 225.013 216.079 225.918 213.111 227.035C212.032 227.439 211.03 227.959 210.22 228.787C208.929 230.096 209.064 231.694 210.548 232.772C211.203 233.253 211.955 233.484 212.745 233.677C214.575 234.12 216.426 234.004 218.276 233.831C224.809 233.215 231.284 232.175 237.778 231.232C239.705 230.943 239.956 230.654 239.648 228.671C239.243 226.226 238.877 223.781 238.433 221.336Z" fill="#1C1B1B"/>
<path d="M274.24 227.67C273.931 227.477 273.604 227.285 273.257 227.131C273.045 227.015 272.814 226.919 272.582 226.804C272.351 226.688 272.216 226.63 272.216 226.63C271.58 226.322 270.944 226.014 270.308 225.706C269.788 225.456 269.653 225.09 269.595 224.513C269.133 218.178 268.747 211.844 268.285 205.51C262.85 205.529 257.416 205.568 251.981 205.645C252.058 206.742 252.135 207.859 252.193 208.956C252.656 215.926 253.234 222.876 253.831 229.846C253.947 231.212 254.467 231.906 255.816 232.31C259.169 233.33 262.58 233.985 266.03 234.466C269.634 235.313 273.257 235.698 278.98 234.312C283.509 233.195 277.593 229.499 274.24 227.67ZM266.57 225.802C265.394 225.552 264.141 225.648 262.927 225.591V225.533C260.827 225.379 258.726 225.225 256.645 225.09C254.833 224.975 254.853 224.994 254.718 223.223C254.332 217.89 253.908 212.576 253.542 207.243C253.504 206.819 253.118 206.126 253.947 206.011C254.814 205.895 254.602 206.665 254.737 207.147C254.891 207.666 254.583 208.668 255.257 208.571C255.913 208.475 255.296 207.589 255.315 207.05C255.334 206.685 254.949 206.126 255.681 206.088C256.202 206.049 256.761 205.991 256.895 206.8C256.992 207.358 256.838 208.437 257.531 208.321C258.302 208.186 257.57 207.281 257.628 206.704C257.647 206.434 257.589 206.145 257.917 206.145C258.36 206.126 258.861 206.088 259.131 206.588C259.381 207.089 259.497 207.609 259.516 208.167C259.536 208.475 259.613 208.841 259.96 208.822C260.441 208.802 260.345 208.36 260.326 208.032C260.306 207.782 260.229 207.532 260.191 207.281C260.172 206.935 259.613 206.396 260.326 206.28C260.827 206.203 261.559 206.068 261.733 206.935C261.829 207.512 261.945 208.09 262.079 208.668C262.156 208.976 262.388 209.207 262.735 209.149C263.139 209.091 263.12 208.745 263.12 208.475C263.12 208.148 263.004 207.801 263.024 207.474C263.043 207.147 262.407 206.588 263.255 206.55C263.795 206.511 264.431 206.376 264.623 207.262C264.739 207.82 264.334 208.899 265.144 208.841C266.184 208.783 265.433 207.782 265.51 207.204C265.568 206.685 265.895 206.762 266.223 206.742C266.705 206.723 266.878 206.935 266.897 207.416C266.994 209.264 267.09 211.113 267.225 212.961C267.475 216.369 267.745 219.757 268.015 223.146C268.054 223.569 268.054 223.993 268.054 224.416C268.073 225.417 267.919 226.11 266.57 225.802Z" fill="#1C1B1B"/>
<path d="M228.104 48.2544C227.198 48.2544 226.928 47.3688 226.774 46.849L226.794 46.3677C226.813 46.1174 226.832 45.8671 226.851 45.6168C226.851 45.4243 226.871 45.2125 226.89 45.0007C226.928 44.5579 226.986 44.0958 226.832 43.8071C226.813 43.7686 226.774 43.6915 226.543 43.6915C226.408 43.6915 226.254 43.7108 226.1 43.73C225.907 43.7493 225.714 43.7878 225.541 43.7878L225.29 43.7686C223.691 43.5183 222.13 42.1706 221.744 40.7266C221.571 40.0528 221.59 39.5522 221.822 39.1672C222.053 38.7821 222.457 38.5318 223.132 38.3778C223.517 38.2815 223.922 38.1853 224.327 38.0698C224.173 37.9928 224.038 37.8965 223.884 37.7617C223.729 37.627 223.614 37.5692 223.517 37.5692C223.44 37.5692 223.344 37.6077 223.228 37.704C223.016 37.8965 222.65 38.0505 222.342 38.0505H222.284L222.072 38.012C221.571 37.8387 221.051 37.6847 220.53 37.5307C219.817 37.3189 219.124 37.1071 218.449 36.8568C215.905 35.8942 215.597 33.6416 215.52 31.4468C215.462 30.1569 215.385 28.867 215.308 27.5578C215.115 24.2849 214.922 20.8964 215.057 17.5464C215.077 17.1229 215.019 17.0459 215.019 17.0266C214.903 17.0266 214.749 17.0844 214.537 17.1614C213.824 17.4309 213.13 17.5657 212.475 17.5657H212.167C211.454 17.5272 210.914 17.2769 210.606 16.8533C210.394 16.5645 210.182 16.0447 210.413 15.2168C210.76 13.8692 211.531 12.714 212.937 11.4433C215.52 9.0945 218.661 7.43877 222.592 6.37988C225.618 5.57126 228.798 5.14771 232.093 5.14771C234.059 5.14771 236.082 5.30173 238.125 5.59052C241.382 6.05258 243.56 7.70831 244.62 10.4807C244.812 11.0005 245.198 11.4433 245.602 11.9246C245.891 12.2712 246.181 12.5985 246.412 12.9835C248.223 15.8907 249.168 19.1444 249.206 22.6291C249.264 27.7696 249.322 33.1026 248.223 38.3971L248.165 38.6473C247.915 39.841 247.664 41.0924 247.009 42.2091C246.797 42.5556 246.527 43.037 245.949 43.037C245.776 43.037 245.583 42.9984 245.39 42.9022C245.294 42.8637 245.236 42.8444 245.198 42.8252C245.217 42.8444 245.217 42.9599 245.236 43.1717C245.294 43.653 245.371 44.1536 245.448 44.6349L245.545 45.251C245.602 45.6168 245.641 46.1559 245.352 46.5409C245.178 46.772 244.909 46.9067 244.581 46.9645L244.388 46.9837C243.56 46.9837 243.367 46.2521 243.232 45.7708L243.174 45.5013C243.174 45.1547 243.193 44.8082 243.213 44.4616C243.251 43.7108 243.29 42.9792 243.213 42.2861C242.847 39.1864 242.885 36.029 243.29 32.8908C243.483 31.4083 243.81 29.8681 245.313 28.7515C246.103 28.1546 246.45 27.1728 246.181 26.1524L246.142 25.9598C246.065 25.5748 246.026 25.5748 245.949 25.5748C245.467 25.594 245.256 25.7096 245.159 26.0176C245.063 26.3641 244.928 26.6914 244.812 27.0187L244.62 27.5771C244.523 27.8658 244.253 28.6167 243.328 28.6167C242.596 28.6167 242.076 28.2894 241.825 27.6541C241.478 26.807 241.382 25.9406 241.286 24.9587C240.939 21.2814 241.054 17.7004 241.632 14.312C241.71 13.9077 241.671 13.8114 241.652 13.8114C241.536 13.8499 241.324 13.9077 241.17 13.9462C238.376 14.7548 235.523 14.9666 232.748 15.1976C232.421 15.2361 232.247 15.2361 232.093 15.2361C231.476 15.2361 231.11 14.9858 230.956 14.5045C230.86 14.1772 230.763 14.1772 230.725 14.1772C230.648 14.1772 230.513 14.2157 230.397 14.2542L228.913 14.62C227.68 14.9281 226.466 15.2168 225.252 15.6019C225.059 15.6597 224.866 15.6982 224.654 15.6982C224.269 15.6982 223.922 15.6019 223.594 15.5056C223.325 15.4286 223.055 15.3516 222.824 15.3516C222.727 15.3516 222.65 15.3709 222.573 15.3901C221.918 15.5634 221.243 15.7559 220.588 15.9485C219.355 16.3143 218.121 16.6801 216.85 16.9688C216.522 17.0459 216.483 17.1421 216.599 17.7389C216.638 17.9507 216.676 18.1625 216.657 18.3743C216.676 18.4513 216.715 18.4705 216.772 18.4705C216.811 18.4705 216.869 18.4513 216.907 18.4513C217.004 18.4128 217.1 18.3935 217.177 18.3743L217.62 18.2973C218.314 18.1818 219.027 18.047 219.759 18.047C220.01 18.047 220.28 18.0662 220.53 18.1047C220.954 18.1625 221.841 18.278 221.956 19.1829C222.014 19.6065 221.879 19.953 221.59 20.184L221.899 20.4921C223.363 21.936 223.46 25.517 222.072 27.0765C221.59 27.6348 221.128 28.1546 220.993 28.8477C220.896 29.2905 220.935 29.6178 221.089 29.8104C221.243 30.0029 221.532 30.1377 221.937 30.1762C222.091 30.1954 222.265 30.1954 222.419 30.1954C222.901 30.1954 223.267 30.0992 223.537 29.5601C223.749 29.1365 224.173 28.8862 224.654 28.8862C224.886 28.8862 225.098 28.944 225.31 29.0403C225.926 29.3483 226.254 29.9644 226.215 30.7152C226.158 31.5431 225.445 31.5816 225.078 31.5816C224.982 31.5816 224.905 31.5816 224.828 31.6009C224.018 31.7549 223.132 31.8319 222.149 31.8512C222.149 31.8512 222.149 31.8512 222.13 31.8512C220.974 31.8512 220.126 31.4854 219.644 30.85C219.143 30.1954 219.008 29.2713 219.297 28.2509C219.451 27.6926 219.663 27.0765 220.106 26.5567C219.894 26.6914 219.682 26.7492 219.47 26.7492C219.181 26.7492 218.912 26.6337 218.584 26.4412L217.967 26.0946L218.661 25.8251C218.198 25.7096 217.697 25.5363 217.216 25.2282L217.929 33.4876C217.987 34.2 218.353 34.5273 219.104 34.5273H220.222C221.128 34.5273 222.014 34.5273 222.901 34.585L223.267 34.6043C224.712 34.7005 226.215 34.7968 227.564 35.6054C228.181 35.9712 228.489 36.3563 228.528 36.7991C228.567 37.2419 228.297 37.6655 227.757 38.1083C226.601 39.0324 225.31 39.687 223.922 40.0143C223.44 40.1298 223.383 40.2646 223.363 40.2646C223.363 40.2838 223.325 40.4186 223.672 40.8614C224.192 41.5352 224.847 41.8625 225.734 41.8625C225.984 41.8625 226.254 41.8433 226.524 41.7855C226.948 41.7085 227.295 41.67 227.564 41.67C228.74 41.67 228.894 42.4979 229.029 43.7493C229.048 44.0381 229.048 44.3269 229.029 44.6157C229.01 45.251 228.99 45.7901 229.357 46.2714C229.492 47.4651 229.145 48.0619 228.393 48.1967C228.297 48.2352 228.2 48.2544 228.104 48.2544ZM221.802 36.2985C221.879 36.5488 222.072 36.6066 222.323 36.6066L222.592 36.5295C222.535 36.26 222.438 36.26 222.303 36.26C222.207 36.26 222.111 36.2793 222.014 36.2985C221.937 36.2985 221.86 36.2985 221.802 36.2985ZM219.258 24.0538C219.509 24.1116 219.663 24.1308 219.817 24.1308C220.241 24.1308 220.28 23.9768 220.299 23.8805C220.453 23.2645 220.723 22.9564 221.128 22.9564C221.282 22.9564 221.455 23.0142 221.59 23.0912C221.61 22.7446 221.552 22.3981 221.475 21.9938C221.398 21.5895 221.301 21.1659 221.34 20.7039L221.359 20.3381C221.205 20.4151 221.012 20.4921 220.781 20.5306C219.875 20.7424 218.969 20.9349 218.044 21.0697C217.62 21.1274 216.965 21.2429 216.888 21.3777C216.83 21.474 216.907 21.782 217.004 22.1093C217.485 21.474 218.102 20.9734 218.989 20.9734C219.201 20.9734 219.432 21.0119 219.663 21.0697C219.991 21.1659 220.877 21.397 220.646 22.3981L220.569 22.7061L220.261 22.6484C220.087 22.6291 219.933 22.5714 219.759 22.5329C219.547 22.4751 219.355 22.4173 219.162 22.4173C219.124 22.4173 219.085 22.4173 219.027 22.4366C219.316 22.7254 219.548 23.0719 219.47 23.611C219.451 23.7843 219.355 23.9383 219.258 24.0538ZM243.29 18.7786C243.271 18.8941 243.251 19.0674 243.271 19.1251C243.328 19.0674 243.309 18.8171 243.309 18.6823C243.309 18.7208 243.309 18.7593 243.29 18.7786ZM244.62 18.2395C244.62 18.5861 244.639 18.7208 244.735 18.7786C244.716 18.7401 244.716 18.6631 244.697 18.5861C244.639 18.5091 244.62 18.3743 244.6 18.2203C244.62 18.2203 244.62 18.2203 244.62 18.2395ZM244.581 17.7004C244.6 17.7775 244.6 17.8545 244.62 17.9315C244.62 17.7004 244.6 17.6042 244.562 17.5464C244.562 17.6042 244.581 17.6619 244.581 17.7004ZM243.328 17.6427C243.348 17.6619 243.367 17.6812 243.367 17.7197C243.367 17.6812 243.367 17.6619 243.348 17.6427H243.328Z" fill="black"/>
<path d="M232.074 5.47499C234.059 5.47499 236.063 5.62901 238.048 5.9178C240.842 6.32211 243.174 7.66979 244.273 10.5962C244.639 11.5396 245.545 12.2712 246.084 13.1568C247.876 16.0447 248.782 19.2792 248.821 22.6291C248.878 27.8851 248.936 33.1411 247.857 38.3393C247.587 39.61 247.356 40.8999 246.682 42.0551C246.489 42.4016 246.277 42.7096 245.911 42.7096C245.795 42.7096 245.66 42.6711 245.506 42.5941C245.352 42.5171 245.236 42.4979 245.14 42.4979C244.812 42.4979 244.832 42.8829 244.87 43.2295C244.947 43.9226 245.082 44.6349 245.198 45.328C245.294 45.9441 245.255 46.5602 244.523 46.6564C244.465 46.6564 244.427 46.6757 244.369 46.6757C243.733 46.6757 243.637 46.0404 243.502 45.5398C243.521 44.4424 243.675 43.345 243.54 42.2668C243.174 39.1479 243.213 36.0482 243.617 32.9678C243.81 31.4853 244.118 30.0799 245.506 29.0595C246.373 28.4049 246.797 27.2883 246.508 26.1138C246.431 25.7866 246.431 25.286 245.93 25.286H245.911C245.448 25.3052 244.986 25.4015 244.812 25.9598C244.658 26.4796 244.446 26.9802 244.273 27.5C244.099 27.9621 243.868 28.3279 243.309 28.3279C242.731 28.3279 242.326 28.1161 242.114 27.5771C241.767 26.7492 241.69 25.8636 241.594 24.9972C241.266 21.4547 241.343 17.9315 241.941 14.4275C242.056 13.7921 241.96 13.5611 241.632 13.5611C241.498 13.5611 241.305 13.5996 241.054 13.6766C238.337 14.466 235.523 14.697 232.71 14.9088C232.517 14.928 232.286 14.9473 232.074 14.9473C231.708 14.9473 231.38 14.851 231.264 14.466C231.13 14.0232 230.937 13.8884 230.706 13.8884C230.532 13.8884 230.339 13.9654 230.127 14.0232C228.451 14.4467 226.774 14.8125 225.136 15.3324C224.963 15.3901 224.809 15.4094 224.635 15.4094C223.98 15.4094 223.382 15.0821 222.804 15.0821C222.689 15.0821 222.573 15.1013 222.477 15.1206C220.569 15.6404 218.7 16.2565 216.772 16.6993C215.809 16.9303 216.368 17.8352 216.329 18.4128C216.291 18.7978 216.445 18.9134 216.618 18.9134C216.811 18.9134 217.061 18.7978 217.216 18.7786C218.064 18.6438 218.892 18.4705 219.74 18.4705C219.991 18.4705 220.222 18.4898 220.472 18.509C220.993 18.5861 221.532 18.6823 221.61 19.2984C221.687 19.953 221.186 20.1648 220.665 20.2803C219.759 20.4921 218.854 20.6846 217.948 20.8194C216.291 21.0696 216.214 21.1852 216.849 22.9372C217.389 22.09 217.986 21.3969 218.931 21.3969C219.104 21.3969 219.297 21.4162 219.509 21.474C219.914 21.5895 220.395 21.7435 220.261 22.3981C219.875 22.3403 219.49 22.1671 219.123 22.1671C218.892 22.1671 218.661 22.2441 218.43 22.4558C218.796 22.7639 219.201 23.0527 219.123 23.6495C219.085 23.919 218.372 24.3234 219.181 24.4581C219.374 24.4966 219.586 24.5351 219.817 24.5351C220.183 24.5351 220.53 24.4389 220.627 24.0346C220.742 23.534 220.916 23.3607 221.128 23.3607C221.34 23.3607 221.571 23.534 221.821 23.7265C222.188 22.7061 221.61 21.8205 221.667 20.8001C223.016 22.1285 223.055 25.517 221.821 26.9225C221.32 27.5 220.819 28.0584 220.665 28.8285C220.453 29.8874 220.858 30.465 221.918 30.5612C222.091 30.5805 222.265 30.5805 222.419 30.5805C222.978 30.5805 223.479 30.4264 223.845 29.7719C224.018 29.4638 224.327 29.2905 224.674 29.2905C224.847 29.2905 225.001 29.329 225.175 29.4061C225.714 29.6756 225.926 30.2147 225.888 30.7537C225.849 31.4276 225.175 31.2543 224.789 31.3313C223.922 31.4853 223.036 31.5624 222.149 31.5816C222.111 31.5816 222.053 31.5816 222.014 31.5816C220.106 31.5816 219.104 30.2724 219.625 28.3857C219.837 27.6348 220.126 26.9032 220.8 26.3834C221.32 25.9791 221.764 25.44 221.552 24.6314C220.415 25.9598 219.933 26.4411 219.451 26.4411C219.239 26.4411 219.008 26.3449 218.738 26.1909C219.181 26.0176 219.605 25.8636 220.01 25.7095C218.873 25.6518 217.832 25.4208 216.811 24.5736C217.081 27.7118 217.331 30.6382 217.582 33.5646C217.659 34.4695 218.198 34.8931 219.085 34.9123C220.357 34.9316 221.609 34.8931 222.881 34.9893C224.423 35.1048 226.003 35.1433 227.391 35.952C228.412 36.5488 228.451 37.1649 227.545 37.8965C226.447 38.7821 225.213 39.4174 223.845 39.7447C222.804 39.995 222.881 40.4378 223.421 41.1309C224.057 41.9395 224.847 42.2476 225.734 42.2476C226.003 42.2476 226.292 42.2283 226.582 42.1706C226.986 42.0936 227.314 42.0551 227.564 42.0551C228.393 42.0551 228.547 42.4979 228.682 43.8263C228.778 44.7312 228.451 45.6938 229.068 46.5217C229.106 47.157 229.029 47.7923 228.316 47.9271C228.239 47.9464 228.162 47.9464 228.085 47.9464C227.449 47.9464 227.237 47.3495 227.083 46.7912C227.102 46.4062 227.16 46.0404 227.16 45.6553C227.179 44.9815 227.372 44.1921 227.102 43.6723C226.986 43.4412 226.774 43.3835 226.524 43.3835C226.215 43.3835 225.849 43.4798 225.522 43.4798C225.464 43.4798 225.387 43.4798 225.329 43.4605C223.864 43.2295 222.419 42.0166 222.053 40.6496C221.744 39.533 222.072 38.9746 223.19 38.7051C223.884 38.5318 224.577 38.3778 225.29 38.089C224.847 37.9542 224.442 37.8195 224.095 37.5114C223.922 37.3574 223.71 37.2419 223.498 37.2419C223.344 37.2419 223.17 37.2996 222.997 37.4729C222.843 37.6077 222.554 37.7232 222.342 37.7232C222.284 37.7232 222.226 37.7232 222.188 37.704C220.993 37.2996 219.74 36.9916 218.584 36.5488C216.271 35.6632 215.963 33.6416 215.867 31.4276C215.674 26.8069 215.211 22.2056 215.404 17.5657C215.423 16.9496 215.327 16.6993 214.999 16.6993C214.845 16.6993 214.653 16.7571 214.402 16.8533C213.785 17.1036 213.13 17.2384 212.456 17.2384C212.359 17.2384 212.263 17.2384 212.167 17.2384C210.972 17.1614 210.413 16.4683 210.721 15.2939C211.107 13.8114 212.032 12.6755 213.149 11.6743C215.886 9.1715 219.143 7.63129 222.65 6.68791C225.772 5.84079 228.913 5.47499 232.074 5.47499ZM224.423 11.2123C224.731 11.2123 225.117 10.6347 225.445 10.4229C225.888 10.1341 226.408 9.92236 226.678 9.44104C226.639 9.19076 226.543 9.11374 226.408 9.11374C226.312 9.11374 226.215 9.15225 226.119 9.21001C225.753 9.42179 225.367 9.63357 225.117 9.94161C224.789 10.3459 223.806 10.5962 224.173 11.0968C224.269 11.1738 224.346 11.2123 224.423 11.2123ZM229.337 9.15225C227.988 9.47954 227.005 10.3267 226.89 11.2315C227.641 10.4614 228.586 10.1726 229.337 9.15225ZM231.342 9.4988C230.59 9.5373 230.262 10.0571 229.896 10.5577C230.513 10.3844 231.014 10.0571 231.342 9.4988ZM221.012 11.8861C222.014 11.4433 222.824 10.6732 223.71 10.0571C223.864 9.96086 223.903 9.76833 223.729 9.63357C223.691 9.59506 223.614 9.57581 223.537 9.57581C223.479 9.57581 223.421 9.59506 223.402 9.61431C222.535 10.2689 221.667 10.9235 220.8 11.5781C220.877 11.6936 220.935 11.7899 221.012 11.8861ZM221.475 9.94161C220.087 10.2111 219.335 11.3663 218.333 12.1749C219.625 11.7706 220.434 10.7117 221.475 9.94161ZM246.547 18.6631C246.662 18.0855 246.778 17.4887 246.258 16.8341C246.084 17.6234 246.142 18.1625 246.547 18.6631ZM244.832 19.1444C245.024 19.1444 245.101 18.8171 245.043 18.509C244.812 18.124 245.198 17.3731 244.562 17.1614C244.523 17.1421 244.485 17.1421 244.446 17.1421C244.176 17.1421 244.215 17.5464 244.253 17.7774C244.369 18.2588 244.08 18.9326 244.774 19.1444C244.793 19.1444 244.812 19.1444 244.832 19.1444ZM243.328 19.4717C243.714 19.4717 243.656 18.9134 243.656 18.5861C243.637 18.124 243.945 17.3539 243.367 17.2961C243.348 17.2961 243.328 17.2961 243.309 17.2961C242.789 17.2961 243.232 18.047 243.001 18.355C243.02 18.7786 242.712 19.3754 243.251 19.4524C243.271 19.4717 243.29 19.4717 243.328 19.4717ZM221.61 35.9712C221.552 35.9712 221.475 35.9712 221.417 35.952C221.436 36.6451 221.764 36.9338 222.323 36.9338C222.361 36.9338 222.419 36.9338 222.457 36.9338C222.824 36.9146 223.036 36.5873 222.939 36.337C222.785 35.9905 222.573 35.9135 222.323 35.9135C222.091 35.9135 221.841 35.9712 221.61 35.9712ZM225.078 36.9338C225.31 36.9338 225.579 36.8761 225.888 36.7606C225.348 36.3948 224.924 36.26 224.442 36.26C224.327 36.26 224.211 36.26 224.095 36.2793C224.365 36.7413 224.654 36.9338 225.078 36.9338ZM232.074 4.80115C228.759 4.80115 225.541 5.22471 222.496 6.03332C218.526 7.11147 215.327 8.78645 212.706 11.1738C211.723 12.0594 210.548 13.3108 210.085 15.1206C209.835 16.0832 210.085 16.6993 210.336 17.0458C210.586 17.3924 211.126 17.8352 212.147 17.893C212.263 17.893 212.359 17.9122 212.475 17.9122C213.188 17.9122 213.92 17.7582 214.672 17.4694C214.691 17.4501 214.73 17.4501 214.749 17.4501C214.749 17.4694 214.749 17.5079 214.749 17.5272C214.614 20.8964 214.807 24.2848 214.999 27.5771C215.077 28.867 215.154 30.1569 215.211 31.4468C215.308 33.6609 215.635 36.1252 218.372 37.1649C219.066 37.4344 219.779 37.6462 220.472 37.858C220.974 38.012 221.494 38.166 221.995 38.3393C222.053 38.3585 222.13 38.3778 222.207 38.3778C221.918 38.5511 221.706 38.7436 221.571 38.9939C221.301 39.4559 221.263 40.0528 221.455 40.8229C221.879 42.4209 223.537 43.8456 225.29 44.1151C225.387 44.1343 225.483 44.1343 225.579 44.1343C225.772 44.1343 225.984 44.1151 226.196 44.0766C226.331 44.0573 226.466 44.0381 226.582 44.0381C226.582 44.0381 226.582 44.0381 226.601 44.0381C226.678 44.2499 226.639 44.6349 226.601 44.9622C226.582 45.174 226.562 45.405 226.562 45.6168C226.562 45.8671 226.543 46.0981 226.524 46.3484L226.485 46.7142V46.8297L226.524 46.9452C226.678 47.4843 227.005 48.5817 228.181 48.5817C228.297 48.5817 228.412 48.5625 228.528 48.5432C229.068 48.4469 229.954 48.0234 229.838 46.4254L229.819 46.2329L229.703 46.0789C229.434 45.7131 229.434 45.2895 229.453 44.6349C229.472 44.3269 229.472 44.0188 229.434 43.7108C229.337 42.6519 229.202 41.3235 227.641 41.3235C227.372 41.3235 227.044 41.362 226.543 41.439C226.273 41.4775 226.042 41.516 225.811 41.516C225.04 41.516 224.481 41.2464 224.018 40.6496C223.922 40.5341 223.864 40.4571 223.845 40.3993C223.903 40.3801 223.98 40.3608 224.076 40.3223C225.502 39.9758 226.851 39.3212 228.046 38.3393C228.277 38.1468 229.01 37.5692 228.952 36.7413C228.894 35.9135 228.085 35.4514 227.834 35.2974C226.408 34.4503 224.866 34.354 223.382 34.2577L223.016 34.2385C222.091 34.1807 221.166 34.1807 220.28 34.1807C219.914 34.1807 219.547 34.1807 219.201 34.1807C218.545 34.1807 218.391 33.9112 218.353 33.4491C218.16 31.3313 217.986 29.2328 217.794 27.038L217.736 26.3064L218.507 26.7492C218.834 26.9417 219.143 27.0765 219.47 27.0957C219.297 27.4615 219.181 27.8273 219.085 28.1739C218.777 29.2905 218.912 30.3302 219.49 31.081C220.049 31.8126 220.993 32.2169 222.13 32.2169H222.284C223.286 32.1784 224.192 32.1014 225.021 31.9474C225.078 31.9282 225.155 31.9282 225.213 31.9282C225.56 31.9089 226.601 31.8896 226.678 30.7345C226.736 29.8489 226.312 29.098 225.579 28.7322C225.329 28.5974 225.059 28.5397 224.77 28.5397C224.153 28.5397 223.633 28.867 223.344 29.3868C223.17 29.7333 222.978 29.8296 222.515 29.8296C222.361 29.8296 222.226 29.8104 222.072 29.8104C221.764 29.7911 221.552 29.6948 221.455 29.5793C221.359 29.4638 221.34 29.2135 221.417 28.8862C221.532 28.2894 221.956 27.8273 222.419 27.2883C223.903 25.6133 223.787 21.782 222.226 20.2418L222.149 20.1648C222.419 19.799 222.419 19.4139 222.38 19.1251C222.226 17.97 221.089 17.8159 220.665 17.7582C220.395 17.7197 220.126 17.7004 219.856 17.7004C219.104 17.7004 218.372 17.8159 217.659 17.9507L217.216 18.0277C217.177 18.0277 217.139 18.047 217.081 18.047C217.061 17.893 217.042 17.7774 217.023 17.6427C217.004 17.5272 216.965 17.3731 216.965 17.2769C216.984 17.2769 216.984 17.2769 217.023 17.2576C218.295 16.9688 219.547 16.603 220.781 16.2372C221.436 16.0447 222.111 15.8522 222.766 15.6597C222.804 15.6404 222.862 15.6404 222.92 15.6404C223.113 15.6404 223.344 15.6982 223.594 15.7752C223.941 15.8714 224.307 15.9677 224.731 15.9677C224.982 15.9677 225.213 15.9292 225.425 15.8714C226.62 15.5056 227.853 15.1976 229.068 14.8895C229.511 14.774 229.954 14.6778 230.397 14.5622L230.571 14.5237C230.609 14.5045 230.648 14.5045 230.686 14.4852C230.686 14.5045 230.706 14.5237 230.706 14.543C230.802 14.9088 231.13 15.5056 232.17 15.5056C232.344 15.5056 232.517 15.4864 232.691 15.4671L232.864 15.4479C235.639 15.2361 238.53 15.0051 241.343 14.1964H241.363C240.785 17.6042 240.669 21.2237 241.016 24.9394C241.093 25.748 241.189 26.7684 241.575 27.7311C241.787 28.2701 242.288 28.9055 243.386 28.9055C244.542 28.9055 244.889 27.9429 245.005 27.6348C245.063 27.4615 245.14 27.269 245.198 27.0957C245.333 26.7492 245.448 26.4219 245.564 26.0753C245.583 25.9791 245.622 25.9021 245.891 25.8828C245.891 25.9213 245.911 25.9406 245.911 25.9791C245.93 26.0561 245.93 26.1331 245.949 26.1909C246.161 27.0572 245.891 27.9236 245.198 28.4242C243.598 29.6178 243.251 31.2351 243.039 32.7945C242.615 35.952 242.577 39.1287 242.962 42.2668C243.039 42.9407 243.001 43.653 242.962 44.3846C242.943 44.7312 242.924 45.097 242.924 45.4435V45.5398L242.943 45.6361L242.981 45.7901C243.116 46.2714 243.367 47.2533 244.446 47.2533C244.523 47.2533 244.6 47.2533 244.677 47.234C245.217 47.157 245.525 46.8875 245.679 46.6757C246.046 46.1944 246.007 45.559 245.93 45.1355L245.834 44.5001C245.757 44.0766 245.699 43.6723 245.641 43.2487C245.757 43.2872 245.872 43.2872 245.988 43.2872C246.759 43.2872 247.125 42.6711 247.337 42.2861C248.011 41.1117 248.281 39.841 248.532 38.6281L248.589 38.3778C249.707 33.0256 249.63 27.4615 249.572 22.5329C249.534 18.9904 248.57 15.6789 246.739 12.714C246.489 12.3097 246.2 11.9631 245.911 11.6166C245.525 11.1545 245.159 10.731 244.986 10.2689C243.887 7.40026 241.555 5.62901 238.221 5.16695C236.082 4.93592 234.04 4.80115 232.074 4.80115ZM220.338 20.9926C220.511 20.9541 220.684 20.9156 220.839 20.8771C220.877 20.8579 220.935 20.8579 220.974 20.8386C220.974 21.2814 221.051 21.705 221.128 22.0708C221.166 22.2633 221.205 22.4558 221.224 22.6291C221.186 22.6291 221.147 22.6291 221.108 22.6291C221.051 22.6291 220.974 22.6291 220.916 22.6484L220.954 22.4751C221.07 21.9745 221.012 21.3777 220.338 20.9926ZM219.798 23.7843C219.817 23.7458 219.817 23.7073 219.817 23.6688C219.856 23.3607 219.817 23.1104 219.74 22.8794C219.894 22.9179 220.049 22.9564 220.203 22.9757L220.338 22.9949C220.203 23.1682 220.068 23.4185 219.991 23.765C219.971 23.765 219.914 23.765 219.837 23.765C219.817 23.7843 219.798 23.7843 219.798 23.7843ZM217.62 25.8636V25.8251C217.64 25.8251 217.659 25.8443 217.678 25.8443L217.62 25.8636Z" fill="white"/>
<path d="M179.155 71.5694C179.829 72.0315 179.791 72.609 179.405 73.2444C176.823 73.7257 174.241 74.3418 171.581 74.3418C165.819 74.361 162.08 71.7234 160.462 66.1594C158.669 60.0178 157.629 53.7222 157.282 47.311C156.973 41.439 156.742 35.5476 156.704 29.6563C156.704 28.8862 156.453 28.1739 156.164 27.4808C155.721 26.4219 155.432 25.3437 155.644 24.1693C155.817 23.1874 155.528 22.3596 154.719 21.7242C154.295 21.3969 153.871 21.0311 153.485 20.6461C153.138 20.3188 152.926 19.9145 153.081 19.3947C153.235 18.8748 153.659 18.7401 154.141 18.6246C155.181 18.3935 156.01 18.9326 156.954 19.3754C157.147 18.6823 156.723 18.1625 156.627 17.5657C156.511 16.8341 156.029 16.0254 156.723 15.4479C157.397 14.9088 157.898 15.7944 158.534 16.0062C158.534 15.6019 158.534 15.2361 158.534 14.8703C158.534 14.5045 158.746 14.0424 159.035 14.1002C160.095 14.312 161.098 13.6766 162.023 13.7729C163.082 13.8691 163.873 14.8895 164.374 15.8907C166.127 19.4332 167.207 23.1874 167.553 27.0957C168.247 34.7968 168.902 42.4979 169.847 50.1797C170.194 52.9713 171.003 55.6089 172.236 58.1118C173.508 60.6724 174.761 61.1922 177.575 60.4414C178.268 60.2681 178.943 60.0948 179.637 59.9023C180.234 61.0767 180.215 61.0959 178.442 61.8083C178.018 61.866 177.613 61.9045 177.189 62.0008C174.298 62.5976 172.795 61.9431 171.35 59.3439C171.022 58.7664 170.733 58.1503 170.463 57.5342C168.922 54.0302 168.344 50.2952 167.939 46.5217C167.303 40.6689 166.609 34.816 166.32 28.944C166.108 24.6891 165.183 20.6268 163.506 16.7378C163.179 15.9677 162.697 15.2553 161.656 14.7163C161.888 15.3516 162.042 15.7174 162.177 16.1025C162.581 17.2576 163.14 18.3358 163.352 19.5487C163.41 19.9145 163.564 20.3958 163.082 20.5306C162.524 20.7038 162.408 20.184 162.292 19.7797C162.003 18.7786 161.733 17.7389 161.213 16.8341C160.828 16.1602 160.462 15.3709 159.344 15.1398C159.71 16.4683 160.076 17.6234 160.346 18.7978C160.481 19.4332 161.155 20.3765 160.346 20.7038C159.594 20.9926 159.594 19.799 159.17 19.3369C158.631 18.7401 158.612 17.7004 157.455 17.4116C157.841 18.509 158.188 19.4909 158.534 20.4536C158.689 20.8771 159.113 21.3392 158.612 21.705C158.091 22.0708 157.783 21.4354 157.455 21.2044C156.549 20.5306 155.624 19.8952 154.353 19.7412C154.487 20.3573 154.892 20.5498 155.258 20.8386C156.395 21.7435 157.147 22.8216 156.839 24.4196C156.684 25.286 156.935 26.1716 157.378 26.961C157.86 27.8081 158.168 28.713 158.168 29.7141C158.188 33.1988 158.11 36.7028 158.284 40.1875C158.496 44.4231 158.438 48.678 159.035 52.8943C159.652 57.3032 160.327 61.7313 161.811 65.9476C163.121 69.6826 165.434 72.532 169.808 72.7438C171.735 72.8401 173.662 72.5705 175.57 72.1855C176.746 71.9159 177.902 71.4346 179.155 71.5694Z" fill="#1C1B1B"/>
<path d="M228.99 46.4831C228.374 45.6553 228.682 44.6926 228.605 43.7878C228.432 42.0358 228.2 41.824 226.504 42.132C225.252 42.3438 224.173 42.1513 223.344 41.0924C222.804 40.3993 222.727 39.9372 223.768 39.7062C225.136 39.3789 226.37 38.7436 227.468 37.8579C228.374 37.1263 228.335 36.5103 227.314 35.9134C225.926 35.0856 224.346 35.0471 222.804 34.9508C221.552 34.8545 220.28 34.893 219.008 34.8738C218.102 34.8545 217.582 34.431 217.505 33.5261C217.254 30.5997 217.004 27.6733 216.734 24.5351C217.755 25.3822 218.796 25.6132 219.933 25.671C219.528 25.825 219.104 25.9791 218.661 26.1523C219.586 26.6721 219.817 26.5374 221.475 24.5929C221.687 25.3822 221.243 25.9213 220.723 26.3449C220.049 26.8647 219.759 27.5963 219.547 28.3471C219.027 30.2724 220.068 31.6008 222.053 31.5238C222.939 31.5046 223.826 31.4276 224.693 31.2735C225.078 31.1965 225.753 31.3698 225.791 30.696C225.83 30.1376 225.618 29.6178 225.078 29.3483C224.558 29.098 223.999 29.252 223.749 29.7141C223.305 30.5804 222.592 30.5612 221.821 30.5034C220.762 30.4072 220.357 29.8296 220.569 28.7707C220.723 28.0006 221.224 27.423 221.725 26.8647C222.959 25.4592 222.901 22.0708 221.571 20.7423C221.513 21.7627 222.072 22.6676 221.725 23.6687C221.243 23.3029 220.781 22.9564 220.55 23.9575C220.395 24.5929 219.625 24.4773 219.124 24.3811C218.314 24.2271 219.046 23.842 219.066 23.5725C219.143 22.9756 218.757 22.6868 218.372 22.3788C218.95 21.8205 219.567 22.2248 220.222 22.321C220.376 21.6472 219.875 21.4932 219.47 21.3969C218.179 21.0504 217.447 21.859 216.811 22.8601C216.156 21.1081 216.233 21.0119 217.909 20.7423C218.815 20.6076 219.721 20.415 220.627 20.2033C221.128 20.0877 221.648 19.8567 221.571 19.2214C221.494 18.6053 220.954 18.4898 220.434 18.432C219.335 18.278 218.256 18.5283 217.177 18.7015C216.849 18.7593 216.214 19.1251 216.271 18.355C216.31 17.7774 215.751 16.8533 216.715 16.6415C218.642 16.1987 220.53 15.5826 222.419 15.0628C223.248 14.8318 224.115 15.5826 225.078 15.2746C226.716 14.7547 228.412 14.3889 230.07 13.9654C230.532 13.8499 230.975 13.6188 231.207 14.4082C231.38 15.0243 232.112 14.8895 232.652 14.851C235.466 14.6392 238.279 14.4082 240.997 13.6188C241.806 13.3878 242.037 13.4648 241.883 14.3697C241.286 17.8737 241.208 21.3969 241.536 24.9394C241.613 25.825 241.71 26.6914 242.056 27.5193C242.268 28.0583 242.673 28.2701 243.251 28.2701C243.829 28.2701 244.061 27.9236 244.234 27.4423C244.408 26.9224 244.62 26.4219 244.774 25.902C244.947 25.3437 245.41 25.2282 245.872 25.2282C246.392 25.2089 246.392 25.7288 246.47 26.0561C246.759 27.2305 246.335 28.3471 245.467 29.0017C244.08 30.0221 243.772 31.4468 243.579 32.91C243.155 36.0097 243.136 39.1094 243.502 42.209C243.637 43.2872 243.483 44.3846 243.463 45.482C238.973 45.482 234.502 45.8671 230.031 46.2714C229.646 46.3099 229.318 46.4061 228.99 46.4831ZM232.594 15.6404C231.611 15.7366 230.417 15.4863 229.28 15.9292C228.624 16.1794 228.008 16.5645 228.027 17.3346C228.027 18.1432 228.778 18.3742 229.395 18.6245C229.626 18.7208 229.896 18.7015 230.127 18.74C232.305 19.1058 234.483 18.7208 236.641 18.5475C237.316 18.4898 238.067 18.2972 238.125 17.4694C238.183 16.6608 237.489 16.372 236.853 16.1217C235.543 15.6019 234.155 15.6981 232.594 15.6404ZM229.896 22.9949C229.684 23.688 230.108 24.0923 230.648 24.5158C232.286 25.7673 235.119 24.7276 236.044 23.3607C236.333 22.9179 236.545 22.3981 236.275 21.8205C235.774 20.7808 233.828 19.8375 232.633 20.0685C230.744 20.4343 229.973 21.2429 229.896 22.9949ZM232.517 25.6518C231.862 25.1127 230.995 25.1897 229.935 24.9779C230.84 25.671 231.573 25.9405 232.517 25.6518Z" fill="#F9F9F8"/>
<path d="M179.155 71.5694C177.902 71.4346 176.765 71.916 175.57 72.1662C173.662 72.5705 171.754 72.8208 169.808 72.7246C165.433 72.5128 163.121 69.6634 161.81 65.9284C160.327 61.712 159.671 57.2839 159.035 52.8751C158.438 48.6587 158.476 44.4039 158.284 40.1683C158.11 36.6836 158.187 33.1796 158.168 29.6948C158.168 28.6937 157.86 27.7888 157.378 26.9417C156.916 26.1524 156.665 25.286 156.838 24.4004C157.127 22.8024 156.395 21.7435 155.258 20.8194C154.911 20.5306 154.487 20.3381 154.352 19.722C155.644 19.876 156.549 20.5113 157.455 21.1852C157.783 21.4355 158.091 22.0708 158.611 21.6857C159.093 21.3199 158.669 20.8579 158.534 20.4343C158.187 19.4717 157.841 18.5091 157.455 17.3924C158.592 17.6619 158.611 18.7208 159.17 19.3177C159.594 19.7797 159.594 20.9734 160.346 20.6846C161.174 20.3573 160.5 19.4332 160.346 18.7786C160.076 17.6042 159.71 16.449 159.344 15.1206C160.461 15.3709 160.808 16.141 161.213 16.8148C161.733 17.7197 162.003 18.7593 162.292 19.7605C162.408 20.1648 162.523 20.6846 163.082 20.5113C163.545 20.3766 163.41 19.8952 163.352 19.5294C163.14 18.3165 162.581 17.2191 162.177 16.0832C162.042 15.6982 161.888 15.3131 161.656 14.697C162.697 15.2361 163.159 15.9484 163.506 16.7186C165.183 20.6076 166.108 24.6699 166.32 28.9247C166.609 34.7968 167.283 40.6496 167.939 46.5024C168.363 50.276 168.922 54.011 170.463 57.515C170.733 58.131 171.022 58.7471 171.35 59.3247C172.795 61.9238 174.298 62.5784 177.189 61.9816C177.594 61.9046 178.018 61.8661 178.442 61.7891C178.268 63.2908 178.904 64.677 179.02 66.1209C179.135 67.9692 179.078 69.7789 179.155 71.5694Z" fill="#F9F9F8"/>
<path d="M221.475 9.94159C220.434 10.7117 219.625 11.7706 218.333 12.1749C219.335 11.3855 220.087 10.2111 221.475 9.94159Z" fill="#F9F9F8"/>
<path d="M220.8 11.5973C221.667 10.9428 222.535 10.2882 223.402 9.63357C223.479 9.57581 223.652 9.59506 223.729 9.65282C223.884 9.76834 223.864 9.96086 223.71 10.0764C222.804 10.6925 222.014 11.4626 221.012 11.9054C220.935 11.7899 220.877 11.6936 220.8 11.5973Z" fill="#F9F9F8"/>
<path d="M226.697 9.44101C226.427 9.92233 225.907 10.1341 225.464 10.4229C225.04 10.6924 224.558 11.5395 224.211 11.0967C223.845 10.6154 224.809 10.3459 225.155 9.94158C225.406 9.63353 225.791 9.42176 226.158 9.20998C226.331 9.09446 226.639 8.9982 226.697 9.44101Z" fill="#F9F9F8"/>
<path d="M245.044 18.509C245.101 18.8363 245.005 19.2021 244.774 19.1444C244.08 18.9518 244.369 18.2587 244.253 17.7774C244.196 17.5079 244.176 17.0458 244.562 17.1613C245.198 17.3924 244.812 18.124 245.044 18.509Z" fill="#F9F9F8"/>
<path d="M229.337 9.15222C228.586 10.1726 227.641 10.4807 226.89 11.2315C227.006 10.3266 227.988 9.47952 229.337 9.15222Z" fill="#F9F9F8"/>
<path d="M243.001 18.355C243.232 18.0277 242.75 17.2383 243.367 17.2961C243.945 17.3539 243.637 18.124 243.656 18.586C243.675 18.9133 243.733 19.5294 243.251 19.4524C242.712 19.3754 243.02 18.7786 243.001 18.355Z" fill="#F9F9F8"/>
<path d="M221.398 35.9519C221.937 36.0675 222.592 35.5861 222.92 36.337C223.036 36.5873 222.804 36.9146 222.438 36.9338C221.802 36.9916 221.436 36.7221 221.398 35.9519Z" fill="#F9F9F8"/>
<path d="M246.547 18.6631C246.142 18.1625 246.065 17.6234 246.258 16.8341C246.797 17.4887 246.662 18.0855 246.547 18.6631Z" fill="#F9F9F8"/>
<path d="M231.342 9.49878C231.014 10.0571 230.513 10.3844 229.896 10.5577C230.262 10.0571 230.609 9.53728 231.342 9.49878Z" fill="#F9F9F8"/>
<path d="M225.888 36.7798C225.001 37.0879 224.519 37.0301 224.095 36.2985C224.751 36.2022 225.232 36.337 225.888 36.7798Z" fill="#F9F9F8"/>
<path d="M232.691 15.6404C234.251 15.6789 235.639 15.6019 236.969 16.1217C237.605 16.372 238.298 16.6608 238.241 17.4694C238.183 18.2973 237.431 18.509 236.757 18.5475C234.598 18.7208 232.421 19.1059 230.243 18.7401C229.993 18.7016 229.723 18.7016 229.511 18.6245C228.894 18.3743 228.162 18.1432 228.142 17.3346C228.142 16.5645 228.759 16.1795 229.395 15.9292C230.513 15.5056 231.708 15.7366 232.691 15.6404Z" fill="#1C1B1B"/>
<path d="M231.92 21.3584C233.327 20.7809 234.483 21.0119 235.446 21.9553C235.851 22.3596 235.697 22.6869 235.427 23.0527C234.676 24.0153 233.25 24.4196 231.939 23.9961C233.192 23.0334 233.211 22.5136 231.92 21.3584Z" fill="#F9F9F8"/>
<path d="M206.115 216.908C205.229 216.715 205.19 215.964 205.171 215.483C205.017 212.383 204.786 161.614 204.651 128.037C204.574 111.345 204.516 98.1573 204.497 96.6556C204.458 93.9025 204.15 91.1108 203.861 88.4154C203.668 86.702 203.494 84.9692 203.36 83.2365C203.263 81.908 203.167 80.3486 203.148 78.8084C203.148 77.9612 202.897 77.8265 202.377 77.8265C202.28 77.8265 202.184 77.8265 202.068 77.8457L201.664 77.9035C198.233 78.3078 194.687 78.7121 191.18 79.0394C188.405 79.2897 186.17 79.54 184.107 79.848C184.088 79.8865 183.934 79.9443 183.761 79.9828C183.221 80.0598 182.72 80.1175 182.257 80.1368C181.679 80.2331 181.371 80.2716 181.101 80.2716C180.774 80.2716 180.523 80.2138 180.311 80.079C180.253 80.079 180.195 80.079 180.138 80.079C179.771 80.079 179.29 80.0405 178.789 79.9828C177.613 79.8673 176.303 79.7325 174.433 79.7325C174.106 79.7325 173.393 79.7517 173.393 79.7517C166.628 79.7517 157.166 68.6815 156.106 67.43C152.271 62.8672 148.764 48.5817 148.629 47.9656L148.59 47.7731L167.746 29.3675L167.842 30.0221C167.862 30.1569 169.77 43.576 171.774 54.8773C172.468 58.7471 174.125 60.7109 176.707 60.7109C177.536 60.7109 178.442 60.5183 179.444 60.1333L179.328 59.9022L179.463 59.7097C180.022 59.0744 180.754 58.8434 181.467 58.6316C181.737 58.5546 182.026 58.4583 182.277 58.3428L183.568 57.7845C187.73 55.994 192.047 54.1457 196.345 52.49C200.604 50.8535 204.998 49.5828 209.449 48.6972C214.614 47.6768 219.798 47.0222 224.828 46.7142C225.348 46.6757 225.888 46.5987 226.408 46.5216L227.449 46.3676L227.526 46.6372C227.719 47.2532 227.853 47.5613 228.2 47.5613C228.644 47.4843 228.913 47.3303 228.836 46.5024L228.856 46.2329L229.434 46.0981C229.684 46.0403 229.916 45.9633 230.166 45.9441C234.483 45.5398 239.069 45.1547 243.637 45.1547H243.887L243.964 45.405C244.157 46.1366 244.253 46.2906 244.504 46.2906C244.851 46.2521 244.909 46.1558 244.928 46.1366C245.024 46.0018 245.044 45.7515 244.986 45.3472L244.928 44.9429L246.238 45.0007C250.497 45.1932 254.91 45.3857 259.169 46.4639C265.317 48.0234 270.771 49.6406 275.357 53.4719C279.231 56.7256 281.91 60.3643 283.567 64.6192C285.051 68.4697 285.86 72.4935 286.65 76.4018C286.843 77.3644 287.036 78.3463 287.248 79.3089C287.672 81.292 288.115 83.2557 288.558 85.2388C291.68 94.3838 289.136 100.487 287.749 103.779C286.843 105.935 276.417 111.268 267.745 115.408L267.784 128.654C267.861 163.174 267.957 206.126 268.458 210.651C268.574 211.613 268.555 212.268 268.188 212.691C267.803 213.134 267.148 213.23 266.126 213.288C265.51 212.999 265.028 212.884 264.353 212.884C264.084 212.884 263.814 212.903 263.525 212.922C263.274 212.942 263.024 212.961 262.773 212.961C257.358 213.038 251.846 213.384 246.527 213.712C242.847 213.943 239.166 214.174 235.485 214.328C231.631 214.482 227.719 214.809 223.941 215.117C218.7 215.541 213.284 215.984 207.927 216.003C207.927 216.003 207.657 216.003 207.638 216.003C207.079 216.003 206.867 216.022 206.52 216.773L206.404 217.023L206.115 216.908ZM267.707 79.54C267.456 80.6566 267.456 81.7733 267.514 82.7552C267.591 84.2761 267.649 90.0134 267.687 100.814C269.403 98.4653 269.518 94.6918 269.268 91.8039C269.171 91.7077 269.056 91.3996 268.979 91.0146C268.69 89.6091 268.535 88.2037 268.381 86.5094L268.304 85.6238C268.227 84.7382 268.169 83.8526 268.073 82.9669C268.034 82.5626 267.996 82.1583 267.976 81.754C267.899 81.0417 267.842 80.2716 267.707 79.54Z" fill="black"/>
<path d="M167.495 30.0799C167.495 30.0799 169.403 43.5182 171.427 54.9543C172.275 59.6905 174.433 61.0767 176.707 61.0767C177.806 61.0767 178.904 60.7494 179.906 60.3258C179.848 60.2103 179.791 60.0948 179.714 59.9408C180.427 59.1322 181.506 59.0551 182.412 58.6701C182.72 58.5353 183.009 58.4198 183.317 58.285C187.692 56.4175 192.047 54.5308 196.48 52.8365C200.7 51.2001 205.055 49.9486 209.526 49.063C214.595 48.0619 219.702 47.388 224.866 47.0992C225.656 47.0607 226.447 46.8875 227.237 46.7912C227.41 47.3495 227.622 47.9464 228.239 47.9464C228.316 47.9464 228.374 47.9464 228.47 47.9271C229.183 47.7923 229.28 47.157 229.222 46.5217C229.549 46.4447 229.877 46.3291 230.205 46.3099C234.675 45.8863 239.146 45.5205 243.637 45.5205C243.791 46.0211 243.868 46.6564 244.504 46.6564C244.542 46.6564 244.6 46.6564 244.658 46.6372C245.39 46.5409 245.429 45.9248 245.333 45.3087C249.958 45.5205 254.583 45.6553 259.092 46.8105C264.816 48.2737 270.501 49.8524 275.145 53.7607C278.73 56.7641 281.524 60.2873 283.259 64.7732C285.089 69.5286 285.88 74.4958 286.939 79.4052C287.363 81.3882 287.807 83.352 288.25 85.335C291.276 94.172 289.001 100.006 287.46 103.683C286.631 105.666 276.649 110.845 267.418 115.234C267.514 151.526 267.552 205.568 268.131 210.708C268.343 212.557 268.054 212.884 266.107 212.961C265.548 212.634 264.951 212.557 264.353 212.557C263.833 212.557 263.293 212.614 262.773 212.614C253.658 212.73 244.581 213.616 235.466 213.981C226.273 214.347 217.139 215.618 207.927 215.656H207.908C207.773 215.656 207.657 215.656 207.541 215.656C206.963 215.656 206.636 215.733 206.212 216.619C205.556 216.465 205.556 215.945 205.537 215.445C205.306 210.92 204.94 101.218 204.863 96.6941C204.786 92.189 204.053 87.7416 203.745 83.275C203.649 81.8118 203.552 80.3486 203.533 78.8661C203.533 77.942 203.225 77.5377 202.434 77.5377C202.319 77.5377 202.222 77.5377 202.088 77.557C198.465 77.9805 194.842 78.4041 191.199 78.7314C188.829 78.9432 186.459 79.1934 184.107 79.54C183.992 79.5977 183.876 79.6555 183.761 79.6748C183.221 79.7518 182.739 79.8095 182.296 79.8288C182.219 79.848 182.161 79.848 182.084 79.8673C181.718 79.925 181.409 79.9635 181.159 79.9635C180.889 79.9635 180.696 79.925 180.542 79.8288C178.904 79.7325 177.285 79.4437 174.491 79.4437C174.163 79.4437 173.797 79.4437 173.431 79.463C173.393 79.463 173.335 79.463 173.296 79.463C167.977 79.463 160.211 71.7812 156.414 67.2568C152.599 62.6939 148.995 47.9464 148.995 47.9464L167.495 30.0799ZM267.34 101.7C269.653 99.4087 269.884 95.1924 269.595 91.7654C269.46 91.5537 269.364 91.2841 269.306 90.9376C268.998 89.4551 268.844 87.9727 268.728 86.4709C268.632 85.2965 268.535 84.1029 268.42 82.9285C268.246 81.3882 268.285 79.8095 267.745 78.3271C267.167 79.771 267.128 81.3112 267.206 82.7744C267.263 84.4879 267.302 91.6307 267.34 101.7ZM167.977 28.6744L167.033 29.5793L148.494 47.388L148.224 47.6576L148.32 48.0426C148.475 48.6587 152.001 63.0019 155.875 67.6418C156.935 68.9125 166.513 80.0983 173.277 80.0983H173.431C173.797 80.0983 174.144 80.0791 174.472 80.0791C176.322 80.0791 177.632 80.2138 178.789 80.3293C179.328 80.3871 179.829 80.4256 180.349 80.4641C180.581 80.5604 180.831 80.6181 181.14 80.6181C181.409 80.6181 181.737 80.5796 182.18 80.5026L182.277 80.4834L182.392 80.4641C182.835 80.4449 183.337 80.3871 183.857 80.3101C184.011 80.2908 184.165 80.2331 184.319 80.1753C186.343 79.8865 188.54 79.6362 191.257 79.386C194.803 79.0587 198.407 78.6544 201.876 78.2501L202.165 78.2116C202.261 78.1923 202.357 78.1923 202.434 78.1923C202.743 78.1923 202.858 78.1923 202.858 78.8469C202.858 80.4064 202.974 81.9658 203.07 83.2943C203.186 85.027 203.379 86.779 203.572 88.4732C203.861 91.1493 204.15 93.941 204.207 96.6749C204.227 98.1766 204.285 111.384 204.362 128.114C204.516 161.691 204.728 212.403 204.882 215.464C204.901 216.003 204.959 217.023 206.096 217.274L206.616 217.389L206.848 216.908C207.117 216.33 207.175 216.33 207.561 216.33H207.715H207.908C213.304 216.311 218.719 215.868 223.961 215.445C227.738 215.137 231.65 214.809 235.504 214.655C239.185 214.501 242.924 214.27 246.547 214.039C251.866 213.712 257.377 213.365 262.792 213.288C263.043 213.288 263.293 213.269 263.563 213.25C263.833 213.231 264.103 213.211 264.353 213.211C264.97 213.211 265.394 213.308 265.779 213.519L265.953 213.616H266.146C267.263 213.577 267.996 213.442 268.458 212.903C268.901 212.383 268.921 211.671 268.805 210.612C268.304 206.088 268.208 163.077 268.131 128.5L268.092 115.639C280.599 109.67 287.325 105.743 288.076 103.933C289.464 100.602 292.066 94.403 288.886 85.1233C288.462 83.2172 288.019 81.2535 287.595 79.2704C287.383 78.3078 287.19 77.3452 286.997 76.3633C286.207 72.455 285.378 68.3927 283.895 64.5229C282.237 60.2103 279.52 56.5138 275.589 53.2408C270.944 49.3518 265.452 47.7346 259.266 46.1559C254.968 45.0585 250.536 44.8659 246.258 44.6734L245.371 44.6349L244.542 44.5964L244.658 45.405C244.716 45.8286 244.658 45.9248 244.658 45.9441C244.658 45.9441 244.62 45.9633 244.562 45.9633C244.446 45.9248 244.369 45.6553 244.33 45.5013L244.273 45.3087L244.138 44.8274H243.637C239.069 44.8274 234.463 45.2125 230.147 45.6168C229.858 45.636 229.607 45.7131 229.357 45.7708C229.26 45.7901 229.164 45.8286 229.068 45.8478L228.509 45.9826L228.547 46.5602C228.586 47.1955 228.451 47.234 228.335 47.2533C228.297 47.2533 228.258 47.2725 228.239 47.2725C228.142 47.2725 228.046 47.157 227.873 46.5987L227.699 46.0403L227.121 46.1174C226.871 46.1559 226.62 46.1944 226.37 46.2329C225.83 46.3099 225.329 46.3869 224.809 46.4254C219.74 46.7142 214.556 47.388 209.372 48.4084C204.901 49.294 200.488 50.5647 196.21 52.2205C191.893 53.8954 187.576 55.7437 183.394 57.5342L183.028 57.6882L182.373 57.9577L182.122 58.0733C181.872 58.1888 181.602 58.2658 181.332 58.3428C180.619 58.5546 179.81 58.8049 179.174 59.5172L178.885 59.8638L178.943 59.9793C178.133 60.2681 177.362 60.4028 176.688 60.4028C174.279 60.4028 172.737 58.5353 172.082 54.8388C170.078 43.5375 168.17 30.1184 168.151 29.9836L167.977 28.6744ZM268.015 99.582C267.976 92.2082 267.957 87.4143 267.899 84.796C267.919 85.0655 267.938 85.3543 267.976 85.6238L268.053 86.5287C268.188 88.2229 268.362 89.6476 268.651 91.0723C268.728 91.4189 268.824 91.7077 268.94 91.958C269.133 94.3838 269.075 97.3872 268.015 99.582Z" fill="white"/>
<path d="M233.673 46.1174L236.853 88.2807L249.457 88.2615L238.973 46.1559L233.673 46.1174Z" fill="#F9F9F8"/>
<path d="M231.053 46.3291L226.582 91.3804L238.645 92.5355L235.408 46.1174L231.053 46.3291Z" fill="#F9F9F8" stroke="black" stroke-width="0.5" stroke-miterlimit="10"/>
<path d="M236.256 92.4586L235.408 59.8831L237.258 92.4008L236.256 92.4586Z" fill="black"/>
<path d="M234.656 92.3045L234.483 50.7188L235.658 92.2853L234.656 92.3045Z" fill="black"/>
<path d="M246.547 89.0701L238.318 47.5806L246.797 89.0123L246.547 89.0701Z" fill="black"/>
<path d="M244.465 88.8968L239.551 57.9578L244.716 88.8583L244.465 88.8968Z" fill="black"/>
<path d="M229.915 91.8809L232.401 58.3043L230.918 91.9387L229.915 91.8809Z" fill="black"/>
<path d="M228.181 91.7847L230.359 71.3384L229.183 91.8617L228.181 91.7847Z" fill="black"/>
<path d="M246.759 109.343C246.45 109.439 246.161 109.516 245.853 109.613C241.748 110.806 238.029 112.655 234.618 115.196C233.943 115.696 233.346 116.313 233.076 117.468C233.635 117.083 233.962 116.852 234.309 116.64C235.331 115.985 236.275 115.177 237.393 114.695C237.74 114.541 238.164 114.31 238.414 114.734C238.703 115.234 238.221 115.465 237.855 115.677C236.949 116.197 236.005 116.698 235.234 117.41C234.656 117.949 233.982 118.469 234.001 119.624C235.215 118.95 236.256 118.334 237.335 117.814C237.932 117.525 238.684 116.659 239.185 117.391C239.647 118.045 238.472 118.334 238.125 118.854C237.682 119.528 236.66 119.778 236.641 120.952C237.624 120.317 238.491 119.759 239.339 119.2C239.705 118.95 240.071 118.43 240.534 118.835C241.016 119.239 240.476 119.701 240.303 120.067C239.859 121.106 239.435 122.146 239.59 123.417C240.168 123.147 240.264 122.704 240.457 122.281C241.074 120.972 241.941 119.99 243.56 119.913C244.446 119.874 245.236 119.412 245.891 118.796C246.604 118.122 247.414 117.622 248.397 117.391C248.724 117.314 249.052 117.237 249.38 117.16C248.377 114.561 247.433 111.981 246.759 109.343Z" fill="#F9F9F8"/>
<path d="M244.658 120.356C243.907 119.778 243.174 119.2 242.423 118.623C241.054 117.237 240.11 115.619 239.57 113.752C239.436 112.77 239.301 111.788 239.185 110.826C239.166 110.171 239.243 109.555 239.358 108.958L233.076 96.9829L208.042 112.058L232.864 144.171L253.369 133.101L245.525 120.798C245.236 120.644 244.947 120.529 244.658 120.356Z" fill="#F9F9F8"/>
<path d="M244.909 120.49L252.868 132.966L232.941 143.709L208.543 112.135L232.941 97.4449L239.301 109.574C239.339 109.17 239.358 108.785 239.455 108.4L233.192 96.4823L207.503 111.942L232.556 144.364L232.729 144.595L253.504 133.39L253.831 133.216L246.084 121.049C245.699 120.895 245.294 120.702 244.909 120.49Z" fill="black"/>
<path d="M284.357 87.241C284.665 86.4709 285.224 86.3747 285.918 86.625C286.997 89.0315 288.192 91.3996 288.809 93.9795C290.158 99.582 288.462 103.818 283.432 106.686C277.863 109.863 271.966 112.327 265.818 114.137C260.172 115.812 254.487 117.371 248.763 118.796C248.011 118.989 247.375 119.393 246.759 119.836C245.834 120.51 244.851 121.049 243.656 121.126C242.654 121.184 241.922 121.665 241.478 122.608C241.247 123.109 240.997 123.59 240.707 124.052C240.457 124.456 240.11 124.764 239.59 124.726C239.05 124.687 238.819 124.302 238.607 123.879C238.125 122.916 238.472 121.992 238.684 120.972C237.971 120.952 237.547 121.492 237.007 121.703C236.333 121.992 235.639 122.647 234.926 122.088C234.232 121.569 235.003 120.875 235.042 120.202C234.637 120.298 234.29 120.375 233.943 120.471C233.577 120.548 233.095 120.471 233.076 120.163C233.037 119.066 232.19 118.257 232.055 117.333C231.9 116.293 232.71 115.273 233.577 114.561C236.622 112.038 240.014 110.113 243.752 108.862C251.095 106.417 258.437 103.972 265.702 101.276C268.343 100.294 270.713 98.9082 272.852 97.1177C275.049 95.2887 275.261 93.941 273.893 91.3996C273.565 90.7643 273.238 90.1482 272.891 89.5129C273.893 88.6657 273.912 88.6657 275.03 90.2252C275.184 90.6103 275.319 91.0146 275.492 91.3996C276.745 94.0757 276.456 95.693 274.259 97.6952C273.758 98.1573 273.238 98.5616 272.698 98.9659C269.634 101.276 266.126 102.701 262.561 103.972C257.011 105.955 251.48 107.976 245.814 109.613C241.71 110.806 237.99 112.655 234.579 115.196C233.905 115.696 233.307 116.313 233.037 117.468C233.596 117.083 233.924 116.852 234.271 116.64C235.292 115.985 236.237 115.177 237.354 114.695C237.701 114.541 238.125 114.31 238.376 114.734C238.665 115.234 238.183 115.465 237.817 115.677C236.911 116.197 235.967 116.698 235.196 117.41C234.618 117.949 233.943 118.469 233.962 119.624C235.177 118.95 236.217 118.334 237.296 117.814C237.894 117.525 238.645 116.659 239.147 117.391C239.609 118.045 238.433 118.334 238.087 118.854C237.643 119.528 236.622 119.778 236.603 120.952C237.586 120.317 238.453 119.759 239.301 119.2C239.667 118.95 240.033 118.43 240.495 118.835C240.977 119.239 240.438 119.701 240.264 120.067C239.821 121.106 239.397 122.146 239.551 123.417C240.129 123.147 240.226 122.704 240.418 122.281C241.035 120.972 241.902 119.99 243.521 119.913C244.408 119.874 245.198 119.412 245.853 118.796C246.566 118.122 247.375 117.622 248.358 117.391C251.75 116.563 255.18 115.831 258.534 114.849C262.619 113.675 266.782 112.732 270.732 111.172C274.876 109.536 279.038 107.88 282.796 105.454C286.13 103.298 288.366 100.41 287.556 96.0973C287.209 94.1913 286.496 92.3815 285.668 90.6295C285.263 89.4936 284.511 88.4925 284.357 87.241Z" fill="#1C1B1B"/>
<path d="M230.05 105.454C227.429 106.686 224.789 107.918 222.111 109.016C220.839 109.536 219.528 109.978 218.276 110.537C217.659 110.806 217.119 111.153 216.599 111.596C216.136 111.981 215.77 112.462 215.288 112.789C214.556 113.29 214.383 114.522 215.288 114.965C215.385 115.003 215.481 115.061 215.578 115.1C217.023 115.812 218.314 113.636 216.849 112.924C216.753 112.886 216.657 112.828 216.56 112.789C216.56 113.521 216.56 114.253 216.56 114.965C217.582 114.253 218.314 113.29 219.451 112.77C220.684 112.212 221.976 111.788 223.228 111.268C225.965 110.132 228.644 108.881 231.322 107.63C231.939 107.341 232.093 106.455 231.785 105.897C231.399 105.262 230.667 105.165 230.05 105.454Z" fill="black"/>
<path d="M231.766 110.152C229.838 111.365 227.834 112.462 225.753 113.386C223.691 114.31 221.744 115.273 220.858 117.468C220.607 118.103 221.128 118.854 221.744 119.027C222.457 119.22 223.055 118.777 223.305 118.142C223.556 117.506 224.211 117.006 224.789 116.64C225.656 116.12 226.62 115.754 227.545 115.331C229.434 114.445 231.284 113.444 233.037 112.327C233.616 111.961 233.847 111.211 233.5 110.595C233.153 110.036 232.344 109.786 231.766 110.152Z" fill="black"/>
<path d="M227.468 119.046C227.083 119.297 226.697 119.547 226.312 119.778C226.138 119.894 225.946 120.009 225.772 120.125C225.657 120.202 225.541 120.298 225.445 120.375C225.367 120.433 225.329 120.51 225.271 120.587C225.155 120.741 225.078 120.895 225.001 121.087C224.963 121.222 224.943 121.376 224.943 121.53C224.943 121.857 225.078 122.204 225.31 122.416C225.522 122.627 225.888 122.801 226.196 122.781C226.524 122.762 226.871 122.666 227.083 122.416C227.314 122.165 227.449 121.857 227.449 121.53C227.449 121.511 227.449 121.492 227.449 121.472C227.429 121.588 227.41 121.703 227.41 121.8C227.41 121.78 227.41 121.761 227.429 121.742C227.391 121.838 227.352 121.934 227.295 122.05C227.314 122.031 227.314 122.011 227.333 121.973C227.275 122.05 227.198 122.146 227.14 122.223C227.179 122.185 227.217 122.146 227.256 122.108C227.179 122.165 227.083 122.242 227.006 122.3C227.275 122.108 227.564 121.934 227.853 121.742C228.143 121.549 228.451 121.357 228.74 121.184C229.01 121.01 229.241 120.741 229.318 120.433C229.376 120.259 229.376 120.105 229.337 119.932C229.337 119.759 229.28 119.605 229.183 119.47C229.01 119.2 228.74 118.969 228.432 118.892C228.123 118.854 227.757 118.854 227.468 119.046Z" fill="black"/>
<path d="M233.596 124.187C232.44 124.476 231.361 125.073 230.474 125.881C230.243 126.093 230.108 126.459 230.108 126.767C230.108 127.075 230.243 127.441 230.474 127.652C230.725 127.864 231.033 128.037 231.361 128.018C231.708 127.999 231.997 127.883 232.247 127.652C232.363 127.537 232.479 127.441 232.613 127.344C232.536 127.402 232.44 127.479 232.363 127.537C232.768 127.229 233.192 126.979 233.654 126.767C233.558 126.805 233.461 126.844 233.346 126.902C233.635 126.786 233.943 126.671 234.252 126.613C234.56 126.536 234.849 126.305 235.003 126.035C235.157 125.766 235.234 125.361 235.138 125.053C234.945 124.418 234.29 124.014 233.596 124.187Z" fill="black"/>
<path d="M243.656 128.037C240.148 129.173 236.795 130.771 233.712 132.831C233.153 133.216 232.902 133.948 233.249 134.564C233.577 135.122 234.406 135.392 234.984 135.026C237.874 133.101 241.016 131.561 244.311 130.502C244.966 130.29 245.39 129.616 245.198 128.942C245.043 128.288 244.311 127.826 243.656 128.037Z" fill="black"/>
<path d="M216.56 22.4366C216.58 22.4944 216.599 22.5714 216.599 22.6291C216.58 22.5136 216.56 22.3981 216.56 22.3018C216.599 22.5906 216.58 22.8602 216.58 23.1489C216.58 23.534 216.637 23.9191 216.695 24.3041C216.792 24.8624 216.946 25.4208 217.119 25.9406C217.235 26.2486 217.389 26.5182 217.64 26.7299C218.006 27.0187 218.449 27.0572 218.892 26.9802C219.201 26.9225 219.509 26.7877 219.779 26.6529C220.338 26.3834 220.781 25.9406 221.128 25.44C221.532 24.8817 221.725 24.1886 221.783 23.5147C220.954 23.6303 220.126 23.7458 219.297 23.842C219.316 23.8998 219.335 23.9576 219.335 24.0346C219.316 23.9191 219.297 23.8035 219.297 23.7073C219.297 23.765 219.316 23.8228 219.297 23.8998C219.316 23.7843 219.335 23.6688 219.335 23.5725C219.335 23.611 219.316 23.6495 219.316 23.688C219.355 23.5918 219.393 23.4955 219.451 23.38C219.432 23.4185 219.432 23.4377 219.413 23.4762C219.47 23.3992 219.547 23.303 219.605 23.226C219.586 23.2452 219.567 23.2837 219.528 23.303C219.605 23.2452 219.702 23.1682 219.779 23.1104C219.759 23.1297 219.721 23.1489 219.702 23.1489C219.798 23.1104 219.894 23.0719 220.01 23.0142C219.991 23.0142 219.971 23.0142 219.971 23.0334C220.087 23.0142 220.203 22.9949 220.299 22.9949C220.28 22.9949 220.261 22.9949 220.241 22.9949C220.453 23.7843 220.665 24.5736 220.877 25.3437C221.205 25.1127 221.494 24.8432 221.667 24.4581C221.841 24.0923 221.956 23.688 221.918 23.2837C221.089 23.3992 220.261 23.5147 219.432 23.611C219.451 23.6495 219.451 23.688 219.451 23.7265C219.432 23.611 219.413 23.4955 219.413 23.3992C219.413 23.4762 219.413 23.5725 219.413 23.6495C219.432 23.534 219.451 23.4185 219.451 23.3222C219.393 23.7458 219.201 24.1693 219.046 24.5544C218.969 24.7469 218.989 25.0357 219.046 25.2282C219.124 25.4978 219.278 25.7096 219.509 25.8828C219.682 26.0176 219.875 26.0946 220.106 26.1331C220.357 26.1716 220.704 26.1524 220.916 25.9791C221.205 25.7673 221.34 25.6518 221.552 25.3437C221.667 25.1897 221.725 24.9972 221.802 24.8239C221.918 24.5351 221.937 24.2078 221.956 23.8998C221.976 23.5725 221.956 23.2452 221.899 22.9179C221.783 22.4173 221.455 21.9938 221.031 21.7243C220.819 21.5895 220.569 21.4932 220.338 21.3777C220.203 21.3199 220.068 21.2429 219.933 21.1852C219.547 21.0119 219.201 20.8771 218.777 20.9734C218.198 21.1082 217.775 21.6857 217.659 22.2441C217.582 22.5714 217.563 22.8987 217.601 23.2452C217.62 23.5918 217.717 23.8998 217.967 24.1308C218.179 24.3426 218.545 24.5159 218.854 24.4966C219.49 24.4774 220.183 23.9383 220.126 23.226C220.106 23.0334 220.106 22.8602 220.126 22.6676C220.106 22.7831 220.087 22.8987 220.087 22.9949C220.106 22.8987 220.126 22.8216 220.164 22.7446C220.126 22.8409 220.087 22.9372 220.029 23.0527C220.068 22.9949 220.087 22.9372 220.145 22.8602C220.087 22.9372 220.01 23.0334 219.952 23.1104C219.971 23.0912 219.971 23.0912 219.991 23.0719C219.798 23.1875 219.625 23.2837 219.432 23.3992C219.451 23.3992 219.47 23.38 219.47 23.38C219.239 23.38 219.027 23.38 218.796 23.38C218.815 23.38 218.834 23.3992 218.854 23.3992C218.757 23.3607 218.661 23.3222 218.545 23.2645C218.777 23.38 219.008 23.4762 219.239 23.5918C219.432 23.688 219.644 23.765 219.817 23.8998C219.74 23.842 219.644 23.765 219.567 23.7073C219.625 23.7458 219.663 23.8035 219.702 23.8613C219.644 23.7843 219.567 23.688 219.509 23.611C219.528 23.6495 219.547 23.6688 219.567 23.7073C219.528 23.611 219.49 23.5147 219.432 23.3992C219.47 23.4762 219.47 23.5533 219.49 23.6303C219.47 23.5147 219.451 23.3992 219.451 23.303C219.47 23.5533 219.47 23.8228 219.432 24.0731C219.451 23.9576 219.47 23.842 219.47 23.7458C219.451 23.8805 219.432 24.0153 219.374 24.1501C219.413 24.0538 219.451 23.9576 219.509 23.842C219.47 23.9191 219.432 23.9961 219.393 24.0538C219.451 23.9768 219.528 23.8805 219.586 23.8035C219.547 23.8613 219.509 23.8998 219.451 23.9383C219.528 23.8805 219.625 23.8035 219.702 23.7458C219.682 23.765 219.682 23.765 219.663 23.7843C220.28 24.2656 220.896 24.7277 221.513 25.209C221.783 24.4581 222.111 23.7265 221.879 22.9179C221.725 22.3018 221.108 21.936 220.492 22.013C220.222 22.0515 219.952 22.1671 219.759 22.3596C219.547 22.5906 219.355 22.9372 219.393 23.2452C219.413 23.3415 219.413 23.4185 219.393 23.5147C219.413 23.3992 219.432 23.2837 219.432 23.1875C219.413 23.2837 219.393 23.3607 219.374 23.4377C219.413 23.3415 219.451 23.2452 219.509 23.1297C219.47 23.2067 219.432 23.2837 219.374 23.3607C219.432 23.2837 219.509 23.1875 219.567 23.1104C219.509 23.1875 219.451 23.2452 219.374 23.303C219.451 23.2452 219.547 23.1682 219.625 23.1104C219.605 23.1297 219.605 23.1297 219.586 23.1489C219.355 23.3222 219.181 23.4762 219.066 23.7458C218.95 23.9961 218.912 24.3041 219.008 24.5736C219.181 25.0742 219.663 25.5363 220.222 25.4978C220.8 25.4593 221.32 25.1897 221.59 24.6699C221.841 24.2078 221.841 23.688 221.706 23.1875C221.552 22.5714 220.935 22.2056 220.318 22.2826C219.682 22.3596 219.258 22.8794 219.22 23.534C219.22 23.611 219.201 23.6688 219.201 23.7458C219.22 23.6303 219.239 23.5147 219.239 23.4185C219.201 23.611 219.162 23.7843 219.085 23.9576C219.123 23.8613 219.162 23.765 219.22 23.6495C219.123 23.8613 219.027 24.0538 218.892 24.2271C218.95 24.1501 219.027 24.0538 219.085 23.9768C218.95 24.1501 218.796 24.3041 218.603 24.4581C218.68 24.4004 218.777 24.3234 218.854 24.2656C218.68 24.3811 218.507 24.4966 218.314 24.5736C218.41 24.5351 218.507 24.4966 218.622 24.4389C218.488 24.4966 218.333 24.5351 218.179 24.5736C218.295 24.5544 218.41 24.5351 218.507 24.5351C218.488 24.5351 218.468 24.5351 218.449 24.5351C218.565 24.5544 218.68 24.5736 218.777 24.5736C218.757 24.5736 218.738 24.5736 218.719 24.5736C218.815 24.6121 218.912 24.6507 219.027 24.7084C219.008 24.7084 218.989 24.6892 218.989 24.6892C219.066 24.7469 219.162 24.8239 219.239 24.8817C219.22 24.8624 219.22 24.8624 219.201 24.8432C219.258 24.9202 219.335 25.0165 219.393 25.0935C219.393 25.0742 219.374 25.0742 219.374 25.055C219.413 25.1512 219.451 25.2475 219.509 25.363C219.393 25.0742 219.316 24.7277 219.22 24.4196C219.123 24.0923 219.066 23.765 219.008 23.4185C219.027 23.534 219.046 23.6495 219.046 23.7458C218.969 23.0912 219.066 22.4366 218.912 21.782C218.738 21.1467 218.006 20.6846 217.351 20.8964C216.772 21.1082 216.387 21.7628 216.56 22.4366Z" fill="#F9F9F8"/>
<path d="M229.492 23.2644C229.916 23.0719 230.282 22.9179 230.841 22.7254C231.361 22.5328 231.881 22.3788 232.402 22.2248C232.652 22.167 232.903 22.1093 233.153 22.0515C233.172 22.0515 233.558 21.9938 233.327 22.013C233.461 21.9938 233.577 21.9938 233.712 21.9938C233.847 21.9938 233.962 21.9938 234.097 21.9938C234.136 21.9938 234.483 22.0323 234.252 21.9938C234.367 22.013 234.502 22.0323 234.618 22.0708C234.695 22.09 234.772 22.1093 234.83 22.1285C234.695 22.0708 234.676 22.0515 234.753 22.1093C234.83 22.1478 234.81 22.1285 234.695 22.0515C234.791 22.167 234.791 22.1285 234.676 21.9745C234.541 21.7627 234.579 21.705 234.618 21.4932C234.656 21.4162 234.656 21.4162 234.598 21.5317C234.676 21.4547 234.676 21.4354 234.618 21.5124C234.521 21.6087 234.425 21.705 234.309 21.782C234.483 21.6472 234.232 21.8397 234.194 21.859C234.097 21.936 234.001 21.9938 233.905 22.0708C233.712 22.2055 233.519 22.321 233.307 22.4366C233.211 22.4943 233.095 22.5328 232.999 22.5906C233.23 22.4751 232.903 22.6291 232.864 22.6291C232.748 22.6676 232.652 22.7061 232.536 22.7254C232.459 22.7446 232.382 22.7639 232.305 22.7639C232.363 22.7639 232.402 22.7446 232.459 22.7446C232.421 22.7831 232.247 22.7446 232.17 22.7446C231.9 22.7639 232.382 22.8024 232.132 22.7446C231.9 22.6676 232.324 22.8986 232.055 22.7061C231.978 22.6483 231.997 22.6676 232.132 22.7639C232.305 22.9564 232.344 23.1874 232.286 23.4762C232.17 23.6687 232.074 23.842 231.958 24.0345C231.573 24.2271 231.457 24.2848 231.65 24.2078C231.708 24.1886 231.766 24.1693 231.823 24.1501C231.862 24.1501 231.9 24.1308 231.939 24.1308C231.823 24.1308 231.804 24.1501 231.9 24.1308C231.997 24.1308 232.093 24.1308 232.209 24.1308C232.479 24.1308 232.074 24.0923 232.344 24.1501C232.093 23.534 231.843 22.9179 231.592 22.3018C231.554 22.3788 231.496 22.5713 231.419 22.6291C231.534 22.4943 231.534 22.4751 231.438 22.5713C231.399 22.6098 231.361 22.6483 231.303 22.7061C231.207 22.8024 231.207 22.7831 231.342 22.6869C231.284 22.7254 231.245 22.7639 231.187 22.7831C231.091 22.8409 230.995 22.8986 230.898 22.9564C230.455 23.2067 230.012 23.3992 229.588 23.6687C228.952 24.073 228.682 25.1127 229.337 25.6518C230.224 26.4026 231.245 26.9609 232.382 27.2305C233.018 27.3845 233.789 27.038 233.943 26.3449C234.097 25.6903 233.751 24.9587 233.057 24.7854C232.845 24.7276 232.633 24.6699 232.44 24.6121C232.344 24.5736 232.247 24.5544 232.17 24.5159C232.402 24.6121 232.055 24.4581 232.055 24.4581C231.881 24.3618 231.708 24.2656 231.554 24.1693C231.457 24.1115 231.361 24.0345 231.265 23.9768C231.438 24.0923 231.187 23.919 231.149 23.8805C231.072 24.5351 230.975 25.2089 230.898 25.8635C231.939 25.1897 233.249 24.8046 233.808 23.5917C233.982 23.2067 234.04 22.8601 233.866 22.4751C233.712 22.1285 233.423 21.8205 233.037 21.7435C232.228 21.5702 231.303 21.5702 230.571 21.9938C229.549 22.5521 229.626 23.8805 230.397 24.6121C231.515 25.6903 233.23 25.3245 234.464 24.6891C235.061 24.3811 235.639 23.9575 236.159 23.5147C236.815 22.9564 237.219 22.09 237.007 21.2236C236.564 19.4717 234.271 19.3946 232.825 19.5872C231.226 19.8182 229.646 20.4535 228.181 21.1081C227.584 21.3777 227.391 22.3018 227.719 22.8409C228.162 23.4377 228.836 23.5532 229.492 23.2644Z" fill="#F9F9F8"/>
<path d="M231.014 26.1331C230.763 25.3245 229.8 25.286 229.954 24.3426C231.476 25.0549 232.941 25.0549 234.194 23.8228C234.541 23.4955 234.791 23.0719 235.061 22.6676C235.177 22.4751 235.138 22.244 234.965 22.09C234.791 21.936 234.579 21.9745 234.425 22.1285C234.232 22.3211 234.078 22.5713 233.885 22.7639C232.016 24.5544 230.089 24.1308 229.145 21.7435C229.048 21.4932 229.106 21.1851 228.798 21.0311C227.815 22.8794 228.74 25.1705 231.014 26.1331Z" fill="#1C1B1B"/>
<path d="M218.603 25.9406C218.449 25.4015 217.794 25.3822 217.909 24.7662C218.912 25.2282 219.875 25.2282 220.684 24.4196C220.916 24.2078 221.089 23.919 221.263 23.6495C221.34 23.534 221.301 23.38 221.205 23.2837C221.089 23.1874 220.954 23.2067 220.858 23.303C220.723 23.4377 220.627 23.5917 220.511 23.7265C219.278 24.9009 218.025 24.6314 217.389 23.0527C217.331 22.8986 217.37 22.6869 217.158 22.5906C216.483 23.7843 217.1 25.3052 218.603 25.9406Z" fill="#1C1B1B"/>
<path d="M232.382 25.3437C231.746 25.0935 231.11 24.8239 230.455 24.5736C230.378 24.5351 230.282 24.4966 230.205 24.4774C230.282 24.4966 230.397 24.5736 230.262 24.4966C230.128 24.4389 229.993 24.3619 229.858 24.3041C229.781 24.2656 229.704 24.2078 229.627 24.1693C229.472 24.0731 229.646 24.1501 229.665 24.2078C229.646 24.1693 229.511 24.0731 229.472 24.0346C229.415 23.9768 229.376 23.9383 229.318 23.8805C229.28 23.842 229.222 23.7458 229.183 23.7265C229.28 23.7843 229.318 23.8998 229.203 23.7458C229.125 23.6303 229.029 23.5147 228.952 23.38C228.798 23.1297 228.644 22.8794 228.49 22.6099C228.412 22.4751 228.335 22.3403 228.278 22.2056C228.258 22.1671 228.239 22.1286 228.22 22.09C228.239 22.1286 228.258 22.1863 228.278 22.2248C228.239 22.1863 228.22 22.0708 228.2 22.013C228.181 21.936 228.162 21.8783 228.143 21.8013C228.143 21.782 228.123 21.7435 228.123 21.7242C228.104 21.6087 228.104 21.6087 228.123 21.7242C228.143 21.8398 228.143 21.8398 228.123 21.7242C228.123 21.6857 228.123 21.6665 228.123 21.628C228.123 21.5317 228.143 21.4547 228.143 21.3584C228.181 21.0697 227.969 20.6654 227.776 20.4728C227.564 20.261 227.198 20.0878 226.89 20.107C226.562 20.1263 226.215 20.2225 226.003 20.4728C225.753 20.7424 225.676 21.0119 225.637 21.3584C225.522 22.2056 225.869 23.0527 226.254 23.7843C226.601 24.4196 227.006 25.0742 227.487 25.6133C228.046 26.2486 228.759 26.6144 229.53 26.9417C230.243 27.2305 230.976 27.5193 231.708 27.8081C231.997 27.9236 232.421 27.8273 232.691 27.6733C232.96 27.5193 233.211 27.2113 233.269 26.9225C233.442 26.1716 233.038 25.6133 232.382 25.3437Z" fill="#F9F9F8"/>
<path d="M225.676 21.4932C225.637 22.5521 225.888 23.5917 226.37 24.5544C226.427 24.6314 226.505 24.7276 226.562 24.8047C226.678 24.9202 226.813 25.0164 226.967 25.0742C227.218 25.1897 227.526 25.2282 227.796 25.1319C228.008 25.0549 228.2 24.9587 228.355 24.8047C228.567 24.6121 228.74 24.2078 228.721 23.919C228.682 23.4955 228.663 23.0719 228.624 22.6676C228.605 22.3211 228.567 21.9938 228.605 21.6472C228.586 21.7627 228.567 21.8782 228.567 21.9745C228.586 21.8397 228.624 21.7242 228.663 21.5895C228.624 21.6857 228.586 21.782 228.528 21.8975C228.567 21.8012 228.624 21.7242 228.682 21.628C228.624 21.705 228.547 21.8012 228.49 21.8782C228.49 21.859 228.509 21.859 228.509 21.8397C228.721 21.5702 228.875 21.3007 228.875 20.9541C228.875 20.6461 228.74 20.2803 228.509 20.0685C228.258 19.8567 227.95 19.6834 227.622 19.7027C227.295 19.7219 226.948 19.8182 226.736 20.0685C226.466 20.3958 226.235 20.7423 226.158 21.1659C226.081 21.4932 226.061 21.8205 226.081 22.1478C226.1 22.7254 226.177 23.3222 226.215 23.8998C227.006 23.688 227.796 23.4762 228.567 23.2644C228.528 23.1682 228.47 23.0719 228.432 22.9756C228.47 23.0719 228.509 23.1682 228.567 23.2837C228.393 22.8794 228.278 22.4366 228.22 21.9938C228.239 22.1093 228.258 22.2248 228.258 22.3211C228.22 22.0323 228.22 21.7627 228.22 21.4739C228.239 20.8193 227.622 20.184 226.948 20.2033C226.235 20.261 225.695 20.7808 225.676 21.4932Z" fill="#F9F9F8"/>
<path d="M227.603 19.0673C227.025 19.3561 226.659 19.9145 226.427 20.492C226.235 20.9734 226.215 21.5317 226.177 22.0515C226.138 22.5713 226.158 23.1104 226.292 23.611C226.408 24.0345 226.62 24.4388 226.697 24.8624C226.678 24.7469 226.659 24.6314 226.659 24.5351C226.659 24.5929 226.678 24.6314 226.678 24.6891C226.716 25.3437 227.217 25.979 227.95 25.9598C228.586 25.9213 229.26 25.4015 229.222 24.6891C229.183 24.2848 229.106 23.919 228.971 23.534C228.856 23.2259 228.74 22.9371 228.701 22.6291C228.721 22.7446 228.74 22.8601 228.74 22.9564C228.682 22.4366 228.74 21.9167 228.798 21.3969C228.778 21.5124 228.759 21.6279 228.759 21.7242C228.778 21.6087 228.798 21.4932 228.817 21.3777C228.836 21.3199 228.856 21.2814 228.856 21.2236C228.894 21.0889 228.701 21.4932 228.817 21.3006C228.817 21.2814 228.875 21.1851 228.894 21.1851C228.913 21.1851 228.682 21.4162 228.817 21.2814C228.856 21.2429 229.01 21.1081 228.836 21.2429C228.663 21.3777 228.836 21.2621 228.875 21.2429C229.472 20.9541 229.684 20.0492 229.337 19.5102C228.933 18.9133 228.239 18.7593 227.603 19.0673Z" fill="#F9F9F8"/>
<g opacity="0.42">
<path d="M255.45 26.9995C257.107 28.0391 257.724 30.5612 256.703 32.2169C255.643 33.9304 253.022 34.4888 251.287 33.3721C249.669 32.3325 249.129 29.7526 250.17 28.1354C251.307 26.3449 253.619 25.8636 255.45 26.9995Z" fill="#0088A1"/>
<path d="M248.705 22.3981C246.951 21.32 246.392 18.8941 247.472 17.1421C248.532 15.4286 251.075 14.8703 252.771 15.9677C254.409 17.0266 254.968 19.5487 253.928 21.2044C252.81 23.0142 250.536 23.534 248.705 22.3981Z" fill="#0088A1"/>
<path d="M245.699 11.2123C243.906 10.0956 243.328 7.80458 244.388 6.07184C245.525 4.22358 247.78 3.70376 249.611 4.83967C251.422 5.95632 251.981 8.34365 250.844 10.0764C249.726 11.8476 247.51 12.3482 245.699 11.2123Z" fill="#0088A1"/>
<path d="M215.558 2.51009C217.293 3.58824 217.929 6.11034 216.888 7.78532C215.867 9.4603 213.226 10.0379 211.569 8.97898C209.873 7.90084 209.314 5.35948 210.374 3.66525C211.376 2.10578 213.959 1.5282 215.558 2.51009Z" fill="#0088A1"/>
<path d="M212.764 36.9916C214.479 38.0505 215.173 40.6496 214.017 42.2476C212.86 43.8456 210.895 44.5194 208.89 43.345C207.04 42.2284 206.443 39.8795 207.541 38.1275C208.621 36.414 211.01 35.8942 212.764 36.9916Z" fill="#0088A1"/>
<path d="M202.319 15.5249C203.417 13.7536 205.711 13.1568 207.445 14.2157C209.16 15.2554 209.758 17.7582 208.717 19.5102C207.753 21.0889 205.19 21.7242 203.591 20.7616C201.779 19.6642 201.201 17.3154 202.319 15.5249Z" fill="#0088A1"/>
<path d="M221.706 0.315322C222.804 -1.43667 225.098 -1.97575 226.871 -0.897596C228.605 0.161301 229.183 2.54863 228.123 4.28137C227.063 6.01411 224.597 6.59169 222.843 5.49429C221.128 4.43539 220.607 2.06731 221.706 0.315322Z" fill="#0088A1"/>
<path d="M211.01 30.927C209.912 32.7175 207.503 33.2951 205.768 32.2362C204.053 31.1773 203.494 28.79 204.554 27.0573C205.576 25.363 208.042 24.7662 209.738 25.7866C211.453 26.7877 212.07 29.2328 211.01 30.927Z" fill="#0088A1"/>
<path d="M233.076 3.41499C231.245 2.29834 230.686 0.122785 231.766 -1.68697C232.845 -3.49672 235.177 -4.03579 236.988 -2.91914C238.761 -1.82173 239.301 0.488585 238.221 2.24058C237.123 4.01182 234.907 4.53165 233.076 3.41499Z" fill="#0088A1"/>
<path d="M256.433 3.24168C257.551 3.93477 257.936 5.60976 257.262 6.68791C256.51 7.88157 254.968 8.24737 253.735 7.51577C252.636 6.86118 252.174 4.99367 252.848 3.97328C253.6 2.81812 255.238 2.49082 256.433 3.24168Z" fill="#0088A1"/>
<path d="M262.947 28.867C262.233 29.9837 260.615 30.388 259.497 29.7141C258.36 29.021 257.878 27.2305 258.553 26.1909C259.266 25.0935 261.096 24.6892 262.233 25.4015C263.313 26.0561 263.66 27.7503 262.947 28.867Z" fill="#0088A1"/>
<path d="M242.365 -2.45708C243.02 -3.57373 244.677 -3.95879 245.834 -3.26569C246.971 -2.57259 247.433 -0.936117 246.778 0.180538C246.103 1.3357 244.369 1.79776 243.251 1.10467C242.114 0.41157 241.69 -1.32117 242.365 -2.45708Z" fill="#0088A1"/>
<path d="M195.709 17.9507C196.383 16.8918 198.098 16.5068 199.216 17.1806C200.218 17.7967 200.719 19.6065 200.141 20.5884C199.467 21.7243 197.694 22.1863 196.576 21.4932C195.42 20.8001 194.996 19.0866 195.709 17.9507Z" fill="#0088A1"/>
<path d="M259.362 14.4275C260.596 15.1976 260.962 16.6223 260.229 17.816C259.42 19.1059 258.032 19.4524 256.741 18.6438C255.623 17.9507 255.238 16.3142 255.913 15.1976C256.683 14.0232 258.148 13.6766 259.362 14.4275Z" fill="#0088A1"/>
<path d="M212.07 -3.68924C213.149 -3.03465 213.593 -1.2249 212.937 -0.204507C212.244 0.85439 210.509 1.2587 209.43 0.604105C208.332 -0.0697381 207.888 -1.78323 208.524 -2.86137C209.218 -4.03579 210.895 -4.42084 212.07 -3.68924Z" fill="#0088A1"/>
<path d="M205.306 43.3643C204.631 44.4617 202.916 44.9045 201.876 44.2691C200.758 43.5761 200.353 41.9203 201.008 40.8037C201.702 39.6293 203.398 39.2057 204.516 39.918C205.614 40.6304 205.98 42.2476 205.306 43.3643Z" fill="#0088A1"/>
<path d="M197.983 29.5794C198.657 28.482 200.334 28.0391 201.432 28.6937C202.492 29.3098 202.974 31.1196 202.357 32.1592C201.664 33.3336 199.987 33.7379 198.831 33.0256C197.694 32.3325 197.308 30.696 197.983 29.5794Z" fill="#0088A1"/>
<path d="M203.629 5.55202C204.824 6.30288 205.171 7.80458 204.439 8.979C203.726 10.1149 202.126 10.4615 200.989 9.72985C199.794 8.979 199.447 7.47729 200.18 6.30288C200.874 5.18622 202.473 4.83967 203.629 5.55202Z" fill="#0088A1"/>
</g>
</g>
<defs>
<clipPath id="clip0_10_1631">
<rect width="312" height="240" fill="white"/>
</clipPath>
</defs>
</svg>
