<svg width="157" height="200" viewBox="0 0 157 200" fill="none" xmlns="http://www.w3.org/2000/svg">
<path d="M64.0074 78.5091C64.6164 78.7888 64.7687 79.1957 64.7813 79.8313C65.0224 88.0825 64.8321 96.3463 65.0224 104.597C65.1493 109.899 65.1747 115.188 65.1239 120.489C65.1239 121.036 65.0859 121.583 65.0351 122.117C64.9336 123.019 64.7687 123.909 66.0121 124.24C66.4816 124.367 66.5831 124.939 66.7227 125.384C67.89 129.109 68.9051 132.847 68.2707 136.839C68.1311 137.678 67.852 138.022 67.0526 138.022C63.5125 138.022 59.9724 138.034 56.4323 138.047C55.6456 138.047 55.3031 137.678 55.2777 136.915C55.1635 133.33 55.1254 129.745 56.1912 126.261C56.4958 125.257 56.8257 124.215 58.0311 123.897C58.564 123.757 58.5005 123.337 58.4879 122.956C58.0818 108.907 58.361 94.8461 58.2975 80.7721C58.2975 80.4162 58.2341 80.0475 58.3229 79.7296C58.5386 78.9414 58.2722 78.4837 57.5489 78.1023C56.4958 77.5429 56.0897 76.4749 56.0009 75.3689C55.9375 74.5043 55.7345 74.3136 54.8209 74.3772C47.8803 74.9239 41.5614 77.5429 35.2426 80.1873C32.375 81.3951 29.6342 82.8953 26.6651 83.8234C24.8888 84.3828 24.8888 84.3574 25.7389 86.0102C29.1902 92.6975 31.8294 99.7409 34.8873 106.593C36.5114 110.217 38.237 113.789 40.2672 117.209C40.4829 117.578 40.6352 118.061 41.0539 118.188C42.2339 118.532 41.8279 119.167 41.3203 119.714C37.9833 123.223 34.1133 125.918 29.3043 126.872C23.2646 128.08 17.3137 127.724 11.5659 125.372C8.91396 124.278 6.79498 122.46 5.3485 119.943C4.73945 118.875 4.89171 118.506 6.09712 118.519C6.98531 118.519 7.31521 117.985 7.67049 117.375C10.9061 111.895 13.3803 106.06 15.8799 100.224C18.1004 95.0368 20.1686 89.7734 22.9474 84.8532C23.4042 84.0395 22.7952 84.0395 22.3511 83.8997C20.1813 83.1877 18.7856 81.7511 18.24 79.5135C18.1258 79.0304 17.9228 78.4074 18.5445 78.1913C19.1536 77.9751 19.5977 78.4456 19.788 78.9795C20.156 80.022 20.5112 81.001 21.6786 81.4841C23.0109 82.0308 24.2924 81.7892 25.5359 81.3443C29.2917 80.022 32.7176 78.0006 36.1688 76.0554C40.6986 73.4872 45.1776 70.8047 50.1008 69.012C51.9406 68.3509 53.8058 67.8297 55.7725 67.817C56.2801 67.817 56.6861 67.7407 56.851 67.1559C57.1429 66.1642 57.8407 65.4904 58.7036 64.9818C59.1604 64.7149 59.3126 64.4987 58.9573 64.0029C58.361 63.1765 58.399 62.2611 58.7289 61.3203C59.2619 59.8074 60.0866 58.4343 60.7718 56.9977C61.1144 56.2857 61.6219 56.4129 61.8757 56.985C62.5609 58.4979 63.3983 59.9727 63.7282 61.6382C63.8297 62.134 63.9439 62.7315 63.614 63.1129C62.6877 64.2063 63.3856 64.5877 64.2738 65.0708C65.162 65.5539 65.6568 66.4185 65.9233 67.3974C66.0629 67.8933 66.304 68.1221 66.8369 67.995C69.235 67.4356 71.4555 68.173 73.6633 68.9485C78.561 70.6902 83.0274 73.322 87.5064 75.8901C90.7039 77.7336 93.9395 79.5389 97.3654 80.9374C98.1901 81.268 99.0529 81.5222 99.9284 81.7002C101.882 82.1071 103.456 81.179 104.128 79.3101C104.306 78.8142 104.395 78.0641 105.118 78.2803C105.854 78.5091 105.778 79.2084 105.588 79.8568C105.067 81.6621 103.925 82.908 102.225 83.6581C101.743 83.8743 101.286 84.0141 101.692 84.7388C105.22 91.0829 107.745 97.8847 110.65 104.508C112.553 108.857 114.546 113.166 116.969 117.273C117.413 118.023 117.819 118.57 118.834 118.532C119.761 118.506 119.925 118.964 119.418 119.854C118.111 122.155 116.322 124.075 113.911 125.066C105.816 128.359 97.6826 128.766 89.7015 124.672C87.3415 123.464 85.2859 121.774 83.6111 119.663C83.167 119.104 82.634 118.595 83.7887 118.112C84.2074 117.947 84.4231 117.26 84.6896 116.79C88.2804 110.611 90.9577 104.013 93.7492 97.4524C95.5129 93.2951 97.2639 89.1377 99.4209 85.1583C99.5732 84.8659 100.284 84.3447 99.256 84.2048C96.16 83.7853 93.4446 82.2851 90.6532 81.0137C87.075 79.3991 83.4461 77.9116 79.7411 76.6021C75.7823 75.2036 71.6331 74.8603 67.5094 74.3518C66.9765 74.2882 66.8242 74.4789 66.7861 74.962C66.7227 75.6994 66.4816 76.3987 66.1644 77.0852C65.771 78.0387 65.1874 78.6871 64.0074 78.5091ZM116.855 118.341C110.295 107.483 106.856 95.2784 100.677 84.1921C99.1418 87.3959 97.6064 90.4091 96.2234 93.4858C92.6072 101.533 89.6254 109.874 85.0829 117.502C84.6642 118.201 84.8926 118.341 85.5905 118.354C88.0393 118.379 90.4882 118.532 92.9244 118.468C99.1798 118.303 105.435 118.392 111.691 118.354C113.366 118.328 115.028 118.341 116.855 118.341ZM24.1909 84.4718C23.8102 84.5227 23.7468 84.7134 23.658 84.8786C22.3511 87.5358 20.968 90.1548 19.7626 92.8501C16.0576 101.165 12.9235 109.734 8.3176 117.629C7.82275 118.481 8.40642 118.443 8.93934 118.417C13.0123 118.239 17.098 118.354 21.1837 118.341C27.0077 118.328 32.8317 118.341 38.6684 118.341C40.0896 118.341 40.0769 118.341 39.379 117.057C38.5923 115.62 37.8183 114.184 37.0697 112.734C33.7199 106.225 31.2203 99.334 28.1751 92.6848C26.9062 89.9132 25.5105 87.1798 24.1909 84.4718ZM22.9601 82.9843C23.861 83.264 24.7746 83.3022 25.6881 83.0606C28.6445 82.2978 31.3472 80.8993 34.0879 79.6152C40.4448 76.6402 46.9286 74.0975 53.92 72.9914C56.5465 72.5719 56.8891 72.7371 57.3078 75.3689C57.5489 76.8945 58.8812 77.8607 60.4419 77.7209C61.5204 77.6319 62.6243 77.581 63.7028 77.6319C64.553 77.67 65.0224 77.3395 65.2508 76.5639C65.4031 76.0808 65.5173 75.5977 65.5427 75.0892C65.6442 73.1313 66.4689 72.4956 68.4229 72.7626C75.021 73.6525 81.2764 75.674 87.3288 78.4456C90.4755 79.8822 93.5715 81.446 96.8198 82.641C98.1774 83.1496 99.5605 83.4801 101.261 82.9462C98.9895 82.7428 97.137 82.0054 95.3225 81.1536C90.3994 78.8397 85.73 76.0045 80.7942 73.7161C75.9599 71.4785 71.4047 68.3637 65.6569 69.1138C65.1366 69.1773 64.7813 68.8976 64.6418 68.3509C64.5656 68.0458 64.4768 67.7534 64.3372 67.4737C63.7028 66.2151 62.231 65.4395 60.8479 65.6302C59.1984 65.8591 58.564 66.4312 58.3102 68.1221C58.2087 68.7959 57.7773 68.7959 57.3205 68.8595C56.3562 68.9866 55.3919 69.0756 54.4275 69.2282C49.6947 69.9783 45.571 72.3049 41.3838 74.4153C37.0824 76.5767 33.0094 79.1829 28.6192 81.2044C26.792 82.0308 24.9649 82.7682 22.9601 82.9843ZM59.5029 101.089C59.541 101.089 59.5791 101.089 59.6171 101.089C59.6171 107.318 59.6171 113.548 59.6171 119.765C59.6171 122.956 59.6171 122.956 62.7639 123.07C62.8019 123.07 62.84 123.07 62.8781 123.083C63.4364 123.185 63.6521 122.943 63.6775 122.397C63.7282 121.112 63.8678 119.841 63.8805 118.557C63.9312 111.59 63.8678 104.623 63.7409 97.6685C63.6394 91.9856 63.6648 86.3026 63.6648 80.6196C63.6648 79.7423 63.4617 79.2974 62.4974 79.3864C61.7996 79.4499 61.1017 79.4245 60.4038 79.3864C59.7186 79.3482 59.4776 79.5516 59.4902 80.3145C59.5156 87.2307 59.5029 94.1596 59.5029 101.089ZM101.426 126.465C105.664 126.541 109.914 125.829 113.886 123.795C115.307 123.058 116.652 122.206 117.527 120.795C117.971 120.083 117.857 119.663 116.956 119.523C115.865 119.345 114.787 119.574 113.708 119.561C106.717 119.472 99.7254 119.383 92.7468 119.333C90.6912 119.32 88.6357 119.358 86.5675 119.396C86.1868 119.396 85.6793 119.396 85.5143 119.739C85.3113 120.159 85.8062 120.426 86.0853 120.642C87.6206 121.824 89.1179 123.083 90.7547 124.126C93.9395 126.16 97.5684 126.503 101.426 126.465ZM15.5881 119.6C13.2154 119.6 10.8553 119.6 8.48255 119.6C8.06383 119.6 7.51823 119.561 7.35328 120.006C7.18833 120.439 7.60705 120.795 7.89888 121.087C8.77439 121.99 9.80215 122.676 10.8426 123.363C13.9005 125.372 17.3518 125.893 20.8919 126.312C27.7944 127.151 33.6184 124.736 38.9476 120.655C39.2141 120.451 39.582 120.222 39.4171 119.816C39.2775 119.447 38.8968 119.383 38.5289 119.371C38.1736 119.358 37.831 119.358 37.4757 119.358C30.1925 119.333 22.8967 119.383 15.5881 119.6ZM67.1668 133.165C67.2302 131.245 67.1033 129.351 66.4435 127.533C65.771 125.651 64.6671 124.85 62.7131 124.774C61.8249 124.736 60.924 124.723 60.0359 124.774C58.2848 124.85 57.384 125.575 57.0287 127.304C56.445 130.139 56.5085 133.025 56.5085 135.898C56.5085 137.093 56.9906 137.5 58.0945 137.462C60.6957 137.373 63.2968 137.297 65.8852 137.246C66.545 137.233 66.8496 136.941 67.0018 136.318C67.2556 135.25 67.0907 134.207 67.1668 133.165ZM61.3301 59.426C60.4546 60.5194 59.8455 61.5619 60.1881 62.8968C60.3404 63.4816 60.5688 64.1554 61.4062 64.041C62.2056 63.9393 62.4467 63.3418 62.4974 62.6171C62.5862 61.4093 61.8122 60.5448 61.3301 59.426Z" fill="#0088A1"/>
<path d="M77.2415 149.527C72.1408 149.642 66.634 149.108 61.1145 149.324C53.5775 149.616 46.0406 149.489 38.5036 149.527C36.8034 149.54 36.5369 149.171 36.9556 147.493C37.3109 146.044 38.161 144.9 39.2395 143.895C42.6147 140.768 46.6242 138.988 51.1794 138.657C57.2572 138.212 63.3603 138.034 69.4508 138.187C73.5619 138.301 77.5588 139.064 81.0735 141.429C83.2178 142.865 84.7912 144.823 86.1108 147.01C86.3138 147.341 86.4661 147.709 86.5676 148.078C86.8594 149.133 86.5676 149.515 85.4637 149.527C82.8625 149.527 80.2614 149.527 77.2415 149.527ZM78.2312 148.472C80.0584 148.472 81.8855 148.498 83.7127 148.459C85.248 148.434 85.4256 148.243 84.6389 146.858C82.4946 143.082 79.056 140.971 74.9576 139.979C72.5087 139.395 69.9584 139.293 67.4334 139.229C63.2715 139.128 59.1224 139.484 54.9606 139.446C49.6948 139.382 45.0382 140.984 40.8129 144.035C39.8232 144.747 38.9477 145.561 38.5671 146.781C38.1991 147.964 38.3387 148.205 39.5314 148.231C43.0334 148.294 46.5227 148.358 50.0248 148.421C59.4142 148.574 68.8291 148.078 78.2312 148.472Z" fill="#0088A1"/>
<path d="M63.3094 69.0756C63.2968 70.1817 62.4086 71.0463 61.2666 71.0081C60.3023 70.9827 59.7313 70.4996 59.6932 69.5079C59.6552 68.4527 60.6195 67.461 61.6599 67.4483C62.5735 67.4483 63.3221 68.1857 63.3094 69.0756Z" fill="#0088A1"/>
<path d="M99.6366 121.176C103.862 121.176 108.087 121.176 112.389 121.176C111.767 121.786 101.362 121.99 99.6112 121.507C99.6239 121.405 99.6366 121.29 99.6366 121.176Z" fill="#0088A1"/>
<path d="M34.6715 121.685C34.2655 122.333 33.6057 122.219 33.0855 122.295C29.6469 122.791 26.2083 122.727 22.7824 122.206C22.4906 122.155 21.9196 122.295 22.0084 121.799C22.0719 121.392 22.6048 121.545 22.922 121.57C24.3939 121.646 25.853 121.748 27.3249 121.837C29.5454 121.964 31.7278 121.583 33.9356 121.519C34.164 121.507 34.3924 121.418 34.6715 121.685Z" fill="#0088A1"/>
<path d="M59.4902 147.506C59.744 147.074 60.1247 147.112 60.4546 147.086C67.3444 146.603 74.2343 146.362 81.1368 146.985C81.7585 147.036 82.3803 147.036 82.9893 147.099C83.2811 147.125 83.6618 147.163 83.6237 147.608C83.5857 147.989 83.2811 148.103 82.9385 148.103C82.3549 148.116 81.7712 148.142 81.1875 148.091C74.4119 147.62 67.6236 147.569 60.8479 147.811C60.4165 147.836 59.9343 147.964 59.4902 147.506Z" fill="#0088A1"/>
<path d="M70.3896 145.548C70.9606 144.976 71.6458 145.167 72.2549 145.09C74.1708 144.849 76.1122 144.874 78.0408 144.925C78.2946 144.938 78.6372 144.9 78.7133 145.243C78.7894 145.612 78.4341 145.701 78.1931 145.726C75.5792 145.993 72.9781 146.082 70.3896 145.548Z" fill="#0088A1"/>
<path d="M100.804 169.551L102.682 181.591L113.454 181.006L110.422 166.538L100.804 169.551Z" fill="#F9F9F8"/>
<path d="M124.709 168.166C124.709 168.166 125.445 182.265 125.699 182.278C125.952 182.29 137.055 182.214 137.055 182.214L135.748 168.166H124.709Z" fill="#F9F9F8"/>
<path d="M113.327 177.154C112.63 173.251 112.059 169.322 111.627 165.381C111.069 165.394 110.511 165.407 109.965 165.407C110.612 165.394 110.384 166.169 110.422 166.538C110.764 170.403 111.475 174.217 112.109 178.044C112.236 178.794 112.059 178.921 111.335 178.959C108.76 179.112 106.159 179.061 103.608 179.62C103.126 179.722 102.923 179.582 102.847 179.074C102.212 175.094 101.553 171.102 100.893 167.123C100.855 166.869 100.626 166.525 101.096 166.436C101.476 166.36 101.705 166.525 101.73 166.945C101.743 167.098 101.794 167.263 101.844 167.415C101.908 167.606 101.895 167.937 102.225 167.848C102.542 167.759 102.339 167.492 102.339 167.288C102.339 166.983 101.959 166.589 102.466 166.373C103.05 166.119 103.443 166.22 103.469 166.97C103.481 167.276 103.494 167.733 103.913 167.682C104.42 167.632 104.154 167.187 104.116 166.907C104.065 166.513 103.786 166.106 104.496 165.979C105.118 165.864 105.486 165.966 105.524 166.665C105.537 166.843 105.511 167.059 105.841 167.161C105.994 167.021 105.955 166.869 105.943 166.703C105.905 166.297 105.461 165.763 106.362 165.686C107.047 165.636 107.58 165.61 107.491 166.551C107.465 166.78 107.503 167.161 107.821 167.136C108.201 167.098 107.986 166.742 107.998 166.513C108.011 166.322 107.96 166.131 107.935 165.941C107.897 165.585 108.125 165.521 108.404 165.483C108.684 165.445 108.836 165.559 108.874 165.826C108.912 166.08 108.925 166.335 108.975 166.589C109.013 166.792 109.14 166.958 109.369 166.932C109.61 166.907 109.635 166.716 109.673 166.513C109.737 166.131 109.28 165.483 109.902 165.419C107.25 165.47 104.598 165.521 101.946 165.572C101.933 165.572 101.908 165.585 101.895 165.585C101.261 165.724 100.956 165.775 100.779 165.597C100.373 165.61 99.9538 165.61 99.5478 165.623C100.309 170.098 101.083 174.56 101.857 179.036C101.984 179.76 101.87 180.078 101.058 180.065C98.6089 180.015 96.3122 180.701 94.0664 181.553C93.2543 181.858 92.493 182.265 91.8713 182.888C90.8816 183.88 90.9831 185.1 92.125 185.926C92.6199 186.295 93.2036 186.473 93.7999 186.613C95.1957 186.956 96.5914 186.855 97.9998 186.727C102.974 186.257 107.897 185.469 112.833 184.744C114.305 184.528 114.482 184.299 114.254 182.799C113.949 180.892 113.657 179.01 113.327 177.154Z" fill="#1C1B1B" stroke="white" stroke-width="0.4" stroke-miterlimit="10"/>
<path d="M140.557 181.985C140.316 181.833 140.075 181.693 139.808 181.566C139.643 181.489 139.466 181.4 139.301 181.324C139.123 181.235 139.022 181.184 139.022 181.184C138.539 180.955 138.057 180.714 137.562 180.485C137.169 180.294 137.055 180.015 137.03 179.57C136.674 174.738 136.382 169.907 136.04 165.063C131.903 165.076 127.767 165.114 123.643 165.165C123.694 166.004 123.757 166.843 123.808 167.695C124.151 173.009 124.595 178.324 125.052 183.625C125.14 184.681 125.534 185.189 126.562 185.507C129.112 186.282 131.7 186.791 134.34 187.147C137.08 187.795 139.834 188.075 144.186 187.033C147.612 186.206 143.107 183.384 140.557 181.985ZM134.72 180.561C133.832 180.358 132.868 180.434 131.941 180.396V180.358C130.343 180.243 128.757 180.129 127.158 180.027C125.775 179.938 125.788 179.951 125.699 178.603C125.407 174.535 125.09 170.479 124.798 166.411C124.772 166.093 124.481 165.559 125.102 165.47C125.762 165.381 125.597 165.966 125.711 166.335C125.826 166.729 125.597 167.504 126.117 167.415C126.612 167.339 126.143 166.665 126.156 166.258C126.168 165.979 125.876 165.559 126.435 165.521C126.828 165.496 127.247 165.445 127.361 166.068C127.437 166.487 127.31 167.314 127.856 167.225C128.439 167.123 127.894 166.424 127.932 165.992C127.957 165.788 127.907 165.572 128.16 165.559C128.503 165.547 128.884 165.508 129.087 165.903C129.277 166.284 129.366 166.691 129.378 167.11C129.391 167.339 129.455 167.619 129.721 167.606C130.089 167.593 130.025 167.263 130 167.009C129.987 166.818 129.924 166.627 129.899 166.436C129.873 166.17 129.467 165.763 130 165.674C130.381 165.61 130.939 165.521 131.066 166.182C131.142 166.627 131.218 167.072 131.332 167.504C131.396 167.733 131.561 167.911 131.827 167.873C132.132 167.835 132.119 167.568 132.119 167.352C132.119 167.098 132.03 166.843 132.056 166.589C132.068 166.347 131.586 165.915 132.233 165.877C132.639 165.852 133.121 165.75 133.274 166.424C133.363 166.843 133.058 167.67 133.68 167.632C134.466 167.581 133.908 166.818 133.959 166.386C133.997 165.992 134.251 166.055 134.505 166.042C134.872 166.017 134.999 166.182 135.012 166.551C135.076 167.962 135.152 169.373 135.253 170.785C135.443 173.378 135.646 175.972 135.85 178.565C135.875 178.883 135.875 179.201 135.875 179.532C135.875 180.282 135.761 180.79 134.72 180.561Z" fill="#1C1B1B" stroke="white" stroke-width="0.4" stroke-miterlimit="10"/>
<path d="M106.222 43.7883C106.26 44.2714 106.184 44.7545 105.651 44.8562C105.029 44.9706 104.852 44.4621 104.712 43.9917C104.737 43.6993 104.763 43.4196 104.775 43.1272C104.788 42.6186 104.94 42.0084 104.725 41.6142C104.496 41.182 103.849 41.538 103.38 41.4617C102.263 41.2837 101.159 40.3683 100.88 39.3258C100.652 38.474 100.893 38.0417 101.743 37.8383C102.263 37.7112 102.796 37.584 103.342 37.3679C102.999 37.2662 102.695 37.1518 102.428 36.9229C102.187 36.7195 101.908 36.5924 101.591 36.8848C101.451 37.0119 101.147 37.1136 100.969 37.0628C100.055 36.7449 99.1164 36.5161 98.2282 36.1855C96.4771 35.5117 96.2361 33.9606 96.1599 32.2824C96.0077 28.7608 95.6651 25.2391 95.8047 21.7047C95.83 21.0309 95.6524 20.9292 95.056 21.1707C94.5231 21.3742 93.9521 21.5013 93.3685 21.4632C92.4549 21.4123 92.0362 20.8783 92.2646 19.9884C92.5564 18.8569 93.267 17.9923 94.1044 17.2295C96.1853 15.3225 98.6596 14.1401 101.337 13.4154C105.181 12.3729 109.128 12.2585 113.036 12.8179C115.155 13.123 116.931 14.1655 117.768 16.3904C118.048 17.1151 118.733 17.6618 119.151 18.3356C120.522 20.5351 121.207 23.0015 121.232 25.5569C121.283 29.5617 121.309 33.5792 120.496 37.5332C120.293 38.4994 120.116 39.4911 119.608 40.3683C119.405 40.7243 119.202 41.0294 118.707 40.7879C118.187 40.5336 118.187 40.9277 118.225 41.2583C118.289 41.7922 118.39 42.3262 118.466 42.8602C118.542 43.3306 118.504 43.7883 117.946 43.8646C117.362 43.9408 117.286 43.4196 117.172 43C117.185 42.1609 117.299 41.3218 117.21 40.5082C116.931 38.1307 116.956 35.766 117.274 33.414C117.426 32.2824 117.654 31.2018 118.707 30.4263C119.367 29.9304 119.697 29.0786 119.469 28.1759C119.405 27.9217 119.418 27.5276 119.012 27.5403C118.669 27.553 118.314 27.6293 118.187 28.0615C118.06 28.4556 117.908 28.8498 117.768 29.2439C117.642 29.5999 117.464 29.8669 117.032 29.8669C116.601 29.8669 116.297 29.7016 116.119 29.2947C115.865 28.6591 115.789 27.9852 115.726 27.3241C115.472 24.6289 115.535 21.9336 115.992 19.2637C116.106 18.5645 115.929 18.5136 115.32 18.6916C113.251 19.2891 111.107 19.4671 108.975 19.6324C108.569 19.6705 108.011 19.7723 107.884 19.3018C107.706 18.6916 107.377 18.8696 107.021 18.9586C105.752 19.2764 104.471 19.5688 103.227 19.963C102.491 20.1918 101.832 19.6197 101.197 19.7977C99.7508 20.1918 98.317 20.6622 96.8578 21.0055C96.1219 21.1835 96.5533 21.87 96.5152 22.315C96.4645 22.9125 96.9466 22.6328 97.2004 22.582C98.0251 22.4421 98.8372 22.2641 99.6746 22.3785C100.068 22.4294 100.474 22.5184 100.537 22.9888C100.601 23.4846 100.208 23.6499 99.8269 23.7389C99.1417 23.8915 98.4565 24.044 97.7587 24.1457C96.4898 24.3364 96.4391 24.4254 96.9339 25.7604C97.4161 24.9975 97.9744 24.3873 98.9641 24.6416C99.2686 24.7178 99.6366 24.845 99.5351 25.3535C99.0402 25.2772 98.5834 24.9721 98.1393 25.3917C98.4185 25.6332 98.723 25.8494 98.6596 26.307C98.6342 26.5105 98.0886 26.8156 98.6976 26.93C99.091 26.9936 99.6746 27.0826 99.7888 26.5995C99.9792 25.8366 100.322 26.0909 100.69 26.3706C100.969 25.5951 100.525 24.9213 100.576 24.133C101.603 25.1501 101.629 27.7437 100.702 28.8116C100.322 29.2566 99.9411 29.6762 99.8269 30.2737C99.662 31.0747 99.9792 31.5196 100.779 31.5959C101.362 31.6468 101.895 31.6595 102.238 30.9984C102.428 30.6424 102.859 30.5153 103.253 30.7187C103.659 30.9221 103.824 31.3289 103.798 31.7485C103.773 32.2697 103.265 32.1299 102.961 32.1935C102.301 32.3079 101.629 32.3714 100.956 32.3842C99.4336 32.435 98.6469 31.4306 99.0402 29.9559C99.1925 29.3837 99.4209 28.8371 99.9411 28.4302C100.347 28.1124 100.677 27.7055 100.512 27.0953C99.2559 28.5701 99.0656 28.6845 98.3677 28.2777C98.7103 28.1505 99.0275 28.0234 99.3321 27.909C98.4692 27.8581 97.6699 27.6928 96.8959 27.0444C97.0989 29.4346 97.2892 31.6595 97.4795 33.8971C97.543 34.5836 97.9363 34.9142 98.6215 34.9269C99.5858 34.9396 100.55 34.9142 101.502 34.9777C102.682 35.054 103.875 35.0922 104.94 35.7151C105.714 36.1728 105.74 36.6432 105.055 37.2026C104.217 37.8764 103.278 38.3596 102.238 38.6138C101.451 38.8045 101.502 39.1478 101.908 39.6818C102.542 40.4954 103.367 40.648 104.306 40.4827C105.6 40.2539 105.778 40.4064 105.905 41.7541C105.994 42.4279 105.752 43.1526 106.222 43.7883ZM100.423 15.9073C99.3701 16.1107 98.7991 17.0007 98.0251 17.6109C99.0148 17.3058 99.6366 16.4921 100.423 15.9073ZM99.9157 17.1787C99.9665 17.255 100.017 17.3312 100.068 17.3948C100.829 17.0515 101.438 16.4667 102.124 16.009C102.238 15.9327 102.263 15.7802 102.136 15.6912C102.085 15.653 101.946 15.6403 101.882 15.6785C101.235 16.1743 100.576 16.6701 99.9157 17.1787ZM104.395 15.5259C104.357 15.1826 104.128 15.2589 103.976 15.3479C103.697 15.5005 103.405 15.6658 103.215 15.9073C102.961 16.2124 102.225 16.4159 102.504 16.7846C102.758 17.1278 103.139 16.4794 103.456 16.276C103.786 16.0599 104.179 15.8946 104.395 15.5259ZM118.352 22.4421C118.174 22.1497 118.466 21.5776 117.984 21.425C117.692 21.3233 117.718 21.692 117.756 21.8954C117.832 22.2641 117.616 22.7854 118.149 22.9379C118.314 22.9761 118.403 22.6964 118.352 22.4421ZM106.412 15.2971C105.384 15.5513 104.649 16.1997 104.547 16.8863C105.118 16.3141 105.841 16.0853 106.412 15.2971ZM116.791 22.3277C116.804 22.6455 116.576 23.1032 116.982 23.1668C117.337 23.2304 117.299 22.76 117.286 22.493C117.274 22.1497 117.502 21.5522 117.071 21.514C116.601 21.4759 116.969 22.0861 116.791 22.3277ZM100.373 35.7533C100.385 36.3254 100.677 36.5415 101.172 36.5034C101.438 36.4779 101.616 36.2364 101.527 36.0457C101.286 35.4736 100.791 35.8423 100.373 35.7533ZM119.507 22.5565C119.596 22.1116 119.684 21.6539 119.278 21.158C119.139 21.7683 119.19 22.1878 119.507 22.5565ZM107.935 15.564C107.377 15.5895 107.11 15.9963 106.831 16.3777C107.3 16.2379 107.694 15.9963 107.935 15.564ZM103.786 36.3762C103.291 36.0457 102.923 35.944 102.415 36.0075C102.745 36.5542 103.113 36.6051 103.786 36.3762Z" fill="#1C1B1B" stroke="white" stroke-width="0.4" stroke-miterlimit="10"/>
<path d="M68.2327 62.9095C68.7529 63.2655 68.7149 63.7105 68.423 64.1809C66.4563 64.5496 64.4896 65.02 62.4721 65.02C58.0819 65.0327 55.2524 63.024 54.0089 58.7903C52.6386 54.099 51.8519 49.2933 51.5981 44.4112C51.357 39.9233 51.1921 35.4354 51.154 30.9475C51.154 30.35 50.9637 29.816 50.7353 29.282C50.4054 28.4684 50.177 27.6547 50.3293 26.752C50.4688 26.0019 50.2405 25.3662 49.6187 24.8831C49.2888 24.6289 48.9843 24.3492 48.6798 24.0567C48.426 23.8025 48.261 23.4973 48.3752 23.1032C48.4894 22.7091 48.8193 22.6074 49.1746 22.5184C49.9613 22.3404 50.5957 22.76 51.3063 23.0905C51.4585 22.5692 51.1286 22.1624 51.0525 21.7174C50.9637 21.1707 50.5957 20.5351 51.1286 20.1028C51.6362 19.6833 52.0168 20.3698 52.499 20.5224C52.499 20.2172 52.499 19.9375 52.499 19.6578C52.499 19.3781 52.6513 19.0221 52.8797 19.073C53.6917 19.2383 54.4403 18.7552 55.1509 18.8187C55.9503 18.895 56.5593 19.6705 56.94 20.4334C58.2723 23.1286 59.097 25.9892 59.3635 28.9896C59.8837 34.8633 60.3912 40.7497 61.1145 46.598C61.3809 48.7212 61.99 50.7299 62.9416 52.6369C63.9186 54.5948 64.8703 54.9762 67.0019 54.4169C67.5222 54.277 68.0551 54.1499 68.5753 54.01C69.0321 54.9 69.0194 54.9254 67.6744 55.4721C67.3572 55.5229 67.04 55.5484 66.7228 55.6119C64.515 56.0696 63.373 55.5611 62.2691 53.5905C62.0154 53.1455 61.8123 52.6751 61.5966 52.2047C60.4166 49.5221 59.9852 46.6743 59.668 43.801C59.1731 39.3385 58.6656 34.876 58.4372 30.3881C58.2723 27.1461 57.5617 24.044 56.2929 21.069C56.0391 20.4715 55.6838 19.9248 54.8844 19.518C55.0621 20.0011 55.1763 20.2808 55.2778 20.5859C55.5823 21.4632 56.0137 22.3023 56.1787 23.2176C56.2294 23.4973 56.3309 23.8533 55.9756 23.9677C55.5442 24.0949 55.4681 23.7008 55.3793 23.3956C55.1636 22.6201 54.9479 21.8446 54.5545 21.1453C54.25 20.6241 53.9836 20.0265 53.1334 19.8485C53.4126 20.8656 53.6917 21.7429 53.8947 22.6455C54.0089 23.1286 54.5165 23.8406 53.882 24.0949C53.3111 24.3237 53.3111 23.4083 52.9812 23.0524C52.5624 22.6074 52.5498 21.7937 51.6869 21.5903C51.9915 22.4294 52.2452 23.1668 52.5117 23.9042C52.6259 24.222 52.9431 24.5907 52.5751 24.8577C52.1818 25.1374 51.9534 24.6543 51.6996 24.4763C51.0018 23.955 50.3166 23.4719 49.3396 23.3575C49.4411 23.8279 49.7583 23.9805 50.0247 24.1966C50.8876 24.8831 51.4585 25.6968 51.2302 26.9173C51.1033 27.5784 51.2936 28.2522 51.6489 28.8498C52.0168 29.4982 52.2452 30.1847 52.2579 30.9475C52.2706 33.6047 52.2072 36.2745 52.334 38.9317C52.4863 42.1609 52.4482 45.4156 52.905 48.6322C53.3872 52.0013 53.882 55.3704 55.0113 58.5869C56.0137 61.4475 57.7647 63.6088 61.1018 63.7741C62.5737 63.8504 64.0328 63.6469 65.4793 63.3418C66.4183 63.1765 67.2811 62.8078 68.2327 62.9095Z" fill="#1C1B1B"/>
<path d="M106.146 43.7883C105.676 43.1526 105.917 42.4279 105.841 41.7287C105.714 40.381 105.537 40.2284 104.243 40.4573C103.291 40.6226 102.466 40.47 101.844 39.6563C101.438 39.1224 101.375 38.7791 102.174 38.5884C103.215 38.3341 104.154 37.851 104.991 37.1772C105.676 36.6178 105.651 36.1474 104.877 35.6897C103.824 35.0667 102.618 35.0286 101.438 34.9523C100.487 34.8887 99.5224 34.9142 98.5581 34.9014C97.8729 34.8887 97.4669 34.5709 97.4161 33.8716C97.2258 31.6468 97.0355 29.4092 96.8325 27.019C97.6065 27.6674 98.4058 27.8454 99.2686 27.8835C98.9514 27.998 98.6469 28.1251 98.3043 28.2522C99.0022 28.6463 99.1925 28.5446 100.449 27.0699C100.614 27.6801 100.271 28.0869 99.8777 28.4048C99.3702 28.8116 99.1418 29.3583 98.9768 29.9304C98.5708 31.4052 99.3702 32.4096 100.893 32.3587C101.565 32.3333 102.238 32.2824 102.898 32.168C103.202 32.1172 103.697 32.2443 103.735 31.723C103.76 31.3035 103.595 30.8967 103.189 30.6932C102.796 30.5025 102.365 30.617 102.174 30.9729C101.832 31.6213 101.286 31.6213 100.715 31.5705C99.9158 31.4942 99.5985 31.0492 99.7635 30.2483C99.8904 29.6634 100.258 29.2312 100.639 28.7862C101.578 27.7183 101.54 25.1247 100.512 24.1076C100.461 24.8958 100.893 25.5696 100.626 26.3452C100.258 26.0655 99.9158 25.8112 99.7254 26.574C99.6112 27.0571 99.0276 26.9681 98.6342 26.9046C98.0252 26.7902 98.5708 26.485 98.5962 26.2816C98.6596 25.8239 98.3551 25.6078 98.0759 25.3662C98.52 24.9467 98.9895 25.2518 99.4717 25.3281C99.5859 24.8195 99.2179 24.7051 98.9007 24.6161C97.9237 24.3491 97.3527 24.9594 96.8705 25.7349C96.3757 24.4 96.4264 24.3237 97.6953 24.1203C98.3931 24.0186 99.0783 23.866 99.7635 23.7135C100.157 23.6245 100.537 23.4592 100.474 22.9634C100.411 22.493 100.005 22.404 99.6112 22.3531C98.7738 22.2387 97.9617 22.4167 97.137 22.5565C96.8832 22.5947 96.4011 22.8871 96.4518 22.2895C96.4899 21.8446 96.0458 21.1453 96.7944 20.98C98.2663 20.6368 99.6874 20.1664 101.134 19.7722C101.756 19.5943 102.415 20.1664 103.164 19.9375C104.407 19.5434 105.689 19.2637 106.958 18.9331C107.313 18.8441 107.643 18.6662 107.821 19.2764C107.96 19.7468 108.506 19.6451 108.912 19.607C111.044 19.4417 113.188 19.2637 115.256 18.6662C115.865 18.4882 116.043 18.5517 115.929 19.2383C115.485 21.9081 115.421 24.6034 115.662 27.2987C115.726 27.9725 115.789 28.6463 116.056 29.2693C116.22 29.6761 116.525 29.8414 116.969 29.8414C117.413 29.8414 117.591 29.5744 117.705 29.2185C117.845 28.8243 117.997 28.4429 118.124 28.0361C118.251 27.6038 118.606 27.5275 118.948 27.5148C119.342 27.5021 119.342 27.8962 119.405 28.1505C119.634 29.0532 119.304 29.905 118.644 30.4008C117.591 31.1764 117.362 32.257 117.21 33.3885C116.893 35.7405 116.868 38.1053 117.147 40.4827C117.248 41.2964 117.134 42.1482 117.109 42.9746C113.695 42.9746 110.295 43.267 106.894 43.5721C106.641 43.6484 106.4 43.7247 106.146 43.7883ZM108.887 20.2554C108.138 20.3189 107.224 20.1409 106.374 20.4715C105.879 20.6622 105.41 20.9546 105.423 21.5394C105.435 22.1624 105.994 22.3404 106.463 22.5311C106.641 22.6074 106.844 22.5947 107.021 22.6201C108.684 22.8998 110.333 22.6074 111.97 22.4675C112.477 22.4294 113.048 22.2768 113.099 21.6411C113.15 21.0182 112.617 20.802 112.135 20.6113C111.132 20.2299 110.067 20.2935 108.887 20.2554ZM106.831 25.8621C106.666 26.396 106.996 26.7012 107.402 27.019C108.645 27.9725 110.802 27.1843 111.5 26.129C111.729 25.7985 111.881 25.3917 111.665 24.9467C111.297 24.1584 109.8 23.4338 108.899 23.6118C107.478 23.9169 106.894 24.5398 106.831 25.8621ZM108.836 27.8962C108.328 27.4894 107.681 27.5403 106.869 27.375C107.554 27.909 108.113 28.1124 108.836 27.8962Z" fill="#F9F9F8"/>
<path d="M68.2326 62.9095C67.281 62.8078 66.4055 63.1765 65.5046 63.3672C64.0581 63.6724 62.599 63.8631 61.1271 63.7995C57.8027 63.6342 56.039 61.4729 55.0366 58.6123C53.9073 55.3958 53.4125 52.014 52.9303 48.6576C52.4735 45.441 52.5116 42.1991 52.3594 38.9571C52.2325 36.2999 52.2959 33.6301 52.2832 30.9729C52.2832 30.2101 52.0548 29.5236 51.6742 28.8752C51.3316 28.2649 51.1286 27.6038 51.2555 26.9427C51.4838 25.7222 50.9129 24.9085 50.05 24.222C49.7836 24.0059 49.4664 23.8533 49.3649 23.3829C50.3419 23.4973 51.0271 23.9804 51.7249 24.5017C51.966 24.6797 52.2071 25.1755 52.6004 24.8831C52.9684 24.6161 52.6512 24.2474 52.537 23.9296C52.2705 23.1922 52.0168 22.4548 51.7122 21.6157C52.5751 21.8318 52.5877 22.6328 53.0065 23.0778C53.3364 23.4338 53.3364 24.3491 53.9073 24.1203C54.5291 23.866 54.0215 23.1541 53.92 22.6709C53.717 21.7683 53.4379 20.891 53.1587 19.874C54.0089 20.0519 54.2753 20.6495 54.5798 21.1707C54.9859 21.87 55.1889 22.6455 55.4046 23.421C55.4934 23.7262 55.5822 24.1203 56.0009 23.9932C56.3562 23.8915 56.2547 23.5355 56.204 23.2431C56.039 22.315 55.6076 21.4886 55.3031 20.6113C55.2016 20.3189 55.0874 20.0265 54.9097 19.5434C55.7091 19.9502 56.0644 20.4969 56.3182 21.0945C57.5997 24.0694 58.2976 27.1589 58.4625 30.4135C58.6782 34.9014 59.1984 39.3639 59.6933 43.8264C60.0105 46.6997 60.4419 49.5475 61.6219 52.2301C61.825 52.7005 62.0407 53.1709 62.2944 53.6159C63.3983 55.5865 64.5403 56.095 66.7481 55.6373C67.0653 55.5738 67.3825 55.5484 67.6997 55.4975C67.5728 56.6417 68.055 57.697 68.1438 58.803C68.2326 60.1761 68.1819 61.5492 68.2326 62.9095Z" fill="#F9F9F8"/>
<path d="M100.423 15.9073C99.6367 16.4921 99.015 17.3058 98.0253 17.6109C98.7993 17.0007 99.3702 16.1107 100.423 15.9073Z" fill="#F9F9F8"/>
<path d="M99.9158 17.1786C100.576 16.6828 101.235 16.1743 101.895 15.6784C101.946 15.6403 102.085 15.6403 102.149 15.6911C102.276 15.7801 102.25 15.9327 102.136 16.009C101.451 16.4794 100.842 17.0642 100.081 17.3948C100.017 17.3185 99.9665 17.2422 99.9158 17.1786Z" fill="#F9F9F8"/>
<path d="M104.395 15.5259C104.179 15.8946 103.786 16.0599 103.456 16.276C103.139 16.4794 102.758 17.1278 102.504 16.7845C102.225 16.4158 102.961 16.2124 103.215 15.9073C103.405 15.6657 103.71 15.5005 103.976 15.3479C104.128 15.2589 104.357 15.1826 104.395 15.5259Z" fill="#F9F9F8"/>
<path d="M118.352 22.4421C118.403 22.6963 118.314 22.976 118.149 22.9252C117.616 22.7726 117.832 22.2514 117.756 21.8827C117.718 21.6793 117.692 21.3233 117.984 21.4123C118.466 21.5903 118.174 22.1497 118.352 22.4421Z" fill="#F9F9F8"/>
<path d="M106.412 15.297C105.841 16.0726 105.118 16.3014 104.547 16.8862C104.636 16.1997 105.384 15.5513 106.412 15.297Z" fill="#F9F9F8"/>
<path d="M116.791 22.3277C116.969 22.0861 116.601 21.4759 117.071 21.5267C117.502 21.5649 117.274 22.1624 117.286 22.5057C117.299 22.76 117.337 23.2304 116.982 23.1795C116.588 23.1032 116.804 22.6455 116.791 22.3277Z" fill="#F9F9F8"/>
<path d="M100.373 35.7532C100.779 35.8422 101.286 35.4735 101.527 36.0457C101.616 36.2364 101.438 36.4779 101.172 36.5033C100.677 36.5415 100.398 36.3254 100.373 35.7532Z" fill="#F9F9F8"/>
<path d="M119.507 22.5565C119.202 22.1751 119.139 21.7556 119.278 21.158C119.684 21.6666 119.583 22.1115 119.507 22.5565Z" fill="#F9F9F8"/>
<path d="M107.935 15.564C107.694 15.9963 107.3 16.2378 106.831 16.3777C107.11 15.9963 107.364 15.5895 107.935 15.564Z" fill="#F9F9F8"/>
<path d="M103.786 36.3762C103.113 36.6051 102.745 36.5669 102.415 36.0075C102.923 35.944 103.291 36.033 103.786 36.3762Z" fill="#F9F9F8"/>
<path d="M108.963 20.2553C110.143 20.2935 111.208 20.2172 112.211 20.624C112.693 20.8147 113.226 21.0309 113.175 21.6538C113.124 22.2895 112.553 22.4421 112.046 22.4802C110.396 22.6074 108.76 22.9125 107.097 22.6328C106.907 22.5946 106.704 22.6074 106.539 22.5438C106.07 22.3531 105.511 22.1751 105.499 21.5521C105.486 20.9673 105.955 20.6749 106.45 20.4842C107.3 20.1536 108.214 20.3316 108.963 20.2553Z" fill="#1C1B1B"/>
<path d="M108.366 24.6161C109.432 24.1711 110.308 24.3491 111.043 25.0738C111.361 25.3789 111.234 25.6332 111.018 25.9002C110.447 26.6376 109.369 26.93 108.366 26.6122C109.343 25.9002 109.356 25.4934 108.366 24.6161Z" fill="#F9F9F8"/>
<path d="M151.19 73.3983C150.847 71.8981 150.517 70.3851 150.2 68.8722C149.401 65.1217 148.804 61.3331 147.409 57.7097C146.089 54.2897 143.97 51.5944 141.242 49.306C137.715 46.331 133.388 45.1232 129.036 44.0171C125.61 43.1399 122.082 43.0382 118.568 42.8729C118.644 43.3306 118.606 43.801 118.048 43.8773C117.464 43.9535 117.388 43.4323 117.274 43.0127C113.86 43.0127 110.46 43.3051 107.059 43.6103C106.806 43.6357 106.564 43.7247 106.311 43.7756C106.349 44.2587 106.273 44.7418 105.74 44.8435C105.118 44.9579 104.94 44.4494 104.801 43.979C104.204 44.0553 103.608 44.1824 102.999 44.2205C99.0782 44.4494 95.1955 44.9579 91.3256 45.7207C87.9377 46.3946 84.626 47.3481 81.4032 48.594C78.028 49.9035 74.7163 51.3274 71.392 52.7514C71.1636 52.8531 70.9352 52.9548 70.7068 53.0438C70.0216 53.3362 69.1968 53.387 68.6639 54.01C68.7147 54.1244 68.7654 54.2134 68.8162 54.3024C66.4942 55.3068 63.3221 55.5611 62.3704 50.2086C60.8224 41.4871 59.376 31.2399 59.376 31.2399L45.2791 44.8435C45.2791 44.8435 48.0071 56.095 50.9127 59.5786C53.8184 63.0621 59.8074 68.9866 63.855 68.8849C66.5069 68.8214 67.8646 69.0884 69.2603 69.1774C69.476 69.3172 69.8313 69.3045 70.4276 69.2028C70.4784 69.1901 70.5291 69.1901 70.5926 69.1774C70.9352 69.1519 71.3031 69.1265 71.7092 69.0629C71.798 69.0502 71.8868 69.0121 71.9756 68.9612C73.7647 68.707 75.5665 68.5162 77.3682 68.351C80.1343 68.0967 82.8877 67.7789 85.6538 67.4483C86.4532 67.3593 86.745 67.6517 86.7577 68.44C86.7577 69.5588 86.8338 70.6776 86.91 71.7964C87.1511 75.2163 87.7093 78.5981 87.7601 82.0308C87.8109 85.4889 88.09 169.157 88.2803 172.615C88.3057 173.009 88.293 173.404 88.8006 173.518C89.1812 172.704 89.4604 172.793 90.0948 172.793C97.0988 172.781 104.052 171.802 111.043 171.522C117.971 171.242 124.874 170.568 131.815 170.479C132.665 170.467 133.54 170.276 134.352 170.734C135.837 170.67 136.052 170.429 135.888 169.017C135.456 165.089 135.418 123.859 135.342 96.1811C142.359 92.8374 149.946 88.8962 150.581 87.3705C151.748 84.5863 153.486 80.1365 151.19 73.3983ZM135.317 85.9085C135.291 78.2167 135.253 72.7753 135.19 71.4658C135.139 70.347 135.164 69.1901 135.608 68.084C136.027 69.2282 136.002 70.4233 136.129 71.5929C136.23 72.4956 136.294 73.3983 136.37 74.3009C136.471 75.4452 136.585 76.5767 136.814 77.7082C136.865 77.9625 136.941 78.1659 137.042 78.3312C137.245 80.9374 137.08 84.1667 135.317 85.9085Z" fill="#1C1B1B" stroke="white" stroke-width="0.4" stroke-miterlimit="10"/>
<path d="M109.711 43.4958L112.122 75.674L121.702 75.6486L113.734 43.534L109.711 43.4958Z" fill="#F9F9F8"/>
<path d="M107.719 43.6738L104.319 78.026L113.493 78.916L111.018 43.4958L107.719 43.6738Z" fill="#F9F9F8" stroke="black" stroke-miterlimit="10"/>
<path d="M111.665 78.8397L111.031 53.9973L112.439 78.8143L111.665 78.8397Z" fill="black"/>
<path d="M110.447 78.7253L110.32 47.0048L111.221 78.7126L110.447 78.7253Z" fill="black"/>
<path d="M119.494 76.2588L113.239 44.6147L119.685 76.2207L119.494 76.2588Z" fill="black"/>
<path d="M117.921 76.1444L114.178 52.5352L118.098 76.1063L117.921 76.1444Z" fill="black"/>
<path d="M106.844 78.4075L108.734 52.7895L107.618 78.4583L106.844 78.4075Z" fill="black"/>
<path d="M105.524 78.3312L107.186 62.7443L106.285 78.3947L105.524 78.3312Z" fill="black"/>
<path d="M119.659 91.7313C119.431 91.7948 119.202 91.8711 118.974 91.9347C115.853 92.8501 113.023 94.2486 110.422 96.181C109.902 96.5624 109.458 97.0328 109.242 97.9101C109.661 97.6177 109.914 97.4397 110.181 97.2744C110.955 96.7786 111.665 96.1556 112.528 95.7869C112.795 95.6725 113.112 95.4818 113.302 95.8123C113.518 96.2065 113.163 96.3717 112.883 96.537C112.186 96.9311 111.475 97.3125 110.891 97.8592C110.46 98.2661 109.94 98.6729 109.965 99.5374C110.891 99.0289 111.678 98.5585 112.503 98.1516C112.947 97.9355 113.518 97.2744 113.911 97.8211C114.266 98.3296 113.378 98.533 113.112 98.9399C112.769 99.4484 111.995 99.6518 111.983 100.542C112.731 100.059 113.391 99.6264 114.038 99.2069C114.317 99.0289 114.596 98.622 114.952 98.9272C115.32 99.245 114.901 99.5883 114.774 99.868C114.431 100.669 114.127 101.457 114.241 102.423C114.672 102.22 114.749 101.877 114.888 101.559C115.358 100.555 116.017 99.8171 117.248 99.7535C117.921 99.7154 118.517 99.3721 119.025 98.9017C119.57 98.3932 120.192 98.0118 120.928 97.8211C121.182 97.7575 121.435 97.7067 121.677 97.6431C120.89 95.7106 120.167 93.7527 119.659 91.7313Z" fill="#F9F9F8"/>
<path d="M118.06 100.135C117.489 99.69 116.931 99.2577 116.36 98.8128C115.32 97.7575 114.596 96.5243 114.203 95.1004C114.102 94.3503 114 93.6129 113.898 92.8628C113.886 92.367 113.937 91.8966 114.025 91.4389L109.242 82.2978L90.1964 93.7909L109.077 118.29L124.671 109.848L118.707 100.453C118.492 100.351 118.276 100.262 118.06 100.135Z" fill="#F9F9F8"/>
<path d="M118.251 100.224L124.303 109.747L109.153 117.947L90.5898 93.8672L109.14 82.6665L113.987 91.922C114.013 91.6169 114.038 91.3118 114.114 91.0321L109.356 81.9418L89.8285 93.7274L108.887 118.455L109.026 118.633L124.823 110.09L125.077 109.95L119.177 100.669C118.847 100.542 118.555 100.389 118.251 100.224Z" fill="black"/>
<path d="M148.259 74.873C148.487 74.2882 148.919 74.2119 149.452 74.4026C150.264 76.2334 151.177 78.0387 151.647 80.0093C152.675 84.2811 151.38 87.5104 147.548 89.6971C143.31 92.1254 138.831 93.9943 134.149 95.3928C129.848 96.6642 125.534 97.872 121.182 98.9399C120.611 99.0798 120.129 99.3849 119.659 99.7282C118.949 100.237 118.2 100.656 117.299 100.707C116.538 100.758 115.979 101.114 115.65 101.839C115.472 102.22 115.282 102.589 115.066 102.945C114.876 103.25 114.609 103.491 114.216 103.466C113.797 103.441 113.632 103.148 113.467 102.818C113.112 102.093 113.366 101.381 113.531 100.605C112.985 100.58 112.668 101 112.249 101.165C111.729 101.381 111.209 101.877 110.663 101.47C110.143 101.063 110.714 100.542 110.752 100.033C110.447 100.11 110.181 100.173 109.914 100.237C109.635 100.3 109.267 100.224 109.255 100.008C109.229 99.1815 108.582 98.5585 108.481 97.8465C108.366 97.0456 108.975 96.2828 109.635 95.7361C111.944 93.8163 114.533 92.3415 117.375 91.388C122.958 89.5191 128.554 87.6629 134.073 85.6033C136.078 84.8532 137.892 83.7853 139.517 82.4249C141.191 81.0264 141.344 80.0093 140.303 78.0642C140.049 77.581 139.796 77.1106 139.542 76.6275C140.303 75.9791 140.316 75.9791 141.166 77.1742C141.28 77.4666 141.382 77.7718 141.521 78.0642C142.473 80.1111 142.245 81.3316 140.582 82.8699C140.202 83.2132 139.796 83.531 139.39 83.8361C137.068 85.6033 134.39 86.684 131.675 87.6629C127.463 89.1759 123.25 90.7142 118.949 91.9729C115.827 92.8882 112.998 94.2867 110.397 96.2192C109.876 96.6006 109.432 97.071 109.216 97.9483C109.635 97.6558 109.889 97.4779 110.155 97.3126C110.929 96.8167 111.64 96.1938 112.503 95.8251C112.769 95.7107 113.086 95.52 113.277 95.8505C113.492 96.2446 113.137 96.4099 112.858 96.5752C112.16 96.9693 111.45 97.3507 110.866 97.8974C110.435 98.3042 109.914 98.7111 109.94 99.5756C110.866 99.0671 111.653 98.5967 112.477 98.1898C112.922 97.9737 113.492 97.3126 113.886 97.8593C114.241 98.3678 113.353 98.5712 113.086 98.9781C112.744 99.4866 111.97 99.69 111.957 100.58C112.706 100.097 113.366 99.6646 114.013 99.245C114.292 99.0671 114.571 98.6602 114.926 98.9653C115.294 99.2832 114.876 99.6265 114.749 99.9062C114.406 100.707 114.102 101.495 114.216 102.462C114.647 102.258 114.723 101.915 114.863 101.597C115.332 100.593 115.992 99.8553 117.223 99.7917C117.895 99.7536 118.492 99.4103 118.999 98.9399C119.545 98.4314 120.167 98.05 120.903 97.8593C123.478 97.2236 126.092 96.6642 128.643 95.9268C131.751 95.0241 134.911 94.3122 137.918 93.1171C141.077 91.8711 144.237 90.5998 147.092 88.7563C149.629 87.1163 151.33 84.9041 150.72 81.624C150.454 80.1746 149.921 78.7888 149.287 77.4539C148.931 76.5894 148.373 75.8266 148.259 74.873Z" fill="#1C1B1B"/>
<path d="M106.945 88.7563C104.953 89.6971 102.948 90.6379 100.906 91.477C99.9412 91.8711 98.9388 92.2144 97.9872 92.6467C97.5177 92.8501 97.099 93.1171 96.7056 93.4476C96.3631 93.74 96.0712 94.1087 95.7033 94.363C95.1577 94.7444 95.0054 95.6852 95.7033 96.0285C95.7794 96.0666 95.8555 96.1048 95.919 96.1429C97.0229 96.6896 97.9999 95.0241 96.896 94.4774C96.8198 94.4393 96.7437 94.4011 96.6803 94.363C96.6803 94.9224 96.6803 95.4691 96.6803 96.0285C97.467 95.4945 98.0126 94.7444 98.8881 94.3503C99.827 93.918 100.817 93.6002 101.756 93.2061C103.837 92.3415 105.867 91.388 107.91 90.4345C108.379 90.2184 108.506 89.5318 108.252 89.1123C107.986 88.6291 107.415 88.5402 106.945 88.7563Z" fill="black"/>
<path d="M108.252 92.3415C106.78 93.2696 105.258 94.096 103.672 94.808C102.111 95.5072 100.626 96.2446 99.9538 97.9228C99.7635 98.4059 100.17 98.978 100.626 99.1052C101.172 99.2577 101.616 98.9145 101.806 98.4314C101.997 97.9355 102.492 97.5541 102.936 97.2871C103.595 96.8803 104.331 96.6133 105.042 96.2828C106.488 95.6089 107.884 94.8461 109.216 93.9943C109.661 93.7146 109.825 93.1298 109.559 92.6721C109.318 92.2525 108.696 92.0618 108.252 92.3415Z" fill="black"/>
<path d="M104.991 99.1306C104.699 99.3213 104.407 99.512 104.116 99.69C103.976 99.779 103.836 99.868 103.697 99.957C103.608 100.021 103.519 100.084 103.443 100.16C103.392 100.211 103.354 100.262 103.316 100.313C103.227 100.44 103.164 100.542 103.113 100.694C103.075 100.796 103.062 100.911 103.062 101.025C103.062 101.267 103.164 101.533 103.342 101.711C103.507 101.877 103.786 102.004 104.027 101.991C104.281 101.978 104.534 101.902 104.712 101.711C104.89 101.521 104.991 101.292 104.991 101.025C104.991 101.012 104.991 101 104.991 100.987C104.978 101.076 104.966 101.152 104.953 101.241C104.953 101.228 104.953 101.216 104.966 101.203C104.928 101.279 104.902 101.356 104.864 101.432C104.877 101.419 104.877 101.394 104.89 101.381C104.839 101.444 104.788 101.508 104.737 101.572C104.763 101.533 104.788 101.508 104.826 101.483C104.763 101.533 104.699 101.584 104.636 101.635C104.839 101.483 105.067 101.356 105.283 101.216C105.511 101.076 105.727 100.923 105.955 100.783C106.158 100.644 106.336 100.453 106.4 100.211C106.438 100.084 106.45 99.957 106.412 99.8299C106.412 99.7027 106.374 99.5883 106.298 99.4739C106.171 99.2705 105.968 99.0925 105.727 99.0289C105.486 98.9781 105.207 98.9908 104.991 99.1306Z" fill="black"/>
<path d="M109.66 103.059C108.772 103.275 107.96 103.733 107.288 104.343C107.11 104.508 107.009 104.788 107.009 105.03C107.009 105.271 107.11 105.551 107.288 105.716C107.465 105.882 107.706 106.009 107.973 105.996C108.239 105.983 108.455 105.894 108.658 105.716C108.747 105.64 108.836 105.564 108.937 105.487C108.874 105.538 108.81 105.589 108.747 105.64C109.051 105.411 109.381 105.208 109.737 105.055C109.66 105.093 109.584 105.119 109.508 105.157C109.737 105.068 109.952 104.992 110.193 104.928C110.422 104.877 110.65 104.686 110.764 104.483C110.891 104.28 110.942 103.975 110.866 103.746C110.676 103.224 110.181 102.932 109.66 103.059Z" fill="black"/>
<path d="M117.299 105.983C114.622 106.848 112.071 108.068 109.737 109.632C109.305 109.924 109.115 110.484 109.394 110.954C109.648 111.386 110.282 111.59 110.714 111.298C112.909 109.823 115.294 108.653 117.819 107.839C118.314 107.674 118.631 107.166 118.492 106.657C118.352 106.174 117.794 105.831 117.299 105.983Z" fill="black"/>
<path d="M96.6929 25.4425C96.7056 25.4934 96.7183 25.5442 96.7183 25.5951C96.7056 25.5061 96.6929 25.4298 96.6802 25.3408C96.7056 25.5569 96.6929 25.7731 96.6929 25.9892C96.6929 26.2816 96.731 26.574 96.7817 26.8664C96.8579 27.286 96.972 27.7182 97.1116 28.1251C97.2004 28.3666 97.3146 28.5701 97.5177 28.7226C97.7968 28.9388 98.1267 28.9769 98.4693 28.9133C98.7104 28.8752 98.9388 28.7735 99.1418 28.6718C99.5605 28.4556 99.9031 28.1251 100.17 27.7437C100.474 27.3114 100.626 26.7901 100.664 26.2689C100.03 26.3579 99.4082 26.4342 98.7738 26.5232C98.7865 26.574 98.7992 26.6122 98.8119 26.663C98.7992 26.574 98.7865 26.4977 98.7738 26.4087C98.7738 26.4596 98.7865 26.4977 98.7738 26.5486C98.7865 26.4596 98.7992 26.3833 98.8119 26.2943C98.8119 26.3197 98.7992 26.3452 98.7865 26.3833C98.8246 26.307 98.8499 26.2308 98.888 26.1545C98.8753 26.1799 98.8626 26.2053 98.8499 26.218C98.9007 26.1545 98.9515 26.0909 99.0022 26.0273C98.9895 26.0528 98.9641 26.0655 98.9514 26.0782C99.0149 26.0273 99.0783 25.9765 99.1418 25.9256C99.1164 25.9383 99.1037 25.9511 99.0783 25.9638C99.1545 25.9256 99.2306 25.9002 99.3067 25.8621C99.294 25.8621 99.2814 25.8621 99.2687 25.8748C99.3575 25.8621 99.4336 25.8493 99.5224 25.8366C99.5097 25.8366 99.4971 25.8366 99.4844 25.8366C99.6493 26.4342 99.8143 27.0317 99.9665 27.6292C100.22 27.4513 100.436 27.2478 100.576 26.9554C100.702 26.6757 100.804 26.3706 100.766 26.0528C100.131 26.1418 99.5097 26.218 98.8753 26.307C98.9007 26.3579 98.9007 26.3833 98.9007 26.4215C98.888 26.3325 98.8753 26.2562 98.8626 26.1672C98.8753 26.2308 98.8626 26.2943 98.8626 26.3579C98.8753 26.2689 98.888 26.1926 98.9007 26.1036C98.8499 26.4342 98.7104 26.7393 98.5962 27.0444C98.5454 27.197 98.5581 27.4131 98.5962 27.553C98.6469 27.7564 98.7738 27.9217 98.9388 28.0488C99.0783 28.1505 99.2179 28.2141 99.3955 28.2395C99.5859 28.2649 99.8523 28.2522 100.005 28.1251C100.22 27.9598 100.334 27.8708 100.487 27.642C100.563 27.5275 100.626 27.3877 100.677 27.2478C100.753 27.0317 100.779 26.7774 100.804 26.5486C100.817 26.307 100.804 26.04 100.753 25.7985C100.664 25.4044 100.411 25.0992 100.093 24.8831C99.9285 24.7814 99.7508 24.7051 99.5732 24.6161C99.4717 24.5653 99.3702 24.5144 99.2687 24.4636C98.9768 24.3237 98.7104 24.2347 98.3805 24.311C97.9491 24.4127 97.6192 24.8577 97.5303 25.2772C97.4669 25.5315 97.4669 25.7858 97.4796 26.04C97.505 26.2943 97.5684 26.5359 97.7587 26.7266C97.9237 26.8919 98.2028 27.019 98.4439 27.0063C98.9261 26.9809 99.4463 26.5867 99.4082 26.04C99.3955 25.9002 99.3955 25.7603 99.4082 25.6205C99.3955 25.7095 99.3829 25.7858 99.3702 25.8748C99.3829 25.8112 99.3956 25.7476 99.4209 25.6714C99.3829 25.7476 99.3575 25.8239 99.3194 25.9002C99.3448 25.8493 99.3702 25.8112 99.4082 25.7603C99.3575 25.8239 99.3067 25.8875 99.256 25.9511C99.2687 25.9383 99.2687 25.9383 99.2814 25.9256C99.1418 26.0146 99.0022 26.0909 98.8626 26.1799C98.8753 26.1799 98.888 26.1672 98.9007 26.1672C98.7357 26.1672 98.5581 26.1672 98.3932 26.1672C98.4058 26.1672 98.4185 26.1799 98.4439 26.1799C98.3678 26.1418 98.2916 26.1163 98.2155 26.0782C98.3932 26.1672 98.5708 26.2435 98.7357 26.3325C98.888 26.4087 99.0403 26.4723 99.1672 26.5613C99.1037 26.5104 99.0403 26.4596 98.9768 26.4087C99.0149 26.4469 99.053 26.4723 99.091 26.5232C99.0403 26.4596 98.9895 26.396 98.9388 26.3325C98.9514 26.3579 98.9641 26.3833 98.9768 26.4087C98.9388 26.3325 98.9134 26.2562 98.8753 26.1799C98.9007 26.2435 98.9134 26.2943 98.9261 26.3579C98.9134 26.2689 98.9007 26.1926 98.888 26.1036C98.9007 26.2943 98.9007 26.4977 98.8753 26.6884C98.888 26.5994 98.9007 26.5232 98.9134 26.4342C98.9007 26.5359 98.8753 26.6376 98.8372 26.7393C98.8753 26.663 98.9007 26.5867 98.9388 26.5105C98.9134 26.574 98.888 26.6249 98.8499 26.6757C98.9007 26.6122 98.9515 26.5486 99.0022 26.485C98.9768 26.5232 98.9388 26.5613 98.9007 26.5994C98.9641 26.5486 99.0276 26.4977 99.091 26.4469C99.0783 26.4596 99.0656 26.4596 99.0656 26.4723C99.5351 26.841 100.005 27.197 100.474 27.5657C100.677 26.9936 100.918 26.4469 100.766 25.8239C100.639 25.3535 100.17 25.0738 99.7128 25.1374C99.5097 25.1628 99.3067 25.2518 99.1545 25.4044C98.9895 25.5824 98.8373 25.8366 98.8753 26.0909C98.888 26.1545 98.888 26.218 98.8753 26.2943C98.888 26.2053 98.9007 26.129 98.9134 26.04C98.9007 26.1036 98.888 26.1672 98.8626 26.2307C98.9007 26.1545 98.9261 26.0782 98.9641 26.0019C98.9388 26.0655 98.9007 26.1163 98.8626 26.1799C98.9134 26.1163 98.9641 26.0528 99.0149 25.9892C98.9768 26.04 98.9261 26.0909 98.8753 26.129C98.9388 26.0782 99.0022 26.0273 99.0656 25.9765C99.053 25.9892 99.0403 25.9892 99.0276 26.0019C98.8499 26.129 98.7231 26.2562 98.6342 26.4596C98.5581 26.6503 98.52 26.8791 98.5835 27.0826C98.7104 27.4767 99.0783 27.82 99.5097 27.7945C99.9538 27.7691 100.347 27.5657 100.55 27.1588C100.741 26.8029 100.741 26.4087 100.639 26.0273C100.512 25.5569 100.043 25.2772 99.5859 25.3408C99.091 25.4044 98.7865 25.7985 98.7484 26.2943C98.7484 26.3452 98.7357 26.396 98.7357 26.4469C98.7484 26.3579 98.7611 26.2816 98.7738 26.1926C98.7484 26.3325 98.7104 26.4723 98.6596 26.6122C98.6977 26.5359 98.7231 26.4596 98.7611 26.3833C98.6977 26.5359 98.6089 26.6884 98.5074 26.8283C98.5581 26.7647 98.6089 26.7012 98.6596 26.6376C98.5581 26.7774 98.4312 26.8919 98.2916 26.9936C98.3551 26.9427 98.4185 26.8919 98.482 26.841C98.3551 26.93 98.2155 27.019 98.0759 27.0826C98.1521 27.0444 98.2282 27.019 98.3043 26.9809C98.1901 27.019 98.0759 27.0571 97.9617 27.0826C98.0506 27.0698 98.1267 27.0571 98.2155 27.0444C98.2028 27.0444 98.1901 27.0444 98.1775 27.0444C98.2663 27.0571 98.3424 27.0698 98.4312 27.0826C98.4185 27.0826 98.4058 27.0826 98.3932 27.0826C98.4693 27.1207 98.5454 27.1461 98.6215 27.1843C98.6089 27.1843 98.5962 27.1716 98.5835 27.1716C98.6469 27.2224 98.7104 27.2733 98.7738 27.3241C98.7611 27.3114 98.7611 27.3114 98.7484 27.2987C98.7992 27.3623 98.8499 27.4258 98.9007 27.4894C98.9007 27.4767 98.888 27.4767 98.888 27.464C98.9261 27.5403 98.9514 27.6165 98.9895 27.6928C98.9007 27.464 98.8373 27.2097 98.7738 26.9809C98.7104 26.7266 98.6469 26.4723 98.6215 26.218C98.6342 26.307 98.6469 26.3833 98.6596 26.4723C98.5962 25.9765 98.685 25.4679 98.5581 24.9721C98.4312 24.489 97.8602 24.1457 97.3781 24.2983C96.8579 24.4254 96.5533 24.9212 96.6929 25.4425Z" fill="#F9F9F8"/>
<path d="M106.526 26.0655C106.844 25.9256 107.135 25.8112 107.554 25.6586C107.948 25.5188 108.341 25.3917 108.734 25.2772C108.925 25.2264 109.115 25.1882 109.305 25.1501C109.318 25.1501 109.61 25.112 109.432 25.1247C109.534 25.112 109.622 25.112 109.724 25.0992C109.825 25.0992 109.914 25.0992 110.016 25.0992C110.054 25.0992 110.308 25.1247 110.143 25.0992C110.231 25.112 110.333 25.1374 110.422 25.1628C110.473 25.1755 110.536 25.1882 110.587 25.2137C110.485 25.1628 110.473 25.1628 110.536 25.1882C110.599 25.2264 110.587 25.2137 110.498 25.1374C110.574 25.2264 110.574 25.2009 110.485 25.0738C110.384 24.9212 110.422 24.8704 110.434 24.7051C110.473 24.6416 110.46 24.6543 110.422 24.7305C110.473 24.667 110.485 24.6543 110.434 24.7051C110.358 24.7687 110.282 24.845 110.206 24.9085C110.333 24.8068 110.155 24.9467 110.117 24.9721C110.041 25.023 109.978 25.0738 109.902 25.1247C109.749 25.2264 109.61 25.3154 109.445 25.4044C109.369 25.4425 109.292 25.4806 109.204 25.5188C109.369 25.4298 109.128 25.5442 109.102 25.5569C109.013 25.5824 108.937 25.6078 108.848 25.6332C108.798 25.6459 108.734 25.6586 108.671 25.6714C108.709 25.6714 108.747 25.6586 108.785 25.6586C108.76 25.6841 108.62 25.6586 108.569 25.6586C108.366 25.6714 108.722 25.7095 108.544 25.6586C108.366 25.5951 108.696 25.7731 108.493 25.6332C108.43 25.5951 108.455 25.6078 108.557 25.6841C108.683 25.8366 108.722 26.0146 108.683 26.2308C108.595 26.3706 108.518 26.5105 108.43 26.6503C108.125 26.7902 108.049 26.841 108.189 26.7902C108.227 26.7774 108.277 26.7647 108.315 26.752C108.341 26.7393 108.379 26.7393 108.404 26.7266C108.315 26.7393 108.303 26.7393 108.379 26.7266C108.455 26.7266 108.531 26.7266 108.607 26.7266C108.81 26.7266 108.493 26.7012 108.709 26.7393C108.518 26.2689 108.328 25.7985 108.138 25.3281C108.112 25.3917 108.062 25.5315 107.998 25.5696C108.074 25.4679 108.087 25.4552 108.024 25.5315C107.986 25.5696 107.96 25.5951 107.922 25.6332C107.846 25.6968 107.859 25.6968 107.948 25.6078C107.909 25.6332 107.871 25.6586 107.833 25.6841C107.757 25.7349 107.694 25.7731 107.618 25.8112C107.288 26.0019 106.932 26.1545 106.615 26.3579C106.133 26.663 105.93 27.4513 106.425 27.8708C107.097 28.4429 107.871 28.8625 108.747 29.0786C109.242 29.193 109.813 28.926 109.927 28.4048C110.041 27.9089 109.775 27.3368 109.254 27.2224C109.089 27.1843 108.937 27.1461 108.785 27.0826C108.709 27.0571 108.645 27.0317 108.582 27.0063C108.76 27.0826 108.493 26.9554 108.493 26.9554C108.366 26.8919 108.227 26.8156 108.1 26.7393C108.024 26.6884 107.948 26.6376 107.884 26.5867C108.011 26.6757 107.833 26.5359 107.795 26.5105C107.732 27.019 107.668 27.5148 107.605 28.0234C108.404 27.5148 109.381 27.2224 109.813 26.2943C109.94 26.0019 109.99 25.7349 109.863 25.4298C109.749 25.1628 109.534 24.934 109.242 24.8704C108.633 24.7433 107.922 24.7433 107.364 25.0611C106.59 25.4934 106.641 26.4977 107.224 27.0699C108.074 27.8835 109.381 27.6165 110.32 27.1207C110.777 26.8791 111.221 26.5613 111.614 26.218C112.109 25.7985 112.427 25.1247 112.262 24.4763C111.932 23.1286 110.168 23.0778 109.077 23.2303C107.859 23.3956 106.666 23.8914 105.549 24.3873C105.093 24.5907 104.94 25.3027 105.207 25.7095C105.511 26.1926 106.032 26.2816 106.526 26.0655Z" fill="#F9F9F8"/>
<path d="M107.694 28.2649C107.503 27.6547 106.768 27.6165 106.894 26.9046C108.049 27.4385 109.166 27.4385 110.117 26.5104C110.371 26.2562 110.574 25.9256 110.777 25.6205C110.866 25.4806 110.828 25.3027 110.701 25.1882C110.561 25.0611 110.409 25.0992 110.295 25.2137C110.143 25.3662 110.041 25.5569 109.889 25.6968C108.468 27.0571 107.009 26.7393 106.285 24.9085C106.209 24.7178 106.26 24.4763 106.032 24.3618C105.245 25.7731 105.955 27.5275 107.694 28.2649Z" fill="#1C1B1B"/>
<path d="M98.2409 28.1124C98.1141 27.7055 97.6319 27.6801 97.7207 27.2224C98.482 27.5784 99.2053 27.5784 99.8397 26.9554C100.005 26.7901 100.144 26.574 100.271 26.3706C100.335 26.2816 100.309 26.1672 100.22 26.0909C100.132 26.0146 100.03 26.0273 99.9539 26.1163C99.8524 26.218 99.7889 26.3452 99.6874 26.4342C98.7612 27.3368 97.7968 27.1207 97.3147 25.9256C97.2639 25.7985 97.302 25.6459 97.1497 25.5696C96.6422 26.4723 97.1117 27.6165 98.2409 28.1124Z" fill="#1C1B1B"/>
<path d="M108.721 27.6547C108.239 27.464 107.744 27.2606 107.262 27.0699C107.212 27.0444 107.135 27.0063 107.072 26.9936C107.135 27.0063 107.224 27.0572 107.11 27.0063C107.009 26.9555 106.907 26.9046 106.806 26.8537C106.742 26.8156 106.691 26.7775 106.628 26.752C106.514 26.6758 106.641 26.7393 106.666 26.7775C106.653 26.752 106.539 26.663 106.526 26.6503C106.488 26.6122 106.45 26.574 106.412 26.5359C106.387 26.5105 106.336 26.4342 106.311 26.4088C106.387 26.4469 106.412 26.5486 106.323 26.4215C106.26 26.3325 106.196 26.2435 106.133 26.1418C106.006 25.9511 105.892 25.7604 105.778 25.557C105.714 25.4552 105.664 25.3535 105.613 25.2518C105.6 25.2264 105.587 25.1883 105.575 25.1628C105.587 25.201 105.6 25.2264 105.613 25.2645C105.575 25.2264 105.575 25.1501 105.549 25.0993C105.537 25.0484 105.511 24.9848 105.499 24.934C105.499 24.9086 105.486 24.8958 105.486 24.8704C105.473 24.7814 105.473 24.7814 105.486 24.8704C105.499 24.9467 105.499 24.9594 105.486 24.8704C105.486 24.845 105.486 24.8196 105.486 24.8069C105.486 24.7433 105.499 24.667 105.499 24.6034C105.524 24.3746 105.372 24.0695 105.219 23.9169C105.055 23.7516 104.775 23.6245 104.534 23.6372C104.281 23.6499 104.027 23.7262 103.849 23.9169C103.659 24.1203 103.595 24.3237 103.57 24.6034C103.494 25.2518 103.735 25.9002 104.039 26.4596C104.306 26.9555 104.61 27.4386 104.978 27.8581C105.397 28.3539 105.955 28.6209 106.539 28.8625C107.085 29.0913 107.643 29.3075 108.189 29.5236C108.404 29.6126 108.734 29.5363 108.925 29.4219C109.128 29.3075 109.318 29.0786 109.369 28.8498C109.521 28.2904 109.229 27.8581 108.721 27.6547Z" fill="#F9F9F8"/>
<path d="M103.621 24.7178C103.596 25.5315 103.786 26.3198 104.141 27.0571C104.192 27.1207 104.243 27.1843 104.293 27.2478C104.382 27.3368 104.484 27.4131 104.598 27.4513C104.788 27.5275 105.017 27.5657 105.22 27.5021C105.385 27.4513 105.524 27.3623 105.638 27.2478C105.803 27.0953 105.943 26.7902 105.918 26.5613C105.892 26.2435 105.867 25.9256 105.841 25.6078C105.816 25.3535 105.791 25.0865 105.829 24.8323C105.816 24.9213 105.803 24.9975 105.791 25.0865C105.803 24.9848 105.829 24.8958 105.867 24.7941C105.829 24.8704 105.803 24.9467 105.765 25.023C105.791 24.9467 105.829 24.8831 105.879 24.8195C105.829 24.8831 105.778 24.9467 105.727 25.0103C105.74 24.9975 105.74 24.9975 105.753 24.9848C105.918 24.7814 106.032 24.578 106.032 24.2983C106.032 24.0567 105.93 23.777 105.753 23.6118C105.575 23.4465 105.334 23.3193 105.067 23.3321C104.826 23.3448 104.547 23.421 104.382 23.6118C104.179 23.866 104.002 24.133 103.938 24.4509C103.887 24.6924 103.862 24.9594 103.875 25.201C103.887 25.6459 103.938 26.0909 103.976 26.5359C104.573 26.3706 105.169 26.2053 105.765 26.0528C105.727 25.9765 105.702 25.9002 105.664 25.8366C105.702 25.9129 105.727 25.9892 105.765 26.0655C105.638 25.7476 105.55 25.4298 105.499 25.0865C105.511 25.1755 105.524 25.2518 105.537 25.3408C105.511 25.1247 105.499 24.9085 105.511 24.6924C105.524 24.1839 105.055 23.7007 104.547 23.7262C104.052 23.777 103.646 24.1712 103.621 24.7178Z" fill="#F9F9F8"/>
<path d="M105.093 22.8616C104.648 23.0778 104.369 23.4973 104.204 23.955C104.065 24.3237 104.052 24.7433 104.014 25.1374C103.989 25.5315 104.001 25.9383 104.103 26.3325C104.192 26.663 104.357 26.9554 104.407 27.286C104.395 27.197 104.382 27.1207 104.369 27.0317C104.369 27.0698 104.382 27.108 104.382 27.1461C104.42 27.642 104.801 28.1378 105.346 28.1124C105.841 28.0869 106.349 27.6928 106.311 27.1461C106.285 26.841 106.222 26.5486 106.12 26.2689C106.032 26.04 105.955 25.8239 105.917 25.5696C105.93 25.6586 105.943 25.7349 105.955 25.8239C105.917 25.4298 105.955 25.023 105.993 24.6415C105.981 24.7305 105.968 24.8068 105.955 24.8958C105.968 24.8068 105.981 24.7178 106.006 24.6288C106.019 24.5907 106.032 24.5525 106.044 24.5144C106.07 24.4 105.93 24.7178 106.019 24.578C106.019 24.5653 106.07 24.489 106.07 24.489C106.082 24.489 105.905 24.6543 106.019 24.5653C106.044 24.5398 106.171 24.4381 106.032 24.5398C105.905 24.6415 106.032 24.5525 106.07 24.5398C106.526 24.3237 106.679 23.6372 106.412 23.2176C106.108 22.7472 105.575 22.6328 105.093 22.8616Z" fill="#F9F9F8"/>
<path d="M127.336 34.8124C128.427 36.0075 128.363 38.1434 127.209 39.2495C126.003 40.3937 123.796 40.2793 122.654 39.0079C121.6 37.8256 121.715 35.6515 122.895 34.5836C124.189 33.4012 126.13 33.5029 127.336 34.8124Z" fill="#0088A1"/>
<path d="M122.971 29.6889C121.816 28.4557 121.892 26.3833 123.123 25.2391C124.341 24.1076 126.473 24.2093 127.589 25.4552C128.668 26.6503 128.566 28.7989 127.386 29.8796C126.092 31.062 124.189 30.9857 122.971 29.6889Z" fill="#0088A1"/>
<path d="M123.009 20.1155C121.829 18.8314 121.854 16.8735 123.085 15.7293C124.392 14.5088 126.295 14.5724 127.513 15.8819C128.706 17.1659 128.642 19.1874 127.361 20.3316C126.054 21.5013 124.201 21.4123 123.009 20.1155Z" fill="#0088A1"/>
<path d="M100.918 6.6518C102.06 7.88502 102.022 10.0336 100.842 11.1524C99.662 12.2458 97.4415 12.1441 96.363 10.9363C95.2591 9.70307 95.3606 7.55447 96.566 6.44838C97.6826 5.41858 99.865 5.52029 100.918 6.6518Z" fill="#0088A1"/>
<path d="M91.2494 33.5284C92.3787 34.7362 92.366 36.9738 91.1098 38.0036C89.8537 39.0334 88.128 39.1478 86.8084 37.762C85.5777 36.4779 85.603 34.4692 86.8592 33.3122C88.0646 32.1807 90.0821 32.2824 91.2494 33.5284Z" fill="#0088A1"/>
<path d="M87.5825 14.1528C88.8387 12.9705 90.7927 12.9959 91.9474 14.2164C93.0893 15.4242 93.0259 17.5474 91.8205 18.7043C90.7166 19.7595 88.5469 19.7087 87.4683 18.5899C86.2629 17.3312 86.3137 15.3479 87.5825 14.1528Z" fill="#0088A1"/>
<path d="M106.285 6.23223C107.542 5.07529 109.483 5.13886 110.663 6.38479C111.818 7.6053 111.754 9.62676 110.536 10.7837C109.318 11.9406 107.237 11.8644 106.082 10.6057C104.94 9.39792 105.042 7.38917 106.285 6.23223Z" fill="#0088A1"/>
<path d="M91.1608 28.3158C89.9046 29.4982 87.8618 29.4473 86.7198 28.2141C85.5905 26.9936 85.654 24.9721 86.8721 23.8152C88.0521 22.6964 90.1457 22.7472 91.275 23.9169C92.4169 25.1247 92.3662 27.197 91.1608 28.3158Z" fill="#0088A1"/>
<path d="M114.66 11.1652C113.442 9.86836 113.467 8.01218 114.723 6.80438C115.979 5.59659 117.946 5.66016 119.139 6.95695C120.306 8.21559 120.243 10.1735 119.012 11.3304C117.743 12.5255 115.865 12.4492 114.66 11.1652Z" fill="#0088A1"/>
<path d="M133.261 16.0853C133.997 16.8736 133.946 18.2975 133.172 19.0094C132.309 19.7977 131.003 19.7595 130.19 18.9077C129.455 18.1449 129.493 16.5684 130.267 15.8819C131.091 15.1318 132.474 15.2335 133.261 16.0853Z" fill="#0088A1"/>
<path d="M132.893 37.9273C132.094 38.6647 130.711 38.6265 129.962 37.851C129.201 37.05 129.213 35.5244 129.975 34.8252C130.774 34.1005 132.322 34.1895 133.071 34.9904C133.781 35.766 133.692 37.1772 132.893 37.9273Z" fill="#0088A1"/>
<path d="M123.313 8.49526C124.087 7.74515 125.47 7.79601 126.244 8.60968C127.006 9.39792 127.006 10.8091 126.257 11.5592C125.47 12.3348 123.986 12.3221 123.25 11.5338C122.501 10.7201 122.527 9.25807 123.313 8.49526Z" fill="#0088A1"/>
<path d="M81.8093 14.6741C82.5706 13.9621 84.0171 14.0384 84.7657 14.8139C85.4382 15.5132 85.4382 17.077 84.7657 17.7254C83.979 18.4882 82.4691 18.4627 81.7331 17.6872C80.9591 16.8735 80.9972 15.4242 81.8093 14.6741Z" fill="#0088A1"/>
<path d="M106.247 0.485685C107.034 -0.213564 108.506 -0.149996 109.204 0.625534C109.965 1.47735 109.889 2.90127 109.039 3.62595C108.252 4.29977 106.831 4.24891 106.158 3.51152C105.422 2.72328 105.473 1.18493 106.247 0.485685Z" fill="#0088A1"/>
<path d="M133.172 25.6332C133.997 26.5105 133.972 27.731 133.134 28.5192C132.221 29.371 131.028 29.3456 130.19 28.4302C129.454 27.642 129.493 26.2435 130.279 25.5061C131.117 24.7306 132.36 24.7814 133.172 25.6332Z" fill="#0088A1"/>
<path d="M99.4971 0.943377C100.208 1.69348 100.182 3.24454 99.4336 3.90565C98.6596 4.6049 97.1878 4.54133 96.4645 3.77851C95.7413 3.00298 95.754 1.54092 96.4899 0.828955C97.302 0.066138 98.7104 0.116993 99.4971 0.943377Z" fill="#0088A1"/>
<path d="M114.672 3.98193C113.848 3.1047 113.873 1.90962 114.749 1.10866C115.662 0.269559 116.88 0.320414 117.692 1.23579C118.403 2.02404 118.365 3.37168 117.616 4.09636C116.741 4.93546 115.535 4.89731 114.672 3.98193Z" fill="#0088A1"/>
<path d="M83.941 37.0119C83.1797 37.7493 81.7078 37.7239 81.01 36.9865C80.274 36.1982 80.2994 34.787 81.0607 34.0369C81.8601 33.2487 83.3066 33.2741 84.0425 34.0878C84.7784 34.8887 84.715 36.2618 83.941 37.0119Z" fill="#0088A1"/>
<path d="M81.0987 24.4254C81.8727 23.688 83.2938 23.7135 84.0298 24.4636C84.7403 25.1883 84.7276 26.7266 84.0171 27.4259C83.205 28.2014 81.7966 28.176 81.0226 27.3496C80.274 26.5613 80.312 25.1755 81.0987 24.4254Z" fill="#0088A1"/>
<path d="M90.7801 6.49923C91.5667 7.35104 91.516 8.6224 90.6785 9.39793C89.8665 10.148 88.5215 10.0845 87.7729 9.25808C86.9862 8.40627 87.037 7.13491 87.8744 6.35938C88.6738 5.60928 90.0187 5.67284 90.7801 6.49923Z" fill="#0088A1"/>
</svg>
