<svg width="391" height="196" viewBox="0 0 391 196" fill="none" xmlns="http://www.w3.org/2000/svg">
<g clip-path="url(#clip0_10_2902)">
<path d="M327.845 161.264C327.871 161.264 327.871 161.264 327.845 161.264C327.871 161.341 327.922 161.392 327.948 161.443C327.948 161.443 327.948 161.443 327.948 161.469C327.948 161.495 327.948 161.495 327.922 161.52C327.897 161.52 327.897 161.52 327.897 161.495C327.871 161.443 327.819 161.392 327.819 161.315C327.819 161.29 327.819 161.264 327.845 161.264Z" fill="#AFA375"/>
<path d="M328.643 160.982C328.617 161.033 328.669 161.059 328.669 161.11C328.669 161.136 328.694 161.136 328.694 161.161C328.694 161.161 328.694 161.187 328.669 161.187H328.643C328.591 161.136 328.566 161.033 328.566 160.982C328.566 160.956 328.566 160.956 328.591 160.956C328.617 160.93 328.643 160.956 328.643 160.982Z" fill="#AFA375"/>
<path d="M328.54 160.571C328.54 160.597 328.54 160.597 328.54 160.623H328.514C328.488 160.571 328.437 160.52 328.437 160.469C328.437 160.443 328.463 160.417 328.463 160.443C328.488 160.469 328.54 160.52 328.54 160.571Z" fill="#AFA375"/>
<path d="M327.897 160.392C327.897 160.417 327.897 160.417 327.897 160.443C327.871 160.443 327.871 160.443 327.871 160.417C327.845 160.366 327.819 160.315 327.819 160.263C327.819 160.263 327.819 160.238 327.845 160.238C327.845 160.238 327.871 160.238 327.871 160.263C327.845 160.289 327.871 160.34 327.897 160.392Z" fill="#AFA375"/>
<path d="M327.819 160.776C327.819 160.802 327.819 160.802 327.819 160.802C327.794 160.802 327.794 160.802 327.794 160.802C327.742 160.776 327.742 160.725 327.716 160.674C327.716 160.648 327.716 160.648 327.742 160.623C327.768 160.623 327.768 160.648 327.768 160.648C327.768 160.674 327.794 160.699 327.819 160.725C327.819 160.725 327.819 160.751 327.819 160.776Z" fill="#AFA375"/>
<path d="M328.926 160.751C328.926 160.828 328.978 160.879 328.978 160.93C328.978 160.956 328.978 160.956 328.952 160.956C328.926 160.956 328.926 160.93 328.926 160.93C328.926 160.879 328.9 160.853 328.9 160.802C328.9 160.802 328.9 160.776 328.926 160.751Z" fill="#AFA375"/>
<path d="M328.772 160.315C328.772 160.34 328.772 160.34 328.746 160.366C328.72 160.366 328.72 160.366 328.72 160.34C328.694 160.315 328.694 160.289 328.694 160.263C328.694 160.263 328.694 160.238 328.72 160.238C328.72 160.238 328.746 160.238 328.746 160.263C328.772 160.263 328.772 160.289 328.772 160.315Z" fill="#AFA375"/>
<path d="M328.102 161.161C328.102 161.187 328.102 161.213 328.077 161.213C328.051 161.213 328.051 161.187 328.051 161.187C328.051 161.161 328.025 161.136 328.051 161.11C328.051 161.084 328.077 161.084 328.077 161.084C328.102 161.084 328.102 161.11 328.102 161.11C328.102 161.11 328.102 161.136 328.102 161.161Z" fill="#AFA375"/>
<path d="M264.742 125.527C264.793 125.579 264.819 125.63 264.87 125.681C270.043 124.988 275.267 124.45 280.466 123.937C285.15 123.475 289.859 123.064 294.518 122.423C300.051 121.679 305.558 120.653 311.091 119.858C315.389 119.216 319.558 118.036 323.856 117.42C328.36 116.779 332.838 115.932 337.29 114.983C339.349 114.547 341.511 114.573 343.544 113.726C344.625 113.264 345.86 112.854 346.967 112.623C348.048 112.392 349.128 112.136 350.235 111.93C352.757 111.469 355.125 110.545 357.647 110.16C360.015 109.801 362.202 109.057 364.673 107.928C362.871 107.415 361.739 108.21 360.504 108.467C354.481 109.724 348.382 110.776 342.411 112.264C335.205 114.085 327.845 115.112 320.562 116.548C316.985 117.266 313.382 117.78 309.727 118.19C306.124 118.601 302.521 119.37 298.918 120.012C295.058 120.679 291.172 121.115 287.312 121.679C281.521 122.5 275.679 123.09 269.837 123.783C268.087 123.988 266.337 124.116 264.587 124.244C264.767 124.604 264.845 125.091 264.742 125.527Z" fill="#AFA375"/>
<path d="M263.403 121.833C263.429 121.884 263.481 121.936 263.506 121.987C268.061 121.397 272.617 120.909 277.198 120.473C281.315 120.088 285.433 119.704 289.525 119.165C294.389 118.498 299.227 117.626 304.066 116.933C307.849 116.369 311.503 115.342 315.26 114.804C319.224 114.239 323.161 113.495 327.047 112.674C328.875 112.29 330.753 112.315 332.529 111.597C333.481 111.212 334.562 110.827 335.514 110.622C336.467 110.417 337.419 110.186 338.371 110.006C340.584 109.596 342.669 108.801 344.882 108.467C346.967 108.133 348.871 107.518 351.033 106.543C349.437 106.081 348.459 106.774 347.353 107.005C342.051 108.108 336.698 109.006 331.474 110.314C325.143 111.905 318.683 112.803 312.301 114.06C309.161 114.675 305.996 115.137 302.779 115.496C299.613 115.855 296.448 116.522 293.282 117.087C289.885 117.677 286.462 118.062 283.091 118.524C277.995 119.242 272.874 119.755 267.753 120.345C266.234 120.525 264.69 120.627 263.146 120.755C263.429 121.038 263.506 121.448 263.403 121.833Z" fill="#AFA375"/>
<path d="M161.285 125.527C161.233 125.579 161.207 125.63 161.156 125.681C155.983 124.988 150.759 124.45 145.56 123.937C140.876 123.475 136.167 123.064 131.509 122.423C125.975 121.679 120.468 120.653 114.935 119.858C110.637 119.216 106.468 118.036 102.17 117.42C97.6664 116.779 93.1884 115.932 88.7361 114.983C86.6773 114.547 84.5155 114.573 82.4824 113.726C81.4015 113.264 80.1662 112.854 79.0596 112.623C77.9787 112.392 76.8978 112.136 75.7912 111.93C73.2691 111.469 70.9014 110.545 68.3793 110.16C66.0116 109.801 63.8241 109.057 61.3535 107.928C63.155 107.415 64.2874 108.21 65.5227 108.467C71.5448 109.724 77.6441 110.776 83.6148 112.264C90.8207 114.085 98.1811 115.112 105.464 116.548C109.041 117.266 112.644 117.78 116.299 118.19C119.902 118.601 123.505 119.37 127.108 120.012C130.968 120.679 134.854 121.115 138.715 121.679C144.505 122.5 150.347 123.09 156.189 123.783C157.939 123.988 159.689 124.116 161.439 124.244C161.259 124.604 161.182 125.091 161.285 125.527Z" fill="#AFA375"/>
<path d="M162.623 121.833C162.597 121.884 162.546 121.936 162.52 121.987C157.965 121.397 153.41 120.909 148.829 120.473C144.711 120.088 140.593 119.704 136.501 119.165C131.637 118.498 126.799 117.626 121.961 116.933C118.178 116.369 114.523 115.342 110.766 114.804C106.803 114.239 102.865 113.495 98.9789 112.674C97.1517 112.29 95.273 112.315 93.4973 111.597C92.5451 111.212 91.4641 110.827 90.5119 110.622C89.5597 110.417 88.6075 110.186 87.6553 110.006C85.442 109.596 83.3575 108.801 81.1442 108.467C79.0596 108.133 77.1552 107.518 74.9934 106.543C76.589 106.081 77.567 106.774 78.6736 107.005C83.9751 108.108 89.3281 109.006 94.5524 110.314C100.883 111.905 107.343 112.803 113.725 114.06C116.865 114.675 120.031 115.137 123.248 115.496C126.413 115.855 129.578 116.522 132.744 117.087C136.141 117.677 139.564 118.062 142.935 118.524C148.031 119.242 153.152 119.755 158.274 120.345C159.792 120.525 161.336 120.627 162.88 120.755C162.597 121.038 162.52 121.448 162.623 121.833Z" fill="#AFA375"/>
<path d="M390.846 123.193C390.794 122.346 390.383 121.705 389.791 121.063C387.5 118.549 385.004 116.189 383.228 113.29C382.276 111.751 380.989 111.186 379.291 111.289C377.412 111.392 375.919 112.649 375.199 114.008C373.5 117.215 371.107 119.96 369.331 123.116C368.482 124.604 367.658 126.015 367.941 127.734C368.43 130.735 367.684 133.711 367.993 136.713C368.121 138.072 367.941 139.483 367.967 140.869C367.967 141.407 367.967 141.895 367.298 141.972C365.934 142.177 364.621 142.716 363.206 142.793C361.404 142.895 359.603 142.972 357.853 143.306C352.577 144.358 347.25 144.742 341.897 144.999C340.79 145.05 340.533 144.665 340.687 143.716C340.945 141.92 340.816 140.15 340.764 138.354C340.687 136.071 340.301 133.608 341.511 131.505C343.364 128.324 345.371 125.271 347.378 122.192C347.893 121.397 348.717 121.397 349.514 121.884C350.184 122.295 350.57 122.987 351.059 123.552C352.783 125.527 353.812 128.067 355.871 129.786C356.386 130.222 356.437 130.786 356.54 131.428C356.72 132.71 356.412 134.019 356.849 135.25C356.952 135.507 356.978 135.815 357.338 135.763C357.673 135.712 357.724 135.404 357.724 135.148C357.673 133.352 357.647 131.582 357.544 129.786C357.518 129.427 357.261 129.016 357.004 128.734C354.893 126.425 352.783 124.091 351.162 121.371C350.827 120.781 350.338 120.499 349.643 120.371C347.919 120.037 345.628 121.063 344.908 122.731C343.698 125.502 341.691 127.785 340.301 130.453C339.606 131.787 339.143 133.044 339.297 134.532C339.632 137.687 339.246 140.869 339.426 144.05C339.503 145.23 338.937 145.563 337.882 145.717C334.717 146.128 331.577 146.307 328.386 146.436C324.5 146.564 320.613 147.205 316.727 147.59C312.713 148.001 308.672 148.385 304.657 148.565C297.657 148.898 290.683 149.771 283.657 149.873C280.698 149.899 277.738 150.155 274.778 150.335C273.646 150.412 273.157 149.925 273.337 148.847C273.672 146.82 273.26 144.819 273.312 142.818C273.337 141.459 273.466 140.073 274.238 138.945C275.551 136.995 276.477 134.865 277.635 132.839C278.356 131.633 278.69 131.582 279.565 132.634C281.135 134.532 281.933 136.969 283.76 138.688C283.889 138.816 283.966 138.996 283.992 139.175C284.069 140.586 284.404 141.972 284.249 143.383C284.172 144.05 284.429 144.512 285.201 144.973C285.201 142.921 285.201 141.099 285.201 139.278C285.201 138.38 284.841 137.739 284.326 136.995C283.143 135.302 281.624 133.865 280.775 131.941C280.286 130.838 279.076 130.325 277.97 130.812C276.992 131.248 276.065 131.864 275.628 132.916C275.01 134.404 274.161 135.789 273.363 137.2C272.359 138.919 271.742 140.715 271.922 142.818C272.102 144.999 271.922 147.205 271.948 149.386C271.948 150.232 271.562 150.592 270.712 150.566C269.503 150.54 268.293 150.566 267.058 150.592C265.745 150.617 264.999 149.719 265.282 148.411C265.951 145.332 265.179 142.305 264.922 139.278C264.922 139.124 264.896 138.996 264.87 138.842C264.613 138.611 264.433 138.303 264.433 137.841C264.459 136.046 264.51 134.224 264.536 132.428C264.278 132.018 264.536 131.325 264.459 130.735C264.484 130.735 264.536 130.761 264.561 130.761C264.561 130.453 264.561 130.145 264.561 129.863C264.561 129.068 264.407 128.17 264.587 127.4C264.587 127.4 264.587 127.4 264.561 127.4C264.356 127.195 264.381 126.913 264.459 126.63C264.51 126.425 264.639 126.297 264.767 126.246C264.742 125.527 264.69 124.809 264.664 124.091C264.51 123.706 264.459 123.244 264.536 122.885C264.561 122.808 264.587 122.757 264.613 122.731C264.613 122.397 264.613 122.038 264.613 121.705C264.33 121.576 264.201 121.32 264.201 120.755C264.175 118.703 264.073 116.651 263.867 114.624C263.506 110.93 263.506 107.21 262.786 103.541C262.631 102.746 262.425 102.207 261.679 101.874C259.749 101.002 257.819 100.104 255.734 99.7188C254.37 99.4623 253.83 98.744 253.804 97.4356C253.804 95.5885 253.753 93.767 253.675 91.9199C253.495 87.3534 253.264 82.8126 253.083 78.2461C253.058 77.656 253.161 76.9377 252.517 76.7068C250.407 75.9628 248.374 74.9367 246.109 74.7058C242.326 74.2953 238.697 74.9366 235.274 76.6555C234.554 77.0147 234.194 77.3995 234.219 78.2717C234.297 82.2995 234.245 86.3529 234.348 90.3806C234.374 91.5607 234.091 91.6634 233.087 91.2272C228.274 89.0979 223.256 87.4817 218.469 85.3267C216.127 84.2749 213.837 83.9414 211.263 85.1471C209.565 85.9681 207.583 86.2503 205.936 87.3278C205.756 87.4304 205.473 87.533 205.293 87.456C204.443 87.1738 203.851 87.6099 203.182 88.0461C202.307 88.6361 201.278 89.5853 200.403 89.4827C197.804 89.2005 195.822 90.4832 193.995 91.7916C193.145 92.4073 192.348 92.4586 191.678 92.356C191.138 92.2791 191.37 91.2529 191.395 90.6372C191.447 87.0969 191.55 83.5565 191.601 80.0162C191.601 79.4775 191.73 78.7848 191.112 78.5796C189.079 77.8869 187.2 76.5529 185.064 76.322C180.998 75.8859 176.983 76.322 173.175 77.9639C172.531 78.2461 172.094 78.5796 172.094 79.3236C172.119 81.8377 171.888 84.3005 171.682 86.8147C171.347 90.9963 171.347 95.2293 171.322 99.4366C171.322 100.822 170.781 101.438 169.52 101.797C167.539 102.387 165.608 103.157 163.652 103.849C162.597 104.208 162.134 104.952 161.98 106.056C161.851 107.056 162.186 108.005 162.134 109.006C161.902 114.137 161.722 119.268 161.568 124.398C161.362 130.556 161.208 136.738 161.053 142.921C160.924 147.949 160.847 152.952 160.744 157.98C160.719 160.135 160.796 162.29 160.667 164.445C160.127 172.988 160.255 181.557 159.972 190.099C159.947 190.997 160.384 191.434 161.259 191.485C162.057 191.536 162.88 191.51 163.678 191.664C169.932 192.793 176.289 192.819 182.594 193.691C185.399 194.076 188.256 193.896 191.087 194.204C194.998 194.64 198.91 195.307 202.873 195.307C204.726 195.307 206.579 195.41 208.381 195.666C213.76 196.462 219.087 195.615 224.388 195.051C229.124 194.563 233.859 194.204 238.594 193.691C243.098 193.204 247.628 192.793 252.157 192.485C254.525 192.331 256.892 191.716 259.234 191.87C261.422 192.024 263.506 191.408 265.668 191.434C266.517 191.459 267.084 190.92 266.929 189.92C266.517 187.201 266.698 184.481 266.698 181.762C266.698 180.838 267.084 180.479 268.01 180.505C269.76 180.53 271.51 180.633 273.26 180.71C277.661 180.864 282.062 180.453 286.462 180.582C287.904 180.607 289.319 180.428 290.735 180.479C292.896 180.53 295.032 180.761 297.22 180.71C298.661 180.659 300.128 180.582 301.569 180.684C303.911 180.864 306.279 180.992 308.569 180.89C312.224 180.71 315.852 181.249 319.481 180.787C321.437 180.53 323.419 180.941 325.4 180.838C327.408 180.736 329.441 180.633 331.448 180.582C334.562 180.479 337.702 180.582 340.816 180.582C344.316 180.556 347.816 180.505 351.342 180.659C352.886 180.736 354.456 180.838 355.974 180.813C358.059 180.761 360.169 180.53 362.254 180.402C364.493 180.248 366.732 180.505 368.945 180.171C370.386 179.94 371.801 180.017 373.243 180.146C375.044 180.274 376.846 180.017 378.596 179.53C377.695 179.017 376.717 178.991 375.765 179.017C373.114 179.094 370.463 179.145 367.838 179.017C363.926 178.812 360.04 179.171 356.129 179.094C352.629 179.042 349.128 179.299 345.628 179.427C344.496 179.479 344.007 179.068 344.033 177.862C344.136 172.398 343.956 166.934 344.29 161.469C344.47 158.339 346.864 156.03 349.875 156.056C352.912 156.082 355.228 158.442 355.331 161.623C355.434 164.291 355.485 166.985 355.665 169.653C355.742 170.73 355.588 171.859 356.103 172.911C356.154 169.14 356.437 165.394 356.231 161.623C356.077 158.621 353.838 155.851 350.956 155.312C347.79 154.748 344.856 156.364 343.724 159.365C343.235 160.648 343.209 161.982 343.209 163.342C343.235 168.139 343.209 172.937 343.209 177.734C343.209 178.529 343.209 179.325 342.051 179.248C339.555 179.119 337.059 179.119 334.562 179.35C329.955 179.786 325.349 178.965 320.716 179.171C319.893 179.196 318.889 179.786 318.246 179.145C317.551 178.452 318.117 177.426 318.117 176.554C318.091 172.295 317.937 168.062 318.169 163.804C318.349 160.571 321.231 159.083 323.316 159.058C325.58 159.006 327.665 161.52 327.742 164.009C327.819 166.343 327.897 168.652 328.077 170.961C328.154 171.91 327.948 172.911 328.54 173.783C328.694 170.294 328.926 166.805 328.643 163.342C328.411 160.648 326.018 158.647 323.213 158.468C319.996 158.262 317.499 160.443 317.345 162.803C317.191 164.932 316.727 167.113 317.011 169.217C317.397 171.91 316.856 174.579 317.242 177.247C317.319 177.708 317.139 178.221 317.062 178.709C316.985 179.171 316.676 179.427 316.213 179.35C313.922 178.991 311.658 179.504 309.341 179.273C307.643 179.094 305.893 179.042 304.246 179.325C302.444 179.632 300.694 179.299 298.918 179.273C298.198 179.273 297.143 179.761 296.782 179.094C296.448 178.478 296.757 177.529 296.757 176.734C296.782 172.783 296.731 168.858 296.808 164.907C296.86 162.393 298.893 160.623 301.466 160.674C303.757 160.725 305.584 162.547 305.687 164.907C305.738 166.164 305.816 167.421 305.841 168.652C305.841 168.96 305.816 169.371 306.176 169.422C306.691 169.499 306.716 168.986 306.716 168.652C306.716 167.139 306.922 165.548 306.536 164.112C305.97 162.085 304.786 160.366 302.418 159.93C298.224 159.186 295.779 161.828 295.701 165.446C295.599 169.704 295.65 173.963 295.727 178.221C295.753 179.248 295.341 179.504 294.466 179.427C293.488 179.35 292.51 179.094 291.507 179.196C286.874 179.709 282.242 179.171 277.635 179.171C276.94 179.171 276.503 178.914 276.529 178.145C276.606 173.758 276.271 169.345 276.76 164.984C277.017 162.701 278.716 161.264 280.981 161.341C283.4 161.418 284.97 162.88 285.124 165.24C285.279 167.96 285.407 170.679 285.562 173.424C285.587 173.835 285.562 174.271 286.179 174.681C286.179 171.397 286.257 168.319 286.154 165.24C286.076 163.137 284.069 160.828 282.113 160.494C279.308 160.032 277.815 160.699 276.374 162.957C275.602 164.188 275.602 165.599 275.602 166.985C275.628 170.705 275.628 174.425 275.654 178.145C275.654 178.786 275.525 179.376 274.727 179.35C272.308 179.299 269.863 179.555 267.444 179.171C266.903 179.094 266.672 178.888 266.698 178.298C266.852 175.938 266.003 173.629 266.312 171.218C266.44 170.115 266.569 168.909 266.44 167.754C266.054 164.676 266.054 161.597 265.9 158.519C265.823 157.057 266.312 156.826 267.624 156.826C272.128 156.8 276.606 156.646 281.109 156.338C284.918 156.056 288.727 155.748 292.536 155.517C296.088 155.286 299.639 155.363 303.165 155.004C305.121 154.799 307.102 154.619 309.058 154.645C312.533 154.671 315.981 154.286 319.378 153.927C322.466 153.593 325.632 153.491 328.72 153.003C333.43 152.259 338.191 151.797 342.952 151.233C346.915 150.771 350.904 150.361 354.893 150.002C356.592 149.848 358.265 149.694 359.963 149.488C362.022 149.232 364.184 149.412 366.037 148.154C366.294 147.975 366.577 148.026 366.809 148.18C367.504 148.642 368.224 148.411 368.893 148.18C371.415 147.308 374.092 147.385 376.665 146.846C379.11 146.333 381.658 146.179 384.129 145.589C384.438 145.512 385.004 145.64 384.875 145.076C384.746 144.64 384.257 144.871 383.923 144.896C381.941 144.999 380.011 145.384 378.055 145.615C372.419 146.205 366.835 147.128 361.224 147.847C356.309 148.462 351.445 149.36 346.503 149.668C344.702 149.771 342.875 149.642 341.125 150.002C338.628 150.515 336.081 150.771 333.558 151.207C331.654 151.541 329.75 150.976 327.922 151.31C320.33 152.618 312.635 152.695 304.992 153.491C299.845 154.029 294.595 154.081 289.396 154.491C286.977 154.671 284.558 154.645 282.139 154.773C277.661 155.004 273.157 155.261 268.679 155.492C267.881 155.543 267.006 155.697 266.26 155.466C265.231 155.158 266.08 154.029 265.642 153.337C265.102 152.464 265.514 152.054 266.517 152.028C269.091 151.977 271.665 151.772 274.212 151.823C279.54 151.9 284.79 151.105 290.065 150.848C294.801 150.617 299.562 150.617 304.323 150.104C308.055 149.694 311.838 149.694 315.569 149.386C320.047 149.027 324.474 148.385 328.952 148.154C331.036 148.052 333.121 147.564 335.206 147.257C338.294 146.795 341.459 146.718 344.548 146.333C349.128 145.769 353.735 145.435 358.316 144.871C359.757 144.691 361.224 144.922 362.665 144.332C363.823 143.87 365.239 143.588 366.371 143.434C367.607 143.28 368.945 142.998 370.206 142.972C373.371 142.895 376.357 141.869 379.522 141.715C381.349 141.613 383.151 140.971 384.978 140.561C384.746 139.945 384.386 140.048 384.103 140.073C381.916 140.33 379.754 140.535 377.566 140.817C375.121 141.125 372.702 141.69 370.206 141.741C369.537 141.766 369.125 141.664 369.176 140.792C369.408 137.354 369.408 133.916 369.279 130.479C369.176 128.118 369.073 125.63 370.695 123.654C373.217 120.55 375.018 116.984 377.438 113.829C378.647 112.264 379.934 112.059 381.375 113.444C382.353 114.393 383.125 115.471 383.974 116.523C385.081 117.857 385.827 119.447 387.166 120.627C388.504 121.807 389.739 123.039 389.842 125.168C389.894 126.425 389.456 127.759 390.099 128.991C390.228 129.221 390.151 129.606 390.46 129.606C390.923 129.606 390.82 129.17 390.846 128.888C391.077 126.938 390.949 125.065 390.846 123.193ZM261.525 131.761C261.447 131.864 261.345 131.992 261.319 132.12C261.345 132.12 261.37 132.12 261.396 132.146C261.679 132.223 261.911 132.351 262.065 132.531C262.914 132.941 262.271 133.993 262.477 134.66C262.554 134.891 262.58 135.199 262.297 135.43C261.885 135.353 261.473 135.071 261.447 134.737C261.216 134.814 260.959 134.84 260.675 134.763C259.44 134.455 258.153 134.429 256.969 133.993C256.712 133.891 256.429 133.762 256.146 133.634C256.017 133.634 255.914 133.608 255.76 133.557C253.495 132.916 251.256 132.351 248.94 131.966C248.528 131.915 248.297 131.633 248.271 131.223C248.219 130.248 248.219 129.247 248.219 128.272C248.219 128.195 248.219 128.041 248.271 128.016C250.613 127.015 247.653 126.528 248.039 125.707C247.885 125.63 247.705 125.476 247.576 125.502C245.08 126.425 243.072 124.629 240.782 124.296C238.131 123.885 235.738 122.449 232.984 122.295C232.058 122.243 231.208 121.705 230.282 121.474C226.138 120.525 221.943 119.704 217.954 118.19C217.234 117.908 216.539 117.626 215.741 117.857C215.407 117.959 215.072 117.857 215.021 117.472C214.969 117.164 214.943 116.805 215.098 116.574C215.355 116.163 215.638 116.548 215.896 116.676C217.157 117.318 218.598 117.292 219.962 117.6C223.745 118.447 227.425 119.678 231.183 120.448C236.047 121.423 240.833 122.808 245.672 123.937C250.253 124.988 254.859 126.066 259.363 127.451C259.569 127.528 259.8 127.58 260.006 127.631C262.734 128.221 263.198 129.478 261.525 131.761ZM240.627 128.426C240.55 125.168 240.55 125.168 243.484 126.22C243.767 126.323 244.076 126.451 244.385 126.476C247.036 126.784 247.036 126.784 247.113 129.401C247.164 131.71 247.139 131.787 244.951 131.094C243.973 130.786 242.944 130.735 241.966 130.402C241.039 130.094 240.524 129.555 240.627 128.554C240.627 128.503 240.627 128.477 240.627 128.426ZM239.727 128.76C239.778 129.452 239.495 129.735 238.749 129.529C236.098 128.862 233.447 128.247 230.796 127.58C228.789 127.092 228.48 126.707 228.506 124.27C228.506 124.142 228.506 123.706 228.583 123.27C228.66 122.834 228.969 122.628 229.381 122.885C230.513 123.603 231.877 123.526 233.087 123.757C234.837 124.091 236.561 124.424 238.285 124.886C239.263 125.142 239.649 125.758 239.572 126.759C239.521 127.426 239.701 128.093 239.727 128.76ZM227.528 124.116C227.631 126.836 227.631 126.836 224.929 126.194C221.995 125.502 219.035 124.809 216.101 124.168C215.355 124.014 215.046 123.654 215.021 122.91C214.995 121.833 215.329 120.807 215.149 119.704C215.046 119.011 215.69 119.165 216.127 119.268C218.598 119.729 220.991 120.448 223.41 121.14C224.311 121.397 225.238 121.602 226.138 121.91C227.065 122.218 228.043 122.526 227.554 123.68C227.528 123.937 227.528 124.014 227.528 124.116ZM237.977 76.7838C242.48 74.988 246.933 75.4241 251.333 77.1942C252.208 77.5278 252.234 78.1948 252.26 78.9387C252.337 83.223 252.414 87.533 252.517 91.8173C252.569 93.4592 252.672 95.1267 252.775 96.7686C252.852 97.8461 252.363 98.0257 251.488 97.6922C251.411 97.6665 251.308 97.6408 251.23 97.5895C246.701 95.8963 247.473 97.0251 247.344 92.2534C247.319 91.2272 247.241 90.1754 246.958 89.2005C246.572 87.8408 244.179 86.9173 242.583 87.4047C241.245 87.8152 240.447 89.3801 240.859 91.2016C241.863 88.5335 242.069 88.3539 244.127 88.3026C245.414 88.277 246.212 88.944 246.264 90.201C246.315 91.766 246.289 93.3309 246.315 94.8958C246.315 95.5372 246.032 95.7168 245.491 95.5115C242.506 94.4084 239.521 93.2796 236.535 92.1508C235.66 91.8173 235.506 91.1503 235.506 90.3293C235.532 87.0969 235.532 83.8644 235.48 80.6576C235.429 77.8356 235.377 77.81 237.977 76.7838ZM217.8 86.9173C219.087 87.456 220.374 87.9178 221.66 88.4052C226.524 90.278 231.363 92.2534 236.227 94.1262C239.752 95.4859 243.227 96.9482 246.65 98.5131C247.602 98.9492 248.76 98.667 249.686 99.0775C253.315 100.642 257.072 101.848 260.778 103.234C261.447 103.49 261.653 103.926 261.653 104.568C261.576 108.364 261.936 112.161 262.117 115.958C262.117 116.086 262.117 116.24 262.091 116.369C261.37 119.37 261.653 122.372 261.962 125.373C262.065 126.348 261.936 126.784 260.753 126.425C255.631 124.912 250.458 123.577 245.234 122.5C242.429 121.91 239.752 120.832 236.947 120.217C231.697 119.037 226.627 117.138 221.3 116.317C219.473 116.035 217.826 115.137 215.999 114.906C215.407 114.829 215.072 114.419 215.072 113.752C215.098 112.597 215.098 111.417 215.098 110.263C215.098 109.596 215.278 109.288 216.076 109.468C219.653 110.212 223.153 111.212 226.627 112.264C228.66 112.88 230.668 113.624 232.752 113.957C234.991 114.342 237.205 114.958 239.418 115.342C241.76 115.727 243.896 116.882 246.315 116.907C246.727 116.907 247.344 117.369 247.473 116.753C247.576 116.24 246.855 116.189 246.469 116.086C243.973 115.368 241.451 114.701 238.98 113.957C233.782 112.443 228.48 111.315 223.204 110.032C221.197 109.545 219.267 108.749 217.311 108.108C217.028 108.005 216.668 107.8 216.436 107.877C214.892 108.467 215.072 107.415 215.072 106.517C215.072 101.335 215.072 96.1272 215.098 90.945C215.098 89.6623 215.304 88.3796 215.175 87.0712C215.124 86.5838 215.201 86.0707 214.532 85.9424C215.715 85.7115 216.771 86.4812 217.8 86.9173ZM172.403 99.5136C173.072 95.255 172.608 90.9194 172.994 86.6351C173.175 84.5827 173.072 82.5304 173.046 80.4524C173.02 79.5031 173.38 78.9644 174.281 78.6565C179.428 76.7581 184.524 76.5529 189.542 79.0927C190.134 79.4005 190.675 79.6827 190.598 80.4524C190.212 84.2492 190.572 88.0461 190.417 91.8429C190.366 92.9461 189.8 93.4592 188.899 93.7927C188.307 93.9979 187.715 94.2031 187.123 94.4084C186.506 94.6393 185.708 94.4597 185.631 95.5885C185.605 96.0759 184.678 96.1785 184.112 96.2298C182.465 96.4094 180.87 96.8199 179.248 97.8204C179.248 95.922 179.274 94.2544 179.248 92.6126C179.248 91.4068 179.737 90.6115 180.947 90.3806C182.748 90.0215 183.906 90.5859 184.421 91.9199C184.601 92.356 184.395 92.9204 184.961 93.3052C185.502 91.8686 184.73 90.8937 183.881 89.9702C183.031 89.0466 181.899 89.1749 180.87 89.4571C179.017 89.9702 178.425 90.7655 178.322 92.7408C178.244 94.0236 178.167 95.3319 178.193 96.6403C178.219 97.6921 177.858 98.4361 176.906 98.9236C175.697 99.5393 174.384 99.8471 173.123 100.283C172.48 100.463 172.3 100.052 172.403 99.5136ZM163.601 119.96C164.09 115.573 163.936 111.161 163.91 106.748C163.91 105.825 164.425 105.542 165.171 105.26C169.983 103.541 174.822 101.848 179.634 100.027C182.748 98.8466 185.785 97.4869 188.719 95.8963C190.366 95.0241 192.193 94.6649 193.917 94.0492C197.237 92.8948 200.351 91.2272 203.723 90.2267C206.476 89.4058 208.921 87.8665 211.624 86.9686C212.55 86.6607 213.476 86.3016 214.403 85.9937C214.043 86.5325 213.837 87.0969 213.862 87.7639C213.94 92.0995 213.219 96.4094 213.348 100.745C213.425 102.951 213.476 105.158 213.708 107.364C213.811 108.39 213.476 108.749 212.576 108.929C210.826 109.314 209.127 109.827 207.326 110.032C205.447 110.237 203.645 111.109 201.793 111.597C198.781 112.366 195.693 112.854 192.759 113.803C187.895 115.368 182.877 116.369 177.961 117.754C173.689 118.934 169.34 119.986 165.042 121.089C164.116 121.294 163.421 121.525 163.601 119.96ZM163.575 123.449C163.498 122.757 163.987 122.628 164.476 122.526C166.226 122.09 167.95 121.576 169.726 121.269C172.789 120.755 175.671 119.55 178.682 118.831C180.895 118.318 183.109 117.78 185.322 117.266C187.947 116.651 190.572 116.035 193.171 115.394C195.822 114.752 198.55 114.265 201.149 113.393C204.52 112.29 208.072 111.802 211.366 110.519C213.502 109.698 213.657 109.801 213.605 112.059C213.605 112.238 213.605 112.418 213.605 112.597C213.502 115.342 213.476 115.214 210.774 115.932C206.657 117.061 202.513 117.985 198.344 118.831C196.748 119.165 195.127 119.473 193.557 119.806C192.399 120.063 190.829 119.909 189.954 121.14C189.877 121.243 189.697 121.346 189.62 121.32C188.539 120.781 187.741 121.807 186.866 121.884C184.601 122.013 182.645 123.244 180.406 123.449C179.325 123.552 178.27 124.065 177.189 124.398C176.906 124.501 176.469 124.552 176.623 124.988C176.752 125.373 177.164 125.245 177.447 125.168C179.892 124.629 182.336 123.988 184.781 123.526C190.16 122.5 195.41 120.909 200.712 119.575C201.484 119.37 202.282 119.216 203.079 119.114C206.168 118.703 209.127 117.78 212.087 116.882C212.601 116.728 213.296 116.42 213.528 117.292C213.734 118.062 213.271 118.472 212.576 118.652C211.006 119.037 209.513 119.704 207.84 119.601C206.502 119.524 205.37 120.371 204.109 120.653C200.712 121.448 197.34 122.243 194.02 123.244C189.362 124.681 184.55 125.604 179.866 126.938C176.623 127.862 173.329 128.76 170.009 129.452C168.285 129.812 166.715 130.556 165.016 130.812C163.652 131.017 163.395 130.786 163.395 129.452C163.369 127.477 163.755 125.476 163.575 123.449ZM213.322 123.398C213.374 124.296 212.885 124.706 212.112 124.886C208.973 125.63 205.859 126.425 202.719 127.092C200.66 127.528 200.66 127.451 200.66 125.091C200.377 123.911 200.995 123.218 202.333 122.757C205.087 121.756 208.046 121.576 210.748 120.473C211.006 120.371 211.263 120.319 211.521 120.242C213.425 119.55 213.682 119.755 213.502 121.807C213.451 122.346 213.296 122.885 213.322 123.398ZM188.23 128.272C188.23 126.425 188.384 126.194 190.289 125.732C193.042 125.065 195.848 124.732 198.524 123.757C199.167 123.526 199.451 123.706 199.579 124.45C200.068 127.58 199.811 127.939 196.645 128.401C194.638 128.683 192.656 129.145 190.7 129.76C190.572 129.786 190.443 129.863 190.314 129.888C189.877 129.965 190.16 131.12 189.208 130.555C188.384 130.068 188.127 129.452 188.204 128.554C188.256 128.452 188.23 128.375 188.23 128.272ZM187.123 130.786C186.48 131.607 185.09 131.12 184.241 131.607C182.774 132.454 181.127 132.3 179.634 132.813C178.476 133.198 178.322 132.762 178.296 131.838C178.296 131.479 178.245 131.12 178.245 130.94C178.167 128.683 178.193 128.734 180.381 128.247C182.336 127.785 184.267 127.169 186.274 126.913C186.943 126.836 187.278 126.861 187.2 127.682C187.098 128.708 187.844 129.888 187.123 130.786ZM162.34 140.817C162.134 140.253 162.134 139.509 162.469 138.893C163.009 138.945 162.674 139.612 163.318 139.663C163.163 138.431 163.73 137.251 162.88 135.969C161.799 134.378 162.572 132.762 164.373 132.274C167.539 131.376 167.564 131.376 167.667 134.532C167.693 135.096 167.925 135.661 167.693 136.251C167.564 136.636 167.873 136.841 168.208 136.892C168.645 136.943 168.722 136.61 168.748 136.276C168.774 135.019 168.774 133.762 168.748 132.505C168.722 131.556 169.031 131.043 170.061 130.889C172.145 130.581 174.178 129.965 176.16 129.221C177.009 128.914 177.472 129.068 177.344 130.068C177.164 131.325 177.91 132.685 176.726 133.891C176.237 134.404 177.112 134.455 177.395 134.404C178.785 134.147 180.175 133.788 181.564 133.48C183.572 133.018 185.528 132.3 187.638 132.274C187.947 132.274 188.281 132.197 188.564 132.095C192.245 130.632 196.208 130.119 199.991 129.016C203.697 127.964 207.583 127.605 211.237 126.323C213.296 125.604 213.476 125.784 213.425 127.939C213.348 131.248 213.296 134.558 213.425 137.841C213.605 143.331 213.631 148.847 213.631 154.337V154.568C213.605 156.159 213.219 156.338 211.701 155.517C209.693 154.414 208.304 152.721 207.377 150.669C205.627 146.769 204.443 142.69 203.645 138.508C203.131 135.815 202.539 133.147 201.998 130.479C201.921 130.171 201.895 129.812 201.484 129.812C201.072 129.812 201.02 130.196 200.969 130.504C200.377 134.737 198.318 138.483 196.826 142.408C195.822 145.102 194.226 147.641 192.142 149.745C190.366 151.541 188.925 151.541 187.2 149.668C184.807 147.077 183.7 143.896 182.903 140.535C182.465 138.662 181.822 136.841 181.281 134.968C181.101 134.994 180.947 135.019 180.767 135.045C180.406 137.226 179.814 139.329 179.145 141.407C178.528 143.306 177.55 145.025 176.237 146.513C174.899 148.001 173.329 147.975 171.888 146.564C170.369 145.076 169.777 143.152 169.366 141.176C169.134 140.125 168.903 139.098 168.516 138.072C168.027 139.355 167.796 140.663 167.719 142.023C167.461 147.128 166.458 152.054 164.27 156.723C163.627 158.108 163.086 158.852 162.288 159.391C162.237 159.417 162.211 159.442 162.16 159.468C161.877 157.544 162.211 155.594 162.108 153.593C161.954 150.746 161.799 147.77 162.469 145.05C162.829 143.46 162.855 142.254 162.34 140.817ZM165.016 160.238C165.402 160.469 165.686 160.032 165.866 159.776C166.38 158.929 166.998 158.108 167.307 157.21C168.13 154.902 168.748 152.567 168.156 150.002C167.744 148.308 168.645 146.59 168.8 144.845C169.314 145.076 169.366 145.461 169.314 145.794C168.928 147.616 169.906 149.078 170.653 150.592C171.116 151.515 171.965 152.028 173.072 151.977C171.708 153.029 170.781 152.003 169.752 151.105C170.292 153.183 171.914 153.901 173.561 152.901C175.542 151.695 176.803 149.822 177.961 147.898C178.656 146.743 179.351 145.692 179.403 144.152C179.454 142.818 180.406 141.536 181.075 139.945C181.513 140.946 181.899 141.664 182.131 142.434C182.928 144.973 184.086 147.334 185.631 149.514C187.921 152.747 191.498 152.875 193.737 149.617C196.62 145.435 199.09 141.023 200.506 136.071C200.686 135.43 200.686 134.275 201.406 134.327C202.076 134.352 202.024 135.507 202.127 136.174C202.693 139.637 203.568 143.024 204.675 146.359C205.73 149.54 206.888 152.695 209.307 155.209C210.182 156.133 211.135 156.8 212.344 157.082C212.936 157.21 213.502 157.313 213.605 157.98C213.605 158.031 213.631 158.108 213.631 158.185C213.631 158.493 213.631 158.775 213.605 159.032C213.528 159.571 213.296 160.007 212.653 160.315C209.693 161.7 206.759 163.085 203.568 164.035C198.859 165.446 194.123 165.779 189.285 165.138C187.329 164.881 185.425 164.24 183.623 163.444C182.568 162.983 181.461 162.598 180.381 162.136C179.866 161.931 179.428 162.11 178.939 162.264C176.211 163.188 173.535 164.317 170.575 164.214C167.822 164.086 165.248 163.393 163.163 161.469C162.829 161.161 162.752 160.905 163.086 160.571C165.248 158.621 166.303 156.082 167.024 153.362C167.05 153.234 167.152 153.157 167.333 153.08C167.204 155.132 166.535 157.031 165.531 158.827C165.428 159.032 165.274 159.186 165.171 159.391C164.965 159.622 164.579 159.955 165.016 160.238ZM170.086 146.846C172.119 149.104 174.384 149.463 176.932 147.744C175.619 149.155 175.028 151.182 173.072 151.926C173.02 151.72 173.02 151.387 172.892 151.336C171.09 150.412 170.833 148.539 170.086 146.846ZM202.719 193.127C197.52 192.973 192.322 192.537 187.123 192.101C186.609 192.049 185.939 192.126 185.862 191.382C185.785 190.459 185.553 189.509 185.991 188.612C186.094 188.381 186.377 188.406 186.609 188.483C188.925 189.202 191.37 188.612 193.712 189.048C194.612 189.227 194.973 189.535 194.921 190.433C194.921 190.561 194.921 190.715 194.947 190.843C195.076 191.408 194.921 192.383 195.719 192.28C196.337 192.203 195.951 191.382 195.899 190.869C195.77 189.381 195.899 189.304 198.781 189.202C200.197 189.33 202.127 189.509 204.032 189.689C204.623 189.74 204.855 190.048 204.932 190.638C205.267 193.204 205.293 193.204 202.719 193.127ZM183.392 187.226C182.722 187.431 181.667 187.431 181.23 186.585C180.741 185.636 180.767 184.558 181.075 183.583C181.256 183.019 181.899 183.121 182.388 183.173C184.575 183.404 186.737 183.712 188.925 183.942C189.594 184.019 189.877 184.199 189.903 184.892C189.928 185.866 190.186 186.816 190.649 187.791C189.903 187.098 189.131 187.149 188.307 187.354C187.767 187.483 187.226 187.431 186.711 187.329C185.579 187.098 184.55 186.867 183.392 187.226ZM190.958 184.892C190.932 183.737 191.859 184.019 192.553 184.071C194.509 184.25 196.491 184.455 198.447 184.686C199.991 184.866 199.991 184.892 200.12 186.457C200.248 187.996 200.042 188.227 198.55 187.919C196.414 187.483 194.226 187.585 192.09 187.303C190.443 187.072 190.984 185.815 190.958 184.892ZM201.175 186.534C201.149 185.866 201.046 185.123 202.05 185.02C202.77 184.943 203.465 184.866 204.083 184.789C205.884 184.969 207.557 185.148 209.256 185.302C210.002 185.379 210.234 185.713 210.208 186.431C210.182 187.175 210.671 188.098 210.362 188.637C209.951 189.432 208.998 188.637 208.304 188.637C206.219 188.637 204.109 188.406 202.024 188.201C200.943 188.124 201.226 187.201 201.175 186.534ZM225.932 193.255C223.771 193.512 221.609 193.794 219.396 193.922C215.587 194.127 211.778 194.102 207.969 193.665C206.193 193.46 206.039 193.332 206.013 191.639C205.987 189.997 206.065 190.048 207.66 190.176C210.105 190.382 212.576 190.253 214.995 190.484C218.804 190.843 222.484 189.817 226.241 189.715C227.245 189.689 227.785 189.638 227.785 190.946C227.785 192.947 227.914 193.024 225.932 193.255ZM215.664 185.43C216.436 185.302 217.157 185.61 217.929 185.456C219.113 185.225 220.322 185.123 221.532 184.969C222.329 184.866 222.793 185.071 222.613 185.969C222.613 186.02 222.587 186.046 222.587 186.097C222.613 188.535 222.227 188.791 219.704 188.765C217.826 188.74 215.947 188.894 214.094 189.15C213.348 189.253 212.679 189.073 211.958 189.022C211.392 188.996 211.186 188.637 211.186 188.124C211.186 187.765 211.135 187.406 211.135 187.047C211.135 185.456 211.315 185.276 212.756 185.302C214.12 185.328 214.506 185.738 214.429 187.252C215.51 186.944 214.583 185.61 215.664 185.43ZM224.62 184.789C225.881 184.712 227.116 184.661 228.944 184.558C229.613 184.43 230.848 184.558 232.083 184.481C232.598 184.456 232.727 184.635 232.752 185.071C232.752 185.199 232.752 185.328 232.752 185.482C232.881 187.56 232.881 187.457 230.848 187.662C228.841 187.868 226.833 188.073 224.8 188.124C223.668 188.15 223.616 187.483 223.668 186.764C223.693 185.969 223.23 184.892 224.62 184.789ZM238.002 191.408C237.977 192.537 237.127 192.203 236.535 192.254C234.605 192.408 232.675 192.485 230.771 192.665C229.046 192.819 228.763 192.614 228.763 190.715C228.635 189.817 229.021 189.253 230.102 189.407C232.263 189.689 234.322 188.74 236.458 188.842C237.899 188.868 238.028 189.176 238.002 191.408ZM242.995 185.123C243.15 187.072 243.098 187.149 240.627 186.97C239.032 187.124 236.999 187.252 235.017 187.508C234.013 187.637 233.936 187.149 233.782 186.405C233.499 184.994 234.297 183.506 235.3 183.686C237.05 183.994 238.466 182.788 240.113 183.25C240.833 183.455 241.502 183.352 242.146 182.891C242.815 182.403 243.124 182.711 243.047 183.506C242.995 184.045 242.944 184.584 242.995 185.123ZM247.241 190.946C245.337 190.895 243.561 191.87 241.631 191.51C241.271 191.51 240.911 191.485 240.55 191.51C238.98 191.587 238.414 190.869 238.826 189.33C238.955 188.868 239.238 188.663 239.675 188.612C242.172 188.406 244.694 188.201 247.19 187.97C247.859 187.919 248.091 188.15 248.014 188.817C247.962 189.15 248.065 189.535 248.091 189.869C248.194 190.51 247.962 190.972 247.241 190.946ZM256.712 190.074C254.447 190.202 252.131 190.125 249.918 190.792C249.403 190.946 249.172 190.536 249.12 190.125C249.043 189.509 249.069 188.868 249.069 188.252C249.069 187.791 249.378 187.714 249.789 187.662C252.028 187.483 254.267 187.56 256.403 187.149C257.098 187.303 258.05 186.841 258.076 188.047C258.128 189.048 258.205 189.971 256.712 190.074ZM264.948 187.791C265.102 188.868 264.716 189.381 263.558 189.381C262.503 189.407 261.422 189.586 260.367 189.715C259.749 189.792 259.106 189.817 259.106 188.971C259.106 188.15 258.617 186.995 259.955 186.79C261.396 186.559 262.889 186.482 264.356 186.457C265.308 186.482 264.896 187.303 264.948 187.791ZM264.973 184.686C264.87 185.097 264.716 185.353 264.278 185.328C261.396 185.225 258.539 185.79 255.657 185.841C254.267 185.866 253.778 185.353 253.881 184.045C253.907 183.558 254.139 182.66 253.521 182.685C252.8 182.711 252.749 183.686 252.903 184.225C253.341 185.79 252.569 186.2 251.23 186.328C249.172 186.508 247.139 186.713 245.08 186.918C244.565 186.97 244.205 186.739 244.102 186.226C243.999 185.687 243.947 185.174 243.896 184.635C243.767 183.506 243.947 182.891 245.414 182.814C246.547 182.737 247.859 182.66 248.914 181.993C248.889 181.864 248.863 181.71 248.863 181.582C246.933 181.685 244.977 181.685 243.047 181.916C241.708 182.07 240.344 182.147 239.006 182.121C237.565 182.095 236.149 182.377 234.734 182.557C231.98 182.916 229.201 183.07 226.447 183.429C223.745 183.788 220.991 183.865 218.238 183.763C218.006 183.763 217.774 183.763 217.568 183.84C216.179 184.481 215.021 184.43 214.326 182.762C213.554 184.199 212.447 184.661 210.311 183.968C208.741 183.455 207.223 183.455 205.653 183.455C201.87 183.429 198.112 182.788 194.355 182.685C189.517 182.557 184.73 181.941 179.892 181.787C175.002 181.608 170.112 181.095 165.248 180.71C164.476 180.659 163.73 180.582 162.958 180.556C162.7 180.53 162.366 180.505 162.263 180.813C162.108 181.197 162.417 181.428 162.7 181.531C163.112 181.71 163.55 181.839 163.987 181.89C165.583 182.095 167.204 182.275 168.825 182.403C169.7 182.48 169.777 183.019 169.829 183.686C169.88 184.404 169.803 185.636 170.575 185.584C171.553 185.507 170.781 184.404 170.858 183.788C170.936 183.07 170.987 182.66 171.914 182.685C174.307 182.737 176.675 182.788 179.042 183.019C179.48 183.07 179.737 183.224 179.763 183.635C179.84 184.481 179.814 185.328 180.046 186.174C180.226 186.816 179.557 186.79 179.171 186.918C178.45 187.124 177.653 186.739 176.803 187.226C177.447 187.842 178.167 187.868 178.888 187.919C180.329 188.021 181.745 188.098 183.186 188.201C184.189 188.252 184.859 188.663 184.678 189.766C184.55 190.51 185.553 191.305 184.807 191.844C184.318 192.177 183.417 191.895 182.697 191.844C180.895 191.741 179.094 191.587 177.318 191.51C176.186 191.459 175.697 190.92 175.774 189.792C175.825 189.022 175.825 188.278 175.877 187.508C175.903 187.149 176.34 186.662 175.645 186.585C175.079 186.508 174.667 186.816 174.667 187.431C174.693 188.381 174.719 189.304 174.822 190.253C174.899 190.843 174.796 191.151 174.153 191.049C171.785 190.69 169.391 191.023 167.05 190.587C166.175 190.433 165.788 190.099 165.814 189.202C165.84 188.483 165.814 187.765 165.788 187.047C165.763 186.687 165.866 186.123 165.274 186.149C164.708 186.097 164.759 186.636 164.708 187.021C164.63 187.868 164.656 188.714 164.862 189.561C164.939 189.817 164.965 190.305 164.785 190.253C163.807 189.997 162.855 190.792 161.928 190.382C161.156 190.023 160.873 189.304 160.899 188.381C161.027 185.43 160.847 182.429 161.233 179.53C161.799 175.348 161.645 171.192 161.671 167.01V166.985C161.671 165.753 161.697 164.548 161.748 163.316C161.748 163.06 161.825 162.803 161.877 162.418C161.928 162.444 161.98 162.495 162.005 162.521C164.888 164.522 168.053 165.112 171.373 165.189C173.895 165.24 176.289 164.625 178.579 163.624C179.377 163.291 180.097 163.214 180.895 163.598C183.958 165.112 187.02 165.984 190.109 166.343C192.888 166.677 195.693 166.574 198.498 166.138C200.892 165.779 203.285 165.163 205.704 164.342C208.021 163.547 210.234 162.598 212.318 161.315C212.627 161.136 213.039 160.802 213.245 161.213C213.502 161.674 212.91 161.777 212.653 161.931C211.109 162.777 209.539 163.547 208.021 164.394C207.583 164.625 206.965 164.702 206.734 165.446C207.609 165.574 208.201 165.009 208.844 164.702C209.899 164.214 210.98 163.727 211.958 163.111C212.962 162.47 213.193 162.854 213.476 163.804C213.476 163.829 213.502 163.881 213.502 163.932C213.579 164.24 213.528 164.548 213.502 164.83C213.476 165.138 213.425 165.471 213.502 165.805C213.579 166.215 213.296 166.728 213.965 166.908C214.043 166.934 214.197 167.164 214.171 167.19C212.885 168.524 214.043 170.038 213.965 171.423C213.837 174.63 214.094 177.888 214.197 181.095C214.197 181.428 214.249 181.813 214.609 182.044C215.021 181.916 214.943 181.531 214.943 181.249C214.918 179.299 215.201 177.349 215.021 175.374C214.918 174.271 214.815 173.091 215.021 172.013C215.587 169.063 214.712 166.113 215.021 163.162C215.046 162.829 214.789 162.393 215.226 162.213C215.304 162.187 215.407 162.162 215.484 162.162C215.458 161.751 215.458 161.341 215.407 160.93C215.381 160.52 215.329 160.109 215.278 159.725C215.278 159.699 215.278 159.673 215.278 159.648C214.892 159.263 214.918 158.75 214.815 158.237C214.763 157.98 214.815 157.801 214.918 157.647C214.84 157.134 214.789 156.62 214.815 156.107C214.815 155.953 214.84 155.774 214.892 155.62C214.609 155.286 214.737 154.799 214.737 154.363C214.866 152.08 215.149 149.796 215.046 147.513C214.918 145.153 214.789 142.793 214.686 140.432C214.635 139.663 214.737 138.944 214.995 138.201C215.561 136.533 214.815 134.84 214.918 133.121C215.046 130.94 214.943 128.734 214.943 126.528C214.943 126.04 214.789 125.553 215.715 125.784C219.267 126.733 222.921 127.272 226.499 128.195C231.08 129.401 235.738 130.427 240.37 131.402C245.646 132.505 250.844 133.993 256.146 134.994C256.481 135.045 256.789 135.122 257.021 135.25C258.411 135.456 259.8 135.763 261.139 136.225C261.447 136.328 261.679 136.507 261.834 136.738C262.76 137.38 263.095 138.329 262.94 139.765C262.863 140.535 262.94 141.279 262.966 142.049C263.095 145.384 263.095 148.744 263.326 152.08C263.532 155.261 263.686 158.442 263.815 161.623C263.841 161.7 263.841 161.803 263.841 161.88C263.841 161.905 263.841 161.931 263.841 161.957C264.047 167.472 264.124 172.988 264.201 178.529C264.227 179.427 264.201 180.223 264.716 180.992C265.488 182.147 265.308 183.404 264.973 184.686Z" fill="#AFA375"/>
<path d="M247.576 144.152C247.396 144.101 247.216 144.05 247.035 143.998C246.958 144.229 246.907 144.486 246.907 144.794C247.19 144.588 247.473 144.383 247.782 144.204C247.679 144.178 247.627 144.178 247.576 144.152Z" fill="#AFA375"/>
<path d="M240.087 152.464C239.778 152.618 239.469 152.772 239.135 152.901C239.161 152.977 239.212 153.054 239.238 153.131C239.392 152.977 239.572 152.875 239.752 152.798C239.855 152.695 239.958 152.593 240.087 152.464Z" fill="#AFA375"/>
<path d="M120.34 172.347C120.442 169.422 119.748 166.857 120.108 164.291C120.494 161.29 123.248 159.34 126.362 159.699C129.193 160.032 131.071 162.521 130.994 165.523C130.891 169.627 130.968 173.758 130.917 177.862C130.917 178.812 131.329 178.94 132.152 178.914C134.932 178.863 137.685 178.888 140.645 178.888C140.362 179.812 139.873 179.812 139.487 179.863C138.432 180.017 137.299 180.325 136.27 180.146C133.13 179.607 129.99 180.556 126.851 180.069C126.439 179.992 126.053 180.146 125.667 180.248C124.921 180.453 124.174 180.633 123.454 180.171C123.273 180.069 122.887 179.94 122.836 180.017C121.626 181.531 119.799 179.632 118.512 180.813C118.281 181.018 117.792 180.89 117.483 180.659C116.814 180.197 116.17 180.146 115.476 180.607C115.218 180.787 114.961 180.761 114.703 180.71C110.2 180.12 105.696 180.582 101.192 180.505C96.2768 180.428 91.3356 180.966 86.4201 180.813C82.637 180.684 78.8796 180.941 75.1222 180.838C69.7692 180.659 64.442 180.787 59.089 180.736C55.9235 180.684 52.758 180.428 49.5926 180.428C46.4528 180.428 43.3131 180.71 40.1734 180.71C36.1329 180.71 32.0924 180.556 28.0519 180.453C27.7946 180.453 27.5115 180.428 27.2541 180.376C26.9196 180.299 26.6365 180.12 26.6365 179.761C26.6365 179.325 27.0482 179.325 27.3313 179.299C28.1806 179.222 29.0556 179.094 29.8792 179.171C35.052 179.658 40.2248 178.837 45.3977 179.222C49.644 179.53 53.8389 179.094 58.0596 179.145C59.7324 179.171 61.4052 179.094 63.0523 179.325C65.4714 179.658 67.8648 178.991 70.2839 179.119C73.784 179.299 77.284 179.222 80.7583 179.299C81.8907 179.325 82.5083 179.017 82.5083 177.708C82.4569 172.244 82.5083 166.78 82.4569 161.29C82.4311 158.955 80.3208 156.518 78.0818 156.056C75.8943 155.594 72.9862 156.851 71.931 158.801C71.1075 160.34 71.3134 162.008 71.3391 163.675C71.3648 165.83 71.3906 167.985 71.3906 170.14C71.3906 170.397 71.3906 170.705 71.0045 170.782C70.4898 170.423 70.5413 169.832 70.5413 169.345C70.4384 166.882 70.3612 164.445 70.3354 161.982C70.3097 157.903 73.295 155.055 77.3612 155.158C80.784 155.235 83.6664 158.468 83.4605 161.905C83.1517 167.267 83.3833 172.654 83.3319 178.042C83.3319 178.632 83.4091 179.453 84.2069 179.222C86.6003 178.555 88.9422 179.402 91.3099 179.427C94.9901 179.479 98.6445 178.965 102.325 179.145C103.946 179.222 105.567 179.273 107.189 179.35C108.115 179.402 108.501 179.042 108.501 178.119C108.475 173.193 108.553 168.268 108.475 163.342C108.45 161.059 106.236 159.032 103.869 159.083C101.887 159.135 99.185 160.52 99.0048 163.085C98.8504 165.369 99.185 167.652 99.0305 169.935C98.9533 171.218 98.9019 172.501 98.696 173.783C98.1555 171.962 98.1813 170.089 98.1298 168.242C98.0783 167.164 98.0526 166.113 97.9754 165.035C97.6666 161.007 100.214 158.262 104.229 158.339C107.214 158.391 109.608 160.879 109.608 163.958C109.608 168.498 109.582 173.014 109.582 177.554C109.582 179.325 109.737 179.453 111.512 179.376C114.652 179.248 117.766 179.145 120.906 179.094C123.505 179.042 126.104 178.812 128.704 179.068C129.604 179.145 130.093 178.786 130.068 177.734C130.042 173.604 130.145 169.499 130.042 165.369C129.965 161.392 126.284 159.365 122.913 161.315C121.472 162.162 120.931 163.47 120.906 165.035C120.88 166.908 120.931 168.781 120.931 170.679C120.957 171.141 121.112 171.654 120.34 172.347Z" fill="#AFA375"/>
<path d="M149.138 155.312C146.667 155.748 143.862 154.876 141.134 155.055C137.531 155.286 133.979 154.44 130.402 154.979C129.81 155.055 129.244 155.081 128.781 154.619C128.549 154.363 128.06 154.132 127.829 154.465C127.314 155.261 126.542 154.953 125.847 154.927C124.328 154.85 122.63 155.107 121.292 154.825C118.487 154.235 115.681 154.414 112.876 154.106C108.218 153.593 103.508 153.311 98.7988 152.977C92.6223 152.567 86.4201 152.285 80.2435 151.797C72.1626 151.156 64.0301 150.823 56.0006 149.668C52.0631 149.104 48.0226 148.924 44.0594 148.462C41.1512 148.129 38.2431 147.718 35.335 147.359C33.1475 147.077 30.9085 146.846 28.6952 146.641C25.8901 146.384 23.0334 146.23 20.254 145.871C14.515 145.179 8.8274 144.383 3.11411 143.614C2.31631 143.511 1.56998 143.28 0.797915 143.049C0.437618 142.921 -0.128564 142.767 0.0258489 142.331C0.205998 141.895 0.77218 142.023 1.15821 142.074C3.96339 142.434 6.76856 142.818 9.57373 143.152C14.8238 143.768 20.0996 144.281 25.3496 144.999C32.9673 146.051 40.6623 146.538 48.3057 147.385C57.2102 148.36 66.1147 149.232 75.0707 149.848C78.2104 150.079 81.3244 150.438 84.4641 150.797C88.4532 151.284 92.5194 151.618 96.6113 151.438C98.8503 151.336 101.089 151.849 103.303 152.08C109.016 152.618 114.755 152.695 120.468 153.054C126.439 153.439 132.435 153.491 138.406 153.952C141.829 154.209 145.303 154.748 148.803 154.44C149.627 154.363 150.502 154.594 151.351 154.696C151.608 154.722 151.917 154.799 151.866 155.107C151.814 155.389 151.505 155.363 151.248 155.363C150.656 155.312 150.09 155.312 149.138 155.312Z" fill="#AFA375"/>
<path d="M157.141 155.569C154.671 156.005 151.865 155.132 149.137 155.312C145.535 155.543 141.983 154.696 138.406 155.235C137.814 155.312 137.248 155.338 136.784 154.876C136.553 154.619 136.064 154.388 135.832 154.722C135.317 155.517 134.545 155.209 133.851 155.184C132.332 155.107 130.634 155.363 129.295 155.081C126.49 154.491 123.685 154.671 120.88 154.363C116.222 153.85 111.512 153.568 106.803 153.234C100.626 152.824 94.4237 152.541 88.2472 152.054C80.1662 151.413 72.0338 151.079 64.0043 149.925C60.0668 149.36 56.0263 149.181 52.063 148.719C49.1549 148.385 46.2468 147.975 43.3387 147.616C41.1511 147.334 38.9122 147.103 36.6989 146.897C33.8937 146.641 31.0371 146.487 28.2576 146.128C22.5186 145.435 16.8311 144.64 11.1178 143.87C10.32 143.768 9.57364 143.537 8.80158 143.306C8.44128 143.177 7.8751 143.024 8.02951 142.587C8.20966 142.151 8.77584 142.28 9.16187 142.331C11.967 142.69 14.7722 143.075 17.5774 143.408C22.8274 144.024 28.1032 144.537 33.3533 145.255C40.971 146.307 48.6659 146.795 56.3094 147.641C65.2139 148.616 74.1184 149.488 83.0743 150.104C86.2141 150.335 89.3281 150.694 92.4678 151.053C96.4568 151.541 100.523 151.874 104.615 151.695C106.854 151.592 109.093 152.105 111.306 152.336C117.02 152.875 122.759 152.952 128.472 153.311C134.442 153.696 140.439 153.747 146.41 154.209C149.832 154.465 153.307 155.004 156.807 154.696C157.63 154.619 158.505 154.85 159.354 154.953C159.612 154.979 159.921 155.055 159.869 155.363C159.818 155.646 159.509 155.62 159.252 155.62C158.685 155.569 158.093 155.569 157.141 155.569Z" fill="#AFA375"/>
<path d="M157.45 151.849C155.546 152.182 153.358 151.515 151.248 151.643C148.443 151.823 145.715 151.156 142.935 151.566C142.472 151.643 142.035 151.643 141.7 151.284C141.52 151.105 141.134 150.899 140.954 151.156C140.568 151.772 139.95 151.541 139.409 151.515C138.226 151.438 136.913 151.643 135.884 151.438C133.722 150.976 131.534 151.13 129.373 150.874C125.77 150.463 122.115 150.232 118.486 150.002C113.7 149.668 108.913 149.463 104.126 149.078C97.8723 148.591 91.5928 148.308 85.3648 147.385C82.3023 146.923 79.1883 146.795 76.1258 146.436C73.8611 146.179 71.6221 145.846 69.3831 145.563C67.6845 145.358 65.9602 145.179 64.236 144.999C62.0484 144.794 59.8609 144.665 57.6991 144.409C53.2726 143.87 48.8461 143.254 44.4196 142.639C43.802 142.562 43.21 142.382 42.6439 142.177C42.3608 142.074 41.9233 141.972 42.0519 141.613C42.1806 141.253 42.6181 141.382 42.9269 141.407C45.1145 141.69 47.2762 141.997 49.438 142.254C53.5042 142.741 57.5962 143.126 61.6367 143.691C67.5301 144.512 73.5008 144.896 79.4199 145.563C86.3171 146.333 93.2142 147 100.137 147.513C102.556 147.693 104.975 147.975 107.394 148.257C110.483 148.642 113.622 148.898 116.788 148.77C118.538 148.693 120.236 149.104 121.961 149.258C126.387 149.694 130.814 149.745 135.24 150.027C139.873 150.335 144.505 150.361 149.112 150.72C151.763 150.925 154.439 151.336 157.141 151.105C157.785 151.053 158.454 151.233 159.123 151.31C159.329 151.336 159.56 151.387 159.535 151.618C159.509 151.849 159.252 151.823 159.046 151.823C158.634 151.849 158.171 151.849 157.45 151.849Z" fill="#AFA375"/>
<path d="M54.1733 135.276C53.9931 132.557 54.4821 129.529 54.199 126.476C54.0704 124.988 53.6329 123.654 52.6549 122.705C51.1365 121.243 50.1843 119.396 48.9747 117.754C47.8424 116.215 46.4269 114.881 45.5262 113.136C45.0372 112.187 43.0298 112.11 41.9489 112.828C40.2504 113.957 38.8349 115.445 37.6768 117.087C36.39 118.934 34.7172 120.422 33.4819 122.32C33.0702 122.962 32.7099 123.526 32.7871 124.27C32.9157 125.527 32.5554 126.759 32.7613 128.016C32.8128 128.298 32.7871 128.708 32.3496 128.734C32.015 128.734 31.9635 128.401 31.9378 128.118C31.7319 125.938 31.1143 123.706 32.2981 121.653C33.0187 120.396 33.8422 119.114 34.8459 118.062C36.4415 116.369 38.0886 114.727 39.6327 112.957C42.1033 110.083 46.1181 110.622 48.074 113.906C49.0777 115.625 50.4416 117.164 51.677 118.754C52.8865 120.294 53.7615 122.09 55.0483 123.603C55.7946 124.45 55.5373 125.579 55.5115 126.579C55.4858 128.734 55.563 130.863 55.666 133.018C55.7689 135.199 55.563 137.405 55.4343 139.586C55.4086 140.073 55.2285 140.689 54.6108 140.612C54.0189 140.535 54.1476 139.919 54.1476 139.509C54.1476 138.175 54.1733 136.892 54.1733 135.276Z" fill="#AFA375"/>
<path d="M181.719 65.3675C186.325 64.7262 190.366 66.7529 194.561 67.9843C195.23 68.1895 195.616 68.4974 195.23 69.267C193.969 71.7555 192.914 74.3209 191.961 76.9377C191.627 77.8613 191.189 77.9382 190.34 77.5791C186.917 76.1681 183.391 75.2958 179.608 75.4754C177.524 75.578 175.671 76.2963 173.766 76.9377C171.836 77.6047 171.733 77.6047 170.987 75.7576C170.138 73.6283 169.366 71.499 168.542 69.344C168.285 68.7026 168.233 68.1126 169.031 67.8047C171.579 66.8298 174.204 65.9832 176.88 65.4445C178.425 65.1366 180.097 65.3675 181.719 65.3675ZM176.263 68.9335C176.263 68.8052 176.237 68.6513 176.263 68.523C176.314 68.1382 175.928 67.4712 176.572 67.4199C177.086 67.3686 177.035 68.0613 177.112 68.4974C177.395 70.088 177.704 71.6529 177.91 73.2691C178.013 74.1414 178.399 74.4492 179.197 74.3979C182.825 74.1927 186.377 74.6288 189.697 76.2194C190.7 76.7068 191.215 76.1937 191.575 75.3728C192.373 73.5257 193.145 71.6785 193.917 69.8058C194.123 69.3183 194.097 68.8565 193.557 68.7026C191.369 68.0356 189.259 67.0351 186.969 66.8042C184.421 66.5476 181.847 66.8042 179.299 66.5476C176.005 66.1885 173.2 67.8047 170.138 68.3435C169.674 68.4204 169.314 68.677 169.52 69.2927C170.266 71.3963 170.987 73.5257 171.965 75.5524C172.222 76.0911 172.608 76.245 173.174 76.0398C174.178 75.655 175.156 75.1932 176.211 74.9366C177.292 74.6544 177.549 74.244 177.112 73.1665C176.597 71.8068 176.366 70.3702 176.263 68.9335Z" fill="#AFA375"/>
<path d="M241.322 64.444C242.635 64.5209 243.921 64.3414 245.208 64.2131C248.399 63.8796 251.333 64.8544 254.241 65.9063C257.072 66.9325 257.072 66.9581 255.966 69.7801C255.297 71.4989 254.627 73.1921 254.036 74.9366C253.727 75.8602 253.161 75.9628 252.388 75.7319C252.08 75.6293 251.797 75.501 251.513 75.3728C247.087 73.6283 242.635 73.4487 238.157 75.1675C237.822 75.2958 237.462 75.3728 237.127 75.501C234.322 76.4759 234.348 76.4503 233.318 73.7309C232.624 71.8838 231.826 70.088 231.028 68.2921C230.771 67.7277 230.488 67.0607 231.311 66.8811C234.631 66.0602 237.693 64.0848 241.322 64.444ZM245.852 72.9869C246.109 72.9613 246.418 72.833 246.649 72.8843C247.988 73.2178 248.013 72.4738 247.91 71.4989C247.73 69.9597 248.271 68.4974 248.528 66.9838C248.58 66.6759 248.683 66.2654 249.043 66.2911C249.583 66.3424 249.403 66.8298 249.352 67.1377C249.12 68.7283 248.888 70.3188 248.631 71.9094C248.528 72.5508 248.528 73.0895 249.223 73.3461C250.149 73.7052 251.076 74.0387 251.977 74.3979C252.723 74.6801 253.109 74.4236 253.444 73.7052C254.293 71.9094 254.833 70.011 255.58 68.1895C255.94 67.3173 255.605 67.0864 254.885 66.9068C253.547 66.5989 252.157 66.3681 250.87 65.8806C249.172 65.2393 247.447 65.0853 245.697 65.2649C244.127 65.4188 242.557 65.5471 240.988 65.4445C238.079 65.2393 235.583 66.5989 232.881 67.2403C232.315 67.3686 231.903 67.7534 232.186 68.4461C232.984 70.3445 233.782 72.2429 234.579 74.1157C234.863 74.7827 235.274 75.0136 236.072 74.6801C238.646 73.6026 241.245 72.6021 244.127 72.9099C244.694 73.0382 245.285 72.9869 245.852 72.9869Z" fill="#AFA375"/>
<path d="M188.178 30.2979C188.178 35.4544 188.178 40.5853 188.178 45.7419C188.178 47.512 188.024 47.6147 186.274 47.5633C183.752 47.512 181.23 47.5377 178.708 47.512C176.906 47.4864 176.572 47.2298 176.597 45.3827C176.649 42.2529 176.777 39.123 176.906 35.9932C177.035 32.6838 177.266 29.3743 177.369 26.0649C177.447 24.1152 177.498 24.1921 179.402 23.9869C181.847 23.756 184.241 24.0382 186.686 24.0639C187.895 24.0895 188.513 24.5513 188.461 25.834C188.41 27.322 188.436 28.7843 188.436 30.2722C188.358 30.2979 188.281 30.2979 188.178 30.2979ZM183.649 46.5628C183.649 46.6141 183.649 46.6654 183.649 46.6911C184.266 46.6911 184.91 46.6398 185.527 46.6911C186.66 46.7937 187.2 46.3576 187.123 45.1518C187.046 44.1256 187.072 43.0995 187.123 42.0733C187.278 36.8911 187.458 31.7089 187.638 26.5267C187.689 25.5005 187.432 25.0131 186.248 24.9618C184.138 24.8591 182.027 24.9361 179.917 24.9105C178.785 24.8848 178.476 25.3209 178.45 26.4241C178.373 29.4513 178.167 32.5042 178.038 35.5314C177.91 38.7895 177.807 42.0476 177.678 45.3057C177.652 46.1267 177.936 46.5628 178.836 46.5628C180.406 46.5372 182.027 46.5628 183.649 46.5628Z" fill="#AFA375"/>
<path d="M180.638 61.545C185.965 60.7754 190.752 62.6738 195.59 64.367C197.031 64.8801 197.392 65.8293 196.826 67.2403C196.542 67.933 196.079 67.7277 195.59 67.5738C193.943 67.0864 192.27 66.7272 190.7 66.0859C188.333 65.1366 185.888 65.0853 183.417 64.9827C181.847 64.9314 180.278 64.9314 178.708 64.8031C175.98 64.5722 173.561 65.8293 170.987 66.4707C169.932 66.7272 168.902 67.0094 167.873 67.2916C167.333 67.4199 167.049 67.189 166.895 66.6503C166.561 65.2393 167.178 64.2131 168.568 63.8539C170.781 63.2639 173.02 62.7508 175.156 61.9555C176.958 61.2628 178.811 61.5194 180.638 61.545ZM181.333 63.9052C185.347 63.8796 188.564 64.0592 191.601 65.3932C192.553 65.8037 193.557 66.0602 194.561 66.3424C195.024 66.4707 195.693 66.9068 195.925 66.1115C196.131 65.3675 195.436 65.2393 194.921 65.1366C191.318 64.2644 187.895 62.956 184.061 62.6995C178.733 62.3147 173.792 63.2382 168.825 64.8288C168.311 64.9827 167.822 65.2393 168.002 65.8293C168.233 66.522 168.748 66.0089 169.134 65.9063C173.38 64.7518 177.524 62.9047 181.333 63.9052Z" fill="#AFA375"/>
<path d="M192.836 57.389C192.785 58.6974 192.682 59.9801 192.656 61.2885C192.631 62.4429 192.039 62.6482 191.061 62.3147C189.619 61.8529 188.204 61.1859 186.634 61.1346C184.755 61.0832 182.851 61.1602 180.998 61.0576C177.961 60.8524 175.105 61.3141 172.248 62.212C171.553 62.4429 171.244 62.1351 171.296 61.3911C171.45 58.8 171.553 56.2089 171.656 53.6178C171.682 52.9764 172.016 52.6686 172.608 52.489C175.594 51.5398 178.605 51.0267 181.744 51.4372C183.7 51.6937 185.682 51.4372 187.664 51.6681C189.131 51.822 190.417 52.489 191.833 52.6942C192.553 52.7969 192.708 53.3869 192.708 54.0283C192.708 55.1571 192.708 56.2602 192.708 57.389C192.785 57.389 192.811 57.389 192.836 57.389ZM191.704 57.5429C191.704 56.645 191.704 55.7471 191.73 54.8492C191.756 54.0026 191.421 53.6178 190.546 53.3613C186.428 52.1555 182.182 52.412 177.987 52.3607C177.369 52.3607 177.138 52.566 177.163 53.233C177.215 54.7466 177.163 56.2859 177.189 57.7995C177.215 59.8262 177.215 59.7749 179.3 59.8775C183.134 60.0571 187.046 59.5953 190.7 61.2115C191.395 61.5194 191.704 61.1859 191.73 60.4932C191.704 59.5183 191.704 58.5435 191.704 57.5429ZM176.288 55.9267C176.288 55.5932 176.288 55.4649 176.288 55.3366C176.34 52.4377 176.34 52.4634 173.535 53.2586C172.866 53.4382 172.557 53.7974 172.531 54.4901C172.48 55.8241 172.351 57.1581 172.299 58.4921C172.248 61.1602 172.248 61.1602 174.873 60.3393C175.208 60.2367 175.568 60.1597 175.928 60.0827C176.52 59.9545 176.803 59.6466 176.572 59.0309C176.134 57.9791 176.366 56.8246 176.288 55.9267Z" fill="#AFA375"/>
<path d="M241.477 60.6215C242.866 60.6471 244.179 60.5445 245.466 60.4419C247.087 60.3136 248.683 60.4419 250.278 60.9293C252.517 61.622 254.782 62.212 257.021 62.8277C258.025 63.1099 258.719 65.1623 258.05 65.9319C257.613 66.445 257.124 66.0602 256.686 65.9319C254.344 65.2906 252.028 64.6235 249.686 63.9565C247.782 63.4178 245.826 63.9822 243.922 63.8539C239.83 63.5461 235.995 64.5209 232.212 65.855C231.877 65.9832 231.543 66.1372 231.182 66.1628C230.565 66.2141 229.793 67.0351 229.33 65.9576C228.866 64.8288 229.33 63.6743 230.41 63.3152C232.83 62.4686 235.249 61.6476 237.694 60.8523C238.955 60.4419 240.267 60.7497 241.477 60.6215ZM245.234 61.622C240.422 61.0832 235.686 62.5968 230.951 63.9822C230.462 64.1361 230.102 64.4183 230.23 64.9314C230.385 65.6241 230.899 65.3419 231.311 65.1879C235.094 63.8539 238.877 62.4942 242.969 62.8021C245.028 62.956 247.087 62.2377 249.146 62.7764C251.488 63.3921 253.83 64.0591 256.172 64.6749C256.532 64.7775 256.995 65.1623 257.201 64.5722C257.381 64.0848 256.944 63.8283 256.532 63.7513C252.878 62.879 249.403 61.0832 245.234 61.622Z" fill="#AFA375"/>
<path d="M244.668 50.7702C247.061 50.4623 249.686 50.8471 252.311 51.6681C253.161 51.9246 253.598 52.2838 253.624 53.233C253.701 55.6445 253.804 58.056 253.958 60.4675C254.01 61.3654 253.701 61.4168 252.929 61.2115C250.484 60.5445 248.091 59.5953 245.44 60.134C244.411 60.3393 243.304 60.1084 242.223 60.0571C239.804 59.9288 237.488 60.288 235.223 61.1859C233.602 61.8272 233.344 61.5707 233.319 59.8518C233.293 57.7482 233.344 55.6445 233.293 53.5408C233.267 52.5403 233.705 52.1811 234.605 51.8733C237.797 50.7445 241.065 50.7445 244.668 50.7702ZM248.477 54.6696C248.477 54.2335 248.4 53.7461 248.503 53.3356C248.734 52.1555 248.297 51.6681 247.113 51.7194C243.458 51.8733 239.752 51.3859 236.149 52.489C234.477 53.0021 234.065 53.3613 234.219 55.1058C234.348 56.4911 234.425 57.8764 234.399 59.2618C234.374 60.1597 234.785 60.3136 235.583 60.0827C236.793 59.7492 237.899 59.0822 239.212 59.0565C242.12 59.0052 245.054 58.9283 247.962 58.9283C248.786 58.9283 248.914 58.6461 248.734 57.9791C248.425 56.9272 248.477 55.7984 248.477 54.6696ZM249.326 54.7723C249.326 55.4393 249.429 56.1319 249.378 56.799C249.249 58.6461 250.15 59.5183 251.9 59.8775C252.826 60.0827 253.135 59.8005 253.032 59.0052C252.775 57.2094 252.826 55.4393 252.775 53.6435C252.775 53.233 252.646 52.8738 252.208 52.6942C249.841 51.6424 249.326 51.9759 249.352 54.5157C249.326 54.5927 249.326 54.6953 249.326 54.7723Z" fill="#AFA375"/>
<path d="M243.15 47.0503C241.811 47.0503 240.447 46.9733 239.109 47.0759C238.131 47.1272 237.797 46.6911 237.719 45.8702C237.694 45.7419 237.694 45.6136 237.694 45.4597C237.719 39.0974 237.23 32.7351 237.411 26.3728C237.462 24.7309 237.719 24.3974 239.366 24.3461C241.76 24.2948 244.153 24.3717 246.521 24.2948C247.705 24.2691 248.142 24.7822 248.168 25.8853C248.271 29.1178 248.4 32.3246 248.477 35.5571C248.58 38.6869 248.683 41.8168 248.734 44.9723C248.76 46.845 248.606 46.9733 246.778 46.999C245.569 46.999 244.359 46.999 243.124 46.999C243.15 46.999 243.15 47.0246 243.15 47.0503ZM243.253 46.1524C243.253 46.1267 243.253 46.1267 243.253 46.1524C244.385 46.1267 245.492 46.101 246.624 46.1267C247.653 46.178 248.039 45.6906 247.911 44.7414C247.782 43.8178 247.705 42.8942 247.653 41.945C247.499 36.7628 247.293 31.5806 247.113 26.3728C247.087 25.7058 246.958 25.2183 246.161 25.2183C243.87 25.167 241.58 25.0901 239.289 25.2696C238.363 25.3466 238.208 25.8084 238.26 26.6037C238.363 27.9377 238.44 29.2717 238.491 30.6058C238.594 35.3005 238.697 39.9953 238.749 44.6901C238.749 45.7162 239.083 46.178 240.164 46.1267C241.168 46.101 242.197 46.1524 243.253 46.1524Z" fill="#AFA375"/>
<path d="M182.053 14.0073C181.693 13.6225 181.436 13.289 181.719 12.7246C182.336 11.4932 182.465 10.1592 182.645 8.82513C182.825 7.4911 182.8 6.33665 181.693 5.28481C180.535 4.15602 180.638 1.92408 181.693 0.564395C181.899 0.282196 182.079 -0.15393 182.517 0.0769604C182.877 0.282196 182.619 0.641358 182.568 0.923557C182.233 2.71937 182.722 3.82251 184.292 4.82303C183.649 5.38743 183.16 4.74607 182.568 4.6178C183.469 5.82356 183.726 5.84921 185.039 5.20785C185.425 5.00261 185.939 4.41256 186.3 5.00261C186.583 5.4644 185.914 5.82356 185.553 5.92618C183.855 6.3623 184.061 7.8246 183.752 9.03036C183.417 10.2874 183.52 11.3393 184.292 12.545C185.167 13.9047 186.48 14.7257 187.483 15.8801C189.131 17.7529 189.748 20.5236 188.873 22.4989C188.539 23.2429 188.075 23.6021 187.226 23.6021C184.344 23.5764 181.461 23.5764 178.579 23.6021C177.781 23.6021 177.344 23.2942 177.112 22.5246C176.057 19.1126 178.528 14.8026 182.053 14.0073ZM183.237 14.9309C179.763 14.4691 177.344 18.7021 178.013 21.8319C178.116 22.3194 178.373 22.6272 178.939 22.6016C181.539 22.4989 184.138 22.422 186.737 22.7042C187.381 22.7811 187.844 22.5759 188.05 21.8576C188.822 19.2921 186.634 14.4435 183.237 14.9309Z" fill="#AFA375"/>
<path d="M95.2216 141.048C93.8576 140.099 94.1664 138.97 94.115 137.995C94.0378 136.636 93.7804 135.302 94.0635 133.916C94.3208 132.659 94.9385 131.659 95.7106 130.761C96.7657 129.478 97.8724 128.247 98.8246 126.887C100.497 124.475 103.586 124.681 104.95 127.272C106.159 129.555 107.729 131.633 108.99 133.916C109.453 134.763 109.917 135.609 109.814 136.559C109.531 139.098 109.917 141.664 109.814 144.204C109.788 145.05 109.659 145.897 109.556 146.743C109.505 147.103 109.402 147.513 108.964 147.539C108.398 147.564 108.321 147.026 108.347 146.666C108.475 145.281 108.218 143.87 108.321 142.51C108.501 140.432 108.347 138.406 108.218 136.353C108.167 135.661 107.986 135.019 107.6 134.481C105.902 132.12 104.435 129.632 102.942 127.143C102.53 126.425 101.913 126.297 101.218 126.63C100.832 126.836 100.446 127.092 100.137 127.426C98.1554 129.632 96.5084 132.069 95.1959 134.737C94.8613 135.43 95.1444 136.148 95.1701 136.866C95.2216 138.149 94.7326 139.432 95.2216 141.048Z" fill="#AFA375"/>
<path d="M331.139 140.484C329.878 139.304 330.342 137.79 330.161 136.43C329.955 134.942 329.853 133.557 328.566 132.48C327.099 131.248 326.481 129.375 325.22 127.99C324.834 127.554 324.5 127.066 324.062 126.682C323.161 125.861 322.441 126.015 321.72 127.015C320.073 129.35 318.709 131.864 317.088 134.25C315.749 136.199 315.904 138.611 316.161 140.894C316.367 142.69 316.136 144.46 316.007 146.256C315.981 146.718 315.801 147.231 315.235 147.18C314.617 147.103 314.746 146.538 314.746 146.102C314.797 143.024 315.003 139.945 314.694 136.866C314.488 134.917 315.775 133.48 316.676 132.018C317.654 130.427 318.735 128.862 319.584 127.169C320.227 125.912 322.389 124.681 323.573 124.886C324.474 125.04 325.117 125.527 325.58 126.323C326.816 128.529 328.643 130.273 330.316 132.146C330.805 132.685 331.088 133.275 331.088 133.968C331.139 136.097 331.139 138.277 331.139 140.484Z" fill="#AFA375"/>
<path d="M243.432 14.5204C247.035 15.4183 249.455 19.7283 248.399 23.012C248.168 23.756 247.705 24.1152 246.907 24.0639C244.179 23.9099 241.451 23.6277 238.723 24.0126C237.951 24.1152 237.488 23.7047 237.153 23.012C236.329 21.3445 236.432 19.7026 237.307 18.112C238.131 16.6241 239.006 15.1618 240.807 14.5717C241.477 14.3408 242.352 11.0058 242.12 10.1078C241.991 9.64607 241.76 9.15863 241.76 8.69685C241.76 7.85026 241.399 7.36282 240.627 7.08062C240.293 6.95235 240.035 6.69581 239.752 6.46492C239.572 6.33664 239.392 6.13141 239.521 5.90052C239.649 5.64397 239.881 5.72094 240.113 5.72094C242.506 5.77225 243.664 4.3356 243.149 2.05235C243.072 1.71884 242.789 1.30837 243.278 1.12879C243.741 0.949211 243.87 1.41099 244.05 1.69319C245.157 3.33507 245.054 5.05392 243.664 6.59319C243.124 7.18324 242.995 7.72198 243.046 8.51727C243.175 10.1335 243.33 11.7241 243.921 13.2633C244.05 13.7764 244.127 14.2126 243.432 14.5204ZM245.105 22.9351C247.37 22.8325 247.396 22.8325 247.576 22.0628C248.039 20.19 246.83 17.3681 245.08 16.2136C243.819 15.367 241.399 15.2644 240.344 16.0084C238.491 17.3167 237.333 20.0618 237.771 21.9859C237.951 22.7042 238.337 23.0633 239.083 23.012C241.219 22.8581 243.355 22.6529 245.105 22.9351Z" fill="#AFA375"/>
<path d="M307.797 142.459C306.536 141.125 307.051 139.765 306.948 138.534C306.819 137.097 306.768 135.789 305.532 134.737C304.451 133.839 304.014 132.428 303.165 131.325C302.676 130.684 302.264 129.991 301.724 129.375C300.951 128.529 300.257 128.631 299.639 129.555C298.172 131.736 297.04 134.121 295.573 136.328C294.26 138.303 294.621 140.663 294.826 142.895C294.981 144.486 294.646 146.025 294.646 147.59C294.646 148.052 294.415 148.539 293.874 148.514C293.231 148.488 293.359 147.872 293.359 147.462C293.334 144.383 293.334 141.279 293.334 138.201C293.334 136.764 294.183 135.661 294.826 134.506C295.753 132.864 296.808 131.325 297.58 129.581C298.198 128.221 300.179 127.297 301.518 127.58C302.135 127.708 302.573 127.99 302.882 128.554C304.04 130.709 305.661 132.505 307.282 134.301C307.694 134.763 307.874 135.302 307.9 135.892C308.054 137.995 307.849 140.073 307.797 142.459Z" fill="#AFA375"/>
<path d="M118.332 142.716C117.174 141.51 117.483 140.202 117.277 139.047C116.659 135.661 118.332 133.147 120.442 130.786C120.828 130.35 121.137 129.863 121.472 129.375C122.964 127.143 125.718 127.349 127.005 129.76C128.214 131.992 129.45 134.224 130.737 136.405C131.045 136.943 131.303 137.457 131.226 138.047C130.865 140.766 131.406 143.485 131.2 146.205C131.148 146.872 131.045 147.539 130.942 148.206C130.891 148.539 130.711 148.821 130.351 148.821C129.862 148.821 129.733 148.411 129.784 148.077C129.939 146.59 129.604 145.127 129.733 143.665C129.887 142.049 129.707 140.432 129.733 138.842C129.784 136.969 128.395 135.763 127.725 134.25C127.005 132.634 125.692 131.325 125.075 129.606C124.843 128.939 124.123 128.965 123.556 129.273C123.222 129.452 122.939 129.786 122.656 130.068C121.163 131.582 120.288 133.531 119.13 135.302C118.615 136.071 118.435 137.02 118.461 137.995C118.538 139.483 118.049 140.946 118.332 142.716Z" fill="#AFA375"/>
<path d="M66.2434 136.148C64.725 134.737 65.1367 133.172 64.8537 131.813C64.0559 127.81 66.2176 124.835 68.9713 122.038C69.486 121.525 69.8721 120.935 70.3096 120.371C72.2655 117.754 75.817 117.985 77.4898 120.807C79.0597 123.449 80.681 126.066 82.3281 128.683C82.7141 129.298 83.0487 129.94 82.9457 130.632C82.4825 133.865 83.2031 137.072 82.92 140.279C82.8428 141.074 82.7141 141.869 82.5854 142.639C82.5082 143.024 82.2766 143.383 81.8134 143.383C81.17 143.383 81.0156 142.895 81.067 142.485C81.2729 140.74 80.8354 138.97 81.0156 137.277C81.1957 135.353 80.9641 133.48 81.0413 131.582C81.1185 129.35 79.317 127.939 78.442 126.143C77.5155 124.219 75.7913 122.68 74.9935 120.653C74.6846 119.858 73.7581 119.909 73.0376 120.242C72.5743 120.448 72.214 120.832 71.8537 121.166C69.8978 122.962 68.7912 125.271 67.2728 127.349C66.6037 128.272 66.3463 129.375 66.4235 130.555C66.5007 132.3 65.9088 134.07 66.2434 136.148Z" fill="#AFA375"/>
<path d="M140.799 145.281C139.924 144.306 140.13 143.024 139.95 141.895C139.487 138.893 140.49 136.302 142.523 134.096C142.909 133.66 143.244 133.172 143.527 132.659C144.093 131.659 144.814 130.863 146.049 130.94C147.31 131.017 148.237 131.761 148.803 132.864C149.961 135.019 151.068 137.226 152.226 139.381C152.483 139.894 152.535 140.407 152.535 140.946C152.535 143.716 152.509 146.487 152.483 149.283C152.483 149.54 152.432 149.848 152.56 150.053C153.049 150.899 152.303 151.002 151.865 151.13C151.068 151.361 151.119 150.694 151.119 150.232C151.093 148.026 150.965 145.82 151.171 143.639C151.376 141.253 150.424 139.329 149.421 137.328C148.623 135.738 147.413 134.404 146.847 132.659C146.667 132.069 145.998 131.966 145.509 132.428C144.994 132.916 144.479 133.454 144.093 134.045C143.038 135.686 141.829 137.277 141.288 139.201C140.799 140.946 141.108 142.741 140.979 144.512C141.005 144.768 141.185 145.05 140.799 145.281Z" fill="#AFA375"/>
<path d="M388.349 167.985C387.629 166.164 388.169 164.214 387.938 162.341C387.809 161.315 387.989 160.289 387.912 159.263C387.68 156.646 386.265 154.85 383.897 153.824C379.599 151.951 375.353 152.131 371.158 154.26C368.636 155.543 367.761 157.672 367.761 160.34C367.761 165.907 367.735 171.449 367.684 177.016C367.684 177.503 367.915 178.35 367.221 178.324C366.603 178.298 366.835 177.426 366.835 176.939C366.809 172.68 366.835 168.421 366.835 164.163C366.835 162.649 366.963 161.11 366.835 159.596C366.68 157.672 367.426 156.133 368.739 154.902C370.54 153.208 372.702 152.157 375.25 151.926C376.923 151.772 378.596 151.566 380.217 151.874C383.691 152.49 386.78 153.747 388.452 157.185C388.864 158.031 388.787 158.955 388.787 159.827C388.838 162.547 388.813 165.266 388.813 167.985C388.633 167.96 388.478 167.96 388.349 167.985Z" fill="#AFA375"/>
<path d="M179.943 48.2047C181.281 48.0508 183.391 48.333 185.476 48.2304C187.895 48.1021 190.031 49.1539 192.347 49.4874C193.506 49.667 193.454 50.6675 193.274 51.5141C193.094 52.489 192.322 52.1811 191.756 52.0016C186.84 50.4366 181.77 51.1293 176.777 50.9754C175.491 50.9241 174.178 51.5911 172.866 51.8989C172.299 52.0272 171.553 52.5916 171.296 51.6424C171.038 50.7701 171.013 49.7953 172.171 49.4361C174.461 48.7691 176.777 48.2304 179.943 48.2047ZM192.322 50.9241C189.697 48.8204 175.311 48.6921 172.171 50.8728C179.145 49.2052 185.733 49.8722 192.322 50.9241Z" fill="#AFA375"/>
<path d="M55.2543 177.76C54.7653 177.298 54.9455 176.733 54.9455 176.246C54.9455 170.961 54.9455 165.676 54.9455 160.392C54.9712 154.825 49.7984 151.105 44.4196 152.798C43.4674 153.106 42.5152 153.362 41.6145 153.773C39.1696 154.953 38.0115 157.262 38.346 159.955C38.6549 162.418 38.3203 164.881 38.3975 167.344C38.3975 167.575 38.3718 167.857 38.0887 167.857C37.6255 167.883 37.6769 167.447 37.6512 167.164C37.574 164.984 37.7541 162.726 37.3938 160.597C36.4159 154.825 41.4858 151.849 46.4013 151.695C49.7469 151.592 52.6035 152.567 54.7139 155.261C55.383 156.133 55.769 157.134 55.769 158.237C55.769 164.317 55.7433 170.423 55.7175 176.503C55.769 176.939 55.8462 177.503 55.2543 177.76Z" fill="#AFA375"/>
<path d="M243.741 47.7429C246.804 47.6147 249.841 47.7942 252.8 48.7691C253.598 49.0256 254.036 49.4361 254.087 50.2571C254.139 51.1806 253.83 51.6681 252.826 51.3602C246.598 49.4874 240.396 50.1544 234.193 51.4372C233.602 51.5654 232.932 51.6937 232.804 50.8471C232.701 50.0775 232.469 49.1026 233.627 48.8974C235.943 48.4613 238.182 47.4864 240.653 47.7429C241.683 47.8199 242.712 47.7429 243.741 47.7429ZM233.473 50.5649C235.943 50.0262 237.951 49.2565 240.138 49.3592C242.249 49.4618 244.385 49.5387 246.469 49.2565C248.631 48.9487 250.561 50.0005 252.646 50.0262C249.094 48.0251 235.712 48.2817 233.473 50.5649Z" fill="#AFA375"/>
<path d="M149.035 179.581C150.167 179.017 150.115 178.042 150.115 177.041C150.09 173.27 150.013 169.525 150.115 165.753C150.193 162.598 147.259 160.263 144.171 161.443C142.549 162.059 141.546 163.496 141.494 165.83C141.443 167.575 141.494 169.319 141.494 171.064C141.494 171.551 141.597 172.039 141.262 172.603C140.439 171.757 140.851 170.705 140.799 169.832C140.696 167.626 140.233 165.42 141.134 163.214C141.829 161.546 144.531 159.853 146.796 160.186C148.597 160.469 150.424 162.187 150.939 164.137C151.299 165.471 151.119 166.831 151.042 168.139C150.836 171.449 151.042 174.758 150.939 178.068C150.913 179.479 150.296 179.838 149.035 179.581Z" fill="#AFA375"/>
<path d="M171.605 166.369C172.994 166.061 174.333 166.318 175.568 165.959C176.083 165.805 176.726 165.882 177.138 165.599C178.991 164.291 180.689 164.804 182.414 165.83C183.006 166.19 183.726 166.343 184.601 166.651C183.109 166.78 181.873 166.523 180.818 165.856C180.072 165.369 179.454 165.42 178.682 165.779C176.829 166.677 174.847 167.01 172.814 166.959C172.403 166.985 171.965 167.036 171.605 166.369Z" fill="#AFA375"/>
<path d="M191.781 160.776C195.745 160.443 196.388 157.082 197.289 154.388C198.807 149.899 199.528 145.179 200.042 140.458C200.068 140.279 200.068 140.099 200.094 139.919C200.171 139.586 200.197 139.124 200.711 139.227C201.123 139.329 200.995 139.714 200.969 140.022C200.634 143.485 200.042 146.923 199.348 150.361C198.73 153.311 197.778 156.133 196.336 158.775C195.307 160.699 193.506 161.469 191.781 160.776Z" fill="#AFA375"/>
<path d="M179.737 146.872C179.892 148.514 179.531 149.848 179.094 151.053C177.653 155.081 175.542 158.673 171.759 161.033C171.219 161.366 170.653 161.649 170.086 161.905C169.803 162.034 169.443 162.136 169.237 161.777C169.031 161.392 169.366 161.213 169.675 161.084C172.531 159.955 174.333 157.749 176.031 155.312C177.498 153.208 178.064 150.771 178.914 148.411C179.094 147.975 179.197 147.513 179.737 146.872Z" fill="#AFA375"/>
<path d="M181.899 145.409C182.362 147.205 182.825 148.693 183.108 150.232C183.546 152.541 184.472 154.671 185.296 156.851C185.785 158.134 186.583 159.212 187.483 160.212C187.715 160.469 188.101 160.802 187.689 161.11C187.381 161.341 187.123 160.956 186.917 160.751C184.987 158.929 183.958 156.595 183.237 154.132C182.542 151.772 181.847 149.412 181.564 146.949C181.487 146.513 181.436 146.076 181.899 145.409Z" fill="#AFA375"/>
<path d="M198.756 161.777C200.557 157.416 201.02 152.849 201.432 148.257C201.484 147.564 201.329 146.41 202.024 146.41C202.796 146.436 202.281 147.513 202.281 148.103C202.281 151.746 201.689 155.312 200.686 158.801C200.351 159.981 199.734 161.007 198.756 161.777Z" fill="#AFA375"/>
<path d="M174.255 96.3068C174.153 95.3063 173.972 94.2801 173.998 93.2796C174.075 89.4314 174.333 85.6089 174.667 81.7607C174.693 81.4529 174.719 81.0167 175.156 81.1194C175.619 81.222 175.516 81.7094 175.465 82.0429C175.079 85.0701 175.311 88.123 174.899 91.1502C174.667 92.8434 174.976 94.6136 174.255 96.3068Z" fill="#AFA375"/>
<path d="M251.436 95.0241C250.639 93.844 250.716 92.4586 250.639 91.1759C250.433 88.0974 250.201 84.9932 250.33 81.9147C250.356 81.5555 250.33 81.1963 250.356 80.8372C250.381 80.5293 250.381 80.1188 250.767 80.0932C251.205 80.0675 251.153 80.5037 251.179 80.8115C251.488 83.4796 251.359 86.1733 251.436 88.867C251.488 90.9194 251.385 92.9717 251.436 95.0241Z" fill="#AFA375"/>
<path d="M179.557 42.7403C179.017 41.8424 179.042 41.1241 179.017 40.4058C178.914 36.3267 179.403 32.2989 179.557 28.2199C179.583 27.8094 179.506 27.1424 180.123 27.1937C180.612 27.245 180.406 27.8607 180.381 28.2199C180.226 31.4267 180.046 34.6335 179.892 37.866C179.814 39.4052 180.072 40.9702 179.557 42.7403Z" fill="#AFA375"/>
<path d="M246.521 41.8937C245.8 40.6879 245.929 39.4309 245.877 38.2764C245.723 34.967 245.775 31.6576 245.749 28.3225C245.749 27.9633 245.775 27.6042 245.826 27.245C245.852 27.0398 245.955 26.7832 246.238 26.8602C246.366 26.9115 246.469 27.1167 246.521 27.2707C246.572 27.4246 246.572 27.6298 246.572 27.8094C246.572 32.0681 246.572 36.3267 246.855 40.5853C246.881 40.9445 246.933 41.3806 246.521 41.8937Z" fill="#AFA375"/>
<path d="M213.502 164.83V165.805C213.425 165.471 213.476 165.138 213.502 164.83Z" fill="#AFA375"/>
<path d="M254.833 150.976C255.914 151.002 256.789 150.515 257.252 149.591C257.999 148.103 258.977 146.641 258.591 144.794C258.513 144.46 258.565 144.075 259.105 143.844C259.286 145.615 260.161 147.308 259.749 149.001C259.157 151.566 259.775 153.875 260.598 156.21C260.933 157.134 261.525 157.954 262.039 158.775C262.219 159.058 262.528 159.494 262.889 159.237C263.326 158.955 262.94 158.621 262.76 158.314C262.657 158.108 262.502 157.954 262.4 157.749C261.396 155.953 260.752 154.055 260.598 152.003C260.778 152.08 260.881 152.182 260.907 152.285C261.627 155.004 262.708 157.544 264.844 159.494C265.205 159.802 265.102 160.084 264.767 160.392C262.683 162.341 260.109 163.008 257.355 163.137C254.396 163.265 251.719 162.136 248.991 161.187C248.528 161.033 248.065 160.853 247.55 161.059C246.469 161.495 245.363 161.88 244.307 162.367C242.48 163.162 240.602 163.804 238.646 164.06C233.807 164.702 229.098 164.394 224.362 162.957C221.197 162.008 218.263 160.623 215.278 159.237C214.634 158.929 214.403 158.468 214.326 157.954L214.377 162.906C214.377 162.88 214.403 162.829 214.403 162.777C214.66 161.828 214.917 161.443 215.921 162.085C216.899 162.701 217.98 163.188 219.035 163.675C219.679 163.983 220.27 164.548 221.145 164.419C220.914 163.675 220.296 163.624 219.859 163.368C218.315 162.521 216.745 161.726 215.226 160.905C214.943 160.751 214.377 160.648 214.634 160.186C214.866 159.776 215.278 160.109 215.561 160.289C217.645 161.572 219.884 162.521 222.175 163.316C224.568 164.137 226.987 164.753 229.381 165.112L237.771 165.317C240.859 164.958 243.947 164.06 246.984 162.572C247.807 162.162 248.528 162.264 249.3 162.598C251.591 163.573 253.984 164.214 256.506 164.163C259.8 164.086 262.991 163.496 265.874 161.495L265.642 158.365C264.87 157.826 264.33 157.082 263.661 155.697C261.473 151.028 260.469 146.102 260.212 140.997C260.135 139.637 259.903 138.329 259.414 137.046C259.028 138.098 258.771 139.124 258.565 140.15C258.153 142.151 257.561 144.05 256.043 145.538C254.602 146.949 253.058 146.974 251.694 145.486C250.355 143.998 249.403 142.305 248.785 140.381C248.116 138.303 247.524 136.199 247.164 134.019C246.984 133.993 246.83 133.968 246.649 133.942C246.109 135.789 245.466 137.61 245.028 139.509C244.23 142.87 243.124 146.076 240.73 148.642C239.006 150.515 237.539 150.54 235.789 148.719C233.73 146.615 232.135 144.075 231.105 141.382C229.638 137.457 227.554 133.711 226.962 129.478C226.91 129.17 226.884 128.811 226.447 128.785C226.035 128.785 225.984 129.144 225.932 129.452C225.366 132.12 224.8 134.788 224.285 137.482C223.487 141.664 222.304 145.743 220.554 149.642C219.627 151.695 218.237 153.388 216.23 154.491C214.712 155.312 214.326 155.132 214.3 153.542L214.326 156.851C214.428 156.184 214.995 156.082 215.587 155.953C216.796 155.671 217.748 155.004 218.623 154.081C221.043 151.566 222.226 148.411 223.256 145.23C224.337 141.895 225.237 138.534 225.804 135.045C225.907 134.378 225.855 133.249 226.524 133.198C227.245 133.172 227.219 134.301 227.425 134.942C228.815 139.894 231.285 144.306 234.193 148.488C236.458 151.746 240.01 151.618 242.3 148.385C243.844 146.205 245.002 143.845 245.8 141.305C246.032 140.535 246.443 139.817 246.855 138.816C247.524 140.407 248.477 141.715 248.528 143.024C248.58 144.563 249.274 145.64 249.969 146.769C251.127 148.693 252.388 150.566 254.37 151.772C256.017 152.772 257.638 152.054 258.179 149.976C257.124 151.028 256.197 152.028 254.833 150.976Z" fill="#AFA375"/>
</g>
<defs>
<clipPath id="clip0_10_2902">
<rect width="391" height="196" fill="white"/>
</clipPath>
</defs>
</svg>
