<svg width="351" height="227" viewBox="0 0 351 227" fill="none" xmlns="http://www.w3.org/2000/svg">
<g clip-path="url(#clip0_10_2799)">
<path d="M61.9699 69.305C62.4712 69.539 62.1704 69.9402 62.0701 70.241C61.6022 71.6786 61.0674 73.0827 60.5995 74.5203C60.4992 74.8546 60.2653 75.2892 60.9337 75.4229C61.5019 75.0552 61.7025 74.5203 61.9364 74.0188C62.6383 72.4141 63.6076 70.9765 65.0114 69.773C65.3456 69.4721 65.7801 69.0041 66.3149 69.305C66.8496 69.6058 66.5154 70.1073 66.3817 70.5419C66.0475 71.6786 65.6464 72.8487 65.3122 73.9854C65.2119 74.3531 65.0448 74.888 65.5127 75.0552C66.1812 75.2892 66.3483 74.654 66.5154 74.2863C67.2507 72.8487 67.9192 71.3443 68.6879 69.9067C69.0555 69.2381 69.3898 68.4692 70.593 68.0346C70.2922 69.4053 70.0248 70.5754 69.7574 71.712C69.5235 72.7484 69.4566 73.7848 69.9914 74.7877C70.4259 75.5901 71.228 75.9578 72.1973 75.891C73.0329 75.8241 73.6011 75.4229 73.6679 74.5203C71.7294 75.2892 71.0944 74.888 71.1612 73.0827C71.1946 72.6481 71.2949 72.1801 71.3283 71.7455C71.4286 70.7425 71.6625 69.773 71.6291 68.7701C71.5957 67.3994 70.7935 66.9982 69.4232 67.6C68.8216 67.8674 68.2534 68.2352 67.5181 67.9677C66.5488 67.6334 65.7467 67.9343 65.0448 68.5026C64.4766 68.9706 63.9418 69.2381 63.5742 68.302C63.2399 67.4328 62.538 67.4997 61.8027 67.9008C60.4324 68.7032 59.296 69.7396 58.7612 71.3109C59.53 70.7425 60.2653 70.1742 61.034 69.6393C61.3682 69.4721 61.6356 69.1712 61.9699 69.305Z" fill="#8BA0A6"/>
<path d="M52.1099 113.535C51.4414 113.735 50.6393 113.635 50.1045 114.203C52.4107 114.772 55.9201 113.368 56.7557 111.529C57.1568 110.626 56.9897 109.824 55.987 109.356C55.0177 108.888 55.0177 108.42 55.6193 107.718C56.1541 107.049 56.4549 106.247 55.8198 105.511C55.2182 104.809 54.2824 104.742 53.3465 104.843C52.4107 104.943 51.5083 105.21 50.7395 105.979C51.3411 106.213 51.6085 106.013 51.9093 105.879C52.8786 105.511 54.015 105.144 54.65 106.113C55.2517 107.049 54.1153 107.584 53.4802 108.186C52.8452 108.754 51.8759 109.055 51.5083 109.958C52.3773 110.225 52.912 109.69 53.5471 109.623C54.1821 109.556 54.8172 109.49 55.2517 110.025C55.6862 110.559 55.4522 111.094 55.1514 111.562C54.4829 112.599 53.3465 113.134 52.1099 113.535Z" fill="#8BA0A6"/>
<path d="M68.5208 118.917C67.3175 121.96 66.248 122.628 62.8722 122.595C63.641 123.731 65.0113 123.999 66.5822 123.33C68.2534 122.628 68.9553 121.258 69.5569 119.82C70.8938 116.611 71.1612 113.201 71.7628 109.857C71.8296 109.49 71.9299 108.955 71.3617 108.854C70.7935 108.788 70.7267 109.356 70.5596 109.69C69.7574 111.362 69.0221 113 67.6518 114.371C65.9806 116.042 64.7105 115.842 63.8749 113.769C63.407 112.632 63.0394 111.495 62.5714 110.392C62.4377 110.091 62.2706 109.657 61.7359 109.824C61.3682 109.958 61.4351 110.325 61.4685 110.626C61.7359 112.365 62.2372 114.07 63.2399 115.574C64.0755 116.878 65.4458 117.079 66.8496 116.142C67.5181 115.708 68.0863 115.14 68.7213 114.638C68.9218 114.471 69.1558 114.27 69.4566 114.437C69.7574 114.605 69.724 114.872 69.6571 115.106C69.2561 116.41 68.9887 117.68 68.5208 118.917Z" fill="#8BA0A6"/>
<path d="M88.0398 70.6756C83.5611 70.1407 79.049 70.1073 74.5703 70.7759C79.0824 71.2105 83.5611 70.9765 88.0398 70.6756Z" fill="#8BA0A6"/>
<path d="M28.9144 128.913C27.5775 126.272 26.1403 123.665 25.7058 120.756C25.2379 117.814 25.3381 114.906 25.6724 111.964C26.0066 109.055 27.5441 106.514 28.8141 103.907C20.7926 109.423 23.2993 126.072 28.9144 128.913Z" fill="#8BA0A6"/>
<path d="M80.4862 82.2095C80.0183 82.2095 79.3499 82.5104 79.0825 82.0758C78.7817 81.5743 79.517 81.3403 79.8178 81.0394C81.0878 79.8359 82.4582 78.6992 83.1935 77.1614C83.5946 76.359 83.7617 75.5232 82.8593 74.8546C81.5558 73.8851 79.049 74.3531 78.1466 75.7907C78.648 75.6904 79.0825 75.6235 79.517 75.5567C80.2523 75.4564 81.021 75.3226 81.5224 75.9578C81.9569 76.5596 81.5892 77.128 81.2884 77.6294C80.4862 79.0335 79.2162 80.1034 78.0798 81.2735C77.4782 81.8752 76.676 82.3433 76.3083 83.2125C80.0517 83.4799 82.759 83.2794 84.5304 82.5104C82.993 81.9087 81.7229 82.2095 80.4862 82.2095Z" fill="#8BA0A6"/>
<path d="M78.6146 66.0955C78.7483 66.7307 78.6146 67.7337 79.6507 67.7337C80.7537 67.7337 80.5866 66.6639 80.8539 65.9952C80.9208 65.8615 80.9208 65.6943 80.9542 65.5606C81.5558 62.9195 82.5585 60.479 85.2992 58.8743C85.6334 58.6737 86.1014 58.4397 85.9677 57.9382C85.5332 57.6708 85.1989 57.9382 84.8981 58.1054C82.7591 59.2421 81.5893 61.0474 80.62 62.9864C80.386 63.4879 80.386 64.2902 79.7844 64.3571C79.0491 64.4574 79.0825 63.5882 78.7817 63.1535C77.8793 61.8497 76.8098 61.4151 75.0383 61.9834C77.5116 62.6521 78.2469 64.2568 78.6146 66.0955Z" fill="#8BA0A6"/>
<path d="M29.1485 64.9923C29.2488 65.8281 29.2154 67.2322 30.2849 67.2322C31.5216 67.2656 31.321 65.7947 31.6552 64.9589C32.4908 62.719 33.293 60.5125 35.3652 58.8409C35.6994 58.5735 36.4682 58.3394 36.0002 57.8714C35.5992 57.4702 35.0644 57.9383 34.6967 58.2391C33.059 59.4761 32.0563 61.0808 31.1539 62.7524C30.9868 63.0867 30.8865 63.6216 30.3183 63.5882C29.9172 63.5547 29.817 63.0867 29.6499 62.7858C28.948 61.6157 27.9787 60.9471 25.873 61.4151C27.5442 62.4849 28.9145 63.3207 29.1485 64.9923Z" fill="#8BA0A6"/>
<path d="M75.0383 110.493C74.2696 111.261 74.5704 111.663 75.6065 111.73C77.1105 111.863 78.5143 111.529 79.8847 111.027C80.2189 110.894 80.7537 110.76 80.5197 110.325C80.3192 109.924 79.8178 110.091 79.4502 110.158C78.3806 110.325 77.4114 110.894 76.041 110.894C76.9434 109.657 78.2135 108.821 78.4809 107.484C78.648 106.648 78.7483 105.745 77.8459 105.144C77.0103 104.609 76.1079 104.475 74.938 105.043C77.7456 106.013 78.0798 107.083 76.3752 109.122C75.9742 109.623 75.4728 110.025 75.0383 110.493Z" fill="#8BA0A6"/>
<path d="M36.3009 70.9097C32.4238 70.3413 28.5467 70.5419 24.6362 70.8094C28.5467 71.478 32.4238 71.3108 36.3009 70.9097Z" fill="#8BA0A6"/>
<path d="M28.2459 80.3708C27.9116 80.7051 27.31 80.9725 27.5774 81.5743C29.9839 81.1063 32.5909 78.4986 32.7246 76.5261C32.8248 75.1889 31.8556 74.1525 30.4852 74.2528C29.0146 74.3531 27.7111 74.888 26.9089 76.2587C27.5774 76.0581 28.2124 75.8241 28.8809 75.6569C29.5494 75.4898 30.2512 75.2892 30.7526 75.8575C31.2539 76.3924 30.9531 76.9942 30.6523 77.5291C30.0841 78.5989 29.1483 79.4681 28.2459 80.3708Z" fill="#8BA0A6"/>
<path d="M25.5722 83.5802C25.6725 83.948 26.107 83.8477 26.2407 83.8477C28.6137 83.6471 30.8197 83.4465 32.9922 83.2459C33.3932 83.2125 33.8277 83.1122 33.7943 82.6441C33.7609 82.2764 33.3598 82.2095 33.0256 82.2095C30.7194 82.3098 28.4132 82.3767 26.1739 82.9785C25.8731 83.1122 25.4386 83.2125 25.5722 83.5802Z" fill="#8BA0A6"/>
<path d="M32.5242 120.121C32.5242 121.525 32.7581 122.896 34.3959 123.531C36.0002 124.133 37.0697 123.23 37.9721 122.194C38.4735 121.592 38.8746 121.492 39.2756 122.294C39.6433 123.063 40.2783 123.497 41.281 123.263C42.9522 122.862 44.991 119.887 44.6568 118.316C44.2557 118.316 44.0551 118.616 43.9214 118.85C43.4869 119.586 43.1193 120.388 42.6514 121.124C42.2837 121.659 41.8158 122.394 40.9802 122.127C40.1112 121.893 40.2449 121.09 40.3786 120.455C40.5791 119.519 40.8465 118.616 41.0805 117.68C41.7489 115.307 41.6821 115.24 39.0751 115.708C39.0082 115.708 38.9748 115.708 38.908 115.708L38.9414 115.741C38.9414 115.741 38.9414 115.741 38.908 115.741C39.6099 117.647 38.0056 121.525 36.067 122.595C35.1312 123.096 34.563 122.695 34.1953 121.993C33.2929 120.288 35.3986 116.142 37.4374 115.674C37.9053 115.574 38.4066 115.708 38.908 115.741C37.3037 114.605 35.7662 114.638 34.2956 115.942C33.0255 117.045 32.5242 118.516 32.5242 120.121Z" fill="#8BA0A6"/>
<path d="M40.1445 55.6983C40.4787 56.601 39.9773 57.5371 39.476 58.3729C39.242 58.7406 38.3396 58.9078 38.9746 59.543C39.476 60.0444 40.0776 60.011 40.6792 59.777C41.4145 59.5095 42.2835 59.4092 42.9854 58.8075C40.4787 58.54 40.5121 58.54 41.1471 56.1998C41.4814 54.9963 42.1164 53.7928 41.7153 52.4221C41.0803 53.9933 39.5763 54.6285 38.0054 55.2637C38.7407 55.7986 39.8436 54.8626 40.1445 55.6983Z" fill="#8BA0A6"/>
<path d="M82.6588 127.81C83.5278 128.011 83.5278 126.941 83.7283 126.373C86.1348 119.018 88.5413 111.629 90.9143 104.241C91.1483 103.472 91.3488 102.703 91.4825 102.135C91.4825 101.533 91.5159 101.132 91.048 100.998C90.3461 100.831 90.1456 101.366 90.0453 101.767C89.4103 103.773 88.8421 105.812 88.207 107.818C86.3019 113.869 84.3634 119.887 82.4583 125.938C82.2243 126.607 81.6561 127.576 82.6588 127.81Z" fill="#8BA0A6"/>
<path d="M89.477 56.1329C89.711 57.069 89.3099 58.306 88.2738 59.0749C88.0398 59.2421 87.5719 59.1418 87.6053 59.6098C89.0425 60.4456 91.7832 60.011 92.953 58.7406C92.5854 58.4731 92.2177 58.6403 91.8166 58.7072C89.8447 59.1083 89.8113 59.0415 90.2458 57.303C90.58 56.0326 91.1482 54.7957 90.8808 53.0238C90.0786 54.8291 88.608 55.364 87.0706 56.0326C88.1401 56.601 89.2431 55.2303 89.477 56.1329Z" fill="#8BA0A6"/>
<path d="M220.161 81.3403C221.699 80.4042 222.568 79.2675 223.27 78.0306C225.509 73.8851 225.81 69.5055 225.275 65.0257C224.974 62.7189 224.239 60.5124 222.802 58.5734C221.966 57.4367 221.03 56.3335 219.226 55.9658C225.676 64.2568 224.373 72.6481 220.161 81.3403Z" fill="#8BA0A6"/>
<path d="M196.999 80.8054C191.785 72.6481 191.518 64.4574 197.333 56.2332C193.557 57.2696 191.15 62.7524 191.25 69.6727C191.317 74.0522 193.824 80.2705 196.999 80.8054Z" fill="#8BA0A6"/>
<path d="M167.921 80.8723C169.926 80.1033 171.597 78.064 172.466 75.3226C173.737 71.3443 173.636 67.3325 172.634 63.3207C172.099 61.0808 170.996 59.0749 169.124 57.4368C168.623 57.0022 168.155 56.5007 166.985 56.7347C170.495 60.245 171.43 64.2902 171.397 68.6363C171.397 73.0159 171.163 77.2617 167.921 80.8723Z" fill="#8BA0A6"/>
<path d="M121.931 76.0916C122.332 76.359 122.699 76.0247 122.967 75.7907C123.568 75.2558 124.137 74.7209 124.705 74.1525C126.142 72.715 126.142 72.715 127.345 74.2194C127.713 74.654 128.081 75.0886 128.515 75.4898C128.782 75.7572 129.15 75.9913 129.551 75.7238C129.952 75.4564 129.852 75.0552 129.618 74.7877C129.083 74.0857 128.482 73.417 127.88 72.7818C127.178 72.0798 127.245 71.478 128.081 70.9097C128.782 70.4082 129.417 69.8399 130.019 69.2381C130.32 68.9706 130.688 68.5695 130.22 68.2017C129.852 67.9008 129.484 68.2351 129.184 68.4692C128.548 68.9706 127.913 69.4721 127.345 70.007C126.643 70.6422 126.075 70.6757 125.407 69.9736C124.905 69.4721 124.471 68.8369 123.468 68.7032C123.468 69.4053 123.836 69.9402 124.27 70.3413C125.407 71.4111 125.072 72.2135 123.97 73.0827C123.234 73.6845 122.666 74.4534 122.064 75.1889C121.797 75.4229 121.496 75.8241 121.931 76.0916Z" fill="#8BA0A6"/>
<path d="M129.919 106.247C130.487 105.344 130.855 104.341 129.485 103.673C128.181 103.037 126.61 103.606 125.975 104.876C126.543 104.976 126.911 104.609 127.379 104.475C127.981 104.308 128.616 104.04 129.117 104.542C129.652 105.077 129.418 105.678 129.05 106.213C128.749 106.681 128.315 107.083 127.914 107.484C127.346 108.086 126.711 108.654 126.176 109.289C125.775 109.757 125.741 110.392 126.577 110.325C128.616 110.192 130.721 110.325 133.161 109.456C131.423 108.854 130.187 109.155 128.916 109.289C128.582 109.323 128.181 109.456 127.947 109.222C127.646 108.854 128.081 108.587 128.281 108.32C128.85 107.651 129.451 106.982 129.919 106.247Z" fill="#8BA0A6"/>
<path d="M106.289 114.605C102.478 114.036 98.8687 114.27 94.9248 114.638C96.7965 115.541 104.985 115.474 106.289 114.605Z" fill="#8BA0A6"/>
<path d="M153.649 60.3453C153.048 60.8468 152.379 61.3483 151.811 61.8832C151.377 62.3178 150.675 62.7524 150.976 63.3876C151.31 64.0562 152.145 63.7888 152.814 63.7553C153.95 63.6885 155.053 63.5882 156.156 63.421C157.192 63.2539 158.295 63.2204 159.365 62.3846C157.593 61.8497 156.223 62.5184 154.786 62.5852C154.318 62.5852 153.683 62.953 153.449 62.3846C153.248 61.9835 153.85 61.7494 154.184 61.482C155.555 60.3453 156.891 59.2086 157.46 57.5705C157.794 56.5341 157.627 55.6315 156.223 55.3975C154.619 55.13 153.248 55.6649 151.945 56.4673C151.677 56.6344 151.41 56.9019 151.644 57.2362C151.878 57.5371 152.246 57.4033 152.546 57.2696C153.081 57.0022 153.583 56.7013 154.151 56.4673C154.686 56.2332 155.254 56.1329 155.722 56.5676C156.19 57.0022 156.089 57.4702 155.822 57.9717C155.321 58.8409 154.518 59.6098 153.649 60.3453Z" fill="#8BA0A6"/>
<path d="M140.849 80.9391C140.915 80.7385 140.982 80.6382 140.949 80.538C140.882 80.3374 140.782 80.1368 140.648 80.003C138.041 77.5625 137.606 74.4869 137.64 71.3777C137.707 66.7307 137.907 62.0838 141.25 58.1054C141.45 57.8714 141.684 57.5371 141.316 57.303C140.982 57.1025 140.648 57.3365 140.447 57.5705C139.946 58.0385 139.445 58.5066 139.044 59.0415C136.47 62.3178 135.935 66.0621 135.902 69.8733C135.868 73.0159 136.303 76.1584 138.342 78.8998C138.91 79.8025 139.612 80.6383 140.849 80.9391Z" fill="#8BA0A6"/>
<path d="M202.38 75.9912C203.216 76.0247 203.918 75.6904 204.553 75.2557C205.689 74.4534 206.224 73.2833 206.892 72.18C207.294 71.5114 207.193 70.3079 208.163 70.3413C208.898 70.3747 208.898 71.5448 209.199 72.2469C209.967 74.0522 210.669 75.9244 212.207 77.3954C213.544 78.6658 214.713 78.7661 216.485 77.5625C214.012 77.596 213.042 76.3256 212.207 74.9214C211.171 73.2499 210.669 71.3777 209.8 69.6727C208.062 66.2292 210.034 63.7219 212.24 61.2814C212.975 60.479 214.012 60.011 215.248 60.6796C215.549 60.8468 216.017 61.1142 216.217 60.5793C216.351 60.2116 216.017 59.9107 215.649 59.7435C214.279 59.242 213.109 59.6767 211.973 60.3453C210.602 61.1476 209.834 62.3512 209.132 63.6216C208.931 63.9559 208.864 64.4908 208.363 64.5242C207.728 64.5242 207.695 63.9225 207.527 63.5213C207.026 62.418 206.525 61.2814 205.789 60.2784C205.054 59.2755 204.051 58.5734 202.681 58.3728C202.313 58.306 201.812 58.2725 201.645 58.6737C201.478 59.1752 202.013 59.2086 202.38 59.3089C203.149 59.4426 203.784 59.8104 204.118 60.3787C206.425 64.1565 208.497 67.9342 205.756 72.3138C204.92 73.6176 204.252 74.888 202.28 74.9883C201.912 75.0217 201.344 75.0217 201.378 75.4898C201.378 75.9578 201.946 75.9578 202.38 75.9912Z" fill="#8BA0A6"/>
<path d="M164.645 75.6569C165.381 75.0552 164.178 74.3865 163.643 73.8851C161.537 71.8457 161.437 72.2469 163.609 70.1407C163.643 70.1073 163.676 70.0739 163.71 70.0404C164.178 69.4052 165.381 68.5694 164.779 68.1014C164.044 67.4996 163.275 68.6363 162.774 69.1712C161.671 70.3413 160.735 70.9765 159.465 69.3718C159.331 69.1712 159.03 69.0375 158.596 69.1712C158.462 69.773 158.763 70.241 159.131 70.6088C160.067 71.5449 159.899 72.3472 158.93 73.183C158.429 73.6176 158.028 74.1859 157.593 74.7208C157.393 74.9883 157.125 75.3895 157.526 75.6569C157.894 75.9244 158.295 75.6569 158.562 75.4229C159.03 74.9883 159.498 74.5537 159.899 74.0856C160.702 73.0493 161.37 73.183 162.038 74.1525C162.172 74.3531 162.339 74.5871 162.573 74.7543C163.208 75.1889 163.81 76.359 164.645 75.6569Z" fill="#8BA0A6"/>
<path d="M104.952 154.355C103.247 154.188 101.576 154.288 99.8716 154.589C95.794 155.358 91.9837 156.728 88.2403 158.3C87.6053 158.567 87.0037 159.002 86.1347 158.935C86.001 158.433 86.2684 158.133 86.4355 157.832C87.2711 156.294 88.1401 154.823 88.5077 153.118C89.2096 149.975 87.6053 148.27 83.9622 148.437C81.5891 148.538 79.2829 149.073 77.0436 149.808C73.4673 150.978 70.1584 152.616 66.8496 154.254C65.8803 154.723 64.9444 154.923 63.8081 154.656C53.3132 152.349 43.2863 153.519 34.1283 158.567C20.592 165.955 14.2082 176.821 15.1775 190.895C15.2777 191.965 14.8432 192.701 14.1079 193.436C9.32841 198.284 5.08368 203.432 2.00876 209.283C0.872373 211.489 -0.0634736 213.796 0.00337263 216.337C0.103642 218.51 1.30687 219.981 3.64649 220.75C5.71872 221.452 7.8578 221.418 9.99688 221.151C13.9074 220.649 17.4837 219.245 20.9931 217.741C21.3607 217.574 21.8287 217.173 22.2297 217.507C22.6642 217.875 22.1963 218.242 22.0292 218.577C21.2605 220.048 20.4917 221.485 20.3915 223.123C20.1575 225.631 21.4276 226.901 24.2351 227.035C26.1068 227.135 27.9451 226.935 29.7499 226.4C33.1591 225.397 36.4011 224.059 39.5763 222.689C41.0804 222.02 42.4841 221.82 44.1219 222.288C47.531 223.19 51.0739 223.725 54.6501 223.591C69.7908 223.023 81.1212 216.905 88.4409 205.171C92.1843 199.153 93.2538 192.567 93.0533 185.814C93.0198 184.744 93.2872 183.875 94.1228 183.106C95.5266 181.668 96.8969 180.231 98.2338 178.726C101.977 174.614 105.654 170.402 108.227 165.588C109.297 163.582 110.132 161.509 110.099 159.269C110.032 156.494 107.993 154.589 104.952 154.355ZM67.6517 154.589C72.2975 152.249 77.0102 149.975 82.4247 149.173C82.9929 149.106 83.5277 149.106 83.7951 149.073C87.104 149.039 88.4409 150.109 87.8058 152.549C86.8366 156.06 85.4996 159.537 81.5891 161.543C80.7201 162.011 80.0851 162.044 79.3164 161.442C75.9406 158.935 72.1973 157.029 68.0862 155.725C67.4846 155.592 66.3148 155.291 67.6517 154.589ZM56.9897 187.686C67.0167 182.671 74.6037 175.483 80.6867 166.992C81.8231 165.421 82.0236 165.354 83.2937 166.758C87.6387 171.639 90.1789 177.255 91.5158 183.34C91.5492 183.474 91.5826 183.607 91.5826 183.641C91.6829 184.51 91.1481 185.011 90.6468 185.446C84.6641 190.895 78.6479 196.311 72.0636 201.192C70.994 201.961 70.3924 201.794 69.5234 201.025C65.2787 197.214 61.0339 193.436 56.7224 189.692C55.7531 188.789 55.6528 188.355 56.9897 187.686ZM56.5887 185.68C56.6889 185.379 56.8561 185.112 57.0566 184.878C62.4377 177.623 68.4873 170.903 76.442 165.655C77.1439 165.187 77.9126 164.752 78.6813 164.317C79.283 163.95 79.8511 163.682 80.4862 164.25C81.1546 164.819 80.8204 165.32 80.4193 165.855C78.4474 168.53 76.3083 171.104 73.9353 173.511C69.3563 178.158 64.2091 182.237 58.3267 185.546C57.8922 185.78 57.4577 186.014 57.09 186.182C56.5887 186.148 56.4884 185.948 56.5887 185.68ZM64.042 156.561C64.4097 156.361 64.8442 156.26 65.145 156.16C65.6129 156.227 65.9806 156.294 66.2479 156.394C70.5595 157.598 74.4366 159.503 77.946 161.977C78.815 162.579 79.0156 163.047 77.8792 163.649C70.125 167.861 64.4097 173.879 59.2291 180.364C57.8253 182.103 56.5218 183.908 55.1515 185.714C54.3827 186.75 53.6474 186.817 52.6113 185.914C48.2997 182.003 43.9547 178.158 39.5763 174.347C38.6739 173.544 38.6739 172.976 39.6432 172.274C47.3639 166.524 55.4523 161.242 64.042 156.561ZM27.2766 211.59C27.4772 211.188 27.6777 210.754 27.9451 210.386C34.0281 202.362 41.4814 195.542 50.9067 190.528C51.2744 190.327 51.5752 189.959 52.1434 190.126C52.4108 190.661 51.9429 190.996 51.7089 191.33C46.3278 198.952 39.7769 205.639 31.6885 211.088C30.786 211.69 29.8168 212.191 28.8475 212.726C28.4464 212.96 27.9785 213.027 27.5774 212.693C27.1763 212.392 27.1095 211.957 27.2766 211.59ZM26.7753 210.587C26.4076 211.121 25.9731 211.556 25.3715 210.854C20.5252 205.438 17.6508 199.32 16.6815 192.5C16.5812 191.865 17.0492 191.464 17.4837 191.063C23.1322 185.647 28.9143 180.298 35.3316 175.584C37.103 174.28 37.103 174.213 38.7407 175.684C42.9186 179.395 47.0297 183.173 51.2744 186.817C52.3774 187.82 52.3105 188.288 50.9402 189.023C42.2836 193.737 35.0308 199.788 29.1817 207.177C28.3127 208.28 27.544 209.45 26.7753 210.587ZM29.4825 162.713C35.6992 158.133 42.8184 155.525 50.8399 154.823C51.9763 154.723 53.0792 154.656 54.0485 154.589C56.9229 154.723 59.5967 154.99 62.2706 155.425C62.6382 155.491 63.173 155.491 63.2399 155.893C63.2733 156.294 62.7719 156.428 62.4377 156.628C58.0927 159.102 53.7811 161.676 49.6367 164.485C46.2275 166.825 42.7515 169.165 39.4426 171.672C38.1391 172.642 37.3704 172.542 36.2674 171.472C34.0281 169.399 31.5882 167.46 29.2486 165.421C27.778 164.05 27.8114 163.95 29.4825 162.713ZM16.4141 189.358C16.3807 188.622 16.4141 187.853 16.4141 187.118C16.7149 179.228 19.6562 172.241 25.4718 166.223C26.3073 165.354 26.909 165.32 27.778 166.123C30.2513 168.329 32.758 170.569 35.3316 172.776C36.4345 173.678 36.1003 174.28 35.0976 175.015C29.7833 178.827 25.0373 183.139 20.2578 187.452C19.3888 188.221 18.5866 189.09 17.7845 189.892C17.5171 190.126 17.2497 190.528 16.8486 190.427C16.247 190.26 16.4475 189.759 16.4141 189.358ZM7.38988 220.616C6.5543 220.549 5.6853 220.516 4.88314 220.349C1.97534 219.78 0.504719 217.942 0.772104 215.334C1.03949 212.726 2.24272 210.419 3.54622 208.146C6.45403 203.265 10.0303 198.819 14.0411 194.64C14.3753 194.305 14.6427 193.737 15.1775 193.871C15.8459 194.005 15.8125 194.64 15.9128 195.108C17.0492 201.46 19.957 207.076 24.7365 211.957C25.5052 212.693 24.6696 214.966 23.199 215.768C18.3192 218.242 13.1721 220.315 7.38988 220.616ZM39.3758 221.92C35.0976 223.892 30.8529 225.898 26.0065 226.467C25.7057 226.5 25.4383 226.5 25.2712 226.5C22.096 226.5 20.4917 224.962 21.2939 222.388C22.1629 219.546 23.0653 216.571 26.6082 215.133C27.3769 214.832 27.9117 214.732 28.6135 215.234C31.7887 217.574 35.2647 219.513 39.1084 220.883C39.7434 221.084 40.4453 221.418 39.3758 221.92ZM41.6151 220.549C41.3143 220.482 40.9467 220.382 40.579 220.248C36.9693 218.878 33.5936 217.206 30.4518 215.167C29.3488 214.431 29.048 213.896 30.385 213.094C39.8771 207.411 47.1299 199.955 52.9456 191.33C54.0485 189.692 54.2156 189.658 55.7531 191.063C59.8976 194.707 64.0086 198.417 68.1531 202.095C69.0889 202.931 69.0889 203.466 68.0528 204.268C60.3655 209.985 52.3774 215.334 43.6874 219.881C43.0857 220.148 42.4841 220.549 41.6151 220.549ZM79.1158 213.93C74.2026 217.975 68.387 220.482 61.8027 221.686C59.697 222.087 57.5914 222.354 55.4189 222.388C51.7757 222.522 48.2329 221.987 44.69 221.318C44.3892 221.251 43.8879 221.084 43.8545 220.917C43.7208 220.349 44.3892 220.248 44.7569 220.014C51.6421 216.136 58.3267 212.058 64.6436 207.477C66.0474 206.474 67.4177 205.472 68.7881 204.402C69.5902 203.8 70.2253 203.7 70.994 204.402C73.835 206.976 76.6759 209.517 79.5503 212.091C80.4862 212.927 79.7843 213.428 79.1158 213.93ZM91.9503 188.555C91.4155 196.712 88.7417 204.168 82.7589 210.587C81.8565 211.556 81.2215 211.623 80.2522 210.687C77.6786 208.246 75.0382 205.873 72.3644 203.499C71.4954 202.73 71.6291 202.262 72.4981 201.593C78.7816 196.98 84.6306 191.932 90.2791 186.683C90.6134 186.382 90.9476 185.847 91.4824 186.014C92.1508 186.215 91.8835 186.884 91.9503 187.352C91.9837 187.753 91.9503 188.154 91.9503 188.555ZM105.52 168.496C102.211 173.411 97.9999 177.723 93.9557 182.136C93.6883 182.404 93.4209 182.872 92.8861 182.705C92.4517 182.571 92.4851 182.136 92.3848 181.802C91.0479 175.584 88.0064 170.034 83.2937 165.153C82.3244 164.15 82.6921 162.278 84.4635 161.242C90.2457 157.932 96.3956 155.391 102.713 154.856C107.759 154.856 109.798 156.929 109.13 160.707C108.628 163.515 107.191 166.056 105.52 168.496Z" fill="#8BA0A6"/>
<path d="M119.357 74.5203C118.99 74.1191 118.656 74.5203 118.321 74.6874C116.383 75.657 115.614 75.2558 115.514 73.3168C115.447 72.3807 115.714 71.5449 116.115 70.6757C116.45 69.9402 116.717 69.2047 116.984 68.4357C117.118 68.0346 117.218 67.4662 116.55 67.3325C115.982 67.1988 115.848 67.7337 115.714 68.1014C115.347 69.1378 114.845 69.1044 113.943 68.4357C112.74 67.5331 111.436 67.7003 110.266 68.536C108.562 69.7396 107.893 71.3777 107.86 73.2165C107.893 74.42 107.927 75.6235 109.063 76.3925C110.333 77.2951 111.737 76.9608 113.074 75.3895C113.876 74.4869 114.311 74.4534 114.979 75.4564C116.082 77.0945 117.954 76.9608 119.123 75.2892C119.291 75.0552 119.591 74.7877 119.357 74.5203ZM114.11 71.6452C113.542 72.6147 112.974 73.5842 112.339 74.5203C111.937 75.1221 111.47 75.9578 110.433 75.657C109.364 75.3895 109.464 74.4534 109.397 73.7848C109.431 72.2804 109.798 70.9765 110.701 69.8733C111.302 69.1712 111.971 68.4023 113.074 68.9707C114.177 69.5724 114.778 70.4751 114.11 71.6452Z" fill="#8BA0A6"/>
<path d="M122.967 108.62C122.9 107.985 122.666 107.35 122.365 106.748C121.296 104.609 119.023 104.174 117.051 105.678C116.149 106.381 115.48 107.216 114.945 108.186C112.873 111.897 112.138 115.908 111.937 119.586C111.937 121.324 111.871 122.628 112.338 123.865C112.94 125.503 114.411 125.971 116.048 125.035C116.951 124.5 117.686 123.832 118.321 123.029C122.031 118.817 123.435 113.969 122.967 108.62ZM116.851 123.665C116.75 123.765 116.65 123.899 116.516 123.999C115.915 124.467 115.313 125.035 114.444 124.801C113.508 124.567 113.341 123.731 113.174 122.996C112.94 121.659 113.04 120.321 113.308 118.984C114.143 115.34 115.881 112.231 119.19 109.857C119.591 109.557 120.36 109.189 119.925 108.687C119.391 108.119 118.789 108.654 118.321 108.988C117.218 109.757 116.316 110.76 115.547 111.796C115.213 112.198 114.879 112.632 114.511 113.067C114.377 113 114.21 112.9 114.076 112.833C114.912 110.426 115.48 107.885 117.753 106.046C118.756 105.21 119.692 105.411 120.561 106.147C121.63 107.083 121.931 108.32 122.031 109.59C122.399 114.839 120.761 119.586 116.851 123.665Z" fill="#8BA0A6"/>
<path d="M154.953 74.2194C154.518 73.8182 154.117 74.4534 153.716 74.654C152.011 75.6904 151.276 75.4898 150.708 73.7179C150.273 72.3807 150.207 71.1102 151.209 69.9067C151.577 69.4721 151.778 68.9372 152.011 68.4357C152.145 68.1683 152.245 67.8005 151.911 67.5999C151.544 67.3993 151.31 67.7002 151.076 67.9343C150.909 68.1348 150.775 68.3354 150.641 68.536C149.638 69.9401 149.638 69.9401 148.703 68.536C147.433 66.6304 145.995 66.4967 144.324 68.1348C143.021 69.3718 142.686 70.9431 142.553 72.1466V72.9824C142.686 74.8211 143.589 76.2921 144.892 76.4927C146.664 76.7602 147.466 75.5901 148.301 74.4868C148.502 74.2194 148.669 73.7513 149.07 73.7513C149.672 73.7513 149.638 74.2862 149.772 74.654C150.741 76.6599 152.713 76.9942 154.418 75.4229C154.786 75.122 155.421 74.6874 154.953 74.2194ZM147.8 73.183C147.433 73.5842 147.199 74.0857 146.831 74.5537C146.463 75.0552 146.096 75.6235 145.293 75.4898C144.424 75.3226 144.358 74.5871 144.224 73.9519C144.157 73.6845 144.157 73.3836 144.157 73.183C144.257 71.6452 144.625 70.241 145.427 68.9372C146.263 67.6334 146.864 67.6334 147.767 68.9038C148.736 70.3413 149.204 71.7454 147.8 73.183Z" fill="#8BA0A6"/>
<path d="M264.948 195.275C265.717 194.539 266.653 194.707 267.555 194.84C271.065 195.275 274.541 195.977 277.95 196.98C284.635 198.886 291.42 200.323 298.338 201.226C301.146 201.593 303.953 202.095 306.794 202.028C310.771 201.928 312.677 198.986 311.005 195.342C308.098 189.09 303.552 184.376 297.436 181.167C294.26 179.495 290.818 178.659 287.375 177.757C281.393 176.186 275.577 174.146 269.828 171.873C265.283 170.068 260.771 168.129 256.258 166.29C253.819 165.287 251.546 164.016 249.373 162.545C247.903 161.543 246.432 160.54 244.794 159.838C244.293 159.603 243.792 159.303 243.357 158.935C238.945 155.358 234.467 151.914 230.122 148.237C226.946 145.529 223.671 142.888 220.362 140.347C215.148 136.302 209.733 132.524 204.352 128.713C200.442 125.971 196.13 124.567 191.351 124.968C186.672 125.336 183.196 127.676 181.023 131.822C179.085 135.499 177.915 139.444 177.046 143.456C175.709 149.574 175.04 155.792 174.439 162.011C174.205 164.418 173.837 166.791 173.57 169.198C173.469 169.967 173.269 170.636 172.266 170.469C172.132 170.001 172.099 169.399 171.464 169.399C170.862 169.399 170.729 169.967 170.595 170.435C170.528 170.536 170.461 170.669 170.428 170.803C165.414 170.402 160.468 169.432 155.454 168.897C154.752 167.46 154.752 167.46 153.416 168.53C152.413 168.062 152.647 167.092 152.613 166.29C152.346 162.579 152.379 162.512 156.023 163.281C159.766 164.05 163.61 164.284 167.386 164.886C168.289 165.019 169.225 164.919 170.562 164.919C169.459 164.117 168.523 164.418 167.687 164.284C166.785 164.117 165.882 163.916 164.98 163.849C161.103 163.548 157.259 162.679 153.416 162.178C152.58 162.077 152.58 161.543 152.58 161.008C152.613 159.603 152.647 158.166 152.781 156.762C152.981 154.789 153.215 152.817 153.583 150.844C154.418 146.03 155.287 141.216 156.257 136.402C157.861 128.245 161.069 120.723 164.713 113.301C167.119 108.42 170.796 104.809 175.141 101.767C184.532 95.1141 194.693 94.5123 205.322 98.0226C208.631 99.0924 211.839 100.396 215.048 101.767C219.961 103.873 224.105 106.982 227.615 110.994C227.882 111.295 228.183 111.629 228.618 111.73C228.718 112.064 228.885 112.398 228.952 112.732C230.021 117.212 230.957 121.726 234.099 125.37C234.333 125.637 234.433 126.005 234.6 126.306C237.441 132.257 240.884 137.906 243.524 143.958C245.596 148.705 248.504 153.017 251.345 157.33C253.117 160.072 253.083 160.072 256.325 159.537C265.283 158.132 274.106 156.026 282.93 153.887C283.866 153.653 284.701 153.686 285.604 153.92C288.712 154.656 291.687 155.926 294.896 156.06C298.773 156.227 302.65 156.862 306.56 156.461C307.195 156.394 307.897 156.294 308.432 156.662C310.17 157.832 312.175 158.634 313.813 159.971C313.378 160.105 313.011 160.239 313.211 160.84C313.479 161.643 313.913 162.378 314.415 163.08C316.754 166.29 319.127 169.466 321.333 172.775C323.773 176.42 326.647 179.796 329.054 183.474C332.664 188.99 334.535 195.175 335.404 201.393C335.672 199.487 335.304 197.348 334.535 195.241C334.001 193.771 333.599 192.266 333.098 190.795C332.095 187.82 330.859 184.978 328.987 182.437C326.881 179.596 324.843 176.687 322.737 173.845C320.498 170.803 318.693 167.527 316.253 164.618C315.117 163.281 314.147 161.777 313.78 159.971C314.314 159.871 314.749 160.105 315.183 160.272C319.495 161.91 323.907 162.512 328.452 161.676C329.99 161.409 331.494 161.074 332.998 160.774C335.371 164.886 337.744 168.998 340.084 173.143C341.521 175.684 342.256 178.526 343.259 181.267C345.632 187.586 347.002 194.172 347.637 200.891C347.871 203.499 347.704 206.14 347.336 208.748C346.634 213.495 344.362 217.473 340.551 220.415C337.343 222.889 333.934 225.096 329.823 225.798C326.447 226.366 323.071 226.6 319.662 226.266C315.016 225.798 310.404 224.996 305.758 224.527C300.912 224.026 296.132 222.856 291.453 221.418C287.175 220.115 282.796 219.312 278.451 218.276C273.772 217.139 268.993 216.404 264.38 214.966C263.11 214.565 261.807 214.164 260.57 213.629C259.968 213.395 259.133 213.261 259.133 212.292C260.871 211.723 260.938 211.59 259.801 210.252C259.634 210.052 259.467 209.818 259.3 209.617C259.467 209.249 259.668 208.882 259.801 208.48C261.339 204.502 262.843 200.524 264.38 196.512C264.848 196.211 265.316 195.977 264.948 195.275ZM179.118 111.696C179.586 111.161 180.054 112.331 180.555 111.663C180.689 111.395 180.522 111.128 180.355 110.927C179.987 110.559 179.72 109.724 179.151 110.025C178.383 110.426 179.385 110.894 179.352 111.395C179.318 111.529 179.185 111.596 179.118 111.696C178.917 112.198 178.617 111.997 178.316 111.796C177.848 111.462 177.58 110.793 176.645 110.66C177.213 111.663 177.781 112.264 178.449 112.732C178.884 112.432 178.449 111.763 179.118 111.696ZM163.108 161.843C164.278 160.339 164.278 160.172 164.679 157.297C165.949 147.735 168.155 138.475 172.3 129.716C173.67 126.807 175.007 123.899 177.113 121.458C180.321 117.781 184.399 115.708 189.212 114.471C195.796 112.799 201.979 113.401 208.196 115.775C213.042 117.647 217.02 120.89 221.298 123.631C222.067 124.133 222.768 124.734 223.47 125.336C229.052 130.251 234.132 135.733 239.647 140.748C239.915 140.982 240.115 141.517 240.717 141.082C239.714 139.745 238.511 138.642 237.274 137.606C234.634 135.433 232.394 132.858 229.954 130.485C225.91 126.573 221.833 122.762 216.953 119.887C216.351 119.519 215.75 119.118 215.181 118.717C210.836 115.741 206.024 113.936 200.876 113C196.364 112.164 191.986 113.1 187.641 114.203C181.992 115.641 177.614 118.917 174.706 123.865C171.163 129.883 168.656 136.335 166.852 143.122C165.114 149.34 164.479 155.692 163.108 161.843ZM269.728 196.144C267.154 200.958 264.247 210.486 264.614 212.559C266.085 206.909 267.99 201.527 269.728 196.144ZM314.014 176.654C312.175 177.322 311.941 177.556 311.64 179.094C312.376 178.024 313.412 177.69 314.014 176.654ZM182.995 108.42C182.594 109.155 182.494 109.657 183.062 110.192C183.43 109.59 183.363 109.122 182.995 108.42ZM321.968 200.591C322.269 201.192 322.67 201.393 323.506 201.192C322.971 200.724 322.637 200.323 321.968 200.591Z" fill="#8BA0A6"/>
<path d="M346.2 82.9116C347.403 84.7838 347.537 87.0237 348.105 89.0964C349.141 92.6736 349.743 96.3511 350.177 100.029C350.244 100.53 350.344 100.998 349.943 101.399C349.174 100.965 348.606 101.199 348.205 101.901C343.225 101.8 338.379 102.971 333.466 103.271C332.63 102.235 332.496 102.268 331.761 103.639C331.226 103.639 330.725 103.539 330.825 102.837C330.959 102.001 330.959 101.165 330.825 100.296C330.257 96.1505 329.689 92.005 329.154 87.8929C328.953 86.2213 328.285 84.7503 327.082 83.5802C326.514 83.0119 325.912 82.477 325.043 82.8113C324.207 83.1456 323.606 83.714 323.572 84.7169C323.505 86.0542 323.305 87.4249 323.372 88.7621C323.606 92.9411 324.107 97.0866 324.375 101.266C324.742 106.548 325.21 111.863 325.845 117.145C326.38 121.625 326.681 126.172 327.182 130.685C327.349 132.323 327.55 133.928 327.516 135.566C327.483 137.004 327.617 138.408 327.984 139.779C326.179 141.383 324.04 141.617 321.801 141.183C320.464 140.915 319.227 140.414 318.024 139.745C315.751 138.408 313.579 136.97 311.607 135.198C311.34 134.964 310.805 134.764 311.139 134.162C312.944 133.962 314.815 134.229 316.62 133.828C318.492 133.393 320.397 133.126 322.302 133.159C323.372 133.159 324.408 132.892 325.411 132.524C325.879 132.357 326.38 132.089 326.246 131.488C326.079 130.819 325.511 130.886 325.043 131.02C322.035 131.855 318.893 131.922 315.818 132.491C312.142 133.193 308.331 133.828 305.524 130.184C305.223 129.816 304.722 129.582 304.354 129.248C302.683 127.743 300.711 126.573 298.906 124.634C302.014 125.436 304.755 125.169 307.529 125.169C310.437 125.169 313.345 124.734 316.253 124.634C318.826 124.534 321.333 124.166 323.873 123.765C324.675 123.631 325.845 123.564 325.578 122.394C325.344 121.391 324.374 121.826 323.572 121.96C316.854 123.063 310.069 123.899 303.251 123.865C299.976 123.865 296.734 123.23 293.826 121.625C291.52 120.355 289.247 119.084 286.807 118.115C286.506 117.981 286.105 117.981 286.038 117.547C286.172 117.313 286.372 117.313 286.573 117.313C293.09 117.279 299.608 116.911 306.159 116.677C311.373 116.51 316.42 115.307 321.5 114.471C321.834 114.404 322.202 114.337 322.536 114.203C323.071 113.969 323.572 113.602 323.338 112.9C323.171 112.331 322.637 112.264 322.102 112.298C321.901 112.331 321.667 112.365 321.467 112.398C318.96 112.933 316.487 113.435 313.98 113.969C312.175 114.337 310.37 114.705 308.499 114.805C301.981 115.206 295.464 115.741 288.946 115.942C287.509 115.975 286.105 116.042 284.701 115.808C283.231 115.574 281.76 115.407 280.256 115.273C279.721 115.206 279.22 115.173 278.852 115.842C278.284 116.845 277.883 116.845 277.382 115.875C276.579 114.371 275.811 112.833 275.109 111.295C274.541 110.058 273.906 108.888 273.204 107.718C271.833 105.511 271.833 105.545 269.561 106.581C267.622 107.45 265.717 108.386 263.678 109.022C263.778 105.277 263.912 101.533 263.946 97.7886C263.979 95.5153 263.912 93.2754 263.478 91.0355C263.344 90.4003 263.244 89.7985 262.843 89.2636C261.94 88.1269 261.105 88.0935 260.369 89.3304C259.835 90.2331 259.5 91.2695 259.099 92.239C257.963 91.6372 256.76 91.8713 255.59 92.1053C250.944 92.9745 246.365 93.0079 241.953 91.1023C241.619 90.9686 241.251 91.0689 240.95 91.2026C240.683 88.4278 241.051 85.6864 241.418 82.945C242.154 77.83 243.09 72.715 245.262 67.9677C246.532 65.1595 248.136 62.6187 250.509 60.5794C252.214 59.1084 253.751 57.4368 255.757 56.3001C260.202 53.8262 264.948 53.1241 269.928 53.3916C270.229 54.0602 270.53 54.7288 270.864 55.3975C270.229 56.6344 270.764 57.5705 271.7 58.3729C273.17 59.7101 274.942 60.3119 276.88 60.5794C283.164 61.4151 289.147 60.5793 294.728 57.4034C297.202 55.9992 299.575 54.4279 300.41 51.4191C301.48 50.6502 301.48 50.6502 300.644 49.547C301.246 49.012 301.981 49.1123 302.683 49.1792C308.097 49.781 313.579 49.9816 318.96 50.8508C325.578 51.9206 330.925 55.1969 335.137 60.245C338.446 64.2234 341.086 68.6363 343.091 73.5173C344.128 76.0247 344.829 78.5989 345.966 81.0394C346.267 81.6746 346.467 82.3767 346.3 83.1122C345.665 82.243 344.93 82.0758 343.927 82.6441C342.757 83.3128 341.42 83.6137 340.117 83.9145C337.343 84.5497 334.635 85.2852 331.895 85.9873C331.36 86.121 330.591 86.2213 330.725 86.9568C330.859 87.8595 331.694 87.5586 332.296 87.4917C332.496 87.4583 332.697 87.3914 332.931 87.358C336.039 86.6225 339.147 85.887 342.222 85.1515C343.626 84.6166 345.063 84.0817 346.2 82.9116ZM250.509 71.5449C251.345 70.0739 253.083 69.3718 253.518 67.5665C252.147 68.8369 250.777 70.0739 249.407 71.3443C248.27 71.01 247.134 70.6757 245.964 70.3748C245.463 70.2411 244.928 70.3079 244.761 70.9097C244.627 71.478 244.995 71.8458 245.463 72.0464C245.864 72.2135 246.265 72.3138 246.666 72.4475C248.738 73.0827 250.844 73.6845 252.983 73.9854C252.448 75.2892 251.88 76.5596 251.378 77.8634C251.178 78.3649 251.078 78.8664 251.579 79.5016C252.348 77.3954 252.916 75.4564 254.119 73.7848C256.091 74.0188 258.063 74.186 260.035 74.4534C266.753 75.3895 273.471 74.9883 280.189 74.3531C283.665 74.0188 287.074 73.4505 290.517 72.9824C296.433 72.2135 302.315 71.3443 308.064 69.7396C310.671 69.0375 313.245 68.2017 315.852 67.5331C321.132 66.1958 326.313 64.3571 331.56 62.9196C332.329 62.719 332.998 62.3512 333.633 61.8497C334.134 61.4486 334.401 60.9471 334.067 60.3788C333.733 59.777 333.165 59.7436 332.597 60.0779C331.694 60.6796 330.691 61.014 329.655 61.3148C327.349 61.9835 325.01 62.6187 322.703 63.3207C316.119 65.3266 309.568 67.3325 302.817 68.8035C298.304 69.773 293.726 70.3748 289.18 71.0434C279.955 72.3807 270.764 73.4839 261.439 72.5144C257.863 72.1467 254.153 71.8458 250.509 71.5449ZM285.437 86.5891C290.25 86.0876 295.33 85.653 300.41 85.0178C307.73 84.0817 314.916 82.4101 322.001 80.3039C328.318 78.3983 334.535 76.1919 340.785 74.1525C340.919 74.1191 341.053 74.0857 341.186 74.0188C341.688 73.7514 341.922 73.3168 341.821 72.7819C341.721 72.2135 341.253 71.9461 340.718 72.0129C340.25 72.0798 339.783 72.2804 339.281 72.4141C332.062 74.7543 324.976 77.3954 317.623 79.3679C310.838 81.1732 303.986 82.6776 297.001 83.4131C293.191 83.8143 289.414 84.4829 285.57 84.5163C283.298 84.5497 281.025 84.0817 278.785 84.0817C269.828 84.0817 260.904 83.3462 251.98 83.1791C249.841 83.1456 247.735 82.9785 245.697 82.2095C244.828 81.8752 243.892 81.8084 242.989 81.9087C242.622 81.9421 242.321 82.1427 242.354 82.5773C242.354 82.9116 242.622 83.1122 242.889 83.1791C244.761 83.6471 246.599 84.1151 248.471 84.4829C251.412 85.0512 254.42 84.7169 257.395 84.9844C262.976 85.4858 268.591 85.7867 274.173 85.7198C276.88 85.6864 279.554 86.0207 282.228 86.2882C283.164 86.3885 284.167 86.4553 285.437 86.5891ZM271.767 66.363C274.374 66.363 277.014 66.3964 279.621 66.363C282.328 66.3296 284.969 65.6944 287.609 65.1595C291.085 64.4908 294.494 63.5548 297.77 62.1506C300.644 60.9137 303.518 59.6767 306.46 58.7406C311.406 57.2028 316.32 55.6649 321.4 54.5617C321.935 54.4279 322.469 54.1939 322.971 53.9265C323.272 53.7593 323.439 53.3916 323.305 52.9904C323.171 52.6226 322.937 52.3552 322.536 52.3552C322.202 52.3552 321.834 52.3886 321.5 52.4889C313.077 54.4614 304.789 56.835 296.8 60.245C291.085 62.6855 285.069 63.9894 278.886 64.3571C274.908 64.5911 270.931 64.4574 266.987 64.5243C262.007 64.6246 257.261 63.8891 252.682 62.0169C252.348 61.8832 252.014 61.7829 251.679 61.6826C251.245 61.5154 250.81 61.5489 250.61 62.0503C250.409 62.5852 250.844 62.8527 251.245 62.9864C253.35 63.8222 255.423 64.658 257.629 65.2598C262.274 66.5636 267.02 66.3964 271.767 66.363ZM302.182 105.946C307.897 106.013 313.245 105.578 318.559 104.441C319.862 104.141 321.199 103.873 322.503 103.539C323.038 103.405 323.338 103.004 323.205 102.402C323.071 101.8 322.603 101.633 322.068 101.734C321.634 101.8 321.233 101.901 320.832 102.001C317.456 102.77 314.013 103.372 310.571 103.806C307.73 104.174 304.889 103.873 302.081 104.207C298.538 104.642 294.996 104.742 291.453 104.408C283.398 103.673 275.276 104.308 267.221 103.205C266.954 103.171 266.653 103.171 266.385 103.171C265.917 103.205 265.282 103.071 265.282 103.806C265.282 104.308 265.784 104.441 266.218 104.475C268.558 104.742 270.864 105.177 273.204 105.244C277.448 105.311 281.727 105.545 285.971 105.745C291.419 105.979 296.934 106.882 302.182 105.946ZM282.696 95.8162C289.581 96.1171 295.397 94.9804 301.246 94.4455C307.462 93.8771 313.612 92.8742 319.762 91.7041C321.433 91.4032 322.068 90.9686 321.767 90.1662C321.266 88.8958 320.297 89.4308 319.428 89.5979C313.545 90.8349 307.596 91.7375 301.613 92.5733C298.171 93.0414 294.695 93.2419 291.252 93.7434C286.272 94.4789 281.192 94.6461 276.212 93.7768C273.07 93.2419 269.895 92.9745 266.72 92.5399C266.218 92.473 265.717 92.5064 265.249 92.5399C265.049 92.5399 264.848 92.707 264.881 92.9745C264.881 93.1751 264.948 93.4091 265.182 93.476C265.583 93.5763 265.984 93.6766 266.419 93.7768C268.625 94.2783 270.931 94.1112 273.17 94.6461C276.613 95.4818 280.089 96.0836 282.696 95.8162ZM333.365 95.9499C335.204 95.7493 337.075 95.7159 338.88 95.4484C341.521 95.0472 344.128 94.3117 346.768 93.6431C347.403 93.476 348.406 93.2419 348.105 92.3393C347.771 91.3363 346.868 91.7041 346.1 91.9381C345.698 92.0718 345.264 92.1721 344.863 92.2724C341.988 92.9745 339.147 93.944 336.106 94.0443C334.836 94.0777 333.599 94.4455 332.296 94.3786C331.761 94.3452 331.26 94.4789 331.26 95.1475C331.26 95.7827 331.761 95.9499 332.296 95.9499C332.663 95.9499 332.998 95.9499 333.365 95.9499ZM318.86 71.5449C316.721 72.0129 316.721 72.0129 316.052 73.4505C316.921 72.8153 317.69 72.3138 318.86 71.5449ZM320.497 73.6511C321.567 74.3531 321.567 74.3531 322.536 74.2194C321.968 73.6845 321.366 73.5842 320.497 73.6511Z" fill="#8BA0A6"/>
<path d="M348.172 101.901C348.606 101.199 349.174 100.965 349.91 101.399C351.614 113.836 351.18 126.306 349.575 138.675C348.84 144.192 346.701 149.34 343.292 153.82C341.052 156.795 337.911 158.567 334.535 159.971C334 160.172 333.499 160.406 332.998 160.64C331.493 160.941 329.956 161.275 328.452 161.543C323.906 162.378 319.495 161.777 315.183 160.138C314.715 159.971 314.281 159.704 313.779 159.838L313.813 159.871C312.175 158.534 310.17 157.731 308.432 156.561C307.897 156.193 307.195 156.294 306.56 156.361C302.649 156.762 298.772 156.127 294.895 155.959C291.687 155.826 288.678 154.555 285.604 153.82C284.668 153.586 283.832 153.586 282.93 153.786C274.106 155.893 265.316 158.032 256.325 159.436C253.083 159.938 253.15 159.938 251.345 157.23C248.504 152.884 245.596 148.605 243.524 143.857C240.883 137.806 237.441 132.156 234.6 126.205C234.433 125.871 234.333 125.537 234.099 125.269C230.99 121.625 230.054 117.112 228.951 112.632C228.885 112.298 228.717 111.964 228.617 111.629C228.383 109.356 227.681 107.183 227.113 105.01C226.177 101.5 225.676 97.9223 225.475 94.3117C225.442 93.7434 225.475 93.1751 225.576 92.6067C225.676 92.0384 226.144 91.6372 226.645 91.9381C228.25 92.9076 229.62 91.9047 231.024 91.4366C232.093 91.0689 232.996 90.0325 234.165 90.4002C235.335 90.7346 235.268 92.1387 235.837 93.0079C237.641 95.7827 239.346 98.591 241.385 101.834C241.385 99.9617 241.385 98.591 241.385 97.2203C242.588 96.4179 242.755 96.4848 243.156 97.8889C243.089 99.7945 243.023 101.7 242.989 103.606C242.989 104.375 243.023 105.144 243.424 105.879C244.66 108.186 246.031 110.392 247.067 112.799C247.368 113.535 247.869 113.635 248.571 113.468C250.543 112.967 252.515 112.465 254.52 111.964C255.356 111.763 255.322 111.128 255.356 110.493C255.523 106.681 255.69 102.87 255.857 99.059C256.492 98.4238 257.094 98.5575 257.662 99.1593C257.461 103.138 256.793 107.116 257.027 111.262C259.433 110.693 261.606 109.924 263.678 108.921C265.717 108.286 267.622 107.35 269.56 106.481C271.867 105.444 271.833 105.444 273.204 107.617C273.939 108.754 274.541 109.958 275.109 111.195C275.811 112.732 276.579 114.27 277.381 115.775C277.916 116.744 278.317 116.778 278.852 115.741C279.22 115.039 279.755 115.106 280.256 115.173C281.726 115.307 283.231 115.507 284.701 115.708C286.105 115.942 287.542 115.875 288.946 115.842C295.463 115.641 301.981 115.073 308.498 114.705C310.337 114.605 312.142 114.237 313.98 113.869C316.487 113.368 318.96 112.833 321.467 112.298C321.667 112.264 321.868 112.198 322.102 112.198C322.636 112.164 323.138 112.231 323.338 112.799C323.572 113.501 323.071 113.836 322.536 114.103C322.202 114.237 321.868 114.304 321.5 114.371C316.386 115.206 311.373 116.377 306.159 116.577C299.641 116.811 293.124 117.179 286.573 117.212C286.372 117.212 286.172 117.212 286.038 117.446C286.105 117.881 286.506 117.914 286.807 118.015C289.247 118.984 291.553 120.255 293.826 121.525C296.733 123.13 299.976 123.765 303.251 123.765C310.069 123.798 316.854 122.963 323.572 121.859C324.341 121.726 325.344 121.324 325.578 122.294C325.845 123.464 324.642 123.531 323.873 123.665C321.366 124.066 318.826 124.467 316.253 124.534C313.345 124.634 310.47 125.069 307.529 125.069C304.788 125.069 302.014 125.336 298.906 124.534C300.711 126.506 302.683 127.676 304.354 129.147C304.722 129.482 305.223 129.682 305.524 130.083C308.298 133.727 312.141 133.092 315.818 132.39C318.893 131.788 322.035 131.755 325.043 130.919C325.511 130.786 326.112 130.752 326.246 131.387C326.413 132.022 325.912 132.257 325.41 132.424C324.408 132.791 323.372 133.092 322.302 133.059C320.364 133.025 318.492 133.326 316.62 133.727C314.815 134.129 312.944 133.861 311.139 134.062C310.805 134.664 311.339 134.864 311.607 135.098C313.579 136.87 315.751 138.308 318.024 139.645C319.194 140.347 320.464 140.815 321.801 141.082C324.04 141.517 326.179 141.283 327.984 139.678C328.719 139.21 329.187 138.542 329.655 137.806C331.56 134.73 331.928 131.287 331.961 127.81C331.995 120.656 331.995 113.535 331.961 106.381C331.961 105.478 332.028 104.542 331.761 103.639C332.496 102.268 332.596 102.235 333.465 103.271C333.432 104.04 333.399 104.843 333.399 105.612C333.666 113.067 333.766 120.522 333.699 127.977C333.666 131.554 333.265 135.031 331.427 138.241C329.288 142.019 325.344 143.69 321.132 142.587C317.523 141.617 314.615 139.478 311.774 137.271C307.563 133.995 303.485 130.618 299.34 127.275C294.895 123.698 289.982 120.89 284.634 118.917C282.696 118.215 280.757 117.914 278.685 118.182C278.752 119.018 279.22 119.486 279.487 120.054C280.757 122.729 280.624 123.364 278.217 125.069C277.649 125.47 277.047 125.838 276.412 126.172C274.808 126.941 273.17 127.61 271.599 128.412C270.363 129.047 269.026 129.515 268.09 130.719C268.825 131.053 269.427 130.786 270.028 130.585C272.502 129.749 275.008 128.98 277.515 128.178C278.117 127.977 278.852 127.509 279.186 128.245C279.521 129.047 278.585 129.248 278.05 129.482C275.978 130.418 273.905 131.32 271.833 132.19C270.663 132.691 269.594 133.326 268.792 134.563C269.794 134.864 270.563 134.73 271.365 134.463C273.371 133.761 275.376 133.092 277.415 132.424C277.95 132.257 278.484 132.022 279.019 131.889C279.42 131.788 279.721 131.956 279.855 132.323C279.955 132.624 279.855 132.892 279.654 133.092C279.32 133.36 278.986 133.594 278.618 133.828C276.98 134.831 275.343 135.8 273.705 136.837C272.836 137.372 272.034 137.973 271.332 139.177C272.769 138.909 273.705 138.475 274.641 138.007C276.446 137.037 278.384 136.268 280.022 134.998C280.456 134.664 280.991 134.563 281.359 135.065C281.726 135.566 281.392 136.001 280.958 136.302C280.323 136.736 279.621 137.104 279.019 137.606C277.549 138.843 275.744 139.879 275.176 142.052C276.345 142.286 277.181 141.651 278.05 141.283C281.225 139.845 284.334 138.341 287.375 136.669C289.314 135.6 289.514 135.667 291.018 137.238C292.522 138.843 294.026 140.447 295.497 142.085C297.168 143.924 298.739 145.863 300.577 147.535C302.349 149.173 304.254 150.677 305.992 152.349C307.73 154.054 310.404 154.321 311.908 156.394C312.008 156.561 312.275 156.595 312.442 156.728C317.957 160.038 323.873 160.74 330.09 159.436C337.075 157.999 342.222 154.154 345.197 147.568C347.303 142.854 348.573 137.94 348.873 132.791C349.275 122.428 349.676 112.164 348.172 101.901ZM234.366 121.993C236.137 120.054 237.575 118.048 237.575 115.307C237.575 113.869 237.541 112.465 237.341 111.061C236.505 105.378 234.901 99.8279 234.433 94.0777C234.399 93.5762 234.199 93.1082 234.065 92.6402C233.865 91.9715 233.53 91.7041 232.829 92.0718C231.625 92.707 230.389 93.1751 229.052 93.4091C228.25 93.5428 228.016 94.0108 228.216 94.7798C228.751 96.8191 229.219 98.8919 229.787 100.965C231.692 107.885 233.998 114.672 234.366 121.993ZM237.307 121.324C237.942 121.659 238.377 121.358 238.845 121.258C249.172 118.55 259.3 115.206 269.527 112.164C271.967 111.429 272 111.328 271.399 108.955C271.298 108.52 271.332 107.985 270.764 107.617C266.385 109.724 261.873 111.562 257.161 112.866C253.551 113.869 249.874 114.571 246.231 115.574C242.722 116.51 239.747 118.483 237.307 121.324ZM287.007 152.817C293.024 154.522 302.415 155.124 304.922 153.987C302.516 151.948 300.143 149.942 297.97 147.735C297.602 147.368 297.235 147 296.7 147.134C294.828 147.635 292.89 147.434 290.985 147.434C290.216 147.434 289.915 147.702 289.715 148.471C289.314 150.076 288.846 151.714 287.007 152.817ZM236.304 96.2508C236.204 98.9921 236.839 101.232 237.341 103.539C238.276 107.818 239.279 112.097 239.112 116.611C241.084 116.009 242.588 114.605 244.426 113.903C244.995 113.669 244.794 113.201 244.593 112.833C243.925 111.496 243.156 110.225 242.588 108.854C240.817 104.642 238.611 100.697 236.304 96.2508ZM296.065 145.696C294.36 143.757 292.923 142.119 291.486 140.481C290.082 138.876 289.848 138.843 287.843 139.478C287.074 139.712 286.773 140.079 287.041 140.848C287.609 142.353 288.177 143.891 288.779 145.395C288.946 145.796 289.113 146.197 289.648 146.197C291.687 146.164 293.725 146.498 296.065 145.696ZM278.585 122.461C278.819 122.194 278.752 121.926 278.618 121.692C277.649 119.619 276.646 117.547 275.51 115.14C275.911 117.112 277.749 121.391 278.585 122.461ZM287.275 146.298C286.606 142.286 286.105 140.949 284.902 139.979C285.604 142.052 286.071 144.158 287.275 146.298ZM273.103 109.69C273.204 110.459 273.07 111.362 273.972 111.863C274.139 111.562 273.939 111.328 273.872 111.061C273.738 110.526 273.304 110.225 273.103 109.69Z" fill="#353434"/>
<path d="M270.797 55.2637C270.497 54.5951 270.196 53.9264 269.861 53.2578C269.795 52.9904 269.795 52.6895 269.694 52.422C268.424 48.7446 268.424 48.6777 264.581 48.6443C259.701 48.5774 256.091 46.2372 253.15 42.5932C252.515 41.7908 252.047 41.5902 251.044 41.8577C249.173 42.3591 247.802 41.3562 248.07 39.4172C248.337 37.6119 247.501 36.4752 246.632 35.1714C245.63 33.6669 244.961 31.9285 243.156 30.9924C242.321 30.5578 242.02 29.5549 242.12 28.5854C242.254 27.2815 241.485 26.2786 240.95 25.2422C240.349 24.1055 239.313 24.139 238.611 25.1753C237.909 26.1783 237.174 27.1144 236.071 27.7161C234.366 28.6522 232.829 28.1842 232.06 26.3789C231.325 24.6739 231.425 22.902 231.793 21.1636C232.595 17.1183 234.934 13.9089 237.675 10.9669C241.953 6.35339 247.034 2.97681 253.083 1.07121C261.472 -1.56988 268.591 0.803761 274.708 6.75457C276.58 8.5933 277.816 11.0004 278.15 13.6749C278.217 14.1095 278.284 14.5107 278.485 14.8784C279.32 16.4497 279.387 18.1881 279.086 19.8597C278.852 21.2304 278.886 22.5342 279.287 23.8381C281.827 32.0622 285.637 39.484 292.756 44.7662C295.196 46.5715 297.603 48.4771 300.577 49.3463C301.413 50.4496 301.413 50.4496 300.343 51.2185C296.333 49.5135 292.823 47.0061 289.514 44.131C283.431 38.8823 280.223 31.8951 277.682 24.5067C277.181 23.0357 276.981 21.4644 277.348 19.8932C277.582 18.9905 277.515 18.0544 277.382 17.1183C277.181 15.6139 276.379 14.5775 275.343 14.4438C274.24 14.2767 273.137 14.9119 272.435 16.1823C272.201 16.6169 272.201 17.2186 271.7 17.4192C268.926 18.5559 266.686 20.5952 263.979 21.899C262.809 22.4674 262.141 23.136 262.141 24.607C262.174 26.3454 260.904 27.4487 259.4 28.0504C257.863 28.6856 256.325 28.5854 255.055 27.315C254.721 26.9806 254.587 26.3789 253.952 26.5126C253.384 26.6463 252.749 26.6798 252.348 26.9806C251.412 27.6827 252.014 28.5185 252.415 29.254C253.217 30.6915 253.083 32.0957 252.448 33.5332C251.98 34.5696 251.479 35.5725 250.844 36.5421C250.51 37.077 250.142 37.6119 249.941 38.2136C249.707 38.8488 249.373 39.6512 250.108 40.1861C250.81 40.721 251.445 40.1527 252.047 39.8518C252.248 39.7515 252.381 39.5843 252.548 39.4506C253.484 38.4811 254.621 37.7456 255.49 36.7092C255.924 36.1743 256.526 35.7731 257.094 35.3051C257.495 34.9708 257.929 35.0711 258.23 35.4388C258.531 35.8066 258.464 36.2412 258.13 36.5755C257.896 36.8095 257.562 37.0101 257.294 37.2441C256.091 38.3474 254.921 39.4506 253.651 40.6207C256.559 44.131 259.801 46.839 264.581 46.8724C265.65 46.8724 266.72 46.9058 267.789 46.9393C268.692 46.9727 269.46 47.2736 269.895 48.1428C270.797 50.015 271.533 51.9206 272.067 53.893C272.301 54.9294 271.833 55.3974 270.797 55.2637ZM268.591 17.5864C266.519 16.5834 265.182 15.2127 264.547 13.0397C263.21 14.2432 261.974 15.2796 260.637 16.2157C259.601 16.9512 258.531 17.2521 257.261 17.1852C256.091 17.1518 255.79 16.1154 255.122 15.3799C253.685 17.3858 252.181 19.0908 250.309 20.3946C249.473 20.963 248.404 21.7319 247.602 21.197C245.897 20.0269 245.295 21.2304 244.426 22.1999C243.992 22.668 243.524 23.1026 242.989 23.4703C241.853 24.2058 242.187 24.8745 242.922 25.6099C243.09 25.5431 243.257 25.5097 243.324 25.4094C246.098 22.7683 247.802 22.668 250.61 25.1085C250.877 25.3425 251.078 25.5765 251.512 25.5097C252.715 25.3425 253.417 24.6739 253.551 23.37C253.785 21.4979 255.389 19.6926 257.328 19.258C259.166 18.8568 260.47 19.6591 261.405 21.197C261.539 21.431 261.706 21.665 262.074 21.7653C264.146 20.4949 266.218 19.1577 268.591 17.5864ZM260.57 23.7712C260.603 22.3671 259.467 20.9295 258.297 20.8961C256.927 20.8627 255.556 22.4674 255.49 24.139C255.456 25.4094 256.459 26.7132 257.462 26.7132C259.032 26.7132 260.503 25.2756 260.57 23.7712ZM246.365 30.7584C247.869 30.7584 249.407 29.1203 249.373 27.5155C249.373 26.5126 248.07 25.2756 246.967 25.2422C245.63 25.1753 244.36 26.78 244.36 28.5854C244.36 29.956 245.095 30.7584 246.365 30.7584ZM248.972 35.8066C250.743 33.4998 251.178 32.1625 250.777 30.3907C249.641 31.427 248.37 32.1625 246.766 32.4968C247.568 33.7004 248.27 34.7367 248.972 35.8066ZM238.41 14.2432C236.94 14.7113 236.305 16.0485 236.773 17.7535C237.007 16.4497 237.842 15.4468 238.41 14.2432ZM245.062 10.9001C244.493 11.8696 243.591 12.6719 243.858 13.9758C244.193 12.9394 245.229 12.1705 245.062 10.9001ZM241.485 12.3042C240.616 13.3071 239.747 14.3435 239.914 15.8479C240.449 14.6778 240.984 13.4743 241.485 12.3042ZM263.979 5.81849C264.581 6.38682 265.082 7.08889 266.218 7.18918C265.617 6.08594 264.915 5.75163 263.979 5.81849ZM263.244 7.85781C262.843 7.35634 262.475 6.75457 261.472 6.42026C261.974 7.35634 262.475 7.79095 263.244 7.85781Z" fill="#353434"/>
<path d="M153.415 168.53C154.752 167.46 154.752 167.46 155.454 168.897C155.421 169.031 155.354 169.165 155.321 169.299C154.652 174.213 155.12 179.228 154.385 184.142C154.284 184.878 154.619 185.179 155.287 185.245C156.825 185.413 158.395 185.613 159.933 185.747C162.339 185.948 164.746 186.081 167.119 186.315C168.255 186.416 168.656 185.948 168.723 184.911C168.757 184.477 168.823 184.075 168.89 183.641C169.425 179.362 170.127 175.116 170.428 170.803C170.495 170.669 170.528 170.536 170.561 170.402C170.695 169.934 170.829 169.366 171.43 169.366C172.066 169.366 172.099 169.967 172.233 170.435C171.731 170.97 171.865 171.639 171.832 172.241C170.963 180.565 170.127 188.89 169.291 197.214C169.191 198.384 168.656 198.919 167.453 199.12C164.646 199.621 161.805 199.654 158.964 199.621C154.585 199.588 150.173 199.588 145.795 199.153C141.851 198.752 137.84 199.22 133.896 198.685C133.194 198.585 132.493 198.518 131.824 198.317C131.222 198.117 130.888 197.715 130.755 197.147C129.886 193.704 130.42 190.494 132.827 187.853C134.966 185.513 137.673 184.176 140.915 184.276C143.522 184.343 146.129 184.543 148.736 184.677C149.004 185.58 148.369 186.583 149.171 187.318C149.973 187.084 149.572 186.482 149.672 186.048C149.772 185.58 149.338 184.811 150.341 184.844C151.109 184.878 151.577 185.112 151.176 186.014C151.109 186.182 151.143 186.449 151.176 186.65C151.21 186.85 151.31 187.051 151.544 187.084C151.778 187.118 151.978 186.984 151.978 186.75C152.179 184.978 153.148 183.407 153.081 181.501C152.948 177.188 153.683 172.876 153.415 168.53ZM140.681 194.84C140.982 192.233 140.915 189.892 140.782 187.586C140.681 185.881 140.414 185.647 138.676 186.048C135.969 186.65 132.259 189.324 131.991 193.536C134.799 194.205 137.673 194.372 140.681 194.84ZM131.657 195.208C131.858 197.247 131.858 197.281 133.395 197.415C134.732 197.515 136.069 197.582 137.439 197.582C140.213 197.582 142.954 197.548 145.728 197.715C151.544 198.05 157.326 198.05 163.142 197.782C164.412 197.715 165.682 197.515 166.952 197.348C167.353 197.281 167.553 197.047 167.553 196.612C167.553 196.111 167.186 196.077 166.818 196.077C166.45 196.077 166.116 196.111 165.749 196.111C163.977 196.244 162.206 196.478 160.468 196.478C150.909 196.545 141.316 197.147 131.657 195.208ZM146.062 188.355C146.798 187.151 147.065 186.349 146.798 185.413C146.764 185.245 146.463 185.112 146.296 185.346C145.661 186.081 145.695 186.95 146.062 188.355Z" fill="#353434"/>
<path d="M259.233 209.55C259.4 209.751 259.567 209.985 259.734 210.185C260.871 211.523 260.837 211.656 259.066 212.225C258.631 211.824 258.063 211.69 257.528 211.556C252.013 209.985 246.499 208.514 241.151 206.408C240.449 206.14 239.981 206.174 239.647 206.909C239.112 208.079 238.577 209.216 238.009 210.353C236.605 213.161 235.101 215.902 232.427 217.707C230.255 219.178 227.915 219.646 225.375 218.71C224.774 218.51 224.139 218.41 223.504 218.276C221.799 217.975 221.231 217.44 221.364 215.735C221.632 211.991 222.167 208.28 223.303 204.669C225.175 198.518 228.183 192.901 231.224 187.318C232.026 185.847 232.494 185.647 233.932 186.349C235.268 186.984 236.706 187.385 238.109 187.853C240.048 188.522 242.02 188.923 243.658 190.36C244.293 190.929 245.362 190.996 246.265 191.196C252.481 192.567 258.631 194.205 264.915 195.275C265.316 195.977 264.848 196.211 264.313 196.445C264.179 196.378 264.079 196.244 263.945 196.244C257.662 195.275 251.445 193.804 245.262 192.333C244.293 192.099 244.092 192.567 243.791 193.336C242.454 196.913 241.719 200.657 240.449 204.368C241.084 204.636 241.652 204.903 242.22 205.104C247.769 207.143 253.451 208.614 259.233 209.55ZM224.907 216.838C225.175 215.468 225.275 214.03 225.776 212.726C227.28 208.681 228.45 204.502 230.088 200.49C231.558 196.88 233.129 193.302 234.7 189.759C235.068 188.956 234.901 188.722 234.132 188.388C232.962 187.887 232.829 188.722 232.427 189.358C227.681 197.247 225.175 205.94 223.303 214.866C222.935 216.37 222.802 216.705 224.907 216.838ZM233.998 213.328C232.26 212.592 230.589 211.69 228.651 211.422C227.882 211.322 227.347 211.422 227.08 212.358C226.679 213.963 226.244 215.568 226.211 217.239C229.954 217.741 232.227 216.604 233.998 213.328ZM237.006 205.07C236.572 205.07 236.004 205.003 236.004 205.505C236.004 206.24 236.672 206.24 237.24 206.274C237.641 206.307 238.21 206.341 238.243 205.806C238.243 205.037 237.508 205.171 237.006 205.07ZM234.734 208.848C234.633 208.848 234.466 208.848 234.333 208.848C233.965 208.848 233.564 208.848 233.597 209.35C233.631 209.65 233.898 209.784 234.199 209.784C234.333 209.784 234.466 209.851 234.6 209.818C235.101 209.784 235.937 210.252 236.004 209.483C236.137 208.748 235.235 209.015 234.734 208.848ZM236.873 207.477C236.305 207.21 235.87 206.876 235.469 207.511C235.67 207.578 235.837 207.678 236.004 207.711C236.238 207.778 236.505 207.879 236.873 207.477Z" fill="#353434"/>
<path d="M207.093 182.838C208.329 179.228 209.432 176.185 211.003 173.31C211.505 172.441 211.939 171.539 212.641 170.836C214.112 169.399 216.084 169.934 216.551 171.94C216.852 173.21 216.785 174.48 216.418 175.717C215.582 178.626 214.346 181.301 212.073 183.373C211.872 183.54 211.638 183.708 211.638 184.209C213.677 183.54 215.682 182.939 217.654 182.237C219.626 181.535 220.963 181.702 221.665 182.838C222.334 183.942 221.598 186.014 220.161 187.084C216.986 189.424 210.87 189.491 207.661 187.251C207.36 187.051 207.126 186.716 206.825 186.65C204.218 186.115 202.347 184.242 200.208 182.905C199.038 182.17 198.202 181.1 197.667 179.83C196.865 177.924 197.534 175.55 199.071 174.715C200.709 173.812 202.581 174.313 203.951 176.018C204.753 177.021 205.388 178.125 205.823 179.328C206.123 180.431 206.558 181.401 207.093 182.838ZM214.112 174.882C213.51 176.252 212.908 177.656 212.307 179.027C211.404 180.699 210.468 182.337 209.366 184.343C210.97 182.972 212.073 180.799 212.273 178.994C212.641 179.127 212.708 178.86 212.842 178.626C213.51 177.422 213.844 176.085 214.346 174.815C214.446 174.38 214.68 173.946 214.546 173.411C214.045 173.812 214.045 174.347 214.112 174.882ZM205.856 183.841C205.154 182.103 202.614 179.161 200.442 177.556C202.313 180.03 204.319 181.735 205.856 183.841ZM209.8 185.947C209.767 186.081 209.733 186.182 209.7 186.315C210.669 186.315 211.672 186.315 212.641 186.315C213.711 186.315 214.747 186.349 215.816 186.315C216.685 186.282 217.588 186.449 218.39 185.947C215.549 185.947 212.674 185.947 209.8 185.947Z" fill="#353434"/>
<path d="M243.123 97.8889C242.688 96.5182 242.521 96.4513 241.351 97.2203C241.051 97.0197 240.75 96.7522 240.75 96.4179C240.75 94.9135 240.382 93.3756 240.884 91.8712C244.059 93.7099 247.635 94.0443 251.144 94.1446C253.685 94.2114 256.225 93.71 258.765 93.4759C258.665 95.415 258.698 97.3874 257.629 99.1593C257.06 98.5575 256.459 98.4238 255.824 99.059C251.579 98.3904 247.368 98.1563 243.123 97.8889Z" fill="#98B0BA"/>
<path d="M258.731 93.476C256.191 93.71 253.651 94.2114 251.111 94.1446C247.602 94.0443 244.025 93.71 240.85 91.8712C240.85 91.6038 240.85 91.3363 240.85 91.0689C241.184 90.9017 241.519 90.8014 241.853 90.9686C246.298 92.8742 250.877 92.8408 255.489 91.9715C256.659 91.7375 257.862 91.5035 258.999 92.1053C259.199 92.6067 258.932 93.0414 258.731 93.476Z" fill="#353434"/>
<path d="M346.2 82.9116C345.063 84.0483 343.626 84.5832 342.089 84.9509C338.98 85.6864 335.872 86.4219 332.797 87.1574C332.597 87.1908 332.396 87.2911 332.162 87.2911C331.56 87.358 330.758 87.6589 330.591 86.7562C330.491 86.0207 331.26 85.9205 331.761 85.7867C334.502 85.0847 337.242 84.3492 339.983 83.714C341.32 83.4131 342.623 83.1122 343.793 82.4436C344.796 81.8752 345.498 82.0424 346.166 82.9116C346.2 82.945 346.2 82.9116 346.2 82.9116Z" fill="#353434"/>
<path d="M101.677 183.072C101.543 183.273 101.476 183.507 101.342 183.607C101.175 183.741 100.908 183.708 100.774 183.507C100.005 182.471 99.7046 181.267 99.4707 180.03C99.4372 179.83 99.5709 179.629 99.8049 179.562C100.039 179.495 100.273 179.562 100.34 179.763C100.808 180.866 101.242 181.969 101.677 183.072Z" fill="#353434"/>
<path d="M191.284 159.57C189.345 159.57 188.008 158.768 186.638 158.166C186.471 158.099 186.337 157.798 186.471 157.631C186.571 157.497 186.838 157.33 186.972 157.364C188.376 157.932 189.98 157.965 191.284 159.57Z" fill="#353434"/>
<path d="M113.575 179.997C113.475 180.398 113.341 181.067 113.14 181.735C113.04 182.103 112.806 182.437 112.439 182.337C111.971 182.203 111.904 181.769 112.004 181.301C112.138 180.699 112.238 180.064 112.405 179.462C112.505 179.094 112.505 178.526 113.074 178.559C113.842 178.626 113.575 179.261 113.575 179.997Z" fill="#353434"/>
<path d="M193.022 153.887C193.557 153.853 193.757 154.188 193.757 154.522C193.724 155.458 194.793 156.227 194.158 157.23C194.091 157.33 193.724 157.33 193.59 157.263C192.955 156.929 192.32 154.923 192.621 154.221C192.688 154.054 192.921 153.954 193.022 153.887Z" fill="#353434"/>
<path d="M94.9249 184.443C95.3928 184.477 97.3648 186.081 97.465 186.549C97.4985 186.65 97.4316 186.817 97.3313 186.917C97.1977 187.118 96.9637 187.184 96.7632 187.051C95.8942 186.583 95.1588 185.881 94.4904 185.179C94.3567 185.011 94.3901 184.777 94.5238 184.61C94.6575 184.543 94.7912 184.51 94.9249 184.443Z" fill="#353434"/>
<path d="M117.954 185.011C117.619 184.911 117.452 184.644 117.586 184.376C118.02 183.507 118.488 182.638 118.99 181.769C119.057 181.635 119.357 181.635 119.558 181.635C119.658 181.635 119.792 181.835 119.792 181.936C119.491 183.039 119.157 184.109 118.355 184.911C118.288 185.011 118.087 184.978 117.954 185.011Z" fill="#353434"/>
<path d="M200.408 151.312C200.709 152.75 200.007 153.653 200.208 154.656C200.241 154.856 200.074 155.09 199.874 155.124C199.539 155.157 199.305 154.923 199.272 154.656C199.138 153.519 199.439 152.516 200.408 151.312Z" fill="#353434"/>
<path d="M107.024 182.471C106.623 181.869 106.423 181.702 106.423 181.535C106.356 180.465 105.988 179.362 106.59 178.325C106.623 178.292 106.924 178.325 106.957 178.392C107.325 179.562 107.358 180.766 107.024 182.471Z" fill="#353434"/>
<path d="M206.491 152.349C206.892 152.483 206.959 152.717 206.892 152.884C206.525 153.853 206.491 154.99 205.622 155.692C205.188 156.026 205.121 155.257 205.622 154.121C205.789 153.72 205.923 153.352 206.123 152.951C206.19 152.75 206.324 152.583 206.491 152.349Z" fill="#353434"/>
<path d="M213.443 155.826C213.51 156.327 212.407 158.066 212.006 158.099C211.772 158.132 211.605 157.965 211.538 157.765C211.405 157.196 212.407 155.659 212.942 155.592C213.143 155.558 213.31 155.759 213.443 155.826Z" fill="#353434"/>
<path d="M259.233 209.55C253.417 208.614 247.735 207.177 242.221 205.104C241.652 204.87 241.084 204.636 240.449 204.368C241.719 200.691 242.455 196.913 243.792 193.336C244.092 192.567 244.293 192.099 245.262 192.333C251.445 193.804 257.662 195.275 263.946 196.244C264.079 196.278 264.18 196.378 264.313 196.445C262.776 200.423 261.272 204.435 259.734 208.414C259.601 208.781 259.4 209.149 259.233 209.55Z" fill="#F3F2F1"/>
<path d="M170.428 170.803C170.127 175.116 169.425 179.362 168.89 183.641C168.823 184.075 168.757 184.477 168.723 184.911C168.656 185.914 168.255 186.416 167.119 186.315C164.712 186.081 162.306 185.948 159.933 185.747C158.395 185.613 156.825 185.413 155.287 185.245C154.619 185.179 154.284 184.911 154.385 184.142C155.12 179.228 154.652 174.213 155.321 169.299C155.354 169.165 155.387 169.031 155.454 168.897C160.434 169.432 165.381 170.402 170.428 170.803Z" fill="#F3F2F1"/>
<path d="M163.108 161.843C164.479 155.692 165.147 149.34 166.751 143.189C168.523 136.402 171.029 129.95 174.606 123.932C177.547 118.984 181.892 115.708 187.54 114.27C191.885 113.167 196.264 112.231 200.776 113.067C205.923 114.003 210.769 115.775 215.081 118.784C215.649 119.185 216.251 119.586 216.852 119.954C221.732 122.829 225.81 126.64 229.854 130.551C232.294 132.925 234.533 135.499 237.174 137.672C238.41 138.709 239.614 139.812 240.616 141.149C240.015 141.584 239.814 141.049 239.547 140.815C234.032 135.8 228.952 130.351 223.37 125.403C222.668 124.801 221.966 124.166 221.197 123.698C216.919 120.923 212.942 117.68 208.096 115.842C201.879 113.468 195.696 112.866 189.111 114.538C184.298 115.775 180.221 117.814 177.012 121.525C174.907 123.965 173.57 126.874 172.199 129.783C168.055 138.542 165.849 147.802 164.579 157.364C164.278 160.205 164.245 160.339 163.108 161.843Z" fill="#F3F2F1"/>
<path d="M313.746 159.871C314.114 161.643 315.083 163.147 316.219 164.518C318.659 167.426 320.497 170.703 322.703 173.745C324.809 176.587 326.848 179.495 328.954 182.337C330.825 184.878 332.062 187.719 333.065 190.695C333.566 192.166 333.967 193.67 334.502 195.141C335.237 197.247 335.605 199.387 335.371 201.293C334.502 195.108 332.63 188.923 329.02 183.373C326.614 179.696 323.739 176.319 321.3 172.675C319.094 169.366 316.721 166.19 314.381 162.98C313.88 162.278 313.445 161.543 313.178 160.74C312.977 160.172 313.345 160.005 313.746 159.871Z" fill="#F3F2F1"/>
<path d="M269.728 196.144C267.99 201.527 266.085 206.909 264.614 212.559C264.246 210.486 267.154 200.958 269.728 196.144Z" fill="#F3F2F1"/>
<path d="M179.118 111.73C179.185 111.629 179.318 111.529 179.318 111.429C179.352 110.961 178.382 110.459 179.118 110.058C179.686 109.757 179.953 110.593 180.321 110.961C180.522 111.128 180.655 111.395 180.522 111.696C180.087 112.365 179.586 111.161 179.118 111.73Z" fill="#F3F2F1"/>
<path d="M314.013 176.654C313.412 177.69 312.376 178.024 311.64 179.094C311.941 177.556 312.209 177.322 314.013 176.654Z" fill="#F3F2F1"/>
<path d="M179.118 111.696C178.449 111.73 178.884 112.398 178.449 112.732C177.781 112.264 177.212 111.663 176.644 110.66C177.614 110.793 177.848 111.429 178.315 111.796C178.616 111.997 178.917 112.198 179.118 111.696Z" fill="#F3F2F1"/>
<path d="M182.995 108.42C183.363 109.122 183.429 109.623 183.062 110.192C182.494 109.657 182.594 109.155 182.995 108.42Z" fill="#F3F2F1"/>
<path d="M321.968 200.591C322.636 200.323 322.971 200.724 323.505 201.192C322.67 201.393 322.269 201.192 321.968 200.591Z" fill="#F3F2F1"/>
<path d="M348.172 101.901C349.676 112.164 349.275 122.428 348.673 132.725C348.372 137.873 347.102 142.821 344.996 147.501C342.055 154.087 336.875 157.898 329.889 159.369C323.673 160.64 317.757 159.938 312.242 156.661C312.075 156.561 311.807 156.494 311.707 156.327C310.236 154.288 307.529 153.987 305.791 152.282C304.053 150.61 302.181 149.073 300.377 147.468C298.538 145.796 296.967 143.857 295.296 142.019C293.826 140.38 292.322 138.776 290.818 137.171C289.347 135.6 289.146 135.533 287.175 136.603C284.133 138.274 281.025 139.812 277.849 141.216C276.98 141.617 276.145 142.219 274.975 141.985C275.577 139.812 277.348 138.809 278.819 137.539C279.42 137.037 280.122 136.669 280.757 136.235C281.192 135.934 281.526 135.499 281.158 134.998C280.791 134.53 280.256 134.63 279.821 134.931C278.184 136.201 276.245 136.97 274.44 137.94C273.504 138.441 272.569 138.876 271.131 139.11C271.867 137.906 272.669 137.305 273.504 136.77C275.142 135.767 276.78 134.764 278.418 133.761C278.785 133.527 279.12 133.293 279.454 133.025C279.688 132.825 279.788 132.557 279.654 132.256C279.521 131.889 279.186 131.688 278.819 131.822C278.284 131.989 277.749 132.19 277.214 132.357C275.209 133.025 273.17 133.694 271.165 134.396C270.363 134.664 269.561 134.797 268.591 134.496C269.393 133.226 270.463 132.624 271.633 132.123C273.705 131.254 275.811 130.351 277.849 129.415C278.351 129.181 279.32 128.98 278.986 128.178C278.652 127.442 277.916 127.91 277.315 128.111C274.841 128.913 272.335 129.716 269.828 130.518C269.226 130.719 268.625 130.986 267.889 130.652C268.792 129.448 270.162 128.98 271.399 128.345C272.97 127.543 274.607 126.874 276.212 126.105C276.847 125.804 277.448 125.436 278.017 125.002C280.423 123.297 280.557 122.695 279.287 119.987C279.019 119.419 278.551 118.951 278.485 118.115C280.557 117.814 282.529 118.115 284.434 118.85C289.815 120.823 294.695 123.631 299.14 127.208C303.284 130.551 307.362 133.928 311.573 137.204C314.414 139.411 317.356 141.55 320.932 142.52C325.177 143.657 329.087 141.952 331.226 138.174C333.064 134.964 333.465 131.488 333.499 127.91C333.566 120.455 333.466 113 333.198 105.545C333.165 104.776 333.232 103.973 333.265 103.205C338.345 102.97 343.192 101.8 348.172 101.901Z" fill="#F3F2F1"/>
<path d="M270.797 55.2638C271.867 55.4309 272.301 54.9294 272.034 53.9265C271.499 51.9206 270.764 50.015 269.861 48.1763C269.46 47.307 268.692 47.0062 267.756 46.9727C266.686 46.9393 265.617 46.9059 264.547 46.9059C259.768 46.8724 256.526 44.1645 253.618 40.6542C254.888 39.4841 256.091 38.3808 257.261 37.2776C257.528 37.0436 257.829 36.843 258.096 36.609C258.431 36.2746 258.531 35.84 258.197 35.4723C257.896 35.1045 257.461 35.0043 257.06 35.3386C256.526 35.7732 255.924 36.2078 255.456 36.7427C254.587 37.7791 253.451 38.5146 252.515 39.4841C252.381 39.6512 252.214 39.785 252.013 39.8853C251.412 40.1861 250.777 40.7545 250.075 40.2196C249.34 39.6847 249.674 38.9157 249.908 38.2471C250.108 37.6453 250.476 37.1104 250.81 36.5755C251.412 35.606 251.947 34.6031 252.415 33.5667C253.05 32.1291 253.15 30.725 252.381 29.2875C251.98 28.5854 251.378 27.7162 252.314 27.0141C252.749 26.7132 253.384 26.6798 253.919 26.5461C254.554 26.4123 254.687 27.0141 255.022 27.3484C256.292 28.6188 257.829 28.7191 259.367 28.0839C260.871 27.4487 262.141 26.3789 262.107 24.6405C262.074 23.1695 262.776 22.5009 263.945 21.9325C266.619 20.6621 268.859 18.5894 271.666 17.4527C272.201 17.2521 272.168 16.6503 272.402 16.2157C273.103 14.9453 274.206 14.3101 275.309 14.4773C276.345 14.6445 277.148 15.6808 277.348 17.1518C277.482 18.0545 277.515 19.024 277.315 19.9266C276.947 21.4979 277.114 23.0692 277.649 24.5402C280.189 31.9286 283.398 38.9157 289.481 44.1645C292.79 47.0062 296.266 49.5135 300.31 51.252C299.474 54.2608 297.101 55.7987 294.628 57.2362C289.08 60.4122 283.063 61.248 276.78 60.4122C274.841 60.1448 273.07 59.543 271.599 58.2057C270.697 57.4368 270.129 56.5007 270.797 55.2638Z" fill="#F3F2F1"/>
<path d="M285.437 86.589C284.167 86.4887 283.164 86.3884 282.195 86.2881C279.521 86.0207 276.847 85.6864 274.14 85.7198C268.524 85.7532 262.943 85.4858 257.361 84.9843C254.387 84.7169 251.378 85.0846 248.437 84.4828C246.566 84.1151 244.727 83.6136 242.856 83.179C242.588 83.1121 242.354 82.9116 242.321 82.5772C242.321 82.1426 242.588 81.942 242.956 81.9086C243.892 81.8083 244.794 81.9086 245.663 82.2095C247.702 82.9784 249.808 83.1121 251.947 83.179C260.871 83.3462 269.795 84.0817 278.752 84.0817C280.991 84.0817 283.264 84.5497 285.537 84.5163C289.381 84.4828 293.157 83.8142 296.968 83.413C303.953 82.6775 310.805 81.1731 317.59 79.3678C324.943 77.3954 332.028 74.7543 339.248 72.4141C339.716 72.2469 340.184 72.0797 340.685 72.0129C341.22 71.946 341.688 72.18 341.788 72.7818C341.888 73.3167 341.654 73.7513 341.153 74.0188C341.019 74.0856 340.885 74.1191 340.752 74.1525C334.502 76.2253 328.285 78.3983 321.968 80.3039C314.916 82.4435 307.73 84.0817 300.377 85.0177C295.33 85.6529 290.25 86.0875 285.437 86.589Z" fill="#353434"/>
<path d="M253.016 73.9519C250.844 73.6845 248.772 73.0493 246.699 72.4141C246.298 72.2804 245.897 72.1801 245.496 72.0129C244.995 71.8123 244.627 71.478 244.794 70.8762C244.961 70.241 245.496 70.2076 245.998 70.3413C247.167 70.6422 248.304 70.9765 249.44 71.3108C249.54 72.6147 250.142 71.6452 250.543 71.5449C254.22 71.8792 257.896 72.1466 261.573 72.5144C270.898 73.4839 280.122 72.3472 289.314 71.0434C293.893 70.3748 298.438 69.773 302.95 68.8035C309.668 67.3659 316.253 65.3266 322.837 63.3207C325.143 62.6187 327.45 61.9835 329.789 61.3148C330.825 61.0139 331.828 60.6796 332.73 60.0779C333.265 59.7101 333.833 59.777 334.201 60.3787C334.535 60.9805 334.268 61.4485 333.767 61.8497C333.132 62.3512 332.463 62.6855 331.694 62.9195C326.447 64.3905 321.266 66.1958 315.985 67.5331C313.378 68.2017 310.805 69.0041 308.198 69.7396C302.449 71.3108 296.567 72.2135 290.651 72.9824C287.208 73.4505 283.766 74.0188 280.323 74.3531C273.605 74.9883 266.887 75.3895 260.169 74.4534C258.197 74.186 256.225 74.0188 254.253 73.7848C253.651 72.9824 253.417 73.9185 253.016 73.9519Z" fill="#353434"/>
<path d="M271.766 66.363C267.02 66.363 262.274 66.5636 257.628 65.2597C255.423 64.658 253.35 63.7887 251.245 62.9864C250.844 62.8192 250.409 62.5852 250.61 62.0503C250.777 61.5488 251.211 61.5154 251.679 61.6826C252.013 61.7829 252.348 61.8832 252.682 62.0169C257.261 63.889 262.04 64.6245 266.987 64.5242C270.964 64.4574 274.942 64.5911 278.886 64.3571C285.069 63.9893 291.085 62.6855 296.8 60.245C304.788 56.835 313.044 54.4279 321.5 52.4889C321.834 52.422 322.202 52.3552 322.536 52.3552C322.937 52.3552 323.171 52.6226 323.305 52.9904C323.439 53.3915 323.271 53.7593 322.971 53.9264C322.469 54.1939 321.934 54.4279 321.4 54.5616C316.353 55.6649 311.406 57.2027 306.46 58.7406C303.485 59.6767 300.611 60.9136 297.77 62.1506C294.494 63.5547 291.085 64.4908 287.609 65.1594C284.969 65.6609 282.328 66.3295 279.621 66.363C277.014 66.3964 274.373 66.363 271.766 66.363Z" fill="#353434"/>
<path d="M258.732 93.476C258.932 93.0413 259.2 92.6067 259.032 92.1053C259.467 91.1358 259.768 90.0994 260.302 89.1967C261.038 87.9598 261.873 87.9932 262.776 89.1299C263.21 89.6648 263.311 90.2665 263.411 90.9017C263.845 93.1416 263.879 95.415 263.879 97.6549C263.845 101.399 263.712 105.144 263.611 108.888C261.506 109.857 259.333 110.66 256.96 111.228C256.726 107.083 257.395 103.138 257.595 99.1259C258.698 97.3874 258.631 95.415 258.732 93.476Z" fill="#F3F2F1"/>
<path d="M302.182 105.946C296.934 106.882 291.419 105.946 285.904 105.712C281.66 105.545 277.415 105.277 273.137 105.21C270.797 105.177 268.491 104.709 266.151 104.441C265.717 104.375 265.216 104.274 265.216 103.773C265.216 103.037 265.851 103.171 266.319 103.138C266.586 103.138 266.887 103.138 267.154 103.171C275.209 104.274 283.331 103.639 291.386 104.375C294.929 104.709 298.472 104.575 302.014 104.174C304.822 103.84 307.696 104.107 310.504 103.773C313.946 103.338 317.356 102.703 320.765 101.968C321.166 101.867 321.6 101.767 322.001 101.7C322.536 101.633 323.004 101.767 323.138 102.369C323.271 102.97 322.971 103.372 322.436 103.505C321.132 103.84 319.829 104.141 318.492 104.408C313.245 105.578 307.897 106.046 302.182 105.946Z" fill="#353434"/>
<path d="M282.696 95.8161C280.089 96.117 276.613 95.4818 273.137 94.646C270.931 94.1111 268.625 94.2449 266.386 93.7768C265.985 93.6765 265.55 93.6097 265.149 93.4759C264.915 93.4091 264.848 93.2085 264.848 92.9745C264.848 92.7404 265.049 92.5733 265.216 92.5399C265.717 92.5064 266.219 92.473 266.686 92.5399C269.828 93.0079 273.003 93.2419 276.179 93.7768C281.159 94.646 286.239 94.4789 291.219 93.7434C294.662 93.2419 298.138 93.0748 301.58 92.5733C307.563 91.7375 313.512 90.8349 319.395 89.5979C320.264 89.4307 321.266 88.8958 321.734 90.1662C322.035 90.9686 321.367 91.3698 319.729 91.7041C313.579 92.8742 307.429 93.8771 301.212 94.4455C295.397 94.9804 289.581 96.0836 282.696 95.8161Z" fill="#353434"/>
<path d="M333.365 95.9499C332.998 95.9499 332.664 95.9499 332.296 95.9499C331.761 95.9165 331.26 95.7827 331.26 95.1475C331.26 94.4789 331.761 94.3452 332.296 94.3786C333.599 94.4455 334.836 94.0777 336.106 94.0443C339.148 93.944 341.955 93.0079 344.863 92.2724C345.264 92.1721 345.699 92.0718 346.1 91.9381C346.868 91.7041 347.771 91.3363 348.105 92.3393C348.406 93.2754 347.403 93.5094 346.768 93.6431C344.161 94.3117 341.554 95.0138 338.88 95.4484C337.042 95.7159 335.204 95.7493 333.365 95.9499Z" fill="#353434"/>
<path d="M253.016 73.9519C253.417 73.9519 253.651 73.0159 254.153 73.7848C252.949 75.4564 252.348 77.3954 251.612 79.5016C251.078 78.8664 251.211 78.3649 251.412 77.8634C251.913 76.5262 252.481 75.2558 253.016 73.9519Z" fill="#F3F2F1"/>
<path d="M250.509 71.5449C250.108 71.6452 249.54 72.6147 249.406 71.3108C250.777 70.0404 252.147 68.8035 253.518 67.5331C253.083 69.3718 251.312 70.0739 250.509 71.5449Z" fill="#F3F2F1"/>
<path d="M318.86 71.5449C317.723 72.3138 316.921 72.8487 316.052 73.4505C316.72 71.9795 316.72 71.9795 318.86 71.5449Z" fill="#F3F2F1"/>
<path d="M320.498 73.6511C321.367 73.5842 321.968 73.6511 322.536 74.2194C321.567 74.3531 321.567 74.3531 320.498 73.6511Z" fill="#F3F2F1"/>
<path d="M243.123 97.8889C247.368 98.1898 251.612 98.3904 255.79 99.059C255.623 102.87 255.456 106.681 255.289 110.493C255.255 111.128 255.289 111.763 254.453 111.964C252.481 112.432 250.476 112.933 248.504 113.468C247.802 113.669 247.301 113.535 247 112.799C245.964 110.392 244.594 108.186 243.357 105.879C242.956 105.144 242.922 104.408 242.922 103.606C242.989 101.7 243.056 99.7945 243.123 97.8889Z" fill="#F3F2F1"/>
<path d="M234.366 121.993C233.999 114.672 231.692 107.885 229.787 100.998C229.219 98.9587 228.751 96.886 228.216 94.8132C228.016 94.0443 228.25 93.5762 229.052 93.4425C230.389 93.2085 231.659 92.7405 232.829 92.1053C233.531 91.7375 233.865 92.005 234.065 92.6736C234.199 93.1416 234.4 93.6431 234.433 94.1111C234.901 99.8614 236.539 105.411 237.341 111.094C237.541 112.498 237.575 113.903 237.575 115.34C237.575 118.048 236.138 120.054 234.366 121.993Z" fill="#F3F2F1"/>
<path d="M237.307 121.324C239.747 118.483 242.722 116.51 246.265 115.541C249.874 114.538 253.584 113.836 257.194 112.833C261.907 111.529 266.419 109.69 270.797 107.584C271.365 107.918 271.332 108.487 271.432 108.921C272.034 111.328 272.001 111.429 269.561 112.131C259.333 115.173 249.206 118.516 238.878 121.224C238.41 121.358 237.942 121.659 237.307 121.324Z" fill="#F3F2F1"/>
<path d="M287.008 152.817C288.846 151.714 289.314 150.076 289.715 148.471C289.915 147.702 290.216 147.434 290.985 147.434C292.89 147.468 294.795 147.668 296.7 147.134C297.268 146.966 297.636 147.368 297.97 147.735C300.143 149.942 302.516 151.948 304.922 153.987C302.416 155.124 293.024 154.522 287.008 152.817Z" fill="#8BA0A6"/>
<path d="M236.305 96.2507C238.644 100.664 240.817 104.642 242.588 108.821C243.156 110.192 243.925 111.462 244.594 112.799C244.794 113.167 244.995 113.635 244.427 113.869C242.588 114.605 241.084 115.975 239.112 116.577C239.279 112.064 238.277 107.785 237.341 103.505C236.84 101.265 236.204 98.9921 236.305 96.2507Z" fill="#F3F2F1"/>
<path d="M296.065 145.696C293.725 146.498 291.687 146.164 289.648 146.197C289.113 146.197 288.946 145.796 288.779 145.395C288.177 143.891 287.609 142.353 287.041 140.848C286.74 140.079 287.074 139.712 287.843 139.478C289.848 138.842 290.116 138.909 291.486 140.481C292.923 142.085 294.361 143.723 296.065 145.696Z" fill="#8BA0A6"/>
<path d="M278.585 122.461C277.749 121.391 275.911 117.112 275.51 115.14C276.646 117.547 277.649 119.619 278.618 121.692C278.752 121.926 278.819 122.194 278.585 122.461Z" fill="#F3F2F1"/>
<path d="M287.275 146.298C286.072 144.192 285.637 142.052 284.902 139.979C286.105 140.949 286.606 142.253 287.275 146.298Z" fill="#F3F2F1"/>
<path d="M273.104 109.69C273.271 110.225 273.739 110.526 273.872 111.061C273.939 111.328 274.14 111.562 273.973 111.863C273.104 111.362 273.204 110.459 273.104 109.69Z" fill="#F3F2F1"/>
<path d="M268.591 17.5864C266.218 19.1242 264.146 20.4949 262.107 21.7987C261.706 21.6985 261.572 21.4644 261.439 21.2304C260.503 19.6926 259.199 18.8568 257.361 19.2914C255.422 19.726 253.818 21.5313 253.584 23.4035C253.417 24.6739 252.749 25.3759 251.545 25.5431C251.144 25.6099 250.91 25.3759 250.643 25.1419C247.835 22.7014 246.131 22.8017 243.357 25.4428C243.256 25.5431 243.123 25.5431 242.956 25.6434C242.22 24.9079 241.886 24.2392 243.023 23.5038C243.557 23.1694 244.025 22.7014 244.46 22.2334C245.329 21.2638 245.93 20.0603 247.635 21.2304C248.437 21.7987 249.54 21.0298 250.342 20.4281C252.214 19.1242 253.718 17.4192 255.155 15.4133C255.824 16.1154 256.124 17.1518 257.294 17.2186C258.564 17.2855 259.634 16.9512 260.67 16.2491C262.007 15.313 263.244 14.2767 264.58 13.0731C265.215 15.2127 266.519 16.5834 268.591 17.5864Z" fill="#F3F2F1"/>
<path d="M260.57 23.7713C260.536 25.2757 259.032 26.7132 257.461 26.7132C256.425 26.7132 255.423 25.4094 255.489 24.139C255.556 22.4674 256.927 20.8627 258.297 20.8961C259.433 20.8961 260.603 22.3671 260.57 23.7713Z" fill="#F3F2F1"/>
<path d="M246.365 30.7584C245.095 30.7584 244.393 29.9561 244.393 28.552C244.393 26.7467 245.63 25.1419 247 25.2088C248.103 25.2757 249.407 26.4792 249.407 27.4821C249.407 29.1203 247.869 30.7584 246.365 30.7584Z" fill="#F3F2F1"/>
<path d="M248.972 35.8066C248.237 34.7034 247.568 33.7004 246.766 32.4969C248.37 32.1626 249.64 31.4271 250.777 30.3907C251.211 32.1626 250.743 33.4998 248.972 35.8066Z" fill="#F3F2F1"/>
<path d="M238.41 14.2432C237.842 15.4468 237.007 16.4497 236.773 17.7535C236.305 16.0485 236.94 14.7113 238.41 14.2432Z" fill="#F3F2F1"/>
<path d="M245.062 10.9001C245.229 12.1705 244.193 12.9394 243.858 13.9758C243.591 12.672 244.493 11.8696 245.062 10.9001Z" fill="#F3F2F1"/>
<path d="M241.485 12.3042C240.951 13.4743 240.449 14.6444 239.914 15.8479C239.747 14.3435 240.65 13.3406 241.485 12.3042Z" fill="#F3F2F1"/>
<path d="M140.681 194.84C137.673 194.406 134.799 194.239 132.025 193.536C132.259 189.324 135.969 186.65 138.709 186.048C140.447 185.68 140.715 185.881 140.815 187.586C140.915 189.892 140.982 192.233 140.681 194.84Z" fill="#F3F2F1"/>
<path d="M131.657 195.208C141.316 197.147 150.909 196.545 160.434 196.512C162.206 196.512 163.977 196.278 165.715 196.144C166.083 196.111 166.417 196.077 166.785 196.111C167.119 196.111 167.52 196.144 167.52 196.646C167.52 197.047 167.319 197.314 166.918 197.381C165.648 197.548 164.378 197.749 163.108 197.816C157.292 198.083 151.477 198.05 145.695 197.749C142.921 197.582 140.18 197.615 137.406 197.615C136.069 197.615 134.698 197.548 133.362 197.448C131.858 197.281 131.858 197.247 131.657 195.208Z" fill="#F3F2F1"/>
<path d="M146.062 188.355C145.661 186.95 145.661 186.115 146.296 185.346C146.497 185.112 146.764 185.279 146.798 185.413C147.065 186.315 146.798 187.118 146.062 188.355Z" fill="#F3F2F1"/>
<path d="M224.907 216.838C222.802 216.705 222.935 216.37 223.27 214.832C225.141 205.906 227.648 197.214 232.394 189.324C232.795 188.689 232.929 187.853 234.099 188.355C234.867 188.689 235.035 188.923 234.667 189.725C233.096 193.302 231.525 196.846 230.054 200.457C228.45 204.469 227.247 208.648 225.743 212.693C225.275 214.03 225.175 215.468 224.907 216.838Z" fill="#F3F2F1"/>
<path d="M205.856 183.841C204.319 181.735 202.314 180.03 200.442 177.556C202.614 179.161 205.121 182.103 205.856 183.841Z" fill="#F3F2F1"/>
<path d="M209.8 185.948C212.675 185.948 215.549 185.948 218.39 185.948C217.588 186.449 216.685 186.282 215.816 186.315C214.747 186.349 213.711 186.315 212.641 186.315C211.672 186.315 210.669 186.315 209.7 186.315C209.767 186.182 209.767 186.048 209.8 185.948Z" fill="#F3F2F1"/>
<path d="M212.274 178.994C212.073 180.833 210.97 182.972 209.366 184.343C210.469 182.337 211.371 180.699 212.307 179.027L212.274 178.994Z" fill="#F3F2F1"/>
<path d="M214.346 174.815C213.844 176.085 213.51 177.422 212.842 178.626C212.708 178.86 212.641 179.127 212.273 178.994L212.307 179.027C212.908 177.657 213.51 176.252 214.112 174.882C214.245 175.015 214.312 175.015 214.346 174.815Z" fill="#F3F2F1"/>
<path d="M214.346 174.815C214.312 175.015 214.245 175.015 214.112 174.882C214.011 174.347 214.045 173.812 214.546 173.411C214.68 173.946 214.446 174.38 214.346 174.815Z" fill="#E79B25"/>
</g>
<defs>
<clipPath id="clip0_10_2799">
<rect width="351" height="227" fill="white"/>
</clipPath>
</defs>
</svg>
