<svg width="234" height="255" viewBox="0 0 234 255" fill="none" xmlns="http://www.w3.org/2000/svg">
<g clip-path="url(#clip0_10_1215)">
<path d="M119.584 48.6772C120.882 46.3411 122.256 44.0431 123.667 41.7453C126.337 37.4889 130.172 34.8631 134.759 33.11C138.74 31.5428 142.713 31.7136 146.757 32.6404C154.128 34.3017 160.657 37.6967 166.271 42.6742C170.867 46.7399 173.679 51.9679 175.391 57.7951C176.583 61.7305 176.979 65.7753 176.618 69.8542C176.018 76.3878 175.116 82.8821 172.475 89.0278C170.79 92.9489 168.092 95.3159 163.776 95.8613C161.996 96.0792 160.256 95.9194 158.516 95.7597C155.944 95.5202 155.945 95.4824 155.553 98.0498C155.397 99.0692 155.392 100.127 155.198 101.146C155.004 102.09 155.38 102.583 156.21 102.965C158.627 103.959 161.121 104.727 163.576 105.533C169.923 107.642 176.309 109.563 182.502 112.125C189.224 114.917 193.589 119.699 195.902 126.512C198.364 133.741 199.273 141.226 200.182 148.75C201.636 160.772 202.295 172.866 202.765 184.959C203.1 193.689 203.511 202.419 204.225 211.151C204.369 212.701 204.21 214.211 204.013 215.759C203.777 217.572 202.979 218.248 201.125 218.314C200.405 218.349 199.686 218.458 199.004 218.568C194.725 219.265 190.45 218.942 186.177 218.467C182.206 218.032 178.197 217.558 174.226 217.123C173.697 217.045 173.393 217.157 173.466 217.762C173.755 220.559 173.627 223.392 173.689 226.226C173.724 226.907 173.873 227.285 174.743 227.29C184.582 227.3 194.417 227.878 204.255 228.154C207.887 228.247 211.557 228.379 215.189 228.51C215.45 229.267 215.219 230.022 215.14 230.777C207.724 230.551 200.346 230.326 192.931 230.1C187.331 229.921 181.694 229.704 176.094 229.639C171.364 229.578 166.634 229.705 161.904 229.682C156.152 229.616 150.402 229.436 144.65 229.407C131.482 229.342 118.354 228.786 105.187 228.607C103.181 228.597 101.176 228.55 99.1707 228.464C98.4896 228.461 98.1867 228.497 98.1824 229.366C98.166 232.691 97.9983 236.015 97.6415 239.301C97.4036 241.491 96.9857 241.829 94.7897 242.082C92.1773 242.372 89.6039 242.435 86.992 242.611C77.0369 243.241 67.0475 243.154 57.0936 243.558C51.7571 243.758 46.4589 243.883 41.1222 244.121C36.9211 244.289 32.6839 244.117 28.4832 244.21C26.6289 244.238 24.7751 244.154 22.9206 244.22C21.6339 244.252 20.9181 243.606 20.6598 242.282C19.9591 238.576 19.9023 234.759 19.5045 231.017C19.3966 229.883 19.2887 228.749 19.2186 227.615C19.1836 227.048 19.0333 226.82 18.3899 226.855C12.7134 226.94 7.03717 226.988 1.32288 227.073C1.17152 227.072 1.02016 227.071 0.906644 227.071C0.112393 226.991 -0.453703 226.686 -0.487624 225.892C-0.521171 225.023 0.123403 224.762 0.880561 224.69C1.59969 224.656 2.31864 224.659 3.03759 224.663C8.03274 224.612 13.0657 224.562 18.0607 224.548C18.8553 224.552 19.1592 224.327 19.0496 223.533C18.9772 222.853 19.0563 222.173 18.984 221.493C18.8755 220.472 19.4448 220.135 20.3538 219.95C23.0427 219.51 25.6942 218.957 28.4196 218.781C28.4954 218.744 28.6091 218.707 28.685 218.669C29.2904 218.672 29.8957 218.713 30.4644 218.489C32.2425 218.573 33.9836 218.469 35.7257 218.175C36.407 218.141 37.0503 218.144 37.7316 218.109C39.8133 218.006 41.8572 217.903 43.9011 217.8C44.5067 217.765 45.1121 217.768 45.7177 217.733C47.3825 217.779 49.0852 217.788 50.7516 217.494C51.4316 217.724 52.1135 217.576 52.7944 217.617C55.4061 217.479 57.9789 217.53 60.5917 217.165C63.392 217.141 66.1927 217.041 68.9943 216.753C69.1835 216.754 69.3725 216.793 69.5617 216.794C71.9459 216.73 74.33 216.704 76.7142 216.64C76.9036 216.603 77.093 216.566 77.3202 216.53C77.9256 216.533 78.5684 216.649 79.1747 216.463C80.9528 216.548 82.7309 216.632 84.5099 216.528C86.6279 216.727 86.6279 216.727 86.6731 215.254C87.6258 206.228 88.2382 197.163 89.0017 188.136C90.0055 176.428 91.2741 164.76 92.9208 153.13C93.3525 149.996 93.6331 146.824 93.8758 143.651C93.9567 142.594 94.0378 141.499 94.2698 140.48C94.5021 139.423 94.1627 139.194 93.1785 139.265C89.5446 139.512 85.8742 139.493 82.2414 139.513C73.3112 139.507 64.3423 139.651 55.4145 139.154C48.1891 138.74 40.9633 138.402 33.8161 137.46C29.2404 136.87 24.7038 136.016 20.3215 134.559C16.1657 133.216 14.7051 130.148 14.5731 126.218C14.3422 119.34 15.4728 112.62 17.3217 106.017C18.8247 100.508 20.252 94.9991 21.6416 89.4518C22.4519 86.282 23.9042 83.3798 24.9033 80.2865C25.2495 79.1547 25.5956 78.0229 25.9039 76.8909C26.1356 75.9475 26.5923 75.4208 27.6522 75.3504C29.0905 75.282 30.492 74.9867 31.8926 74.8803C32.4982 74.8455 32.6131 74.5816 32.7292 74.0532C34.1226 67.7502 34.7599 61.2923 36.4558 55.0287C37.9976 49.331 39.766 43.71 43.3844 38.9293C44.4892 37.4235 45.6315 35.9934 47.2259 34.9433C47.8334 34.5307 48.5157 34.3074 49.1975 34.1596C51.5803 34.3981 51.5706 36.3628 50.6561 37.6429C50.3513 38.0571 50.0844 38.4714 49.7043 38.8095C49.1721 39.2981 48.9813 39.6372 49.6596 40.2073C50.1118 40.5874 49.9574 41.1912 49.8791 41.7197C49.7242 42.4369 49.1919 42.9632 48.8483 43.566C48.7337 43.7922 48.4683 43.9042 48.7691 44.2835C49.7842 45.611 49.7415 46.5932 48.8643 47.9868C47.9109 49.4934 46.505 50.6578 45.4761 52.1262C45.2107 52.2383 45.058 52.502 44.9055 52.7279C44.0285 54.0838 43.7938 55.6318 43.6346 57.2179C43.4369 58.955 43.2769 60.6922 43.0791 62.4293C43.0003 63.0712 42.6569 63.6363 41.9007 63.5192C41.258 63.4026 41.0714 62.8727 41.1499 62.3064C41.4638 60.0409 41.7399 57.7753 42.0914 55.5478C42.404 53.5468 43.1698 51.737 44.6528 50.2707C45.3373 49.594 45.9464 48.8414 46.5554 48.1265C47.1634 47.6005 47.7336 47.0744 47.8893 46.2061C47.3977 46.1281 47.0937 46.3911 46.7521 46.6161C46.6003 46.6909 46.4488 46.728 46.4857 46.9171L46.4859 46.8793C46.2592 46.8026 46.0691 46.9906 45.9172 47.1032C45.4236 47.4408 44.9298 47.8162 44.4028 47.2468C43.8761 46.6397 44.4457 46.2269 44.7507 45.775C45.5887 44.6456 46.6907 43.7065 47.6794 42.729C48.0975 42.3532 48.4401 41.9393 48.6329 41.2224C48.064 41.484 47.6091 41.6329 47.2667 42.0091C46.5459 42.3833 46.1642 43.0615 45.6693 43.6636C45.2884 44.1529 44.7965 44.1505 44.344 43.846C43.8914 43.5415 44.007 43.1264 44.2741 42.6743C44.9604 41.6198 45.7975 40.6794 46.597 39.7009C47.5104 38.6475 48.6877 37.7843 49.3002 36.3516C48.4668 36.5364 47.9348 36.9871 47.4403 37.5137C44.9298 40.1461 43.0228 43.1971 41.5306 46.5147C37.7038 55.186 36.3333 64.5118 34.5093 73.7219C34.354 74.5146 34.6185 74.5915 35.3379 74.5195C39.6922 73.9743 44.084 73.5049 48.4722 73.7533C48.9639 73.7936 49.0782 73.643 49.1941 73.1524C49.7738 70.6993 50.3914 68.2464 51.0846 65.7939C52.3945 61.0774 54.3843 56.591 56.0719 52.0276C56.6471 50.4813 57.2221 48.9728 57.5707 47.3498C57.6481 47.0102 57.726 46.5571 57.3485 46.3664C56.9711 46.1756 56.6669 46.4763 56.4007 46.7395C55.6023 47.4912 55.1058 48.4333 54.7223 49.4516C54.4159 50.2058 54.2983 51.0364 53.8406 51.752C53.5396 51.4105 53.3521 51.0695 53.2786 50.6157C53.0235 48.6497 54.4377 45.7852 56.1832 44.8114C58.3421 44.4065 59.4724 45.3945 59.0834 47.5462C58.7715 49.3961 58.0063 51.0926 57.3166 52.8272C54.6345 59.5772 52.1413 66.3659 51.0084 73.577C50.9694 73.8035 50.8169 74.0294 51.0812 74.1441C52.2136 74.7165 51.868 75.7349 51.7881 76.6035C51.4721 79.2846 50.8913 81.9644 50.3484 84.6065C49.4958 88.683 48.7565 92.7977 48.0551 96.9127C47.7826 98.4605 47.51 100.008 47.2375 101.556C47.0429 102.651 47.4181 103.295 48.5147 103.452C52.1066 104.036 55.7006 104.205 59.3341 104.034C67.8502 103.623 76.4049 103.061 84.9215 102.536C92.2269 102.081 99.5677 102.118 106.909 102.041C111.526 101.988 116.106 101.595 120.722 101.769C121.327 101.81 121.669 101.623 121.786 100.905C122.099 98.8664 122.525 96.8282 122.913 94.7898C123.03 94.2236 122.842 93.9582 122.39 93.5782C121.109 92.4761 119.518 92.6571 118.045 92.272C115.739 91.6938 113.357 91.2664 111.052 90.6882C108.218 89.9563 105.879 88.3578 103.884 86.1942C103.32 85.5869 103.285 84.9822 103.705 84.2664C108.015 77.2977 110.928 69.7176 113.804 62.0996C114.9 62.4073 115.919 62.9035 116.824 63.6259C115.979 66.1532 115.512 68.7202 115.007 71.3248C114.542 73.5895 114.077 75.892 114.368 78.236C115.208 84.2478 118.289 88.8349 123.533 91.9969C125.08 92.9114 125.229 93.3655 124.841 95.1772C124.299 97.706 123.719 100.272 123.366 102.84C123.287 103.406 123.437 103.785 123.851 104.127C126.377 106.104 128.979 107.855 132.001 109.004C134.682 110.037 137.403 110.693 140.283 109.838C144.755 108.5 149.04 106.783 153.1 104.461C153.442 104.274 153.593 104.161 153.482 103.669C153.26 102.648 153.228 101.552 153.422 100.495C153.656 99.1739 153.852 97.8147 154.085 96.4934C154.202 95.7761 154.205 95.2849 153.259 95.2047C152.541 95.1633 151.861 94.8955 151.181 94.6654C150.652 94.4739 150.047 94.3197 149.975 93.6393C149.903 92.8832 150.472 92.5838 151.003 92.3219C152.596 91.5363 153.926 90.4094 155.03 89.0547C156.744 86.9473 158.08 84.5735 159.34 82.1616C159.646 81.5586 159.951 81.1445 160.633 80.8834C161.581 80.5102 162.454 79.91 163.215 79.1959C164.355 78.1058 164.815 76.8612 164.255 75.3471C164.979 74.4439 164.679 73.8001 163.888 73.0783C162.72 72.0146 161.704 70.876 160.384 70.0004C160.082 69.81 159.97 69.545 159.934 69.2048C160.363 66.5998 160.301 63.9546 160.351 61.31C160.353 60.9322 160.127 60.7044 159.939 60.4768C157.682 57.8207 155.539 55.0519 153.13 52.5084C151.925 51.2556 150.758 49.9274 149.782 48.4868C147.415 45.0745 145.161 41.625 142.566 38.4006C141.927 37.6417 141.285 37.2985 140.301 37.3314C136.895 37.4657 133.562 37.9781 130.193 38.3015C129.625 38.3365 129.321 38.5994 129.054 39.0893C128.405 40.2196 127.68 41.3495 126.994 42.4796C125.544 44.9284 123.83 47.2247 122.757 49.902C121.623 49.5564 120.565 49.2866 119.584 48.6772ZM50.6271 219.722C48.9633 219.487 47.3353 219.668 45.7071 219.887C45.1777 219.809 44.6101 219.806 44.0796 219.954C41.8098 219.83 39.5769 219.894 37.3051 220.185C34.4662 220.36 31.5895 220.535 28.7508 220.672C26.5941 220.623 24.4727 221.104 22.3524 221.358C20.1562 221.65 20.1562 221.65 20.5995 223.843C20.5993 223.881 20.637 223.919 20.6368 223.957C20.6724 224.41 20.8988 224.525 21.3529 224.527C23.7368 224.539 26.1585 224.551 28.5424 224.563C28.7278 225.319 28.6482 226.112 28.6445 226.868C26.412 226.857 24.1416 226.846 21.9093 226.797C21.3039 226.794 21.001 226.83 21.0729 227.586C21.582 231.783 22.0151 236.017 22.524 240.251C22.7421 242.066 23.1564 242.445 25.0105 242.455C26.1836 242.46 27.3573 242.315 28.5305 242.283C32.8067 242.229 37.1204 242.25 41.397 242.12C46.809 241.958 52.2595 241.645 57.6716 241.445C66.4142 241.148 75.1929 241.192 83.9367 240.631C87.4569 240.421 91.014 240.401 94.5355 239.927C95.1413 239.855 95.5204 239.706 95.4485 238.95C95.2753 235.699 95.5184 232.451 95.4966 229.202C95.5005 228.408 95.2364 228.256 94.5553 228.252C91.6795 228.238 88.7663 228.148 85.8907 228.096C85.8541 227.831 85.7799 227.529 85.7812 227.264C85.9058 225.036 85.9926 222.769 86.155 220.541C86.2777 218.69 86.3155 218.69 84.3475 218.756C82.57 218.558 80.7921 218.436 79.0125 218.654C78.4077 218.538 77.8397 218.61 77.2337 218.721C74.4724 218.518 71.7097 218.58 68.9456 218.944C66.1459 218.855 63.3068 219.067 60.5058 219.242C57.8184 219.38 55.0935 219.48 52.4061 219.618C51.8387 219.577 51.2337 219.499 50.6271 219.722ZM130.919 220.763C131.222 220.651 131.487 220.69 131.789 220.805C131.933 222.392 132.114 224.018 132.144 225.605C132.176 226.663 132.516 226.929 133.575 226.934C141.105 227.01 148.672 227.16 156.202 227.235C161.007 227.297 165.775 227.283 170.581 227.269C171.111 227.272 171.603 227.274 171.455 226.48C170.864 223.567 171.219 220.66 171.385 217.714C171.426 216.996 171.276 216.731 170.52 216.651C168.364 216.452 166.17 216.29 164.015 215.863C159.101 214.895 154.186 213.963 149.232 213.448C147.076 213.21 146.775 212.831 146.71 210.677C146.712 210.337 146.789 209.997 146.298 209.957C145.05 209.8 143.879 209.303 142.591 209.561C140.815 209.099 138.96 209.278 137.183 209.043C135.821 208.885 134.459 208.916 133.175 208.418C131.966 207.959 131.024 207.236 131.106 205.763C131.109 205.272 130.769 205.119 130.468 204.891C129.45 204.13 129.151 203.222 129.649 202.091C129.917 201.526 129.843 201.147 129.429 200.692C128.789 200.009 128.301 199.175 128.684 198.27C129.029 197.365 128.652 197.136 127.934 196.944C127.707 196.867 127.48 196.791 127.254 196.676C125.441 195.874 125.334 194.74 126.891 193.501C127.271 193.2 127.688 193.051 128.142 192.978C129.657 192.683 131.209 192.653 132.722 192.812C135.445 193.127 138.168 193.443 140.891 193.759C142.932 194.26 144.972 194.799 146.975 195.338C147.467 195.454 147.393 195.076 147.47 194.849C147.776 194.095 148.269 193.795 149.063 193.95C152.844 194.649 156.626 195.084 160.446 195.405C164.077 195.687 167.708 196.008 171.339 196.403C172.738 196.561 172.738 196.637 172.82 195.239C173.484 183.416 174.829 171.672 176.362 159.967C176.442 159.287 176.559 158.57 177.429 158.461C178.376 158.352 178.638 159.034 178.861 159.753C179.196 160.85 179.569 161.91 179.866 163.045C181.352 168.644 182.384 174.317 183.605 179.953C184.825 185.664 185.932 191.413 186.054 197.308C186.084 198.97 185.704 199.384 184.114 199.376C181.844 199.327 179.536 199.316 177.266 199.115C168.378 198.316 159.528 197.478 150.677 196.641C149.845 196.561 149.692 196.787 149.575 197.58C149.138 201.848 149.154 206.155 148.831 210.423C148.789 211.141 148.977 211.368 149.658 211.447C151.435 211.645 153.213 211.918 154.99 212.116C158.545 212.511 161.983 213.549 165.538 213.982C171.551 214.692 177.565 215.213 183.54 216.036C189.326 216.82 195.113 217.34 200.945 216.349C201.702 216.239 201.931 215.938 201.934 215.296C201.978 214.049 202.06 212.803 201.99 211.555C201.566 205.621 200.952 199.686 200.754 193.715C200.456 185.061 200.007 176.369 199.596 167.714C199.32 162.386 198.816 157.093 198.236 151.839C197.404 144.164 196.571 136.528 194.451 129.074C192.443 121.999 188.419 116.84 181.471 114.047C176.674 112.134 171.802 110.372 166.852 108.799C165.152 108.223 163.453 107.648 161.753 107.073C163.632 109.538 164.413 112.376 165.156 115.251C165.453 116.424 165.299 116.763 164.124 117.211C162.797 117.695 161.433 118.18 160.068 118.626C159.424 118.85 159.46 119.115 159.837 119.57C160.627 120.481 161.379 121.467 162.131 122.415C162.77 123.212 162.88 124.006 162.27 124.947C161.049 126.868 159.942 128.865 158.797 130.862C155.896 135.911 153.599 141.265 150.359 146.123C149.101 148.006 147.88 149.964 146.886 152.038C146.772 152.264 146.619 152.452 146.467 152.64C146.277 152.828 146.05 152.902 145.785 152.788C145.483 152.673 145.295 152.407 145.372 152.106C145.45 151.766 145.603 151.427 145.718 151.087C146.752 148.636 148.201 146.414 149.499 144.116C153.202 137.522 156.339 130.623 160.457 124.258C160.724 123.806 160.688 123.504 160.387 123.124C159.446 121.948 158.506 120.81 157.642 119.559C156.928 118.535 157.159 117.819 158.296 117.371C159.206 117.035 160.116 116.738 161.025 116.402C161.783 116.141 162.843 116.033 163.225 115.468C163.606 114.903 163.043 113.918 162.782 113.161C161.588 109.717 160.736 105.934 156.39 104.893C156.239 104.854 156.05 104.74 155.937 104.626C155.183 104.056 154.955 104.319 154.951 105.188C154.863 107.606 154.738 110.023 154.347 112.439C153.292 119.197 151.33 125.724 149.708 132.366C148.588 136.932 146.713 141.231 145.555 145.759C143.511 153.646 141.958 161.61 140.178 169.574C139.791 171.234 139.707 172.972 139.056 174.556C137.768 174.814 137.353 174.472 137.397 173.225C137.398 172.998 137.4 172.734 137.439 172.507C137.705 172.169 137.669 171.753 137.747 171.375C138.332 167.902 139.219 164.468 139.653 160.956C140.205 156.425 141.626 152.049 142.783 147.634C145.213 138.465 147.491 129.257 149.807 120.049C150.347 117.86 151.077 115.673 151.467 113.408C151.353 113.407 151.315 113.407 151.315 113.445C151.201 113.595 151.048 113.783 150.972 113.934C149.559 116.459 148.034 118.907 145.905 120.937C145.448 121.388 145.105 121.953 144.724 122.48C143.695 123.948 142.591 125.341 141.411 126.658C141.069 127.034 140.689 127.41 140.122 127.218C139.555 127.064 139.406 126.61 139.333 126.081C139.039 124.303 138.707 122.564 138.413 120.824C137.972 118.139 137.266 115.566 135.878 113.141C132.417 116.6 128.769 119.681 125.686 123.368C125.344 123.744 125.002 123.969 124.473 123.853C123.906 123.699 123.87 123.246 123.797 122.754C123.58 120.675 123.477 118.559 122.996 116.478C122.81 115.721 122.814 114.89 122.25 114.17C122.057 114.887 122.016 115.604 121.975 116.322C121.517 124.708 121.249 133.094 121.056 141.481C120.867 148.999 121.057 156.557 121.133 164.076C121.156 167.099 121.179 170.16 121.505 173.146C121.426 173.788 121.158 174.316 120.439 174.35C119.72 174.384 119.534 173.817 119.385 173.249C119.387 172.871 119.427 172.456 119.391 172.078C118.935 164.859 118.819 157.604 118.779 150.349C118.718 139.845 119.11 129.343 119.767 118.88C120.056 114.083 120.231 109.248 120.331 104.412C120.333 104.034 120.524 103.582 119.843 103.578C118.556 103.572 117.27 103.528 115.983 103.521C115.643 103.52 115.415 103.632 115.224 103.971C113.431 106.909 111.827 109.924 110.185 112.939C109.841 113.579 109.992 113.844 110.672 114.074C112.031 114.572 113.43 114.844 114.713 115.53C116.299 116.332 116.409 117.012 115.078 118.252C113.862 119.418 112.645 120.545 111.541 121.824C111.047 122.389 110.931 122.917 111.003 123.673C111.538 130.25 113.436 136.569 114.956 142.925C115.475 145.081 116.07 147.2 116.627 149.356C116.739 149.81 116.774 150.301 116.244 150.45C115.675 150.636 115.412 150.219 115.263 149.727C115.003 148.819 114.705 147.873 114.482 146.965C112.326 139.133 109.829 131.375 109.151 123.211C109.079 122.417 109.233 121.851 109.69 121.248C110.795 119.705 112.201 118.465 113.684 116.999C112.173 116.462 110.776 115.964 109.378 115.466C107.641 114.815 107.491 114.437 108.294 112.778C109.708 109.989 111.386 107.39 113.139 104.83C113.368 104.491 113.748 104.153 113.751 103.586C112.54 103.618 111.404 103.688 110.269 103.72C104.061 104.029 97.8195 103.658 91.6125 103.892C83.2862 104.191 74.9586 104.754 66.6688 105.317C60.8395 105.704 55.049 105.902 49.2251 105.193C46.1996 104.838 45.2216 103.662 45.5012 100.678C46.2575 93.1254 47.7698 85.7273 49.1311 78.2529C49.6756 75.2706 49.7513 75.271 46.6857 75.3692C40.4411 75.5649 34.3063 76.5169 28.1726 77.2422C27.8319 77.2783 27.5668 77.3148 27.4512 77.7298C26.6016 81.2017 24.9963 84.4432 23.9579 87.8385C21.6886 95.2707 19.7971 102.818 17.9057 110.365C16.5552 115.648 15.9988 121.049 16.1989 126.491C16.3352 129.552 17.5343 131.938 20.6699 132.974C24.9388 134.393 29.3244 135.17 33.7488 135.759C40.5556 136.662 47.4416 136.847 54.2883 137.334C61.5512 137.824 68.8171 137.709 76.0822 137.745C82.0985 137.812 88.1153 137.766 94.0952 137.532C95.9118 137.465 95.9117 137.503 95.7888 139.391C95.4167 145.775 94.9311 152.158 94.0295 158.501C92.8521 167.034 91.9018 175.569 91.1027 184.142C90.1046 194.678 89.5228 205.217 88.2979 215.715C88.2183 216.508 88.4062 216.774 89.2387 216.778C91.5092 216.751 93.817 216.838 96.0864 217.038C97.0321 217.119 97.6731 217.575 97.6308 218.482C97.507 220.559 97.9131 222.602 97.9786 224.68C98.0084 226.305 97.7062 226.19 99.4468 226.199C106.371 226.308 113.333 226.343 120.257 226.642C120.975 226.683 121.09 226.457 121.055 225.814C120.989 224.038 120.77 222.261 120.968 220.487C121.387 220.073 121.803 220.113 122.255 220.493C122.738 222.233 123.032 224.048 123.212 225.863C123.247 226.505 123.548 226.771 124.229 226.775C125.856 226.783 127.521 226.791 129.148 226.875C129.867 226.916 130.133 226.728 130.174 225.935C130.297 224.16 130.267 222.422 130.919 220.763ZM127.905 195.055C129.264 195.666 130.398 195.974 131.532 196.206C132.515 196.438 132.852 197.12 132.395 197.722C132.128 198.098 131.712 198.058 131.333 198.132C130.387 198.241 130.157 198.769 130.759 199.489C131.098 199.907 131.55 200.211 132.003 200.516C132.757 201.011 132.792 201.653 132.07 202.141C131.691 202.403 131.122 202.59 131.271 203.119C131.382 203.611 131.949 203.652 132.403 203.805C133.158 204.035 133.648 204.491 133.19 205.32C132.808 205.998 133.148 206.227 133.676 206.418C135.036 206.916 136.474 206.961 137.911 207.044C140.559 207.208 143.209 207.146 145.817 207.688C146.724 207.881 146.877 207.58 146.919 206.748C147.009 203.84 147.137 200.969 147.302 198.098C147.344 197.229 147.043 197.001 146.325 196.808C142.734 195.922 139.104 195.45 135.435 195.092C132.977 194.853 130.594 194.539 127.905 195.055ZM178.041 164.963C177.927 164.962 177.814 164.962 177.7 164.999C177.617 166.472 177.572 167.945 177.375 169.418C176.272 178.216 175.472 187.016 174.861 195.854C174.819 196.61 174.931 196.95 175.764 196.954C178.185 197.042 180.606 197.205 183.027 197.368C183.708 197.409 183.86 197.221 183.826 196.541C183.765 193.442 183.213 190.417 182.698 187.429C181.484 180.358 179.777 173.397 178.336 166.362C178.339 165.871 178.152 165.417 178.041 164.963ZM151.762 107.288C149.978 108.375 148.12 109.046 146.3 109.755C143.647 110.724 141.068 111.92 138.229 112.095C137.358 112.166 137.508 112.432 137.808 112.962C139.008 115.273 139.791 117.695 140.194 120.228C140.415 121.552 140.635 122.875 140.93 124.464C145.12 119.006 149.685 114.041 151.762 107.288ZM122.635 105.292C122.624 107.333 122.275 109.144 122.721 110.734C123.65 114.139 124.845 117.432 125.281 121.137C128.287 117.827 131.555 115.047 134.635 111.851C130.063 110.657 126.213 108.522 122.635 105.292ZM91.464 225.895C91.4642 225.857 91.4642 225.857 91.4644 225.819C92.5235 225.9 93.6209 225.905 94.6796 226.062C95.5872 226.179 95.7785 225.765 95.7824 224.971C95.7529 223.271 95.7235 221.571 95.7321 219.833C95.7351 219.228 95.547 219 94.9416 218.997C92.8606 218.949 90.8176 218.864 88.7369 218.778C88.0938 218.737 88.0543 219.077 88.014 219.568C87.8915 221.381 87.769 223.194 87.6087 225.006C87.5299 225.648 87.7178 225.914 88.3991 225.879C89.4209 225.847 90.4424 225.889 91.464 225.895ZM174.472 75.4733C174.59 74.5293 174.405 73.6216 174.334 72.7144C174.297 72.412 174.223 72.1093 173.845 72.1452C173.466 72.1434 173.351 72.4451 173.388 72.7475C173.718 74.8273 173.103 76.7512 172.601 78.7134C172.485 79.2041 172.521 79.6199 173.013 79.7356C173.504 79.8514 173.695 79.4745 173.773 79.0593C174.044 77.8516 174.239 76.6812 174.472 75.4733ZM171.699 77.5377C171.744 76.0266 171.562 74.6277 171.38 73.191C171.343 72.9641 171.307 72.6616 170.966 72.66C170.701 72.6586 170.662 72.9229 170.661 73.1118C170.69 75.0012 170.756 76.8907 170.293 78.7398C170.216 79.0417 170.29 79.4199 170.705 79.4975C171.159 79.5753 171.388 79.312 171.465 78.9345C171.543 78.4059 171.621 77.9151 171.699 77.5377ZM161.731 50.0573C161.581 49.7921 161.507 49.565 161.357 49.3376C160.379 48.0481 159.363 46.834 158.803 45.2821C158.691 45.017 158.503 44.865 158.237 44.977C157.934 45.0889 157.895 45.3532 157.97 45.5802C158.604 47.2836 159.429 48.9124 160.557 50.316C160.745 50.5436 161.047 50.6585 161.313 50.4709C161.503 50.3963 161.617 50.2079 161.731 50.0573ZM168.226 75.9336C168.147 76.5377 168.068 77.1796 167.989 77.7838C167.95 78.1614 167.758 78.6517 168.287 78.7676C168.93 78.922 168.933 78.3174 168.973 77.9398C169.246 76.1653 169.179 74.3891 168.923 72.6498C168.886 72.3852 168.85 72.0071 168.472 72.1186C168.131 72.1925 168.129 72.5703 168.203 72.8352C168.425 73.8564 168.193 74.8755 168.226 75.9336ZM112.126 72.4818C111.823 72.5559 111.783 72.8201 111.669 73.0463C110.751 75.0065 110.286 77.1578 109.708 79.2331C109.631 79.4972 109.63 79.7995 109.894 79.8763C110.234 79.9914 110.387 79.6899 110.502 79.4259C111.118 77.2753 111.47 75.0478 112.312 72.9739C112.427 72.7478 112.466 72.5213 112.126 72.4818ZM153.428 45.6711C152.822 45.857 152.971 46.2356 153.083 46.614C153.68 48.2794 154.733 49.6826 155.596 51.1982C155.746 51.5012 155.932 51.9556 156.388 51.6933C156.881 51.4313 156.504 51.0894 156.355 50.7864C155.454 49.1572 154.175 47.7907 153.692 45.9369C153.654 45.8611 153.541 45.785 153.428 45.6711ZM158.742 50.1559C158.63 49.6641 158.33 49.2092 158.029 48.7921C157.353 47.8064 156.601 46.8203 156.077 45.7598C155.964 45.5703 155.966 45.1925 155.625 45.3419C155.321 45.4538 155.433 45.7566 155.508 45.9836C156.068 47.5733 157.007 48.976 157.718 50.4531C157.868 50.7183 158.133 50.833 158.436 50.7211C158.664 50.6089 158.74 50.4204 158.742 50.1559ZM112.336 75.9589C111.532 77.7308 111.561 79.6201 111.324 81.5081C111.285 81.7724 111.094 82.2626 111.585 82.2651C112.077 82.2675 111.89 81.8132 111.892 81.5109C111.939 79.6598 111.986 77.8086 112.336 75.9589Z" fill="#221F1C"/>
<path d="M216.74 228.404C216.819 227.649 217.05 226.895 216.789 226.138C217.409 223.193 217.499 220.171 217.665 217.187C217.961 211.03 217.991 204.833 219.043 198.755C219.082 198.605 219.082 198.491 219.121 198.34C219.395 196.415 219.395 196.415 221.363 196.462C222.989 196.508 224.578 196.629 226.127 197.09C226.732 197.282 226.958 197.548 226.992 198.228C227.326 207.222 226.714 216.212 226.254 225.164C226.213 225.617 226.287 226.071 226.284 226.562C225.94 227.279 226.05 228.073 226.16 228.829C225.998 230.982 225.836 233.172 225.674 235.325C225.633 235.816 225.935 236.044 226.313 236.197C228.011 237.037 229.405 238.291 230.685 239.582C233.133 242.05 234.026 245.039 232.987 248.51C232.372 250.585 231.304 252.242 229.632 253.594C228.264 254.721 226.635 255.242 225.007 255.385C221.335 255.745 217.627 255.575 214.076 254.424C209.769 253.08 207.779 249.897 207.346 245.587C207.129 243.508 208.272 241.927 209.453 240.346C210.939 238.351 213.026 237.227 215.225 236.218C216.06 235.844 216.403 235.355 216.445 234.448C216.493 232.446 216.654 230.406 216.74 228.404ZM226.345 245.039C227.594 244.932 228.993 245.203 230.43 245.361C231.564 245.48 231.641 245.367 231.305 244.308C230.224 241.053 227.546 239.377 224.715 237.965C223.809 237.507 223.583 237.128 223.626 236.222C223.789 233.767 223.877 231.311 224.003 228.856C224.418 221.339 224.418 213.782 225.211 206.305C225.45 204.039 225.688 201.773 225.964 199.508C226.043 198.866 225.893 198.563 225.25 198.522C224.002 198.44 222.753 198.32 221.505 198.163C220.636 198.045 220.369 198.346 220.365 199.215C220.348 202.691 220.368 206.205 220.238 209.681C219.932 217.954 219.021 226.186 218.299 234.457C218.258 235.024 218.142 235.59 218.026 236.156C217.91 236.685 217.606 236.948 217.112 237.21C214.419 238.632 211.763 240.093 210.235 242.919C209.93 243.484 209.283 244.048 209.621 244.616C209.922 245.109 210.755 244.924 211.323 244.927C216.318 244.8 221.238 244.749 226.345 245.039ZM230.457 247.44C230.384 247.024 230.727 246.459 230.085 246.267C229.367 246.036 229.288 246.678 229.134 247.131C228.713 248.187 228.179 249.129 227.267 249.804C226.849 250.105 226.356 250.404 226.769 250.973C227.183 251.58 227.751 251.394 228.283 251.056C229.611 250.232 230.223 248.95 230.457 247.44ZM225.706 251.648C225.709 251.195 225.406 251.118 225.104 251.078C224.839 251.039 224.612 251.114 224.572 251.416C224.533 251.831 224.759 251.983 225.137 252.023C225.402 252.062 225.667 251.95 225.706 251.648Z" fill="#7A72B5"/>
<path d="M45.3629 52.1633C46.3919 50.6948 47.7977 49.5305 48.7512 48.0239C49.6284 46.6302 49.6709 45.6858 48.6559 44.3206C48.3929 43.9414 48.6205 43.8292 48.7352 43.6031C49.1165 43.0004 49.6489 42.4741 49.766 41.7568C49.8821 41.2284 49.9988 40.5866 49.5464 40.2444C48.8681 39.6742 49.0968 39.3353 49.5911 38.8466C49.9712 38.5084 50.2381 38.0941 50.5429 37.68C51.4574 36.3999 51.4673 34.3974 49.0843 34.1967C50.2017 30.1593 51.2813 26.084 52.3986 22.0467C52.7837 20.6884 53.1312 19.2921 53.4408 17.8956C53.5961 17.103 54.0893 16.8409 54.8085 16.8067C57.117 16.7426 59.3471 17.2448 61.5771 17.7848C62.3329 17.9775 62.4429 18.6959 62.326 19.3755C62.0533 20.961 61.8184 22.5468 61.4324 24.094C60.0015 30.3212 57.8527 36.356 56.3463 42.5451C56.1536 43.262 55.8473 43.9784 56.0706 44.7352C54.3251 45.7089 52.9109 48.5735 53.1661 50.5395C53.2395 50.9932 53.427 51.3342 53.7281 51.6758C53.7271 51.8647 53.764 52.0538 53.7255 52.2047C53.0322 54.6572 52.3766 57.1477 51.6077 59.5999C51.0692 61.373 50.0024 62.8413 48.3703 63.8534C47.3454 64.4906 46.3616 64.4858 45.3809 63.8386C43.8344 62.8485 43.6528 61.2985 43.6985 59.7118C43.8627 57.1055 44.7452 54.654 45.3629 52.1633ZM60.4681 20.1219C60.5843 19.5935 60.4346 19.2527 59.7919 19.1362C58.5065 18.9031 57.1834 18.6321 55.8981 18.3612C55.2554 18.2447 54.9894 18.4701 54.8729 19.074C54.6791 20.0177 54.4852 20.9613 54.2159 21.8668C53.1394 25.2998 52.3274 28.8096 51.5911 32.3199C51.3974 33.2257 51.6608 33.5293 52.5303 33.6848C53.6648 33.8415 54.7608 34.1114 55.8947 34.3815C56.4994 34.5357 56.9162 34.4244 57.1087 33.7452C58.493 29.2936 59.6506 24.7653 60.4681 20.1219ZM54.1013 37.3954C54.0251 37.5083 53.9112 37.5833 53.8726 37.7343C52.99 40.2236 52.334 42.7897 51.7537 45.3561C51.6762 45.7336 51.7884 45.9986 52.2043 46.0762C52.696 46.1164 52.8112 45.777 52.8887 45.3995C53.1987 43.9275 53.5466 42.4556 53.8187 40.9834C54.0515 39.8133 54.3599 38.6813 54.1013 37.3954ZM51.8514 48.5682C51.8531 48.2282 51.8547 47.8881 51.4387 47.8483C50.9848 47.8082 50.9071 48.2235 50.8676 48.5633C50.7898 48.9786 50.9397 49.2816 51.3938 49.2838C51.848 49.2483 51.8121 48.8703 51.8514 48.5682Z" fill="#7A72B5"/>
<path d="M159.935 69.091C159.971 69.4312 160.083 69.6963 160.385 69.8867C161.705 70.7622 162.721 71.9386 163.889 72.9645C164.68 73.6863 164.98 74.3301 164.256 75.2333C163.725 75.4196 163.195 75.5303 162.629 75.1875C159.913 73.5115 157.006 72.0992 154.366 70.2725C153.688 69.8157 152.933 69.4719 152.216 69.0527C151.725 68.7858 151.384 68.8597 151.041 69.3492C150.088 70.7802 149.097 72.1733 148.107 73.5664C147.344 74.6584 146.356 75.5225 145.105 76.083C144.081 76.5314 143.174 76.2624 142.23 75.9177C141.852 75.7646 141.436 75.687 141.433 76.3293C141.39 77.3871 140.709 77.4215 139.915 77.2664C138.138 76.8798 136.477 76.2292 134.968 75.2394C134.176 74.7065 133.46 73.985 133.466 72.8893C133.582 72.4365 135.134 72.2553 133.738 71.4927C132.758 70.6566 132.423 69.5592 132.391 68.35C132.324 66.4983 132.447 64.6475 132.343 62.7956C132.275 61.2083 131.52 60.7134 129.854 60.9696C129.703 60.8555 129.59 60.7794 129.439 60.6653C128.873 60.4736 128.493 60.8495 128.075 61.1497C126.936 61.9375 125.834 62.8011 124.695 63.6267C123.404 64.5649 122.002 64.9358 120.376 64.5499C119.167 64.2794 118.111 63.4807 116.825 63.5121C115.92 62.7898 114.901 62.2935 113.805 61.9858C111.051 60.3097 111.101 57.8918 111.72 55.0611C112.3 52.4947 113.786 50.4995 114.97 48.2762C115.199 47.8617 115.577 47.9013 115.993 47.979C117.203 48.2117 118.412 48.5955 119.66 48.6772C120.603 49.2864 121.699 49.5186 122.796 49.7129C125.704 50.7475 128.613 51.7443 131.484 52.7787C135.412 54.1961 138.997 56.2542 142.696 58.1239C148.471 61.0618 154.017 64.3765 158.953 68.6327C159.179 68.8605 159.481 69.1265 159.935 69.091ZM114.305 60.3636C115.095 61.2743 116.114 61.8461 117.324 62.0033C118.456 62.689 119.74 63.0732 120.987 63.4572C121.781 63.6878 122.424 63.6154 123.145 63.2034C124.398 62.4539 125.5 61.477 126.565 60.4621C127.895 59.2219 129.296 59.0777 130.882 59.7278C131.109 59.8045 131.335 59.9568 131.6 59.9959C133.037 60.1541 133.562 61.1013 133.783 62.3871C134.114 64.2023 133.878 66.0148 133.945 67.8287C133.978 68.8868 134.048 69.9451 135.067 70.5547C137.858 72.3066 140.688 73.8697 143.824 74.9432C144.202 75.0584 144.504 75.0599 144.808 74.7969C145.72 74.008 146.633 73.1813 147.357 72.2025C148.461 70.7344 149.49 69.2659 150.783 67.9499C151.201 67.5364 151.504 67.5001 151.995 67.767C154.863 69.2926 157.732 70.8181 160.447 72.6074C160.862 72.8739 161.315 73.2162 162.072 73.1444C161.544 72.6506 161.168 72.1953 160.678 71.8151C159.623 70.9408 158.53 70.142 157.474 69.3055C153.215 65.8461 148.613 62.9139 143.782 60.3585C140.952 58.8709 138.082 57.5343 135.213 56.1599C130.948 54.0984 126.491 52.4139 121.957 50.9934C120.937 50.5727 119.955 50.19 118.859 50.0713C116.367 48.9632 115.912 49.1121 114.803 51.5247C114.726 51.6755 114.612 51.826 114.536 51.9768C113.504 53.9364 112.888 56.0115 112.764 58.2023C112.759 59.2224 113.323 59.9809 114.305 60.3636ZM135.541 74.1465C135.958 73.9974 136.337 73.7348 136.491 73.2822C136.568 73.0558 136.304 72.9034 136.077 72.9023C135.585 72.9376 135.167 73.1245 135.051 73.6529C135.012 73.9171 135.2 74.107 135.541 74.1465ZM138.299 74.9914C138.489 74.9167 138.754 74.8047 138.793 74.5404C138.833 74.2006 138.53 74.1613 138.303 74.0846C138.001 74.0453 137.811 74.1955 137.809 74.4978C137.77 74.7998 137.921 74.9895 138.299 74.9914ZM140.112 75.6049C140.073 75.907 140.224 76.0589 140.526 76.0981C140.829 76.1374 140.981 75.9115 141.02 75.6472C141.059 75.3829 140.871 75.2686 140.644 75.2297C140.379 75.1906 140.189 75.3408 140.112 75.6049Z" fill="#7A72B5"/>
<path d="M68.994 216.791C66.1924 217.08 63.3917 217.179 60.5914 217.203C60.5705 213.765 60.6252 210.364 60.4908 206.925C60.3907 204.204 60.2526 201.521 60.266 198.801C60.2709 197.818 60.4249 197.29 61.6736 197.296C63.5655 197.306 65.4217 196.899 67.3146 196.72C67.9583 196.647 68.4878 196.688 68.5592 197.557C69.2086 203.984 69.1392 210.369 68.994 216.791ZM67.6447 206.507C67.695 203.976 67.5562 201.444 67.6065 198.913C67.6099 198.232 67.3843 197.929 66.665 198.001C65.3779 198.108 64.0912 198.139 62.8043 198.209C61.4415 198.315 61.2133 198.541 61.3199 199.939C61.6418 203.719 62.1153 207.462 62.2101 211.241C62.2446 211.921 62.5844 212.074 63.1516 212.153C64.1727 212.271 65.2328 212.163 66.2547 212.13C66.9738 212.096 67.316 211.758 67.3198 211.002C67.4027 209.529 67.5615 208.018 67.6447 206.507Z" fill="#7A72B5"/>
<path d="M86.5968 215.329C86.5517 216.803 86.5517 216.803 84.4336 216.603C84.5654 212.901 84.6594 209.199 84.7914 205.459C84.8768 203.494 85 201.53 85.0854 199.566C85.1271 198.773 84.8263 198.393 84.0311 198.503C82.8195 198.648 81.6092 198.528 80.3987 198.447C79.4152 198.366 78.96 198.591 79.068 199.725C79.4566 205.319 79.1262 210.909 79.0984 216.539C78.4923 216.687 77.8494 216.608 77.2439 216.605C77.2933 214.263 77.3051 211.883 77.468 209.541C77.712 206.104 77.7667 202.703 77.8593 199.266C77.9044 197.792 77.9417 197.906 79.3051 197.686C80.5549 197.465 81.8032 197.547 83.0525 197.44C83.1282 197.44 83.2038 197.441 83.2795 197.441C86.648 197.307 86.3434 197.683 86.4064 200.253C86.5346 204.938 86.5116 209.586 86.4128 214.27C86.3355 214.61 86.2199 215.025 86.5968 215.329Z" fill="#7A72B5"/>
<path d="M30.3885 218.527C29.8198 218.751 29.2146 218.71 28.647 218.707C28.743 214.589 28.65 210.433 28.8974 206.315C29.061 203.823 28.9977 201.329 28.9722 198.835C28.9761 198.041 29.1289 197.74 29.9987 197.857C31.7382 198.093 33.481 197.648 35.2222 197.543C36.2064 197.472 36.5833 197.777 36.6923 198.684C37.2001 203.145 37.4049 207.642 37.3449 212.138C37.3365 213.838 37.29 215.576 37.2816 217.277C37.28 217.617 37.2024 217.994 37.6557 218.147C36.9744 218.182 36.2933 218.178 35.6499 218.213C35.5822 216.588 35.5526 214.925 35.6363 213.301C35.8855 208.806 35.6807 204.309 35.7029 199.813C35.7063 199.133 35.5186 198.829 34.7996 198.826C33.7778 198.858 32.7185 198.815 31.6966 198.848C29.9936 198.877 29.9936 198.877 30.0988 200.578C30.5233 206.55 30.418 212.557 30.3885 218.527Z" fill="#7A72B5"/>
<path d="M45.7174 217.772C45.1117 217.806 44.5063 217.803 43.9007 217.838C44.0402 212.587 44.2553 207.336 44.1297 202.121C44.0971 201.063 43.9509 200.005 44.0699 198.909C44.1112 198.192 44.4158 197.815 45.173 197.744C47.3686 197.566 49.5646 197.312 51.7602 197.134C52.2145 197.098 52.7058 197.214 52.5893 197.818C52.2009 199.856 52.6829 201.861 52.6728 203.902C52.6523 208.058 52.9343 212.253 52.611 216.408C52.5712 216.823 52.4554 217.276 52.7943 217.618C52.1133 217.577 51.3937 217.724 50.7515 217.494C50.882 214.057 51.0127 210.581 51.1432 207.144C51.2317 204.537 51.2825 201.93 51.4087 199.361C51.4504 198.568 51.1488 198.34 50.4297 198.374C48.8779 198.442 47.2885 198.472 45.7367 198.54C45.131 198.575 45.0535 198.952 45.0891 199.406C45.1974 200.464 45.3435 201.523 45.4518 202.581C45.9187 207.647 45.591 212.708 45.7174 217.772Z" fill="#7A72B5"/>
<path d="M57.6323 4.38972C57.6737 3.67204 57.9802 2.91788 58.4756 2.20245C58.895 1.5622 59.7666 1.30204 60.4084 1.60748C60.7482 1.7603 60.7864 1.68492 60.9012 1.42101C61.2077 0.666853 61.7404 0.0649542 62.6115 -0.0818648C63.0659 -0.155181 63.5196 -0.0773655 63.7068 0.339182C64.0067 0.907422 64.197 0.681663 64.5012 0.380901C65.2995 -0.370816 66.3594 -0.441132 67.1509 0.205111C67.6409 0.585375 67.6381 1.15212 67.711 1.71923C67.7822 2.62639 67.5889 3.45667 67.0933 4.20989C66.9026 4.51122 66.5989 4.69863 66.2975 4.43265C65.9961 4.16667 66.1864 3.94091 66.4148 3.67756C67.0241 2.88712 67.0286 1.98034 66.8439 1.07261C66.6953 0.505123 65.8258 0.34968 65.2938 0.800448C64.9519 1.06324 64.6475 1.40178 64.3433 1.70255C63.8872 2.11591 63.6227 2.03903 63.4741 1.47154C63.3999 1.1689 63.4018 0.791074 63.0238 0.713634C62.6458 0.636194 62.3419 0.861391 62.0756 1.16234C61.6951 1.57608 61.5413 2.0665 61.4252 2.5949C61.3859 2.89697 61.3842 3.23702 61.0054 3.31071C60.6267 3.3844 60.5905 3.04416 60.4405 2.77894C60.1404 2.24848 59.6108 2.20807 59.1918 2.77275C58.6208 3.45003 58.314 4.27975 58.3095 5.18653C58.3071 5.67771 58.4182 6.16944 58.5673 6.62359C58.6044 6.7749 58.717 6.96438 58.5274 7.03901C58.2998 7.15123 58.2254 6.88638 58.1503 6.77266C57.7757 6.01513 57.5522 5.29613 57.6323 4.38972Z" fill="#221F1C"/>
<path d="M64.9295 5.5594C64.3865 8.23936 64.0702 10.996 62.998 13.56C62.6921 14.2008 62.3484 14.8414 61.9293 15.4061C61.8149 15.5945 61.6253 15.6691 61.4367 15.5548C61.2104 15.4025 61.287 15.214 61.4014 15.0257C62.8496 12.9547 63.2401 10.5007 63.8195 8.1232C64.051 7.21753 64.169 6.31131 64.514 5.40621C64.5526 5.25526 64.5537 5.02857 64.7806 5.06747C65.0073 5.14416 64.8924 5.40808 64.9295 5.5594Z" fill="#221F1C"/>
<path d="M37.3981 170.727C38.6843 170.809 39.7755 172.062 39.6935 173.346C39.6099 174.932 38.2408 176.324 36.8411 176.241C35.4793 176.159 34.4258 174.944 34.5084 173.547C34.5919 171.96 35.9228 170.645 37.3981 170.727ZM37.1635 172.275C36.5569 172.499 36.1384 172.95 36.097 173.668C36.0555 174.424 36.8488 174.692 37.2272 174.694C37.9081 174.735 38.1012 173.942 38.1797 173.376C38.2582 172.81 37.7679 172.467 37.1635 172.275Z" fill="#221F1C"/>
<path d="M216.831 171.616C214.534 169.488 214.958 167.866 217.656 165.612C218.985 164.523 220.88 163.928 222.809 164.126C226.062 164.482 227.446 167.625 225.541 170.223C223.179 173.499 219.354 174.122 216.831 171.616ZM223.35 169.494C223.769 168.93 224.454 168.291 224.156 167.345C223.82 166.323 222.875 166.205 222.006 165.936C220.267 165.474 219.806 166.907 219.045 167.81C218.626 168.337 217.905 168.825 218.506 169.659C219.032 170.38 219.711 170.874 220.657 170.766C221.642 170.657 222.514 170.246 223.35 169.494Z" fill="#221F1C"/>
<path d="M81.0949 42.2897C81.2166 40.6278 82.1673 39.688 83.6803 39.8088C84.9286 39.8906 85.9063 41.1423 85.8237 42.5399C85.7409 43.9752 84.5625 45.0651 83.2385 44.983C81.9523 44.901 81.0123 43.6873 81.0949 42.2897ZM82.4211 41.9185C82.4169 42.7875 82.6413 43.3175 83.3599 43.3967C84.0784 43.4758 84.3836 42.9861 84.4246 42.344C84.4652 41.7775 84.2031 41.2094 83.5595 41.2818C83.1429 41.3553 82.2739 41.0865 82.4211 41.9185Z" fill="#221F1C"/>
<path d="M59.8761 9.76617C59.7176 11.2012 59.3701 12.5974 58.8715 13.9552C58.7949 14.1437 58.6804 14.3321 58.566 14.5204C58.4898 14.6334 58.3757 14.7462 58.2249 14.6321C58.1117 14.556 58.1125 14.4048 58.1507 14.3295C58.8777 12.7084 58.9619 10.9707 59.084 9.23327C59.0848 9.08214 59.0853 8.96879 59.1239 8.81784C59.1629 8.59134 59.3148 8.47874 59.5418 8.47986C59.7687 8.51877 59.9195 8.63287 59.9184 8.85956C59.9545 9.1998 59.9152 9.50187 59.8761 9.76617Z" fill="#221F1C"/>
<path d="M29.5515 181.155C30.8757 181.199 31.5532 181.92 31.5091 183.205C31.4645 184.565 30.3996 185.655 29.1889 185.611C28.0161 185.568 27.2638 184.657 27.3085 183.259C27.3538 181.748 28.0381 181.109 29.5515 181.155ZM29.544 182.666C29.1658 182.626 28.9004 182.738 28.898 183.23C28.8963 183.57 28.8939 184.061 29.3479 184.063C29.802 184.065 30.1066 183.689 30.1467 183.236C30.1866 182.82 29.9985 182.593 29.544 182.666Z" fill="#221F1C"/>
<path d="M65.0954 186.356C64.0698 187.144 62.4438 186.909 61.6162 185.923C60.6384 184.709 60.7616 182.745 61.8634 181.844C62.927 181.018 64.5532 181.215 65.3802 182.314C66.3957 183.566 66.235 185.455 65.0954 186.356ZM64.2316 185.029C64.5373 184.426 64.5403 183.822 64.1267 183.291C63.6756 182.684 62.9171 183.02 62.6133 183.245C62.0815 183.658 62.4563 184.378 62.7566 184.871C63.0948 185.364 63.6627 185.291 64.2316 185.029Z" fill="#221F1C"/>
<path d="M64.138 173.353C63.1122 174.18 62.1288 174.099 61.3011 173.113C60.4359 172.088 60.5192 170.54 61.4691 169.751C62.381 169 63.5531 169.194 64.4558 170.295C65.3583 171.433 65.278 172.377 64.138 173.353ZM63.1219 172.215C63.4257 171.99 63.5784 171.726 63.2395 171.384C62.976 171.118 62.6749 170.777 62.3331 171.04C61.9532 171.34 62.0264 171.832 62.2894 172.211C62.5528 172.514 62.8175 172.553 63.1219 172.215Z" fill="#221F1C"/>
<path d="M61.732 9.43529C61.7275 10.3421 61.4956 11.3233 61.2261 12.2666C61.1877 12.3797 61.1493 12.4929 61.1109 12.6061C61.0345 12.7568 60.9584 12.832 60.8072 12.7935C60.6182 12.7548 60.619 12.6036 60.6576 12.4527C60.7355 11.9997 60.8512 11.5468 60.929 11.1316C61.3156 9.47101 61.3995 7.80894 61.2943 6.10815C61.2951 5.95702 61.1829 5.69197 61.3723 5.65513C61.6752 5.61885 61.598 5.92073 61.6351 6.07205C61.8189 7.16869 61.8137 8.22662 61.732 9.43529Z" fill="#221F1C"/>
<path d="M30.4322 156.071C31.5294 156.114 32.8103 157.254 32.8058 158.16C32.7631 159.143 31.6608 160.157 30.6393 160.114C29.4286 160.071 28.5628 159.16 28.6066 157.951C28.6124 156.779 29.3729 156.028 30.4322 156.071ZM31.5566 158.268C31.5953 158.079 30.6166 157.054 30.4272 157.091C30.0108 157.126 29.8579 157.428 29.8562 157.768C29.8154 158.372 30.1543 158.714 30.7213 158.83C31.1373 158.87 31.4035 158.607 31.5566 158.268Z" fill="#221F1C"/>
<path d="M74.7053 25.8977C73.5329 25.7785 72.6288 24.9428 72.7466 24.0744C72.826 23.3191 73.6993 22.7189 74.5693 22.7988C75.8552 22.9185 76.722 23.6407 76.6422 24.4715C76.5242 25.3777 75.7266 25.9783 74.7053 25.8977ZM74.8287 23.8958C74.526 23.8943 74.0725 23.7787 74.0326 24.1941C73.9549 24.6093 74.4468 24.6118 74.7111 24.7264C75.0132 24.8413 75.4297 24.8056 75.5072 24.4281C75.5851 23.9751 75.055 24.048 74.8287 23.8958Z" fill="#221F1C"/>
<path d="M87.4206 33.3285C86.5883 33.2866 85.7604 32.3757 85.7646 31.5067C85.8055 30.9023 86.6415 30.1886 87.3981 30.2301C88.2684 30.2344 89.134 31.1833 89.0923 31.9766C89.0127 32.7696 88.2529 33.3704 87.4206 33.3285ZM87.4635 32.3085C87.7662 32.31 88.0691 32.2738 88.1086 31.9339C88.1487 31.4807 87.7711 31.3277 87.4309 31.2504C87.1283 31.2112 86.8247 31.3986 86.8232 31.7008C86.7835 32.0785 87.1233 32.2313 87.4635 32.3085Z" fill="#221F1C"/>
<path d="M220.657 186.219C219.402 187.384 216.98 187.372 216.154 186.235C215.289 185.097 215.408 183.888 216.435 182.873C217.652 181.632 219.431 181.603 220.446 182.855C221.349 183.956 221.494 185.165 220.657 186.219ZM217.56 184.957C218.05 185.337 218.655 185.416 219.149 185.04C219.642 184.741 219.304 184.323 218.964 184.095C218.587 183.791 218.288 183.147 217.68 183.673C217.338 184.011 217.108 184.464 217.56 184.957Z" fill="#221F1C"/>
<path d="M63.2288 5.17313C63.187 5.96638 63.1074 6.75945 63.0657 7.5527C63.0649 7.70383 62.9885 7.85459 62.7995 7.81587C62.6105 7.77715 62.6112 7.62602 62.6498 7.47508C62.7672 6.6822 62.9223 5.92729 63.0398 5.13441C63.1153 5.17257 63.1909 5.17294 63.2288 5.17313Z" fill="#221F1C"/>
<path d="M121.082 220.45C120.884 222.224 121.102 224.001 121.169 225.778C121.204 226.42 121.089 226.646 120.371 226.605C113.447 226.306 106.485 226.272 99.5606 226.162C97.82 226.153 98.1221 226.268 98.0923 224.643C98.0647 222.565 97.6586 220.522 97.7445 218.445C97.7868 217.538 97.1458 217.082 96.2002 217.001C93.9306 216.839 91.6229 216.714 89.3524 216.741C88.5199 216.737 88.332 216.471 88.4116 215.678C89.6365 205.18 90.2564 194.604 91.2164 184.105C92.0156 175.532 92.9659 166.997 94.1432 158.464C95.007 152.121 95.4926 145.738 95.9026 139.354C96.0252 137.504 96.0256 137.428 94.2089 137.494C88.191 137.767 82.2122 137.775 76.1959 137.708C68.931 137.634 61.6649 137.787 54.402 137.297C47.5553 136.81 40.6693 136.625 33.8625 135.722C29.4381 135.133 25.0146 134.356 20.7835 132.937C17.6479 131.901 16.4108 129.552 16.3126 126.454C16.0745 121.012 16.6688 115.611 18.0193 110.328C19.9486 102.781 21.8401 95.2338 24.0715 87.8015C25.11 84.4061 26.7153 81.1646 27.5649 77.6927C27.6805 77.2777 27.9455 77.2412 28.2863 77.2051C34.42 76.4798 40.5548 75.5278 46.7237 75.3317C49.7893 75.2335 49.7138 75.1954 49.1691 78.2154C47.808 85.652 46.2955 93.0879 45.5392 100.641C45.2216 103.662 46.2376 104.801 49.2631 105.156C55.087 105.865 60.8775 105.667 66.7068 105.28C75.0345 104.717 83.3243 104.153 91.6506 103.854C97.8576 103.621 104.1 103.954 110.307 103.682C111.442 103.612 112.578 103.58 113.789 103.548C113.786 104.115 113.406 104.415 113.177 104.792C111.424 107.353 109.708 109.951 108.332 112.741C107.491 114.399 107.641 114.777 109.416 115.429C110.814 115.964 112.211 116.425 113.722 116.961C112.24 118.39 110.833 119.667 109.728 121.211C109.271 121.813 109.117 122.417 109.189 123.173C109.867 131.338 112.364 139.096 114.52 146.928C114.781 147.874 115.041 148.782 115.301 149.69C115.45 150.182 115.713 150.599 116.282 150.413C116.774 150.264 116.777 149.773 116.666 149.319C116.109 147.162 115.514 145.043 114.994 142.887C113.437 136.532 111.538 130.213 111.041 123.636C110.968 122.917 111.123 122.351 111.58 121.787C112.683 120.508 113.9 119.343 115.116 118.215C116.447 116.975 116.336 116.332 114.751 115.493C113.468 114.844 112.069 114.535 110.71 114.037C110.03 113.807 109.88 113.542 110.223 112.901C111.865 109.886 113.47 106.872 115.263 103.933C115.453 103.594 115.681 103.482 116.022 103.484C117.308 103.49 118.594 103.534 119.881 103.541C120.562 103.544 120.371 103.997 120.369 104.374C120.269 109.21 120.094 114.008 119.805 118.843C119.148 129.306 118.756 139.808 118.817 150.312C118.857 157.566 118.935 164.821 119.429 172.04C119.465 172.418 119.425 172.834 119.423 173.212C119.12 173.248 118.856 173.247 118.553 173.283C114.237 173.677 109.919 174.487 105.532 173.974C104.587 173.856 104.356 174.573 104.24 175.215C104.122 176.083 104.042 176.989 104.075 177.896C104.353 182.81 104.632 187.723 104.986 192.637C105.482 199.365 106.055 206.093 107.271 212.711C107.676 214.942 107.74 217.247 108.6 219.405C108.824 220.011 109.126 220.239 109.731 220.242C111.699 220.252 113.666 220.413 115.634 220.309C117.413 220.242 119.267 220.138 121.082 220.45ZM40.7405 106.889C40.7004 107.342 40.6609 107.682 40.6594 107.985C40.6575 108.362 40.4657 108.89 41.0331 108.931C41.6005 108.972 41.5274 108.442 41.5293 108.064C41.5358 106.742 41.391 105.419 41.8136 104.136C41.8904 103.91 41.8537 103.683 41.589 103.644C41.3241 103.643 41.2473 103.869 41.2085 104.058C40.9766 105.039 40.7448 106.02 40.7405 106.889ZM43.6466 108.415C43.68 109.322 43.7135 110.191 43.7471 111.06C43.7454 111.4 43.8194 111.741 44.2356 111.743C44.6897 111.745 44.6916 111.367 44.6554 111.027C44.546 110.195 44.5125 109.326 44.2895 108.494C44.1782 108.04 44.4854 107.135 43.842 107.169C43.3122 107.166 43.8755 108.038 43.6466 108.415ZM92.8225 134.729C93.125 134.769 93.4278 134.77 93.5051 134.431C93.6205 134.053 93.3564 133.901 93.054 133.824C92.525 133.67 91.9198 133.629 91.4678 133.211C91.2793 133.059 91.0517 133.172 90.9371 133.398C90.7846 133.624 90.935 133.813 91.0856 133.965C91.5753 134.421 92.1798 134.613 92.8225 134.729Z" fill="#F9F7F5"/>
<path d="M139.093 174.518C139.782 172.934 139.866 171.197 140.215 169.536C141.995 161.61 143.548 153.608 145.593 145.721C146.75 141.231 148.626 136.895 149.745 132.328C151.367 125.724 153.292 119.159 154.385 112.402C154.775 109.985 154.901 107.568 154.988 105.15C155.03 104.281 155.221 104.018 155.975 104.588C156.126 104.702 156.276 104.816 156.428 104.855C160.774 105.897 161.626 109.679 162.82 113.123C163.081 113.88 163.643 114.866 163.262 115.43C162.881 115.995 161.821 116.066 161.063 116.364C160.153 116.7 159.243 116.997 158.334 117.333C157.196 117.781 156.966 118.498 157.68 119.521C158.544 120.735 159.522 121.911 160.424 123.087C160.725 123.466 160.761 123.768 160.494 124.22C156.414 130.586 153.239 137.484 149.536 144.078C148.238 146.377 146.789 148.599 145.755 151.049C145.602 151.389 145.487 151.69 145.41 152.068C145.333 152.37 145.521 152.597 145.823 152.75C146.087 152.865 146.314 152.79 146.505 152.602C146.657 152.414 146.847 152.226 146.924 152C147.88 149.926 149.1 148.005 150.396 146.085C153.637 141.227 155.934 135.873 158.835 130.824C159.979 128.865 161.087 126.868 162.307 124.909C162.88 123.968 162.808 123.174 162.168 122.377C161.416 121.429 160.664 120.481 159.874 119.532C159.46 119.077 159.424 118.812 160.106 118.589C161.47 118.142 162.797 117.657 164.162 117.173C165.299 116.763 165.49 116.424 165.193 115.213C164.451 112.338 163.67 109.5 161.79 107.035C163.49 107.61 165.19 108.223 166.89 108.761C171.801 110.372 176.674 112.096 181.508 114.01C188.457 116.802 192.481 121.961 194.489 129.036C196.609 136.49 197.441 144.164 198.274 151.801C198.853 157.093 199.357 162.386 199.634 167.677C200.045 176.331 200.494 185.024 200.792 193.678C200.989 199.648 201.641 205.584 202.028 211.518C202.098 212.765 202.016 214.011 201.972 215.258C201.969 215.9 201.74 216.201 200.983 216.311C195.15 217.302 189.363 216.782 183.578 215.998C177.603 215.175 171.551 214.654 165.576 213.944C162.021 213.511 158.583 212.474 155.028 212.078C153.25 211.881 151.473 211.607 149.695 211.41C149.015 211.331 148.789 211.103 148.868 210.385C149.23 206.118 149.175 201.81 149.613 197.543C149.692 196.749 149.845 196.524 150.715 196.603C159.565 197.478 168.453 198.316 177.304 199.078C179.574 199.278 181.882 199.289 184.152 199.338C185.779 199.384 186.122 198.932 186.092 197.27C185.97 191.375 184.863 185.626 183.642 179.915C182.421 174.279 181.39 168.569 179.904 163.007C179.607 161.91 179.272 160.813 178.899 159.715C178.675 158.996 178.376 158.314 177.467 158.423C176.596 158.532 176.479 159.25 176.4 159.929C174.866 171.635 173.522 183.379 172.858 195.202C172.776 196.599 172.776 196.524 171.377 196.366C167.746 196.008 164.115 195.687 160.483 195.367C156.663 195.046 152.881 194.612 149.101 193.913C148.307 193.758 147.776 194.057 147.507 194.812C147.43 195.038 147.466 195.416 147.013 195.3C144.972 194.761 142.931 194.26 140.928 193.721C140.967 193.457 141.007 193.155 141.008 192.89C140.801 188.809 140.67 184.69 140.047 180.644C139.716 178.639 139.689 176.523 139.093 174.518ZM193.226 200.857C193.604 200.934 193.945 200.936 194.06 200.559C194.214 200.068 193.837 199.84 193.459 199.724C192.25 199.303 191.041 198.957 189.832 198.535C189.53 198.42 189.266 198.117 189.037 198.531C188.808 198.946 189.072 199.212 189.412 199.364C190.696 199.862 191.98 200.359 193.226 200.857ZM180.305 150.692C180.23 150.691 180.154 150.729 180.116 150.728C179.737 150.878 178.363 153.138 178.361 153.554C178.36 153.742 178.435 153.932 178.624 153.97C178.738 153.971 178.927 153.896 178.966 153.821C179.348 152.954 180.07 152.353 180.679 151.676C180.869 151.488 180.946 151.262 180.796 150.996C180.721 150.807 180.532 150.693 180.305 150.692ZM180.777 154.737C180.853 154.813 180.89 154.888 180.966 154.927C181.649 154.401 182.295 153.913 182.979 153.387C183.245 153.2 183.359 152.936 183.096 152.67C182.87 152.405 182.642 152.555 182.452 152.743C181.919 153.458 181.235 153.983 180.777 154.737ZM187.582 202.076C187.165 202.111 187.126 202.338 187.315 202.528C187.804 203.059 188.369 203.591 188.896 204.123C188.971 204.199 189.198 204.2 189.275 204.124C189.426 204.012 189.541 203.786 189.39 203.672C188.788 203.064 188.147 202.57 187.582 202.076Z" fill="#F9F7F5"/>
<path d="M139.094 174.518C139.689 176.561 139.678 178.677 140.009 180.719C140.632 184.765 140.763 188.884 140.97 192.966C140.969 193.23 140.929 193.532 140.89 193.797C138.167 193.481 135.444 193.165 132.722 192.849C131.171 192.691 129.657 192.721 128.142 193.016C127.688 193.089 127.271 193.238 126.891 193.538C125.333 194.778 125.479 195.912 127.253 196.714C127.48 196.829 127.707 196.905 127.933 196.982C128.613 197.174 129.029 197.403 128.684 198.308C128.338 199.213 128.826 200.047 129.428 200.73C129.842 201.185 129.916 201.564 129.648 202.129C129.151 203.26 129.449 204.168 130.467 204.929C130.769 205.157 131.109 205.31 131.106 205.801C131.061 207.237 131.966 207.997 133.174 208.456C134.458 208.954 135.821 208.923 137.182 209.081C138.997 209.317 140.815 209.137 142.591 209.599C142.696 211.337 142.838 213.076 142.943 214.815C143.013 216.062 143.121 217.272 143.304 218.519C143.414 219.238 143.636 220.221 142.537 220.48C141.287 220.776 140.036 221.148 138.751 220.99C136.444 220.715 134.134 220.93 131.827 220.805C131.563 220.653 131.26 220.613 130.957 220.763C128.081 220.673 125.244 220.546 122.368 220.456C121.954 220.114 121.5 220.074 121.082 220.45C119.267 220.138 117.45 220.28 115.633 220.347C113.665 220.451 111.698 220.327 109.731 220.28C109.087 220.277 108.824 220.049 108.599 219.443C107.74 217.285 107.676 214.98 107.27 212.749C106.054 206.093 105.482 199.402 104.986 192.674C104.631 187.761 104.353 182.847 104.074 177.934C104.041 177.065 104.083 176.158 104.239 175.252C104.356 174.611 104.549 173.894 105.532 174.012C109.919 174.525 114.236 173.715 118.552 173.321C118.855 173.284 119.12 173.286 119.423 173.249C119.609 173.779 119.796 174.385 120.477 174.35C121.196 174.316 121.464 173.788 121.542 173.147C123.738 173.006 125.934 172.79 128.129 172.688C131.232 172.552 134.373 172.53 137.514 172.47C137.513 172.697 137.512 172.961 137.473 173.188C137.391 174.434 137.806 174.776 139.094 174.518Z" fill="#7A72B5"/>
<path d="M116.787 63.512C118.073 63.4806 119.129 64.2793 120.338 64.5498C122.001 64.9359 123.366 64.5648 124.657 63.6266C125.796 62.801 126.897 61.9752 128.037 61.1496C128.416 60.887 128.835 60.5113 129.401 60.6652C127.841 62.5466 126.054 64.2003 124.042 65.5505C123.245 66.0755 122.447 66.6006 121.763 67.3151C121.65 67.05 121.538 66.785 121.426 66.5199C121.695 65.69 121.202 65.8765 120.748 65.9876C120.636 65.6092 120.296 65.532 119.955 65.5303C119.882 64.9632 119.618 64.7729 119.012 64.9211C118.103 65.181 117.494 65.8203 116.848 66.4217C116.62 66.6473 116.278 66.8723 116.541 67.2136C116.842 67.593 117.109 67.1409 117.374 67.0666C117.562 67.2942 117.713 67.5217 117.901 67.7493C118.992 69.0016 120.315 69.3482 121.68 68.7882C123.111 70.1177 124.777 70.0126 126.519 69.6812C126.935 69.6077 127.315 69.4207 127.166 68.891C127.017 68.399 126.639 68.3972 126.222 68.5462C125.312 68.844 124.404 68.8017 123.459 68.6459C123.194 68.6068 122.93 68.5677 122.855 68.3028C122.743 68 123.084 67.8884 123.236 67.738C124.452 66.7994 125.743 65.9368 126.883 64.9223C128.137 63.8328 129.316 62.6295 129.892 60.9699C131.558 60.7137 132.313 61.1708 132.38 62.7958C132.485 64.6478 132.362 66.4985 132.428 68.3503C132.46 69.5595 132.833 70.6571 133.775 71.493C133.585 71.7565 133.357 71.9443 133.091 72.0941C132.788 72.2438 132.333 72.4304 132.52 72.847C132.744 73.3771 133.162 73.0013 133.503 72.8896C133.498 73.9853 134.213 74.7068 135.005 75.2397C136.514 76.2295 138.176 76.8801 139.952 77.2667C140.746 77.4218 141.428 77.3874 141.471 76.3297C141.474 75.6873 141.89 75.765 142.267 75.918C143.211 76.3005 144.156 76.5697 145.142 76.0834C146.394 75.5228 147.344 74.6585 148.144 73.5667C149.135 72.1736 150.126 70.7805 151.079 69.3495C151.422 68.86 151.763 68.7861 152.253 69.053C152.97 69.4722 153.725 69.816 154.404 70.2728C157.044 72.0995 159.951 73.5119 162.667 75.1878C163.233 75.5307 163.763 75.4199 164.294 75.2336C164.892 76.748 164.431 78.0303 163.253 79.0824C162.493 79.7966 161.619 80.3968 160.672 80.7699C159.989 81.031 159.684 81.4451 159.379 82.0481C158.118 84.4601 156.782 86.796 155.069 88.9412C153.964 90.3337 152.635 91.4607 151.042 92.2084C150.473 92.4701 149.941 92.7697 150.013 93.5258C150.085 94.244 150.69 94.3981 151.219 94.5519C151.899 94.782 152.579 95.012 153.298 95.0912C154.243 95.1714 154.241 95.6626 154.124 96.3799C153.89 97.7012 153.694 99.0604 153.461 100.382C153.266 101.439 153.337 102.535 153.521 103.556C153.632 104.048 153.48 104.16 153.138 104.347C149.078 106.67 144.794 108.387 140.322 109.725C137.442 110.579 134.721 109.886 132.039 108.89C129.017 107.742 126.415 105.953 123.89 104.014C123.437 103.671 123.288 103.293 123.404 102.727C123.757 100.159 124.338 97.5926 124.88 95.0637C125.267 93.2898 125.08 92.8355 123.571 91.8834C118.365 88.7216 115.247 84.1343 114.406 78.1225C114.077 75.8161 114.58 73.5138 115.046 71.2113C115.475 68.6441 115.942 66.0394 116.787 63.512ZM120.009 77.6213C119.811 79.4717 121.393 80.8398 123.137 80.2817C124.653 79.798 125.491 78.5931 126.065 77.1979C126.18 76.8962 126.106 76.5936 125.766 76.5163C125.464 76.4015 125.349 76.7032 125.197 76.8913C124.891 77.4188 124.661 77.9844 124.319 78.4739C123.785 79.3025 122.913 79.4871 122.044 79.2183C121.289 78.9501 121.028 78.2309 121.069 77.4754C121.11 76.9467 121.226 76.4183 121.342 75.8899C121.381 75.6634 121.344 75.4365 121.118 75.322C120.816 75.1694 120.663 75.3953 120.549 75.6215C120.318 76.3004 120.088 76.9416 120.009 77.6213Z" fill="#F9F7F5"/>
<path d="M137.477 172.432C134.336 172.492 131.233 172.514 128.091 172.65C125.896 172.752 123.7 172.968 121.505 173.108C121.179 170.084 121.156 167.061 121.133 164.038C121.095 156.519 120.867 148.961 121.056 141.443C121.286 133.057 121.517 124.67 121.975 116.284C122.016 115.566 122.057 114.849 122.25 114.132C122.814 114.852 122.81 115.684 122.996 116.44C123.44 118.483 123.58 120.599 123.797 122.716C123.832 123.208 123.906 123.661 124.473 123.815C125.002 123.969 125.343 123.744 125.686 123.33C128.769 119.643 132.417 116.525 135.878 113.103C137.228 115.528 137.972 118.101 138.413 120.786C138.707 122.563 139.039 124.303 139.333 126.043C139.406 126.572 139.555 127.026 140.122 127.18C140.689 127.334 141.069 126.996 141.411 126.62C142.591 125.265 143.733 123.911 144.724 122.442C145.105 121.915 145.448 121.35 145.905 120.899C148.034 118.869 149.522 116.42 150.972 113.896C151.087 113.708 151.201 113.557 151.315 113.407C151.315 113.369 151.391 113.407 151.467 113.37C151.077 115.635 150.347 117.823 149.807 120.011C147.491 129.219 145.213 138.427 142.784 147.596C141.627 152.011 140.205 156.387 139.653 160.919C139.219 164.43 138.37 167.864 137.747 171.337C137.707 171.715 137.705 172.131 137.477 172.432Z" fill="#F9F7F5"/>
<path d="M159.935 69.0909C159.481 69.1265 159.179 68.8983 158.878 68.6323C153.942 64.3761 148.433 61.0616 142.62 58.1235C138.921 56.2537 135.299 54.1955 131.408 52.7782C128.538 51.7438 125.629 50.747 122.72 49.7125C123.793 47.0351 125.507 44.7388 126.957 42.2901C127.606 41.1598 128.368 40.0678 129.017 38.8997C129.285 38.4099 129.588 38.1847 130.156 38.1119C133.526 37.7886 136.896 37.2763 140.264 37.1419C141.248 37.1089 141.89 37.4522 142.53 38.211C145.125 41.4355 147.378 44.9227 149.745 48.2972C150.76 49.738 151.888 51.066 153.093 52.3189C155.502 54.8623 157.645 57.6311 159.903 60.2872C160.129 60.515 160.317 60.7426 160.315 61.1205C160.264 63.8029 160.364 66.4482 159.935 69.0909ZM146.315 53.2299C145.597 53.1508 144.878 53.1472 144.157 53.4459C143.93 53.5581 143.702 53.7081 143.814 54.011C143.926 54.276 144.153 54.2016 144.343 54.1647C148.129 53.6167 149.67 55.8158 150.603 58.5031C150.715 58.8437 150.636 59.41 151.205 59.2617C151.735 59.151 151.586 58.6213 151.512 58.2809C151.261 55.5592 148.776 53.0532 146.315 53.2299ZM128.072 46.4518C127.201 46.4853 126.179 46.5558 125.232 46.8911C124.852 47.0404 124.284 47.1887 124.508 47.7566C124.695 48.2487 125.151 47.9487 125.53 47.8372C127.879 47.1687 129.96 47.2924 131.082 49.8672C131.194 50.1323 131.306 50.4729 131.685 50.2858C131.989 50.1362 131.877 49.7956 131.841 49.5309C131.471 47.7533 130.114 46.613 128.072 46.4518Z" fill="#F9F7F5"/>
<path d="M131.788 220.805C134.096 220.93 136.405 220.714 138.712 220.99C139.998 221.148 141.249 220.776 142.499 220.48C143.56 220.221 143.375 219.237 143.265 218.519C143.082 217.271 142.975 216.062 142.905 214.814C142.838 213.076 142.695 211.337 142.553 209.599C143.84 209.34 145.011 209.837 146.259 209.995C146.713 210.035 146.635 210.412 146.672 210.715C146.737 212.906 147.037 213.286 149.193 213.485C154.186 214.001 159.1 214.97 163.977 215.901C166.094 216.327 168.288 216.489 170.481 216.689C171.238 216.768 171.426 216.996 171.346 217.751C171.181 220.66 170.826 223.605 171.417 226.517C171.564 227.312 171.11 227.309 170.542 227.307C165.737 227.283 160.969 227.297 156.163 227.273C148.634 227.198 141.067 227.009 133.537 226.972C132.477 226.967 132.138 226.701 132.105 225.643C132.113 223.98 131.932 222.392 131.788 220.805Z" fill="#F9F7F5"/>
<path d="M45.363 52.1634C44.7452 54.654 43.9006 57.1058 43.8123 59.6746C43.7666 61.2613 43.9481 62.8114 45.4947 63.8014C46.4754 64.4486 47.4592 64.4535 48.484 63.8162C50.1161 62.8041 51.1451 61.3357 51.7214 59.5627C52.4904 57.1106 53.1459 54.6201 53.8392 52.1676C53.8778 52.0166 53.8409 51.8275 53.8418 51.6386C54.2616 50.9228 54.417 50.0923 54.7235 49.3382C55.1069 48.3199 55.6035 47.3778 56.4019 46.626C56.6679 46.4007 56.9721 46.0999 57.3497 46.2529C57.7272 46.4437 57.6492 46.8967 57.5719 47.2364C57.2233 48.8594 56.6483 50.3679 56.073 51.9141C54.3853 56.5154 52.4333 61.002 51.0858 65.6805C50.3925 68.133 49.775 70.5859 49.1953 73.039C49.0793 73.5296 48.9651 73.6802 48.4733 73.6399C44.0472 73.3913 39.6933 73.8609 35.339 74.4061C34.6197 74.4781 34.3551 74.4012 34.5104 73.6085C36.3344 64.3983 37.7047 55.1103 41.5317 46.4012C42.986 43.0835 44.8931 40.0324 47.4414 37.4002C47.936 36.8737 48.4679 36.4229 49.3013 36.2381C48.6886 37.7087 47.5115 38.5341 46.5981 39.5875C45.761 40.5279 44.9615 41.5063 44.2752 42.5609C44.0081 43.013 43.8925 43.428 44.3451 43.7325C44.7977 44.037 45.2898 44.0017 45.6704 43.5502C46.1275 42.9479 46.5471 42.2699 47.2679 41.8956C47.6459 41.9731 47.6064 42.3129 47.6806 42.6155C46.6917 43.6308 45.5899 44.5322 44.7518 45.6615C44.409 46.1132 43.8772 46.5262 44.404 47.1334C44.9309 47.7027 45.4247 47.3273 45.9183 46.9897C46.0702 46.8771 46.2225 46.689 46.487 46.7658C46.8255 47.1831 46.4072 47.5967 46.5565 48.0131C45.9097 48.7277 45.3382 49.5184 44.6539 50.1573C43.1709 51.6235 42.4052 53.4333 42.0926 55.4343C41.7408 57.6996 41.4647 59.9653 41.151 62.193C41.0723 62.7971 41.2589 63.327 41.9018 63.4058C42.6581 63.5229 43.0012 62.9956 43.0803 62.3159C43.3159 60.579 43.4758 58.8417 43.6358 57.1045C43.7948 55.5561 44.0295 54.0082 44.9067 52.6145C44.9449 52.5391 45.0597 52.2752 45.363 52.1634Z" fill="#F9F7F5"/>
<path d="M127.905 195.055C130.631 194.577 132.976 194.853 135.359 195.092C139.028 195.45 142.658 195.921 146.248 196.808C147.004 197.001 147.306 197.229 147.226 198.098C147.023 200.968 146.932 203.877 146.843 206.748C146.801 207.579 146.648 207.843 145.741 207.687C143.132 207.145 140.483 207.208 137.835 207.044C136.398 206.961 134.96 206.916 133.6 206.418C133.071 206.227 132.732 205.998 133.114 205.32C133.572 204.491 133.082 204.035 132.327 203.805C131.873 203.689 131.306 203.611 131.195 203.119C131.046 202.589 131.615 202.403 131.994 202.141C132.716 201.653 132.681 201.011 131.927 200.516C131.474 200.211 131.021 199.907 130.683 199.489C130.119 198.731 130.311 198.241 131.257 198.132C131.636 198.096 132.052 198.098 132.319 197.722C132.776 197.082 132.439 196.4 131.456 196.206C130.36 195.936 129.264 195.628 127.905 195.055Z" fill="#F9F7F5"/>
<path d="M85.8901 228.134C85.7285 230.212 85.4153 232.326 85.4429 234.404C85.4723 236.105 84.597 237.121 83.4201 237.908C82.0534 238.808 80.5006 239.065 78.9537 238.151C77.5956 237.313 76.6164 236.363 76.7771 234.475C76.9768 232.36 76.8739 230.206 76.8843 228.09C77.0018 227.297 77.0433 226.541 76.8959 225.747C76.9358 225.332 77.0135 224.917 77.0534 224.501C77.2519 222.613 76.9588 220.685 77.233 218.797C77.8389 218.686 78.4069 218.614 79.0118 218.73C79.0476 219.146 79.121 219.6 79.0811 220.015C78.9627 220.997 79.4537 221.188 80.2873 220.966C80.78 220.817 81.2723 220.744 81.764 220.784C84.1085 221.098 84.1085 221.098 84.3468 218.832C86.277 218.766 86.277 218.766 86.1543 220.617C85.9919 222.845 85.9052 225.074 85.7805 227.34C85.8172 227.567 85.8914 227.87 85.8901 228.134ZM80.2776 230.6C80.1355 228.71 79.9941 226.707 79.8528 224.666C79.8163 224.401 79.9697 223.987 79.6293 223.947C79.2133 223.907 79.211 224.361 79.1717 224.663C78.9346 226.702 79 228.78 78.9899 230.821C78.988 231.198 79.0991 231.69 79.5912 231.655C80.121 231.658 80.1991 231.167 80.2776 230.6ZM80.0719 233.924C80.0356 233.622 80.0753 233.244 79.6212 233.242C79.2428 233.24 79.241 233.618 79.2018 233.882C79.1247 234.184 79.199 234.449 79.5772 234.489C79.9558 234.453 80.1081 234.265 80.0719 233.924Z" fill="#7A72B5"/>
<path d="M37.3839 227.176C37.3334 229.745 37.245 232.314 37.2325 234.846C37.2253 236.319 36.5009 237.411 35.4746 238.351C33.6879 240.005 30.9307 238.971 29.6902 237.302C28.7505 236.013 28.8333 234.577 28.7647 233.141C28.6616 231.025 28.9368 228.948 28.6824 226.831C28.6861 226.075 28.7657 225.282 28.5802 224.526C28.7758 223.242 28.4417 221.918 28.7886 220.635C31.6275 220.46 34.5043 220.285 37.343 220.148C37.5299 220.603 37.4898 221.056 37.4876 221.509C37.4822 222.605 37.2874 223.738 37.4712 224.834C37.2024 225.626 37.3122 226.383 37.3839 227.176ZM29.5564 226.08C29.4347 227.742 29.6155 229.443 29.6451 231.105C29.6429 231.559 29.792 232.013 30.3597 231.978C30.8897 231.943 31.0053 231.528 30.932 231.036C30.8586 230.582 30.823 230.129 30.8254 229.638C30.7212 227.748 30.6549 225.858 30.5507 223.969C30.5145 223.628 30.631 223.025 30.1391 223.022C29.5715 223.019 29.7201 223.587 29.7184 223.927C29.6392 224.644 29.5978 225.362 29.5564 226.08ZM30.0078 234.281C30.0054 234.772 29.851 235.376 30.5696 235.455C31.099 235.533 31.2526 235.081 31.179 234.665C31.1059 234.135 31.3747 233.343 30.6185 233.226C29.9756 233.147 30.0855 233.866 30.0078 234.281Z" fill="#7A72B5"/>
<path d="M68.9767 227.937C68.7024 229.863 68.617 231.827 68.5316 233.792C68.446 235.794 67.3783 237.451 65.748 238.085C63.5873 238.868 61.3991 237.535 60.8804 235.303C60.4735 233.412 60.8233 231.524 60.6811 229.672C60.6088 228.992 60.5743 228.311 60.5018 227.669C60.6948 226.914 60.7744 226.121 60.5132 225.364C60.7501 223.363 60.4573 221.359 60.5052 219.318C63.3063 219.143 66.1075 218.931 68.9451 219.02C68.9404 219.965 68.8601 220.909 68.9311 221.854C69.0006 223.101 68.6537 224.384 69.026 225.633C68.7574 226.387 68.6778 227.18 68.9767 227.937ZM61.6559 223.858C61.4193 225.784 61.6747 227.712 61.7408 229.64C61.738 230.206 61.5829 230.961 62.4156 230.928C63.0969 230.893 63.0248 230.175 63.103 229.646C63.1034 229.571 63.1038 229.495 63.1042 229.42C62.9666 226.623 62.6777 223.825 62.8809 220.993C62.8824 220.69 62.7698 220.501 62.5053 220.424C62.1275 220.309 62.0126 220.573 61.8976 220.874C61.5142 221.893 61.7742 222.876 61.6559 223.858ZM62.8965 233.159C62.8217 232.97 62.9371 232.593 62.5968 232.553C62.2186 232.513 62.2167 232.891 62.2154 233.156C62.2141 233.42 62.1365 233.798 62.5528 233.8C62.8176 233.801 62.8948 233.499 62.8965 233.159Z" fill="#7A72B5"/>
<path d="M52.4435 227.364C52.1304 229.479 52.1197 231.632 51.9956 233.785C51.9135 235.07 51.6052 236.202 50.9185 237.332C50.1175 238.612 49.0178 239.098 47.5799 239.091C46.2177 239.084 45.5028 238.249 44.7514 237.15C43.6996 235.596 44.0105 233.935 43.905 232.309C43.7617 230.684 43.6942 229.021 43.6266 227.396C43.8953 226.604 43.9369 225.849 43.7518 225.016C44.0251 223.318 43.8821 221.617 44.0796 219.955C44.6101 219.807 45.1398 219.809 45.707 219.888C45.5499 221.058 46.154 221.326 47.2144 221.142C47.7824 221.069 48.3502 221.034 48.9176 221.075C49.9389 221.155 50.6968 220.932 50.6271 219.723C51.2336 219.499 51.8385 219.616 52.4436 219.694C52.4726 221.47 52.5394 223.284 52.5684 225.06C52.4133 225.815 52.3339 226.57 52.4435 227.364ZM44.9556 226.458C44.9101 228.007 44.9023 229.594 44.8946 231.143C44.8926 231.559 45.004 231.975 45.4958 232.015C46.0253 232.055 46.1409 231.64 46.1808 231.225C46.2197 230.999 46.2207 230.81 46.184 230.583C46.0811 228.429 45.9784 226.237 45.8755 224.082C45.8766 223.856 45.9163 223.478 45.6516 223.439C45.3115 223.362 45.1582 223.739 45.1569 224.003C45.0395 224.796 45.0354 225.627 44.9556 226.458ZM46.1275 234.361C46.0156 234.02 46.1696 233.492 45.64 233.452C45.2238 233.45 45.2594 233.903 45.1822 234.205C45.1049 234.545 45.141 234.885 45.5569 234.963C45.9729 235.002 46.0879 234.701 46.1275 234.361Z" fill="#7A72B5"/>
<path d="M151.762 107.288C149.685 114.003 145.12 119.006 140.93 124.463C140.635 122.875 140.415 121.552 140.194 120.228C139.753 117.694 139.008 115.235 137.808 112.962C137.546 112.432 137.358 112.166 138.229 112.095C141.068 111.882 143.685 110.724 146.3 109.754C148.12 109.083 149.978 108.375 151.762 107.288Z" fill="#F9F7F5"/>
<path d="M122.635 105.292C126.213 108.521 130.063 110.656 134.635 111.85C131.592 115.047 128.287 117.827 125.281 121.137C124.845 117.432 123.651 114.101 122.721 110.733C122.275 109.144 122.624 107.332 122.635 105.292Z" fill="#F9F7F5"/>
<path d="M91.4637 225.895C90.442 225.89 89.3827 225.847 88.3609 225.88C87.6796 225.914 87.5295 225.649 87.5705 225.007C87.7308 223.194 87.8533 221.381 87.9758 219.568C88.0159 219.115 88.0554 218.775 88.6987 218.778C90.7793 218.902 92.8224 218.949 94.9034 218.998C95.471 219 95.6969 219.228 95.6939 219.833C95.6855 221.533 95.7149 223.233 95.7442 224.972C95.7781 225.765 95.549 226.18 94.6414 226.062C93.5825 225.943 92.5232 225.9 91.4262 225.819C91.5017 225.857 91.4637 225.895 91.4637 225.895Z" fill="#F9F7F5"/>
<path d="M122.33 220.456C125.206 220.546 128.043 220.673 130.919 220.763C130.267 222.422 130.296 224.198 130.25 225.936C130.208 226.691 129.942 226.879 129.223 226.875C127.597 226.792 125.932 226.746 124.305 226.775C123.624 226.772 123.36 226.506 123.287 225.864C123.145 223.974 122.814 222.196 122.33 220.456Z" fill="#F9F7F5"/>
<path d="M174.471 75.4728C174.239 76.643 174.043 77.8511 173.811 79.0212C173.733 79.4365 173.579 79.8513 173.05 79.6976C172.521 79.5816 172.485 79.1658 172.639 78.6754C173.141 76.7131 173.718 74.7512 173.426 72.7094C173.389 72.407 173.504 72.1053 173.883 72.1071C174.261 72.109 174.335 72.4117 174.372 72.6763C174.405 73.6211 174.59 74.5288 174.471 75.4728Z" fill="#F9F7F5"/>
<path d="M171.699 77.5372C171.621 77.9524 171.581 78.4434 171.465 78.934C171.388 79.3115 171.159 79.5748 170.706 79.497C170.29 79.4194 170.216 79.079 170.293 78.7393C170.756 76.8902 170.69 75.0007 170.661 73.1113C170.662 72.8847 170.664 72.6202 170.966 72.6594C171.269 72.6609 171.343 72.9636 171.38 73.1905C171.524 74.5892 171.744 76.0261 171.699 77.5372Z" fill="#F9F7F5"/>
<path d="M161.732 50.0568C161.617 50.2074 161.503 50.4335 161.351 50.5461C161.085 50.7337 160.783 50.6188 160.595 50.3912C159.429 48.9874 158.604 47.3586 158.007 45.6554C157.933 45.3906 157.972 45.1641 158.275 45.0522C158.578 44.9404 158.767 45.0546 158.841 45.3573C159.401 46.8714 160.417 48.1233 161.394 49.4128C161.507 49.5267 161.619 49.7917 161.732 50.0568Z" fill="#F9F7F5"/>
<path d="M168.226 75.9331C168.231 74.8752 168.425 73.856 168.203 72.8347C168.129 72.5698 168.131 72.192 168.472 72.1181C168.888 72.0069 168.887 72.3847 168.923 72.6493C169.179 74.4265 169.284 76.165 168.973 77.9393C168.895 78.3168 168.892 78.9213 168.287 78.7672C167.758 78.6512 167.95 78.161 167.99 77.7833C168.068 77.1792 168.147 76.5372 168.226 75.9331Z" fill="#F9F7F5"/>
<path d="M112.126 72.4815C112.466 72.521 112.427 72.7475 112.351 72.9738C111.508 75.0478 111.156 77.2753 110.54 79.4259C110.463 79.69 110.31 79.9915 109.932 79.8763C109.668 79.7994 109.669 79.4971 109.746 79.233C110.324 77.1578 110.751 75.0062 111.707 73.0462C111.784 72.8199 111.861 72.5558 112.126 72.4815Z" fill="#F9F7F5"/>
<path d="M153.428 45.6705C153.504 45.7465 153.654 45.8606 153.692 45.9363C154.175 47.7901 155.455 49.1567 156.355 50.7858C156.505 51.0889 156.881 51.4308 156.388 51.6928C155.933 51.955 155.784 51.4631 155.596 51.1977C154.733 49.6821 153.68 48.2789 153.083 46.6134C152.971 46.235 152.86 45.8944 153.428 45.6705Z" fill="#F9F7F5"/>
<path d="M158.742 50.1553C158.703 50.4196 158.664 50.6084 158.436 50.7206C158.095 50.87 157.831 50.7176 157.719 50.4525C156.969 48.9753 156.068 47.5728 155.508 45.9831C155.434 45.756 155.321 45.4532 155.625 45.3414C156.004 45.1921 155.964 45.5697 156.077 45.7592C156.639 46.8199 157.353 47.8059 158.029 48.7916C158.33 49.2087 158.631 49.6636 158.742 50.1553Z" fill="#F9F7F5"/>
<path d="M112.336 75.9587C111.986 77.8083 111.939 79.6595 111.93 81.5109C111.929 81.7754 112.115 82.2675 111.624 82.265C111.132 82.2626 111.323 81.7724 111.362 81.5081C111.599 79.62 111.57 77.7307 112.336 75.9587Z" fill="#F9F7F5"/>
<path d="M46.6394 46.5777C46.6008 46.7286 46.6375 46.9555 46.373 46.8786C46.3361 46.6895 46.4877 46.6525 46.6394 46.5777Z" fill="#F9F7F5"/>
<path d="M54.1013 37.3953C54.36 38.6435 54.0137 39.8131 53.8187 40.9834C53.5466 42.4556 53.1987 43.9275 52.8887 45.3995C52.8112 45.777 52.696 46.1164 52.2043 46.0762C51.7882 46.0364 51.6762 45.7336 51.7537 45.3561C52.334 42.7897 52.99 40.2236 53.8726 37.7343C53.911 37.6211 54.0251 37.5083 54.1013 37.3953Z" fill="#F9F7F5"/>
<path d="M51.8514 48.5682C51.8121 48.8703 51.8481 49.2483 51.394 49.2461C50.9399 49.2438 50.7901 48.9408 50.8678 48.5256C50.9073 48.1857 50.9851 47.7705 51.4389 47.8105C51.855 47.8503 51.8531 48.2282 51.8514 48.5682Z" fill="#F9F7F5"/>
<path d="M121.995 50.9558C126.529 52.414 130.948 54.0606 135.251 56.1223C138.12 57.4967 140.99 58.8711 143.82 60.3209C148.689 62.8388 153.253 65.8085 157.512 69.2679C158.568 70.1044 159.661 70.941 160.716 71.7775C161.168 72.1576 161.582 72.613 162.11 73.1068C161.353 73.1786 160.9 72.8363 160.485 72.5698C157.769 70.8183 154.901 69.255 152.033 67.7294C151.542 67.4625 151.239 67.4988 150.821 67.9123C149.528 69.1906 148.461 70.6966 147.395 72.1649C146.671 73.1437 145.758 73.9704 144.846 74.7593C144.542 75.0223 144.24 75.0208 143.862 74.9056C140.726 73.8699 137.896 72.269 135.105 70.5171C134.086 69.8697 134.016 68.8114 133.983 67.7911C133.916 65.9772 134.152 64.1647 133.821 62.3495C133.6 61.0637 133.075 60.1165 131.638 59.9583C131.411 59.9194 131.184 59.8049 130.92 59.6903C129.334 59.0401 127.933 59.1843 126.603 60.4245C125.538 61.4016 124.474 62.4165 123.183 63.1658C122.5 63.578 121.819 63.6502 121.025 63.4196C119.741 63.0354 118.494 62.6514 117.362 61.9657C118.629 58.1936 120.274 54.5745 121.995 50.9558ZM145.716 67.2069C146.284 67.172 146.852 67.1748 147.419 67.1398C147.722 67.1035 148.026 66.9917 147.952 66.6135C147.878 66.273 147.575 66.3471 147.348 66.346C146.704 66.3806 146.06 66.4907 145.417 66.5253C145.152 66.524 144.735 66.6353 144.738 66.1063C144.741 65.5396 145.119 65.6171 145.497 65.6567C145.686 65.6576 145.875 65.6964 146.027 65.6593C146.519 65.5484 147.464 65.8554 147.391 65.2883C147.319 64.4944 146.483 65.1326 145.954 65.0544C145.5 65.0144 144.892 65.4648 144.631 64.8212C144.182 63.761 143.276 63.3031 142.294 62.9204C140.481 62.2313 138.206 63.1647 137.403 64.9365C136.676 66.5576 137.424 68.2238 139.349 69.2157C141.274 70.2076 143.168 69.7258 144.01 67.9541C144.43 67.1628 144.848 66.8248 145.716 67.2069ZM122.852 61.3505C124.63 61.4727 126.451 60.386 126.764 58.4228C127.037 56.6861 126.438 55.3607 124.662 54.9363C123.566 54.6664 123.493 54.2126 123.762 53.3449C123.877 53.0054 123.993 52.5148 123.463 52.4744C122.858 52.4336 123.044 53.0013 122.967 53.341C122.851 53.7938 123.567 54.553 122.734 54.6245C122.242 54.6598 122.511 53.8299 122.399 53.376C122.325 53.1111 122.403 52.6959 122.024 52.7696C121.645 52.8433 121.719 53.2215 121.793 53.4863C122.167 54.5083 121.861 55.1491 120.95 55.7491C120.001 56.3868 119.499 58.2357 119.949 59.1447C120.511 60.3566 121.415 61.2301 122.852 61.3505Z" fill="#F9F7F5"/>
<path d="M121.995 50.9558C120.274 54.5745 118.629 58.1936 117.324 61.9655C116.114 61.8084 115.133 61.2368 114.305 60.3259C115.76 56.857 117.215 53.3881 118.897 50.0337C119.993 50.1525 120.975 50.5729 121.995 50.9558Z" fill="#221F1C"/>
<path d="M121.763 67.3528C122.409 66.6381 123.245 66.1133 124.042 65.5883C126.092 64.2382 127.841 62.5844 129.401 60.7029C129.552 60.817 129.665 60.8932 129.816 61.0073C129.241 62.6291 128.062 63.8324 126.807 64.9597C125.667 65.9742 124.376 66.8368 123.161 67.7754C122.971 67.9256 122.668 67.9996 122.779 68.3402C122.854 68.6051 123.156 68.6444 123.383 68.6833C124.291 68.8389 125.236 68.8814 126.146 68.5836C126.563 68.4345 126.979 68.4366 127.09 68.9283C127.239 69.458 126.822 69.6449 126.443 69.7186C124.739 70.0502 123.035 70.1551 121.604 68.8256C121.417 68.2957 121.571 67.8053 121.763 67.3528Z" fill="#221F1C"/>
<path d="M133.465 72.9272C133.125 73.0011 132.706 73.4146 132.482 72.8845C132.295 72.468 132.75 72.2813 133.053 72.1317C133.357 71.9821 133.547 71.7563 133.737 71.5306C135.134 72.2554 133.581 72.4366 133.465 72.9272Z" fill="#221F1C"/>
<path d="M135.541 74.1466C135.2 74.1071 135.012 73.9172 135.051 73.653C135.167 73.1246 135.622 72.9379 136.076 72.9024C136.266 72.9033 136.568 73.0559 136.491 73.2823C136.337 73.7349 135.958 73.9975 135.541 74.1466Z" fill="#221F1C"/>
<path d="M138.299 74.9915C137.921 74.9896 137.77 74.7999 137.772 74.4977C137.773 74.1954 137.963 74.0452 138.266 74.0845C138.492 74.1234 138.795 74.2005 138.755 74.5403C138.754 74.8048 138.488 74.9168 138.299 74.9915Z" fill="#221F1C"/>
<path d="M140.112 75.605C140.189 75.3409 140.341 75.1905 140.644 75.2298C140.871 75.2687 141.059 75.383 141.02 75.6473C140.981 75.9116 140.829 76.0997 140.526 76.0982C140.261 76.0969 140.073 75.9448 140.112 75.605Z" fill="#221F1C"/>
<path d="M40.7409 106.889C40.7452 106.02 40.9769 105.077 41.2088 104.096C41.2478 103.869 41.3624 103.643 41.5893 103.682C41.8918 103.721 41.8907 103.948 41.8139 104.174C41.4292 105.457 41.5361 106.78 41.5296 108.102C41.5277 108.48 41.6008 109.009 41.0334 108.969C40.466 108.928 40.6578 108.4 40.6597 108.022C40.6994 107.645 40.7387 107.343 40.7409 106.889Z" fill="#221F1C"/>
<path d="M43.647 108.415C43.8759 108.038 43.3124 107.204 43.8423 107.169C44.4858 107.134 44.1788 108.002 44.2899 108.494C44.5128 109.326 44.5463 110.195 44.6557 111.027C44.6919 111.367 44.6902 111.707 44.236 111.743C43.8197 111.741 43.7457 111.4 43.7474 111.06C43.7139 110.191 43.6803 109.322 43.647 108.415Z" fill="#221F1C"/>
<path d="M92.8226 134.729C92.1799 134.613 91.5756 134.383 91.0858 133.965C90.9352 133.813 90.8226 133.624 90.9372 133.398C91.0517 133.209 91.2794 133.059 91.4679 133.211C91.9199 133.629 92.5253 133.632 93.0542 133.824C93.3565 133.901 93.5826 134.091 93.5052 134.43C93.4279 134.77 93.125 134.806 92.8226 134.729Z" fill="#221F1C"/>
<path d="M193.226 200.857C191.98 200.36 190.695 199.862 189.412 199.327C189.072 199.174 188.808 198.908 189.037 198.494C189.266 198.079 189.53 198.383 189.832 198.497C191.041 198.919 192.25 199.303 193.459 199.687C193.836 199.802 194.214 200.031 194.06 200.521C193.944 200.936 193.604 200.934 193.226 200.857Z" fill="#221F1C"/>
<path d="M180.306 150.692C180.533 150.693 180.721 150.807 180.796 150.996C180.908 151.261 180.831 151.488 180.679 151.676C180.07 152.353 179.348 152.954 178.966 153.821C178.927 153.896 178.738 154.009 178.624 153.97C178.435 153.932 178.36 153.78 178.362 153.553C178.326 153.1 179.737 150.878 180.116 150.728C180.154 150.729 180.23 150.729 180.306 150.692Z" fill="#221F1C"/>
<path d="M180.777 154.737C181.235 153.983 181.919 153.42 182.49 152.743C182.642 152.555 182.87 152.405 183.134 152.67C183.397 152.974 183.245 153.2 183.017 153.388C182.371 153.913 181.687 154.401 181.003 154.927C180.928 154.889 180.853 154.813 180.777 154.737Z" fill="#221F1C"/>
<path d="M187.582 202.076C188.147 202.57 188.788 203.102 189.39 203.634C189.541 203.748 189.426 204.012 189.275 204.087C189.199 204.162 188.972 204.161 188.896 204.085C188.369 203.591 187.804 203.059 187.315 202.49C187.126 202.338 187.165 202.112 187.582 202.076Z" fill="#221F1C"/>
<path d="M120.009 77.6213C120.088 76.9416 120.318 76.3005 120.624 75.6974C120.739 75.4713 120.929 75.2455 121.193 75.398C121.419 75.5125 121.456 75.7393 121.417 75.9658C121.339 76.4944 121.185 77.0226 121.145 77.5514C121.103 78.3069 121.326 79.0259 122.12 79.2943C122.989 79.5631 123.822 79.3783 124.394 78.5499C124.737 78.0604 124.967 77.4948 125.272 76.9673C125.387 76.7412 125.501 76.4773 125.841 76.5923C126.181 76.7073 126.256 77.01 126.141 77.2739C125.566 78.669 124.728 79.874 123.212 80.3576C121.393 80.8398 119.811 79.434 120.009 77.6213Z" fill="#221F1C"/>
<path d="M121.763 67.3528C121.571 67.8053 121.417 68.2957 121.642 68.788C120.315 69.386 118.954 69.0014 117.863 67.7491C117.675 67.5215 117.525 67.2941 117.337 67.0664C118.059 66.3521 118.97 65.9032 119.918 65.5301C120.258 65.5318 120.598 65.609 120.71 65.9874C120.178 66.5137 119.382 66.6987 118.697 67.5266C119.758 67.154 120.554 66.8557 121.388 66.5197C121.538 66.8228 121.65 67.0878 121.763 67.3528Z" fill="#7A72B5"/>
<path d="M119.917 65.5679C118.97 65.941 118.059 66.3899 117.337 67.1042C117.071 67.1785 116.804 67.6305 116.503 67.2512C116.24 66.9098 116.582 66.6848 116.81 66.4593C117.456 65.8579 118.065 65.2186 118.974 64.9587C119.581 64.7727 119.845 65.0007 119.917 65.5679Z" fill="#221F1C"/>
<path d="M121.426 66.5577C120.592 66.8559 119.796 67.1542 118.734 67.5645C119.382 66.7365 120.215 66.5895 120.747 66.0254C121.164 65.9141 121.695 65.7278 121.426 66.5577Z" fill="#221F1C"/>
<path d="M69.0638 225.633C71.7123 225.684 74.3232 225.697 76.9718 225.748C77.1192 226.542 77.0776 227.297 76.9602 228.09C74.3116 228.039 71.6631 227.988 69.0144 227.975C68.6777 227.18 68.7573 226.387 69.0638 225.633Z" fill="#221F1C"/>
<path d="M52.6061 225.06C55.2544 225.149 57.9028 225.238 60.5512 225.326C60.7743 226.121 60.7327 226.876 60.5398 227.631C57.8536 227.542 55.1674 227.453 52.4433 227.364C52.3337 226.57 52.4131 225.815 52.6061 225.06Z" fill="#221F1C"/>
<path d="M37.4713 224.834C39.5901 224.883 41.671 224.931 43.7899 224.979C43.9751 225.773 43.8955 226.566 43.6646 227.359C41.5836 227.311 39.5028 227.225 37.4219 227.177C37.3123 226.383 37.2025 225.626 37.4713 224.834Z" fill="#221F1C"/>
<path d="M146.315 53.2299C148.813 53.0533 151.261 55.5592 151.55 58.281C151.586 58.6591 151.735 59.151 151.242 59.2619C150.636 59.41 150.753 58.8061 150.641 58.5032C149.708 55.816 148.167 53.6169 144.381 54.1649C144.153 54.2015 143.926 54.276 143.852 54.0111C143.739 53.7083 143.967 53.5583 144.195 53.4461C144.84 53.147 145.596 53.1508 146.315 53.2299Z" fill="#221F1C"/>
<path d="M128.072 46.4518C130.152 46.6133 131.509 47.7535 131.841 49.4932C131.877 49.7579 132.027 50.0986 131.686 50.2481C131.306 50.4351 131.195 50.0945 131.082 49.8295C129.922 47.2545 127.879 47.131 125.53 47.7994C125.151 47.9109 124.733 48.2111 124.509 47.7188C124.284 47.1887 124.853 47.0026 125.232 46.8534C126.179 46.5558 127.163 46.4851 128.072 46.4518Z" fill="#221F1C"/>
<path d="M145.716 67.2069C144.848 66.8248 144.468 67.163 144.047 67.9921C143.206 69.8016 141.312 70.2456 139.387 69.2537C137.462 68.2618 136.713 66.5956 137.44 64.9745C138.244 63.2026 140.519 62.2693 142.331 62.9584C143.313 63.3411 144.22 63.7612 144.668 64.8592C144.93 65.5406 145.538 65.0524 145.991 65.0924C146.483 65.1704 147.319 64.4945 147.428 65.3262C147.501 65.8556 146.557 65.5864 146.064 65.6973C145.913 65.7344 145.724 65.6956 145.534 65.6947C145.156 65.6928 144.778 65.6154 144.775 66.1443C144.773 66.6733 145.19 66.562 145.454 66.5633C146.098 66.5287 146.741 66.4563 147.385 66.384C147.612 66.3473 147.915 66.2732 147.989 66.6514C148.063 67.0296 147.76 67.1415 147.457 67.1778C146.851 67.1748 146.284 67.2097 145.716 67.2069ZM140.207 64.0058C140.847 64.7647 141.222 65.4844 140.65 66.275C139.964 67.2162 139.095 66.9474 138.189 66.4895C138.634 68.3431 140.56 69.1084 141.962 68.813C142.985 68.6292 143.902 66.8579 143.68 65.6855C143.458 64.6265 141.873 63.7874 140.207 64.0058ZM138.152 66.4516L138.19 66.3762L138.114 66.3758L138.152 66.4516Z" fill="#221F1C"/>
<path d="M122.852 61.3506C121.414 61.2679 120.511 60.3566 119.911 59.1446C119.462 58.2355 119.963 56.3866 120.912 55.749C121.823 55.1489 122.129 54.5081 121.755 53.4861C121.681 53.2591 121.607 52.8431 121.986 52.7694C122.403 52.6959 122.325 53.1111 122.361 53.3758C122.473 53.8297 122.204 54.6596 122.696 54.6243C123.529 54.5529 122.813 53.7936 122.929 53.3408C123.007 53.0011 122.858 52.4337 123.425 52.4742C123.917 52.5145 123.839 53.0053 123.724 53.3447C123.417 54.2123 123.528 54.6662 124.624 54.9361C126.4 55.3983 127.037 56.7239 126.726 58.4226C126.451 60.386 124.63 61.4727 122.852 61.3506ZM121.053 57.7522C120.896 58.8472 121.309 59.5671 122.291 60.0632C123.197 60.4833 124.636 60.2637 125.245 59.511C125.816 58.7582 126.199 57.8911 125.712 56.9441C125.262 56.035 124.091 55.6136 122.955 55.8724C123.673 55.9894 124.125 56.4072 124.122 57.0873C124.119 57.6918 123.889 58.1819 123.282 58.4434C122.372 58.8545 121.654 58.6242 121.053 57.7522Z" fill="#221F1C"/>
<path d="M140.207 64.0058C141.873 63.7874 143.458 64.6265 143.642 65.7231C143.863 66.8955 142.947 68.629 141.924 68.8506C140.56 69.1084 138.634 68.3809 138.151 66.5271C139.057 66.985 139.964 67.254 140.612 66.3126C141.222 65.4844 140.847 64.7647 140.207 64.0058Z" fill="#F9F7F5"/>
<path d="M138.152 66.4517L138.114 66.3758L138.19 66.3762L138.152 66.4517Z" fill="#F9F7F5"/>
<path d="M121.053 57.7522C121.654 58.6242 122.41 58.8547 123.32 58.4436C123.927 58.1821 124.157 57.6542 124.159 57.0875C124.163 56.4074 123.711 56.0273 122.992 55.8726C124.091 55.6136 125.3 56.0352 125.749 56.9443C126.237 57.8913 125.854 58.7584 125.283 59.5112C124.673 60.2639 123.196 60.5211 122.328 60.0633C121.309 59.6049 120.896 58.8472 121.053 57.7522Z" fill="#F9F7F5"/>
</g>
<defs>
<clipPath id="clip0_10_1215">
<rect width="234" height="255" fill="white"/>
</clipPath>
</defs>
</svg>
