<svg width="223" height="286" viewBox="0 0 223 286" fill="none" xmlns="http://www.w3.org/2000/svg">
<g clip-path="url(#clip0_10_1602)">
<path d="M117.613 221.719C116.647 221.795 116.749 221.795 116.952 220.83C117.207 219.51 117.918 219.002 119.215 218.773C121.375 218.392 123.409 217.554 125.493 216.868C126.256 216.614 126.256 216.614 126.179 217.376C126.052 218.392 125.925 219.408 125.798 220.449C125.747 220.983 125.518 221.186 124.959 221.211C122.519 221.364 120.079 221.567 117.613 221.719Z" fill="#DE9082"/>
<path d="M113.089 228.907C113.114 227.154 113.419 225.554 113.724 223.98C113.953 222.786 114.207 221.592 114.461 220.373C114.563 219.865 115.02 219.535 115.529 219.611C115.758 219.637 115.783 219.738 115.707 219.916C114.919 222.557 114.563 225.3 113.724 227.942C113.648 228.297 113.495 228.627 113.089 228.907Z" fill="#DE9082"/>
<path d="M55.2861 127.012C56.8621 127.012 58.7685 126.581 59.3785 124.6C59.8869 122.949 58.4634 122.161 56.8875 121.882C58.2855 119.876 58.2855 117.666 58.6414 115.558C59.0989 112.714 59.5056 109.869 59.9377 107.025C60.3444 104.332 61.7425 102.326 64.1827 101.082C65.1486 100.574 65.8858 99.9895 66.1908 98.8466C66.5467 97.5259 67.538 96.4339 68.7073 95.9767C70.7662 95.164 71.5796 93.564 72.1642 91.71C73.3843 87.8495 76.46 85.5892 79.612 83.5574C82.7893 81.5256 85.1024 79.1382 85.4837 75.1763C85.6617 73.3222 87.2376 72.2555 88.534 71.0619C91.0251 68.7507 94.4566 67.3793 95.4225 63.5188C95.6767 62.4776 97.2018 61.6902 98.2186 60.8775C101.752 58.033 105.26 55.1631 109.022 52.598C114.512 48.8646 117.384 48.763 122.926 52.3948C124.375 53.3345 125.595 54.5282 127.552 53.2329C128.645 52.5218 129.509 53.5377 130.043 54.5028C131.924 57.8552 135.051 60.0648 137.77 62.6045C138.914 63.6712 143.998 62.6807 144.328 61.2331C144.684 59.6838 145.752 58.9219 146.642 57.906C147.506 56.9155 148.523 55.798 148.294 54.452C147.125 47.4931 151.268 42.693 155.03 37.7913C160.241 30.9594 165.324 29.461 173.56 32.1023C174.348 32.3563 175.085 32.2801 175.873 32.1531C182.355 31.2388 187.515 34.1341 189.803 40.204C190.591 42.312 191.658 43.9883 193.489 45.3851C197.047 48.0518 197.759 52.8265 195.344 56.5854C194.683 57.6267 194.556 58.6679 194.556 59.8108C194.531 63.3919 193.387 64.7633 189.879 65.0935C188.278 65.2459 186.981 65.4237 186.626 67.3285C186.498 68.0396 185.838 68.4459 185.126 68.6491C181.389 69.7412 178.263 71.5444 177.043 75.5826C176.763 76.4969 175.823 76.7763 175.06 77.1572C174.043 77.6652 172.976 78.1223 172.111 78.8335C169.468 80.9161 169.417 81.8558 171.933 83.9383C174.577 86.1225 175.212 89.0178 175.212 92.1417C175.263 100.193 173.306 107.888 170.891 115.457C168.044 124.447 164.791 133.285 160.597 141.743C160.063 142.835 159.554 144.003 158.792 144.917C157.597 146.365 157.648 147.102 159.656 147.305C160.597 147.406 161.537 147.686 162.503 147.787C166.011 148.194 168.832 149.641 170.535 152.867C171.527 154.721 173.026 155.686 175.238 155.483C177.246 155.305 178.491 156.245 179.203 158.15C180.296 161.07 181.821 163.864 180.652 167.191C180.296 168.207 180.779 169.375 181.72 169.959C183.626 171.128 184.185 172.829 184.033 174.886C183.855 177.096 184.617 178.772 186.346 180.118C188.379 181.693 189.091 183.775 188.913 186.341C188.608 190.43 188.481 194.519 187.464 198.531C186.168 203.712 186.727 208.944 186.956 214.151C187.007 215.192 187.058 216.233 187.185 217.275C188.379 225.961 185.787 234.037 182.94 242.012C182.025 244.602 182.126 246.583 184.109 248.666C185.888 250.545 187.337 252.78 188.888 254.888C190.972 257.656 192.777 260.603 195.929 262.482C198.903 264.26 199.92 267.511 200.555 270.685C201.419 275.028 202.029 279.447 202.767 283.841C203.021 285.314 202.334 285.975 200.911 286C200.123 286.025 199.335 286.025 198.547 286.025C153.708 286.025 108.895 286.025 64.0556 286.025C43.8984 286.025 23.7667 286.025 3.60947 286.025C-0.228787 286.025 -0.279625 285.898 0.279591 282.19C0.965901 277.771 2.18601 273.504 3.60947 269.288C5.49046 263.752 8.43906 259.053 13.6245 256.006C16.6748 254.228 18.7083 251.714 19.6996 248.183C20.5893 245.009 22.1653 242.037 23.3599 238.939C24.6055 235.739 26.4611 233.097 29.7147 231.65C31.2398 230.964 31.494 229.567 31.6211 228.17C32.4345 218.621 33.7563 209.122 35.0272 199.623C35.8152 193.757 36.7303 187.89 38.23 182.15C39.018 179.077 40.8736 176.842 43.6697 175.445C45.3981 174.582 46.3132 173.413 46.6182 171.483C47.3808 166.658 49.6939 163.153 55.0319 162.569C56.4808 162.416 56.8875 161.705 56.5316 160.232C54.854 153.603 55.3623 146.924 56.1757 140.219C56.7095 135.8 54.8285 131.584 55.2861 127.012ZM80.705 109.463C81.2388 108.294 81.4675 107.05 80.8829 105.932C79.8662 104.002 81.8488 105.425 82.0522 104.688C81.315 103.571 80.2729 102.377 81.01 100.751C82.7639 96.764 82.5606 92.4211 83.1198 88.2305C83.2977 86.9606 84.3145 85.0558 83.0689 84.4209C82.0522 83.913 80.8067 85.6908 79.6628 86.4273C73.0285 90.6179 70.512 101.437 73.3843 107.837C73.486 108.701 73.4606 109.59 73.7148 110.402C74.8841 114.161 76.2058 117.844 78.5444 121.069C79.0273 121.73 79.917 122.568 78.824 123.279C77.8072 123.939 77.2988 122.898 76.7905 122.212C76.3075 121.577 75.7991 120.968 75.4941 120.257C73.969 116.853 71.91 113.907 68.4785 112.155C68.4531 112.155 68.5547 111.901 68.6056 111.774C69.724 111.901 70.3595 113.145 71.7575 113.145C70.3087 108.574 70.5374 103.774 69.1648 99.1514C68.936 101.64 67.843 102.986 65.3266 103.367C63.8523 103.596 62.988 104.942 62.683 106.364C62.1492 109.006 61.6408 111.672 61.4375 114.364C61.3358 115.939 61.5391 117.564 64.0048 117.691C64.7165 117.742 66.2416 119.114 65.6316 120.739C65.0978 122.161 65.4791 123.482 66.0129 124.803C67.0805 127.469 68.2497 130.111 69.2411 132.803C70.8933 137.197 73.6131 139.863 78.6969 139.127C79.3324 139.025 80.2474 138.848 80.3237 139.889C80.4 140.829 79.5866 140.905 78.8748 141.057C73.969 142.048 70.2832 140.244 68.1989 135.673C66.5721 132.066 65.0978 128.435 63.5472 124.828C63.0643 123.736 62.0983 122.339 61.1833 123.711C60.0648 125.412 58.7176 127.038 58.1584 129.146C57.1417 132.854 58.5905 135.495 61.0562 138.06C64.9198 142.098 68.7327 146.187 73.5114 149.184C75.5449 150.48 79.6882 150.175 81.6709 148.499C83.2469 147.152 82.0776 145.4 81.8234 143.876C80.6033 136.816 79.917 129.704 80.2474 122.542C80.4254 118.174 80.705 113.806 80.705 109.463ZM61.5137 182.099C59.0481 182.937 57.7517 182.379 57.4213 179.534C56.9129 175.09 55.5911 170.569 57.4975 166.124C57.8026 165.413 57.9551 164.55 56.8112 164.727C54.2693 165.159 51.5241 165.362 50.2023 168.207C49.4143 169.883 48.8043 171.61 48.8043 173.464C48.8043 175.496 48.0671 176.613 45.9319 177.147C43.3392 177.782 41.509 179.585 40.7973 182.252C40.2635 184.182 39.7297 186.137 39.3993 188.093C37.0862 202.036 35.1289 216.03 34.0105 230.1C33.8834 231.548 33.3242 232.665 31.977 233.173C28.215 234.621 26.3594 237.72 24.9868 241.199C23.9446 243.866 22.6736 246.507 21.9111 249.275C20.8689 253.06 18.7083 255.701 15.4038 257.682C12.379 259.485 9.73542 261.745 8.10861 264.996C5.948 269.314 4.65164 273.936 3.40612 278.559C3.10109 279.676 3.32986 280.438 4.75332 280.413C9.53207 280.387 14.3362 280.616 17.8186 276.349C18.4033 275.638 19.3438 275.181 20.1317 274.647C26.4356 270.33 33.0445 269.441 40.2635 272.311C44.8135 274.114 49.1093 276.425 53.4559 278.609C55.1844 279.473 56.6333 279.93 58.616 279.193C62.1746 277.847 65.7333 276.374 69.6986 276.324C76.4092 276.247 82.8402 277.873 88.7373 280.616C94.6091 283.333 100.481 283.663 106.658 283.638C126.408 283.536 146.159 283.613 165.909 283.613C176.407 283.613 186.88 283.562 197.378 283.638C199.411 283.638 200.275 283.206 199.767 280.946C199.005 277.466 198.547 273.911 197.861 270.406C197.2 267.079 195.548 264.412 192.396 262.838C191.023 262.152 190.21 260.882 189.32 259.688C187.032 256.615 184.719 253.542 182.381 250.494C182.025 250.037 181.745 248.971 180.855 249.529C180.245 249.91 180.22 250.825 180.525 251.46C181.237 253.06 181.999 254.634 182.864 256.133C184.821 259.536 186.88 262.888 188.837 266.292C189.295 267.104 190.133 268.4 189.269 268.908C186.956 270.279 187.388 272.616 186.753 274.571C186.219 276.247 185.024 277.365 183.55 278.228C181.237 279.574 178.72 280.209 176.026 280.108C174.806 280.057 173.535 280.032 172.747 281.251C171.323 283.486 169.188 283.511 166.926 283.13C162.452 282.343 158.029 281.301 153.632 280.159C151.064 279.498 149.87 278 150.429 275.384C150.785 273.708 150.048 273.022 148.573 272.539C145.752 271.6 143.108 270.228 140.414 269.009C136.322 267.181 131.899 265.758 127.45 266.8C123.155 267.815 118.986 267.511 114.741 267.155C113.775 267.079 112.148 265.834 112.301 268.349C112.326 268.984 111.386 269.035 110.776 269.035C108.945 269.06 107.09 269.212 105.285 268.958C102.108 268.501 99.2099 267.079 98.2186 263.879C97.2527 260.78 95.3208 260.603 92.779 261.034C90.72 261.39 88.3561 261.466 86.9834 260.145C84.5687 257.86 81.7217 256.793 78.7986 255.472C73.9436 253.288 69.5715 250.139 65.5045 246.685C63.1151 244.653 60.7766 242.52 59.3277 239.65C58.6414 238.278 58.1584 236.805 59.0989 235.408C60.3953 233.478 60.319 231.269 60.6495 229.135C60.7766 228.373 60.8528 227.408 60.1157 226.976C58.2601 225.91 56.0487 225.021 54.1677 226.088C52.3629 227.078 51.8037 229.237 52.2358 231.37C52.3629 231.954 52.6679 232.513 52.8459 233.097C53.8372 235.993 52.7188 237.313 49.6939 236.577C45.5761 235.561 42.8308 232.894 41.2803 229.008C40.7719 227.764 40.2635 226.824 38.7638 226.367C36.3998 225.63 35.7644 223.954 36.654 221.618C37.1878 220.221 37.4929 218.798 37.6454 217.325C38.5859 208.741 39.5264 200.157 40.6448 191.598C41.3057 186.595 44.178 183.852 49.1601 183.014C54.4218 182.125 57.65 184.842 57.6246 190.125C57.6246 191.522 57.5484 192.919 57.6246 194.315C57.8788 198.379 61.1833 201.909 65.2249 202.493C66.5212 202.671 67.8176 202.849 69.114 203.078C71.6559 203.509 73.6131 204.855 74.3503 207.293C76.7396 215.217 82.9418 219.535 89.4999 223.548C91.3809 224.691 93.4398 225.351 95.4734 224.234C98.1423 222.76 100.633 220.957 102.413 218.367C104.09 215.903 104.141 213.363 102.997 210.671C101.879 208.055 100.074 205.922 98.3965 203.687C96.5664 201.249 95.3971 198.608 95.3463 195.484C95.27 190.988 94.787 190.48 90.2879 190.023C88.5594 189.845 86.8055 189.896 85.0516 189.795C84.5178 189.769 83.9586 189.591 83.8315 189.007C83.7807 188.728 84.0094 188.118 84.1111 188.118C87.0851 188.017 86.3988 185.122 87.5427 183.648C88.5086 182.404 87.8985 181.845 86.6784 181.414C84.7974 180.728 82.9418 179.94 81.0863 179.179C77.8326 177.832 77.7564 177.807 76.8413 181.134C76.0279 184.08 74.0961 186.137 71.8846 188.017C70.1307 189.515 68.8344 187.534 67.2584 187.382C63.0897 187.153 62.2509 186.188 61.5137 182.099ZM129.662 134.327C128.213 134.555 126.739 134.759 125.29 134.987C122.621 135.393 120.282 134.733 118.223 133.006C111.564 127.444 105.768 121.247 103.429 112.561C103.099 111.291 101.803 109.488 103.404 108.904C104.878 108.371 105.082 110.555 105.387 111.698C107.725 119.977 113.038 126.047 119.545 131.304C121.934 133.235 124.527 133.158 127.247 132.498C128.569 132.168 129.763 131.228 128.543 129.882C126.764 127.901 125.366 125.565 122.722 124.346C118.732 122.542 115.046 120.18 111.589 117.488C110.776 116.853 109.149 116.066 109.988 114.898C110.979 113.526 111.945 115.177 112.733 115.761C116.063 118.174 119.672 120.13 123.205 122.212C124.807 123.152 125.569 122.796 125.646 120.841C125.747 118.326 125.976 115.787 126.281 113.272C126.917 107.812 127.298 102.326 128.416 96.9672C129.458 91.9385 131.187 87.0622 131.797 81.932C132.407 76.7255 133.373 71.5698 135.203 66.6427C135.864 64.8649 135.381 63.6966 134.059 62.503C132.305 60.9283 130.704 59.1759 129.026 57.5505C128.467 57.0171 128.34 55.6711 127.145 56.2044C126.179 56.6362 125.951 57.6267 125.925 58.6426C125.849 60.6489 125.824 62.6553 125.544 64.6363C123.892 76.3445 120.155 87.5448 116.876 98.8466C116.342 100.701 115.732 102.504 115.122 104.332C114.919 104.917 114.639 105.577 113.877 105.425C112.962 105.221 113.063 104.434 113.165 103.723C113.216 103.367 113.317 103.037 113.419 102.707C114.715 98.3641 116.063 94.0211 117.308 89.6782C120.13 79.697 123.332 69.792 123.841 59.3029C123.892 58.2362 124.019 57.2457 123.434 56.2552C121.401 52.8773 115.732 51.4297 112.301 53.4615C107.852 56.1028 103.76 59.2267 99.9471 62.7061C97.8627 64.6109 96.846 67.1253 97.1764 69.9952C97.9898 76.6493 98.6253 83.3542 99.9471 89.9575C100.659 93.4624 101.345 96.9672 102.057 100.472C102.184 101.158 102.413 101.97 101.548 102.275C100.506 102.656 100.125 101.742 99.9217 101.005C99.4895 99.5069 99.2099 97.9577 98.8795 96.4085C98.5999 95.164 98.2949 93.8941 96.5664 93.1068C96.5918 98.0339 97.0493 102.58 98.0661 107.075C99.4133 113.069 101.243 118.885 105.234 123.736C105.717 124.32 106.022 125.031 105.31 125.59C104.573 126.149 104.014 125.514 103.531 124.981C103.074 124.473 102.641 123.888 102.26 123.33C97.6848 116.752 95.9309 109.209 94.8887 101.488C94.66 99.7609 94.4566 98.5672 92.3214 98.3133C90.3642 98.0847 89.2966 96.5863 88.5848 94.1227C90.3387 95.9005 91.1013 98.2117 94.2024 97.7291C92.8806 97.2466 92.0418 97.018 91.4572 96.3323C90.5421 95.291 89.2711 94.3005 89.6778 92.7512C90.0337 91.3036 91.4318 91.329 92.7027 91.2782C93.7449 91.2274 94.0499 90.5417 94.1007 89.475C94.2024 86.859 94.5074 84.2685 94.7362 81.6526C95.0412 77.716 96.1088 73.754 94.4058 69.5126C91.8639 71.773 88.534 73.0175 87.6952 76.6493C87.1105 79.1128 86.3226 81.6018 86.2971 84.0907C86.2463 88.4083 83.2977 92.9798 87.3139 97.0434C88.229 97.9831 88.4069 99.6847 90.1608 99.7609C90.6184 99.7863 91.1013 99.7609 91.1776 100.32C91.2538 100.955 90.7454 101.234 90.2371 101.386C88.9407 101.793 87.8731 101.285 86.8309 100.523C86.17 100.04 85.8904 98.9736 84.6703 99.1768C84.4924 100.802 83.9078 102.504 85.077 103.926C85.7125 104.688 85.6871 102.936 86.4242 103.139C86.5767 104.002 86.3226 104.713 85.7379 105.094C83.5773 106.517 83.5519 108.701 83.4756 110.91C83.4248 112.231 83.4502 113.526 83.2977 114.822C81.5692 131 83.9332 146.67 89.2966 161.934C91.0251 166.861 94.2278 170.569 99.032 172.677C105.209 175.369 114.715 172.372 119.316 166.2C123.688 160.334 127.959 154.365 132.127 148.321C134.237 145.248 136.881 143.267 140.643 142.962C141.202 142.911 142.015 143.063 142.015 142.175C142.015 141.59 141.38 141.413 140.922 141.184C137.643 139.686 134.034 140.244 131.492 142.835C129.891 144.435 128.493 146.238 127.044 147.991C122.138 154.01 117.791 160.486 112.377 166.073C109.377 169.172 105.743 170.823 101.396 170.848C100.583 170.848 99.4133 171.128 99.337 169.858C99.2608 168.791 100.354 168.715 101.091 168.715C107.242 168.766 110.953 164.829 114.461 160.613C115.885 158.886 117.588 157.261 118.274 154.975C117.359 155.534 116.596 156.245 115.808 156.905C113.47 158.886 111.106 160.842 108.31 162.112C107.624 162.442 106.658 162.772 106.251 161.807C105.793 160.816 106.709 160.486 107.446 160.131C110.42 158.734 112.911 156.676 115.275 154.492C119.113 150.911 122.85 147.229 126.535 143.546C128.67 141.413 130.882 139.508 133.907 138.797C134.517 138.644 135.788 138.619 135.508 137.527C135.229 136.486 134.212 136.232 133.144 136.46C125.849 137.933 118.655 139.711 112.275 143.8C109.352 145.654 107.395 145.603 104.955 143.241C100.583 139.076 97.6848 133.895 95.3208 128.409C95.0667 127.825 94.9141 127.165 95.575 126.758C96.363 126.301 96.9222 126.784 97.2781 127.469C97.7611 128.384 98.1678 129.374 98.6507 130.289C100.633 134.174 102.845 137.933 105.895 141.133C107.598 142.911 109.377 143.19 111.487 141.794C112.936 140.829 114.512 140.067 116.063 139.254C120.358 137.019 125.188 136.181 129.662 134.327ZM110.953 175.166C107.802 175.318 105.056 176.867 102.006 176.207C95.9817 174.937 91.5589 171.483 88.534 166.251C86.0938 162.061 85.1533 157.286 83.8315 152.689C83.3994 151.114 82.9673 150.302 81.2134 151.14C80.3745 151.546 79.3832 151.699 78.4427 151.927C77.553 152.13 76.7142 152.41 76.5871 153.476C76.3583 155.889 75.7483 158.226 76.2567 160.74C77.1972 165.337 79.2815 169.705 78.7223 174.582C78.5952 175.674 79.612 176.004 80.4 176.334C83.1452 177.452 85.865 178.671 88.6611 179.636C93.694 181.337 98.727 182.175 104.065 180.575C112.301 178.137 118.605 183.852 117.105 192.182C116.952 193.046 116.724 193.884 116.622 194.747C116.469 196.042 116.342 197.363 116.368 198.658C116.393 200.258 117.512 201.401 118.833 201.706C120.282 202.036 119.977 200.258 120.46 199.446C120.892 198.709 121.096 197.82 121.375 197.008C125.773 184.614 132.229 173.617 142.829 165.388C147.15 162.061 151.7 159.165 156.911 157.464C157.75 157.184 158.792 156.829 159.224 157.87C159.758 159.14 158.487 159.242 157.75 159.496C152.361 161.273 147.709 164.321 143.312 167.826C136.169 173.49 128.467 184.029 126.103 191.776C126.815 190.658 127.272 189.922 127.73 189.185C133.754 179.255 141.075 170.645 151.878 165.54C155.284 163.94 158.69 162.365 162.376 161.553C163.215 161.375 164.333 160.918 164.664 162.035C165.07 163.407 163.647 163.381 162.833 163.686C161.537 164.169 160.164 164.473 158.843 164.956C146.235 169.401 137.389 178.112 130.17 189.109C125.01 196.931 122.112 205.795 117.588 213.871C117.207 214.557 116.876 215.268 116.546 215.979C115.834 217.478 115.529 218.976 116.52 220.449C117.283 221.567 116.876 222.583 116.368 223.649C116.037 224.361 114.97 224.818 115.351 225.834C115.91 226.113 116.266 225.834 116.546 225.529C119.215 222.507 121.324 219.103 123.078 215.497C125.824 209.935 128.543 204.373 130.755 198.582C131.034 197.846 131.416 196.957 132.432 197.363C133.424 197.744 133.119 198.658 132.839 199.395C132.229 200.944 131.543 202.443 130.907 203.966C128.975 208.589 126.84 213.135 124.705 217.706C126.078 216.843 126.84 215.497 127.654 214.227C134.161 203.839 141.405 194.265 152.971 188.83C160.215 185.426 167.129 181.287 175.085 179.483C179.94 178.391 182.889 179.94 184.134 184.715C184.694 186.823 185.177 188.957 185.685 191.09C186.117 189.998 185.939 188.906 186.143 187.915C186.753 184.842 185.736 182.531 183.245 180.677C181.542 179.407 181.288 177.502 181.338 175.496C181.364 174.302 181.542 173.083 180.296 172.194C178.136 170.696 177.831 168.435 178.339 166.099C178.669 164.55 178.339 163.153 177.932 161.731C177.576 160.588 177.17 159.826 175.746 160.689C174.145 161.654 172.238 161.705 170.434 162.01C169.544 162.162 168.502 162.213 168.4 161.019C168.324 160.004 169.315 159.877 170.078 159.75C171.552 159.521 173.154 159.699 174.857 158.353C171.806 157.413 169.239 157.591 166.646 157.997C165.807 158.124 164.689 158.454 164.384 157.362C164.054 156.194 165.274 156.067 166.062 155.813C169.086 154.848 169.163 154.467 166.9 152.08C165.858 150.962 164.486 150.708 163.113 150.454C156.148 149.184 149.209 147.889 142.244 146.721C139.194 146.187 136.627 146.873 134.822 149.794C132.89 152.918 130.704 155.864 128.543 158.81C123.739 165.464 118.884 172.093 112.275 177.147C111.233 177.959 110.115 178.645 108.818 178.95C108.208 179.102 107.522 179.128 107.242 178.417C106.937 177.68 107.522 177.299 108.081 177.02C109.047 176.563 110.165 176.283 110.953 175.166ZM100.405 261.898C100.278 263.015 100.76 263.65 101.269 264.26C102.794 266.038 104.878 266.85 107.09 266.774C109.225 266.698 107.776 264.692 108.31 263.65C112.758 255.142 112.072 246.532 108.386 237.923C106.785 234.189 107.42 232.462 111.03 230.481C111.64 230.151 112.555 229.923 112.301 229.084C111.462 226.494 112.657 224.513 114.055 222.557C114.588 221.821 114.334 221.11 114.08 220.322C113.419 218.24 113.495 216.233 114.614 214.278C115.859 212.068 116.901 209.757 118.223 207.598C119.164 206.024 119.088 204.957 117.461 203.941C113.953 201.757 113.012 198.684 114.156 194.722C114.741 192.741 114.817 190.607 115.097 188.525C115.198 187.737 115.173 186.976 114.715 186.264C113.343 184.131 108.386 181.947 105.921 182.683C101.828 183.877 97.7102 184.309 93.4907 183.471C91.813 183.141 90.5929 183.826 89.7033 185.172C89.1441 186.036 89.3728 186.925 90.415 186.823C94.4312 186.442 96.6935 189.541 99.5404 191.344C103.862 194.061 106.149 198.404 107.954 203.027C108.208 203.662 108.513 204.5 107.674 204.881C106.709 205.338 106.276 204.474 105.921 203.763C105.641 203.23 105.463 202.646 105.209 202.087C103.912 199.192 102.336 196.5 99.8962 194.392C99.4641 194.011 99.0828 193.3 98.422 193.503C97.6848 193.757 97.9898 194.544 97.939 195.103C97.7611 197.642 98.5236 199.903 100.023 201.96C101.523 203.992 103.124 205.973 104.395 208.157C107.573 213.643 107.014 217.681 102.514 222.024C94.3295 229.897 91.5843 228.094 85.4075 223.929C80.1458 220.373 75.0366 216.614 72.9014 210.316C71.7575 206.938 69.8257 205.49 66.2416 205.287C59.4802 204.881 54.854 199.471 54.9048 192.639C54.9048 191.242 55.0319 189.845 54.8794 188.449C54.6252 186.29 52.7442 185.198 50.1515 185.452C47.8638 185.655 46.9995 186.772 47.3046 189.084C47.9654 193.884 49.0585 198.379 52.5663 202.138C56.7095 206.608 60.4715 211.433 64.3861 216.132C65.8095 217.833 66.6738 219.814 65.5299 221.922C63.8268 225.122 63.471 228.526 63.3693 232.031C63.3439 233.072 63.1914 234.189 62.7592 235.078C61.4375 237.821 62.378 240.056 64.259 241.961C68.9106 246.609 74.0452 250.672 80.1712 253.263C81.5184 253.821 83.1452 254.736 84.5687 253.542C86.0684 252.298 87.7968 251.79 89.6016 251.51C92.1435 251.129 93.3128 249.479 94.0245 247.269C94.2787 246.456 94.5074 245.618 94.787 244.78C94.9904 244.17 95.3971 243.586 96.1088 243.764C96.9985 243.993 96.8968 244.755 96.7951 245.491C96.1851 249.631 93.1602 252.856 89.1949 253.72C88.051 253.974 86.3734 253.948 86.3226 255.447C86.2717 256.869 87.4156 257.91 88.7628 258.545C89.8304 259.053 90.9234 259.155 92.0672 258.799C97.1764 257.199 101.421 259.587 105.743 261.72C106.302 261.999 106.836 262.457 106.505 263.168C106.175 263.879 105.514 263.726 104.904 263.549C103.429 263.168 102.184 262.025 100.405 261.898ZM159.275 192.766C159.046 191.979 159.885 190.455 158.893 189.845C157.75 189.134 156.657 190.455 155.614 190.963C144.557 196.347 136.932 205.287 130.196 215.243C125.391 222.354 120.969 229.948 112.046 232.919C109.886 233.631 109.937 235.154 110.623 237.135C112.834 243.459 115.376 249.783 113.317 256.717C112.936 257.961 112.657 259.257 112.479 260.552C112.25 262.152 113.317 262.99 114.69 262.279C115.3 261.949 115.732 261.898 116.368 262.076C117.918 262.507 118.706 261.618 118.935 260.272C120.053 253.771 123.383 248.005 125.163 241.707C125.773 239.497 126.942 237.542 128.365 235.764C133.678 229.161 139.219 222.71 145.421 216.995C149.641 213.135 153.149 208.741 157.013 204.627C157.902 203.662 158.614 202.57 158.69 201.173C158.843 198.43 159.071 195.738 159.275 192.766ZM172.594 187.077C173.535 197.312 170.332 206.481 165.528 215.319C163.774 218.57 163.138 222.202 162.986 225.91C162.732 232.996 163.291 240.031 163.698 247.091C163.926 251.129 162.401 254.202 159.3 256.615C157.216 258.241 155.945 260.349 155.182 262.838C154.013 266.596 153.276 270.254 153.911 274.317C154.216 276.222 154.496 277.162 156.275 277.568C160.19 278.457 164.104 279.371 167.993 280.26C169.061 280.514 169.874 280.209 170.332 279.143C171.171 277.187 171.705 275.079 171.374 273.022C171.12 271.574 169.163 271.549 168.019 270.838C167.79 270.711 167.561 270.584 167.333 270.457C165.375 269.263 164.816 267.79 165.96 265.631C167.256 263.168 168.426 260.628 169.519 258.063C170.256 256.31 171.323 254.66 171.247 252.628C170.866 242.799 172.645 233.173 173.992 223.497C175.746 211.306 175.517 199.192 172.594 187.077ZM184.516 220.652C184.414 209.554 183.779 199.827 182.177 190.176C181.821 188.042 181.44 185.858 179.864 184.156C178.542 182.734 176.839 182.099 175.111 182.861C173.128 183.725 174.984 185.274 174.857 186.518C174.831 186.671 174.958 186.849 174.984 187.026C177.576 198.277 178.009 209.655 176.534 221.059C175.289 230.735 173.357 240.412 173.408 250.164C173.433 254.304 172.035 257.504 170.612 260.984C170.154 262.101 169.544 263.168 169.01 264.285C167.18 268.095 167.663 269.136 171.781 270.025C172.798 270.254 173.891 270.279 174.907 270.152C178.186 269.669 181.44 269.085 184.719 268.527C186.575 268.196 186.422 267.13 185.66 265.86C184.084 263.244 182.66 260.526 180.932 258.012C178.085 253.923 177.043 249.758 179.381 245.059C179.966 243.917 180.169 242.57 180.525 241.326C182.584 234.113 185.863 227.154 184.516 220.652ZM162.325 84.0653C162.427 84.9796 163.901 86.0463 161.893 86.6813C160.927 86.986 161.588 87.7987 161.918 88.1543C164.079 90.4909 164.409 93.183 163.774 96.1799C163.571 97.145 163.672 98.4149 164.155 99.2276C166.697 103.545 164.943 106.872 161.969 110.021C161.562 110.453 161.232 110.987 160.851 111.469C154.064 119.774 148.573 129.019 142.041 137.527C141.787 137.882 141.354 138.441 141.812 138.644C144.354 139.66 145.396 141.489 145.218 144.13C145.218 144.308 145.549 144.511 145.752 144.663C149.183 147.203 155.742 146.01 157.546 142.276C163.85 129.298 169.061 115.914 171.73 101.666C172.518 97.5259 173.586 93.3354 172.391 88.9924C171.705 86.5289 169.798 85.386 168.019 84.0399C166.723 83.0494 165.655 83.6082 164.435 84.2431C163.85 84.4971 163.037 84.1415 162.325 84.0653ZM170.307 191.445C170.307 190.76 170.307 190.049 170.307 189.363C170.23 184.182 169.925 183.979 165.223 186.137C163.647 186.874 162.122 187.534 161.969 189.769C161.334 200.208 160.114 210.595 159.046 220.983C158.233 228.983 156.097 236.297 151.395 242.901C147.277 248.691 143.998 254.914 142.015 261.796C140.872 265.809 141.354 267.079 145.218 268.679C146.438 269.187 147.658 269.593 148.878 270.101C150.454 270.762 151.141 270.406 151.497 268.577C152.564 262.863 154.038 257.326 159.224 253.669C160.978 252.425 161.537 250.418 161.435 248.31C161.181 243.256 160.825 238.227 160.571 233.173C160.215 225.757 161.054 218.621 164.714 211.916C168.171 205.592 170.459 198.836 170.307 191.445ZM139.931 118.606C139.829 118.453 139.702 118.301 139.601 118.174C137.237 118.758 134.898 119.418 132.509 119.926C131.721 120.104 130.526 120.333 130.297 119.19C130.068 118.022 131.238 117.945 132.077 117.768C137.669 116.752 142.651 114.364 147.506 111.495C149.743 110.174 150.073 108.142 150.632 106.085C150.887 105.12 150.251 104.561 149.361 104.459C144.989 103.951 140.846 101.767 136.271 102.605C134.949 102.834 133.678 102.605 132.966 101.132C132.585 100.345 131.746 99.6593 130.831 99.8879C129.738 100.167 130.119 101.336 130.043 102.148C129.357 108.904 128.721 115.685 128.035 122.441C127.832 124.473 130.577 130.339 132.458 130.949C134.263 131.533 135.406 132.727 136.576 134.022C139.27 136.943 139.855 136.943 142.193 133.616C146.209 127.876 149.311 121.628 151.954 115.126C152.31 114.237 152.818 113.171 151.7 112.561C150.683 112.002 150.175 113.12 149.59 113.653C145.421 117.539 140.77 120.765 135.788 123.558C135.101 123.939 134.11 124.777 133.5 123.736C132.788 122.542 134.034 122.136 134.822 121.653C136.525 120.638 138.228 119.622 139.931 118.606ZM178.974 47.2391C177.093 47.7471 176.712 48.6614 176.966 49.7535C177.246 51.0233 178.314 51.2265 179.432 51.1757C180.5 51.1503 181.11 50.3122 181.923 49.8297C183.702 48.8138 185.838 49.6011 186.346 51.4805C186.626 52.4456 186.397 53.3091 185.482 53.6901C184.389 54.1726 184.16 53.3599 184.058 52.471C184.007 51.9884 183.829 51.5821 183.245 51.7345C182.762 51.8614 182.584 52.2678 182.584 52.7504C182.559 53.8424 183.143 54.5536 184.033 55.0615C185.024 55.6203 185.888 55.2393 186.651 54.5536C187.693 53.6139 187.871 52.2932 188.125 50.9979C188.227 50.4646 188.481 49.982 189.142 50.0074C189.752 50.0582 190.032 50.5408 190.133 51.0487C190.464 52.6234 190.006 54.071 188.989 55.1885C187.49 56.8393 185.075 58.033 187.439 60.8267C187.795 61.2331 186.651 62.7061 188.43 62.7061C189.879 62.7061 191.531 62.6045 191.887 61.0045C192.319 59.0235 192.726 56.7885 192.243 54.9091C191.709 52.8265 192.116 50.9217 192.497 49.0677C192.726 47.8741 192.472 47.4169 191.684 47.0359C189.167 45.7915 188.202 43.5057 187.414 41.0422C186.092 36.877 182.864 34.3626 178.873 34.4642C175.467 34.5404 172.315 33.8801 169.036 33.5499C162.249 32.8642 155.716 37.8675 153.479 44.8518C154.267 44.5978 154.725 43.3279 155.742 44.0137C157.216 45.0042 154.928 45.8931 155.513 46.9344C158.004 46.401 159.859 47.7979 159.834 50.2106C159.834 52.471 157.699 53.8932 157.241 56.1536C158.894 56.052 160.368 56.0012 161.817 55.8488C165.655 55.4425 167.968 52.3186 167.307 48.5344C167.053 47.1121 167.561 45.9439 168.629 45.0295C169.798 44.039 171.12 43.6581 172.467 44.6486C173.636 45.5121 173.738 46.7312 173.128 47.9249C172.315 49.6011 170.993 49.0931 169.697 48.3058C171.959 50.4392 173.535 50.1344 174.933 47.4423C175.721 45.9185 176.839 44.9026 178.669 45.1565C180.017 45.3343 180.855 46.2486 181.135 47.5693C181.415 48.8392 180.881 49.7789 179.737 50.3884C179.051 50.7694 178.364 50.6424 177.831 50.0582C176.941 49.0169 178.034 48.3312 178.974 47.2391ZM44.8643 188.144C42.8562 190.049 42.9833 192.665 42.6529 195.052C41.382 204.17 41.204 213.414 39.1197 222.43C38.9163 223.243 39.0942 223.878 39.9585 224.03C42.78 224.564 44.0255 226.799 45.4236 228.907C46.1607 230.05 46.9487 231.192 48.245 231.878C50.5328 223.446 51.7274 222.684 60.1665 224.157C60.3444 224.183 60.497 224.234 60.6749 224.284C61.5646 224.538 62.2254 224.234 62.6067 223.421C63.6489 221.211 64.3352 219.129 62.3525 216.919C59.1752 213.338 56.3283 209.478 53.0492 205.973C48.3976 200.97 44.966 195.509 45.1948 188.372C45.1948 188.347 45.0677 188.296 44.8643 188.144ZM146.286 220.348C146.082 220.246 145.854 220.17 145.65 220.068C144.1 221.694 142.625 223.37 141.024 224.945C133.525 232.386 127.018 240.412 124.349 250.952C123.917 252.679 123.968 253.491 125.747 254.05C127.399 254.558 129.001 255.295 130.602 255.98C135.305 257.961 136.067 257.656 138.177 252.933C138.431 252.374 138.584 251.79 138.787 251.206C140.821 245.44 142.041 239.472 143.413 233.554C144.456 229.161 145.345 224.741 146.286 220.348ZM58.3872 283.511C56.5316 282.673 54.7015 282.165 53.2526 281.124C48.2705 277.593 42.6021 275.587 36.9336 273.555C35.6119 273.073 34.2392 272.895 32.8158 272.844C26.0544 272.59 21.0977 276.298 16.3443 280.362C14.4125 281.987 12.5315 282.851 9.93877 282.495C8.08319 282.241 6.04968 281.784 3.6603 283.511C22.2161 283.511 40.1364 283.511 58.3872 283.511ZM157.521 207.395C154.979 210.316 152.895 212.754 150.759 215.116C149.819 216.132 149.311 217.249 149.082 218.57C147.48 227.586 145.396 236.5 143.159 245.364C141.761 250.977 140.109 256.488 135.661 260.628C134.847 261.365 134.441 262.406 135.051 263.472C135.483 264.285 136.271 264.717 137.211 264.768C138.685 264.844 138.787 263.599 139.067 262.634C141.405 254.406 145.498 247.04 150.327 240.031C152.768 236.5 154.801 232.716 155.462 228.399C156.021 224.792 156.707 221.186 156.987 217.529C157.216 214.43 158.029 211.357 157.521 207.395ZM73.5877 181.744C76.5871 176.232 76.8667 170.62 74.7315 164.829C73.4606 161.4 71.5288 159.953 67.8176 160.283C67.2075 160.334 66.6229 160.486 66.0129 160.562C65.3774 160.638 64.7165 160.562 64.5386 159.826C64.3606 159.115 64.8944 158.708 65.5045 158.48C67.1059 157.87 68.7581 158.023 70.4103 158.124C71.4271 158.2 72.8251 159.47 73.3589 157.896C73.9181 156.245 74.7061 153.984 73.0539 152.765C70.0545 150.556 67.1567 148.245 64.0048 145.375C64.0048 147.838 63.9285 149.743 64.0302 151.622C64.259 156.219 64.0556 160.74 61.1833 164.6C58.8701 167.75 59.0735 171.229 59.4039 175.064C60.014 173.617 60.3953 172.372 61.0308 171.28C61.5646 170.391 62.378 169.553 63.5981 169.934C64.6911 170.289 65.2503 171.204 65.3774 172.321C65.4791 173.261 65.5045 174.226 65.4536 175.191C65.3774 177.579 65.2249 179.966 65.1232 182.353C66.1654 179.915 66.6229 177.401 67.2075 174.912C67.3855 174.15 67.2838 172.829 68.5547 173.109C69.6732 173.337 69.3682 174.531 69.2665 175.344C68.9615 177.553 68.5293 179.763 68.0972 182.302C69.902 180.067 69.8765 177.553 70.4866 175.267C70.8679 173.871 71.1475 172.296 73.0539 172.753C74.7824 173.159 74.8078 174.658 74.5536 176.156C74.1723 178.01 73.8927 179.89 73.5877 181.744ZM135.991 74.3381C134.618 80.2049 133.678 86.1225 132.992 92.0655C132.229 98.3895 131.06 97.272 138.025 99.5323C138.889 99.8117 139.753 99.8371 140.566 99.4054C141.583 98.872 142.32 98.9228 143.337 99.7609C145.574 101.615 147.938 100.497 148.37 97.6275C148.701 95.4688 149.031 93.31 149.489 91.202C149.946 89.1956 149.514 87.4432 148.523 85.6908C145.981 81.2208 145.828 81.1446 141.38 83.532C138.482 85.0812 136.982 84.3955 136.499 81.0938C136.194 78.8589 136.169 76.5985 135.991 74.3381ZM149.692 68.0142C151.141 68.0396 151.725 66.8205 152.513 67.557C153.378 68.3698 152.615 69.1825 152.208 69.8936C151.446 71.2397 151.166 72.7889 149.895 73.9318C149.031 74.7191 149.361 75.9382 149.971 76.8525C150.582 77.7922 151.42 78.5795 152.132 79.443C153.327 80.9415 154.521 81.0684 155.614 79.3668C157.445 76.4969 159.961 77.0049 162.528 77.97C163.494 78.3255 164.384 78.9605 165.299 79.443C166.036 79.824 166.85 80.7637 167.638 80.0018C168.781 78.8589 170.434 77.5128 170.535 76.1667C170.764 72.9667 166.112 68.5221 162.656 68.0142C159.148 67.4808 156.936 63.6458 158.233 60.3442C158.461 59.76 159.224 59.2775 158.309 57.906C155.004 60.8521 152.64 64.3316 149.692 68.0142ZM155.538 114.415C157.928 111.215 160.037 108.447 162.122 105.653C162.528 105.094 163.037 104.434 162.783 103.748C161.562 100.32 161.029 96.8402 161.512 93.2084C161.588 92.5735 161.181 92.0147 160.546 91.8115C159.987 91.6338 159.936 92.2433 159.656 92.5481C158.283 94.0973 156.962 93.9957 156.174 92.0147C155.411 90.1861 154.954 88.2051 154.496 86.2495C153.708 82.9225 150.759 81.9066 148.396 80.1795C148.624 81.1954 149.056 82.0081 149.641 82.7193C152.285 86.0971 152.564 89.8559 151.725 93.8941C151.344 95.6719 151.115 97.5006 150.785 99.3038C150.531 100.624 150.607 101.742 152.157 102.25C153.327 102.631 153.962 103.698 153.556 104.713C152.208 107.913 153.047 110.529 155.157 112.993C155.284 113.222 155.309 113.628 155.538 114.415ZM173.738 52.8773C174.424 54.1472 174.882 54.8837 175.238 55.6711C175.568 56.3822 175.899 57.2711 175.035 57.779C174.069 58.3378 173.662 57.4235 173.306 56.7377C172.747 55.7472 172.188 54.7314 171.095 54.2488C170.383 53.9186 169.697 53.9948 169.29 54.7567C168.832 55.5949 169.544 55.798 170.052 56.0774C170.434 56.2806 170.815 56.5092 171.145 56.7885C172.366 57.779 172.747 59.0489 172.264 60.522C171.908 61.6648 170.891 61.741 169.9 61.741C168.324 61.7664 167.002 61.1061 166.824 59.5061C166.621 57.8552 166.087 57.8298 164.867 58.5156C163.876 59.0743 162.859 59.5569 161.842 60.0648C160.8 60.5981 160.317 61.4617 160.393 62.6299C160.495 63.8744 161.156 64.9919 162.325 65.1443C166.57 65.7284 169.315 68.6745 172.366 71.2143C172.645 71.4428 172.899 71.773 173.23 71.5444C174.297 70.8079 175.416 70.0714 176.331 69.1825C177.271 68.2682 175.924 67.684 175.772 66.9221C175.568 65.7792 174.704 64.5601 175.848 63.5188C176.865 62.5791 178.11 62.7061 179.279 63.2395C179.813 63.4934 180.271 63.9252 180.728 64.3316C181.186 64.7379 181.567 65.3729 182.203 64.6109C182.711 63.976 182.711 63.3411 182.076 62.7569C181.338 62.0966 180.423 61.8172 179.508 61.5125C178.797 61.2585 177.729 61.1061 178.034 60.0648C178.364 58.9727 179.432 59.2013 180.271 59.4807C181.516 59.887 182.736 60.395 184.567 61.0807C181.999 56.56 178.669 54.1726 173.738 52.8773ZM151.09 62.0204C149.082 62.7061 147.608 63.2395 146.108 63.722C138.508 66.1602 138.457 66.1602 138.482 74.2873C138.533 83.2018 138.94 81.1954 145.142 78.5541C146.54 77.97 147.252 77.3096 146.845 75.6334C145.676 70.9095 146.591 66.6681 150.276 63.2649C150.531 63.0109 150.683 62.6553 151.09 62.0204ZM61.0562 280.413C61.0308 280.743 61.0053 281.073 60.9799 281.403C70.512 282.19 80.0695 282.978 89.6016 283.79C80.3237 280.032 71.0458 276.476 61.0562 280.413ZM59.8615 161.426C60.2428 160.842 60.5732 160.511 60.7003 160.131C62.6067 153.934 61.0816 147.686 60.8528 141.489C60.8274 140.803 60.1919 139.813 59.3531 139.889C58.3618 139.965 58.4634 141.082 58.4126 141.794C58.0313 147 57.9296 152.232 58.3618 157.464C58.4634 158.708 58.8701 159.978 59.8615 161.426ZM129.23 263.955C130.78 264.158 131.924 264.107 132.382 261.999C132.839 259.891 131.975 259.104 130.374 258.495C128.416 257.758 126.459 257.072 124.527 256.234C122.9 255.523 122.163 256.234 122.112 257.733C122.087 258.876 120.053 260.603 122.977 261.06C124.171 261.238 125.493 261.542 126.129 262.66C126.866 263.98 127.933 264.184 129.23 263.955ZM177.5 277.492C180.042 277.39 182.355 276.806 183.931 274.597C184.465 273.835 184.694 272.971 184.287 272.133C183.779 271.092 182.787 271.396 181.974 271.574C180.449 271.955 178.924 272.412 177.348 272.362C175.06 272.26 174.602 273.555 174.628 275.511C174.653 277.695 176.077 277.492 177.5 277.492Z" fill="#DE9082"/>
<path d="M28.1387 250.825C28.1133 244.805 31.2398 242.037 37.2387 242.748C41.1023 243.205 44.6356 244.653 48.0417 246.507C50.3294 247.752 52.6679 248.971 54.9811 250.164C55.4386 250.393 56.0995 250.85 56.4045 250.672C59.6073 249.072 60.9799 251.688 62.683 253.364C66.2925 256.895 69.8511 260.501 73.3843 264.107C73.969 264.692 74.9857 265.326 74.3503 266.266C73.7148 267.181 72.7234 266.419 71.9355 266.19C71.2746 266.012 70.7154 265.53 70.0799 265.25C68.1989 264.387 66.3941 264.107 64.9707 266.114C64.1573 267.282 62.9118 267.714 61.6154 267.917C57.1671 268.654 52.8205 269.771 48.6009 271.346C46.7453 272.031 45.1439 271.295 43.5171 270.812C40.6956 269.949 37.8996 268.882 35.1289 267.892C33.6038 267.358 32.0532 266.52 31.6974 264.92C30.7823 260.679 29.4351 256.564 28.1895 252.399C28.0116 251.891 28.1387 251.333 28.1387 250.825ZM47.0758 269.365C47.635 269.288 47.94 269.314 48.1434 269.187C53.7864 265.987 60.014 264.209 66.1145 262.177C67.5634 261.695 66.9279 260.933 66.267 260.247C64.259 258.19 62.1746 256.209 60.1919 254.126C58.7939 252.653 57.6755 253.136 56.8621 254.583C55.5403 256.971 53.4559 258.291 51.0157 259.13C45.8557 260.857 40.6448 262.33 35.1289 261.009C33.5275 260.628 33.2987 261.466 33.5529 262.736C33.8071 264.006 34.3918 265.022 35.7135 265.453C37.1116 265.936 38.5096 266.444 39.9077 266.901C42.3733 267.79 44.8643 268.603 47.0758 269.365ZM39.5264 258.977C39.5264 258.952 39.5264 258.901 39.5264 258.876C40.5685 258.876 41.6361 259.003 42.6529 258.85C46.2878 258.368 49.9227 257.783 53.0238 255.625C53.8372 255.066 55.6419 253.974 53.9135 252.907C48.4484 249.504 42.8817 246.126 36.1457 245.847C31.3415 245.644 30.9602 246.126 31.6465 250.799C31.7736 251.739 31.8499 252.704 32.0278 253.644C32.892 258.571 33.3242 258.926 38.4588 258.952C38.8401 259.003 39.1959 258.977 39.5264 258.977Z" fill="#DE9082"/>
<g opacity="0.33">
<path d="M190.743 91.329C190.845 94.4529 188.074 97.5006 184.999 97.653C181.796 97.8054 178.695 94.8593 178.619 91.5576C178.542 88.5099 181.44 85.4622 184.541 85.386C187.896 85.3098 190.616 87.9004 190.743 91.329Z" fill="#DE9082"/>
<path d="M190.769 78.351C190.616 75.1001 193.336 72.154 196.59 72.027C199.818 71.9 202.792 74.7191 202.868 77.97C202.944 81.0685 200.098 84.0908 197.022 84.1924C193.641 84.294 190.947 81.7542 190.769 78.351Z" fill="#DE9082"/>
<path d="M202.868 64.357C202.741 60.9792 205.258 58.16 208.486 58.0331C211.943 57.8807 214.663 60.3696 214.79 63.8237C214.917 67.2015 212.299 70.0714 208.994 70.1476C205.613 70.2238 202.995 67.7603 202.868 64.357Z" fill="#DE9082"/>
<path d="M187.337 16.8639C187.464 20.1147 184.719 23.2132 181.567 23.3402C178.441 23.4926 175.314 20.5465 175.238 17.3972C175.162 14.1971 178.008 11.1748 181.186 11.0733C184.134 10.9717 187.236 13.8924 187.337 16.8639Z" fill="#DE9082"/>
<path d="M139.372 44.0391C139.524 47.2392 136.677 50.49 133.551 50.4138C130.399 50.3376 127.73 48.3313 127.527 44.6486C127.323 41.1946 129.891 38.3247 133.195 38.1977C136.398 38.0961 139.219 40.7628 139.372 44.0391Z" fill="#DE9082"/>
<path d="M158.334 11.0733C161.664 10.9209 164.511 13.4352 164.664 16.6607C164.816 19.8608 162.045 22.8831 158.843 23.0609C155.894 23.2132 152.767 20.3941 152.59 17.4226C152.386 14.0702 154.979 11.2257 158.334 11.0733Z" fill="#DE9082"/>
<path d="M195.751 22.9847C199.055 22.8577 201.801 25.3974 201.979 28.7245C202.131 31.9499 199.513 34.8452 196.259 34.9976C193.006 35.15 190.083 32.4325 189.93 29.1308C189.803 25.9308 192.472 23.1117 195.751 22.9847Z" fill="#DE9082"/>
<path d="M145.803 36.3183C142.473 36.4706 139.524 33.8293 139.397 30.5785C139.27 27.3784 141.914 24.4831 145.142 24.3307C148.294 24.1783 151.293 26.8704 151.471 30.0197C151.649 33.1944 148.98 36.1659 145.803 36.3183Z" fill="#DE9082"/>
<path d="M201.851 40.7628C201.699 37.3342 204.063 34.6421 207.418 34.4643C210.773 34.2865 213.57 36.8516 213.722 40.2549C213.849 43.5565 211.307 46.3503 208.028 46.5026C204.673 46.6042 202.004 44.1407 201.851 40.7628Z" fill="#DE9082"/>
<path d="M222.975 71.3413C223.051 73.4239 221.195 75.4303 219.162 75.5065C216.899 75.5827 215.044 73.881 214.917 71.5953C214.79 69.5635 216.849 67.2777 218.806 67.2523C220.992 67.2523 222.898 69.1063 222.975 71.3413Z" fill="#DE9082"/>
<path d="M195.014 102.859C192.904 102.936 190.921 101.132 190.82 99.0752C190.718 96.9418 192.624 94.7323 194.632 94.6561C196.717 94.6053 198.877 96.6625 198.979 98.7959C199.03 100.828 197.123 102.809 195.014 102.859Z" fill="#DE9082"/>
<path d="M217.916 47.7217C219.975 47.5947 221.958 49.4233 222.085 51.5821C222.212 53.6901 220.433 55.7727 218.399 55.8997C216.264 56.052 214.103 54.1726 214.002 52.0646C213.925 49.9567 215.806 47.8487 217.916 47.7217Z" fill="#DE9082"/>
<path d="M149.209 4.54613C151.217 4.46994 153.25 6.40014 153.352 8.45733C153.454 10.3367 151.497 12.6225 149.692 12.7241C147.582 12.8511 145.396 10.9209 145.294 8.86368C145.193 6.70491 147.074 4.64772 149.209 4.54613Z" fill="#DE9082"/>
<path d="M202.919 14.5527C204.952 14.5273 207.037 16.4829 207.088 18.4639C207.139 20.6735 205.232 22.6545 203.071 22.6545C201.063 22.6545 199.055 20.7751 198.979 18.8703C198.903 16.7877 200.911 14.5781 202.919 14.5527Z" fill="#DE9082"/>
<path d="M210.85 85.2336C210.951 87.5448 209.375 89.3226 207.164 89.4242C204.749 89.5258 203.046 87.9765 202.944 85.5892C202.868 83.5066 204.673 81.5002 206.757 81.424C208.969 81.3224 210.748 82.9732 210.85 85.2336Z" fill="#DE9082"/>
<path d="M192.421 6.70493C192.523 8.71132 190.54 10.9209 188.608 10.9717C186.6 11.0225 184.516 9.06688 184.414 7.06049C184.312 5.0033 186.168 2.86992 188.151 2.76833C190.311 2.66674 192.319 4.52075 192.421 6.70493Z" fill="#DE9082"/>
<path d="M210.901 30.2483C210.799 27.9371 212.349 26.2101 214.637 26.1339C217.027 26.0577 218.755 27.6577 218.806 30.0197C218.857 32.0769 217.103 34.0071 215.095 34.1087C212.731 34.2611 211.028 32.6864 210.901 30.2483Z" fill="#DE9082"/>
<path d="M124.273 39.9501C122.239 40.0517 120.104 38.1977 120.003 36.2167C119.926 34.1341 121.731 32.1023 123.79 31.9499C125.951 31.7976 128.06 33.6516 128.111 35.7849C128.162 37.8929 126.357 39.8485 124.273 39.9501Z" fill="#DE9082"/>
<path d="M135.915 17.9559C137.974 17.8544 140.033 19.683 140.16 21.6894C140.287 23.645 138.33 25.8799 136.423 26.0069C134.263 26.1339 132.229 24.3053 132.127 22.1465C132 20.0385 133.805 18.0575 135.915 17.9559Z" fill="#DE9082"/>
<path d="M172.645 3.88581C172.721 6.12078 171.069 7.924 168.832 8.00019C166.697 8.07638 164.816 6.29856 164.74 4.13978C164.689 1.87942 166.341 0.0762023 168.553 1.01686e-05C170.688 -0.076182 172.569 1.72703 172.645 3.88581Z" fill="#DE9082"/>
</g>
</g>
<defs>
<clipPath id="clip0_10_1602">
<rect width="223" height="286" fill="white"/>
</clipPath>
</defs>
</svg>
