<svg width="187" height="240" viewBox="0 0 187 240" fill="none" xmlns="http://www.w3.org/2000/svg">
<g clip-path="url(#clip0_10_1602)">
<path d="M98.6263 186.058C97.8163 186.122 97.9016 186.122 98.0721 185.312C98.2853 184.204 98.8821 183.778 99.9692 183.586C101.781 183.266 103.486 182.563 105.234 181.987C105.874 181.774 105.874 181.774 105.81 182.414C105.703 183.266 105.596 184.119 105.49 184.992C105.447 185.44 105.255 185.611 104.786 185.632C102.74 185.76 100.694 185.93 98.6263 186.058Z" fill="#DE9082"/>
<path d="M94.8322 192.09C94.8535 190.619 95.1093 189.276 95.365 187.955C95.5569 186.953 95.77 185.952 95.9832 184.929C96.0684 184.502 96.4521 184.225 96.8784 184.289C97.0703 184.31 97.0916 184.396 97.0276 184.545C96.3669 186.761 96.0684 189.063 95.365 191.28C95.3011 191.578 95.1732 191.855 94.8322 192.09Z" fill="#DE9082"/>
<path d="M46.361 106.584C47.6825 106.584 49.2812 106.221 49.7927 104.559C50.2191 103.174 49.0254 102.513 47.7038 102.279C48.8762 100.595 48.8762 98.7408 49.1746 96.9718C49.5583 94.5848 49.8993 92.1979 50.2617 89.8109C50.6027 87.5517 51.7751 85.868 53.8214 84.8237C54.6313 84.3975 55.2495 83.9073 55.5053 82.9482C55.8037 81.84 56.635 80.9235 57.6155 80.5399C59.342 79.8579 60.0241 78.5152 60.5144 76.9594C61.5375 73.7199 64.1167 71.8231 66.7598 70.1181C69.4242 68.4131 71.3639 66.4097 71.6837 63.085C71.8329 61.5292 73.1544 60.6341 74.2415 59.6324C76.3304 57.6929 79.208 56.5421 80.018 53.3026C80.2311 52.4287 81.51 51.7681 82.3627 51.0861C85.3255 48.6991 88.267 46.2907 91.4217 44.1382C96.0258 41.0052 98.4345 40.92 103.081 43.9677C104.296 44.7562 105.319 45.7579 106.961 44.671C107.877 44.0742 108.602 44.9267 109.05 45.7366C110.627 48.5499 113.249 50.4041 115.529 52.5353C116.489 53.4304 120.752 52.5992 121.029 51.3844C121.327 50.0844 122.222 49.445 122.968 48.5925C123.693 47.7613 124.546 46.8236 124.354 45.694C123.373 39.8544 126.848 35.8263 130.003 31.713C134.372 25.9799 138.635 24.7225 145.542 26.939C146.202 27.1521 146.82 27.0882 147.481 26.9816C152.917 26.2144 157.244 28.644 159.162 33.7377C159.823 35.5066 160.718 36.9133 162.253 38.0854C165.237 40.3233 165.834 44.33 163.809 47.4842C163.255 48.3581 163.148 49.2319 163.148 50.1909C163.127 53.196 162.168 54.3469 159.226 54.6239C157.883 54.7518 156.796 54.901 156.498 56.4994C156.391 57.0962 155.837 57.4372 155.24 57.6077C152.107 58.5241 149.485 60.0373 148.462 63.426C148.227 64.1932 147.439 64.4277 146.799 64.7474C145.947 65.1736 145.051 65.5572 144.327 66.154C142.11 67.9016 142.067 68.6902 144.177 70.4378C146.394 72.2707 146.927 74.7003 146.927 77.3217C146.97 84.0778 145.328 90.5355 143.303 96.8866C140.916 104.431 138.188 111.848 134.671 118.945C134.223 119.861 133.797 120.842 133.157 121.609C132.155 122.824 132.198 123.442 133.882 123.612C134.671 123.698 135.459 123.932 136.269 124.017C139.211 124.358 141.577 125.573 143.005 128.28C143.836 129.836 145.094 130.646 146.948 130.475C148.632 130.326 149.677 131.114 150.274 132.713C151.19 135.164 152.469 137.508 151.489 140.3C151.19 141.153 151.595 142.133 152.384 142.623C153.982 143.604 154.451 145.032 154.323 146.758C154.174 148.612 154.814 150.019 156.263 151.148C157.968 152.47 158.565 154.217 158.416 156.37C158.16 159.801 158.054 163.232 157.201 166.6C156.114 170.948 156.583 175.338 156.775 179.707C156.817 180.581 156.86 181.455 156.967 182.328C157.968 189.617 155.794 196.395 153.407 203.087C152.64 205.261 152.725 206.923 154.387 208.671C155.879 210.248 157.094 212.123 158.395 213.892C160.143 216.215 161.656 218.687 164.299 220.265C166.793 221.756 167.646 224.484 168.178 227.149C168.903 230.793 169.415 234.501 170.033 238.188C170.246 239.425 169.671 239.979 168.477 240C167.816 240.021 167.155 240.021 166.495 240.021C128.894 240.021 91.3151 240.021 53.7148 240.021C36.8117 240.021 19.9299 240.021 3.02676 240.021C-0.19187 240.021 -0.2345 239.915 0.234439 236.803C0.809954 233.095 1.83309 229.514 3.02676 225.976C4.6041 221.33 7.07668 217.387 11.425 214.83C13.9829 213.338 15.6881 211.228 16.5194 208.266C17.2654 205.602 18.587 203.108 19.5888 200.508C20.6333 197.823 22.1893 195.606 24.9177 194.391C26.1966 193.816 26.4097 192.644 26.5163 191.471C27.1984 183.458 28.3068 175.487 29.3726 167.516C30.0334 162.593 30.8007 157.67 32.0583 152.853C32.7191 150.274 34.2751 148.399 36.6198 147.227C38.0693 146.502 38.8366 145.522 39.0924 143.902C39.7319 139.853 41.6716 136.911 46.1478 136.421C47.3628 136.293 47.7038 135.697 47.4054 134.461C45.9986 128.898 46.4249 123.293 47.107 117.666C47.5546 113.958 45.9773 110.42 46.361 106.584ZM67.6764 91.8569C68.124 90.8765 68.3158 89.8322 67.8256 88.8944C66.973 87.2747 68.6355 88.4682 68.8061 87.8501C68.1879 86.9124 67.314 85.9107 67.9321 84.5467C69.4029 81.2006 69.2324 77.5562 69.7013 74.0396C69.8505 72.974 70.7031 71.3756 69.6587 70.8427C68.8061 70.4165 67.7616 71.9084 66.8024 72.5264C61.2391 76.043 59.1289 85.1221 61.5375 90.4929C61.6228 91.2175 61.6015 91.9634 61.8146 92.6454C62.7951 95.7997 63.9035 98.89 65.8646 101.597C66.2695 102.151 67.0156 102.854 66.099 103.451C65.2464 104.005 64.8201 103.131 64.3938 102.556C63.9888 102.023 63.5625 101.511 63.3067 100.915C62.0278 98.0588 60.3012 95.5865 57.4237 94.116C57.4023 94.116 57.4876 93.9029 57.5302 93.7963C58.4681 93.9029 59.001 94.9472 60.1733 94.9472C58.9584 91.1109 59.1502 87.0829 57.9992 83.204C57.8073 85.2926 56.8908 86.4222 54.7805 86.7419C53.5443 86.9337 52.8195 88.0632 52.5637 89.2567C52.1161 91.4732 51.6898 93.711 51.5193 95.9702C51.434 97.2915 51.6046 98.6555 53.6721 98.7621C54.269 98.8047 55.5479 99.9556 55.0363 101.32C54.5887 102.513 54.9084 103.621 55.3561 104.73C56.2513 106.967 57.2318 109.184 58.0631 111.443C59.4486 115.13 61.7294 117.368 65.9924 116.75C66.5253 116.665 67.2927 116.515 67.3566 117.389C67.4206 118.178 66.7385 118.242 66.1417 118.37C62.0278 119.201 58.937 117.688 57.1892 113.851C55.825 110.825 54.5887 107.777 53.2885 104.751C52.8835 103.834 52.0735 102.662 51.3061 103.813C50.3683 105.241 49.2385 106.605 48.7696 108.374C47.917 111.486 49.132 113.702 51.1996 115.855C54.4395 119.243 57.6368 122.675 61.6441 125.19C63.3493 126.277 66.8237 126.021 68.4863 124.614C69.8079 123.485 68.8274 122.014 68.6142 120.735C67.5911 114.81 67.0156 108.843 67.2927 102.833C67.4419 99.167 67.6764 95.5013 67.6764 91.8569ZM51.5832 152.811C49.5156 153.514 48.4286 153.045 48.1515 150.658C47.7251 146.928 46.6167 143.135 48.2154 139.405C48.4712 138.808 48.5991 138.084 47.6399 138.233C45.5083 138.595 43.2063 138.766 42.0979 141.153C41.4371 142.559 40.9255 144.009 40.9255 145.564C40.9255 147.269 40.3074 148.207 38.5169 148.655C36.3427 149.187 34.808 150.701 34.2112 152.938C33.7636 154.558 33.3159 156.199 33.0388 157.84C31.0991 169.541 29.4578 181.284 28.52 193.091C28.4134 194.306 27.9445 195.244 26.8147 195.67C23.6601 196.885 22.104 199.485 20.953 202.405C20.0791 204.643 19.0133 206.859 18.3738 209.182C17.4999 212.358 15.6881 214.574 12.9171 216.237C10.3806 217.75 8.16377 219.647 6.79958 222.375C4.98777 225.998 3.90069 229.877 2.85623 233.755C2.60045 234.693 2.79229 235.333 3.98595 235.311C7.99324 235.29 12.0219 235.482 14.9421 231.901C15.4323 231.304 16.221 230.921 16.8818 230.473C22.168 226.85 27.71 226.104 33.7636 228.513C37.579 230.026 41.1813 231.965 44.8263 233.798C46.2757 234.523 47.4907 234.906 49.1533 234.288C52.1374 233.159 55.1216 231.923 58.4468 231.88C64.0741 231.816 69.4668 233.18 74.412 235.482C79.3359 237.762 84.2597 238.039 89.4394 238.018C106.001 237.933 122.564 237.997 139.126 237.997C147.929 237.997 156.711 237.954 165.514 238.018C167.219 238.018 167.944 237.656 167.518 235.759C166.878 232.839 166.495 229.855 165.919 226.914C165.365 224.122 163.979 221.884 161.336 220.563C160.185 219.988 159.503 218.922 158.757 217.92C156.839 215.341 154.899 212.763 152.938 210.205C152.64 209.821 152.405 208.926 151.659 209.395C151.147 209.715 151.126 210.482 151.382 211.015C151.979 212.358 152.618 213.679 153.343 214.936C154.984 217.792 156.711 220.606 158.352 223.461C158.736 224.143 159.439 225.23 158.714 225.657C156.775 226.808 157.137 228.768 156.604 230.409C156.157 231.816 155.155 232.754 153.918 233.478C151.979 234.608 149.869 235.141 147.609 235.055C146.586 235.013 145.52 234.992 144.859 236.015C143.666 237.89 141.875 237.911 139.978 237.592C136.227 236.931 132.518 236.057 128.83 235.098C126.677 234.544 125.676 233.287 126.144 231.091C126.443 229.685 125.825 229.109 124.588 228.704C122.222 227.916 120.006 226.765 117.746 225.742C114.314 224.207 110.606 223.014 106.875 223.888C103.273 224.74 99.7773 224.485 96.2177 224.186C95.4077 224.122 94.0435 223.078 94.1714 225.188C94.1927 225.721 93.404 225.763 92.8925 225.763C91.3578 225.785 89.8017 225.912 88.2883 225.699C85.6239 225.316 83.194 224.122 82.3627 221.437C81.5527 218.837 79.9327 218.687 77.8012 219.05C76.0746 219.348 74.0923 219.412 72.9413 218.304C70.9163 216.386 68.529 215.491 66.0777 214.382C62.0065 212.549 58.3402 209.907 54.9298 207.008C52.9261 205.303 50.9651 203.513 49.7501 201.105C49.1746 199.954 48.7696 198.718 49.5583 197.546C50.6454 195.926 50.5814 194.072 50.8585 192.281C50.9651 191.642 51.029 190.832 50.4109 190.47C48.8549 189.575 47.0004 188.829 45.4231 189.724C43.9097 190.555 43.4408 192.367 43.8031 194.157C43.9097 194.647 44.1655 195.116 44.3147 195.606C45.146 198.036 44.2081 199.144 41.6716 198.526C38.2185 197.673 35.9164 195.436 34.6162 192.175C34.1899 191.13 33.7636 190.342 32.506 189.958C30.5236 189.34 29.9907 187.934 30.7368 185.973C31.1844 184.801 31.4402 183.607 31.5681 182.371C32.3567 175.167 33.1454 167.964 34.0833 160.781C34.6375 156.583 37.0461 154.281 41.224 153.578C45.6362 152.832 48.3433 155.112 48.322 159.545C48.322 160.718 48.258 161.89 48.322 163.062C48.5351 166.472 51.3061 169.434 54.6953 169.925C55.7824 170.074 56.8695 170.223 57.9565 170.415C60.0881 170.777 61.7294 171.907 62.3475 173.953C64.3512 180.602 69.5521 184.225 75.0515 187.593C76.6288 188.552 78.3554 189.106 80.0606 188.168C82.2987 186.932 84.3876 185.419 85.8797 183.245C87.2865 181.178 87.3292 179.046 86.37 176.787C85.4321 174.592 83.9187 172.802 82.5119 170.926C80.9772 168.88 79.9967 166.664 79.954 164.042C79.8901 160.27 79.4851 159.844 75.7123 159.46C74.2628 159.311 72.7921 159.354 71.3213 159.268C70.8737 159.247 70.4047 159.098 70.2981 158.608C70.2555 158.373 70.4474 157.862 70.5326 157.862C73.0265 157.776 72.451 155.347 73.4102 154.111C74.2202 153.066 73.7086 152.597 72.6855 152.235C71.1081 151.66 69.5521 150.999 67.9961 150.36C65.2677 149.23 65.2038 149.209 64.4364 152.001C63.7543 154.473 62.1344 156.199 60.2799 157.776C58.8092 159.034 57.7221 157.371 56.4005 157.244C52.9048 157.052 52.2014 156.242 51.5832 152.811ZM108.73 112.722C107.515 112.914 106.279 113.084 105.064 113.276C102.825 113.617 100.864 113.063 99.1379 111.614C93.5532 106.946 88.6933 101.746 86.7323 94.457C86.4552 93.3913 85.3681 91.8782 86.711 91.388C87.9473 90.9404 88.1178 92.7733 88.3736 93.7324C90.3346 100.68 94.7895 105.774 100.246 110.186C102.25 111.805 104.424 111.741 106.705 111.187C107.813 110.91 108.815 110.122 107.792 108.992C106.3 107.33 105.128 105.369 102.911 104.346C99.5642 102.833 96.4735 100.851 93.5746 98.5916C92.8925 98.0588 91.5283 97.3981 92.2317 96.4177C93.063 95.2669 93.873 96.6522 94.5338 97.1424C97.3261 99.167 100.353 100.808 103.316 102.556C104.659 103.344 105.298 103.046 105.362 101.405C105.447 99.2949 105.639 97.1637 105.895 95.0537C106.428 90.4715 106.747 85.868 107.685 81.3711C108.559 77.1512 110.009 73.0592 110.52 68.7541C111.032 64.385 111.842 60.0586 113.377 55.924C113.931 54.4321 113.526 53.4517 112.417 52.4501C110.947 51.1287 109.604 49.6581 108.197 48.2941C107.728 47.8466 107.621 46.717 106.62 47.1646C105.81 47.5269 105.618 48.3581 105.596 49.2106C105.533 50.8942 105.511 52.5779 105.277 54.2403C103.891 64.0654 100.758 73.4642 98.0082 82.9482C97.5605 84.504 97.049 86.0172 96.5374 87.5517C96.3669 88.0419 96.1324 88.596 95.4929 88.4682C94.7256 88.2977 94.8109 87.637 94.8961 87.0402C94.9388 86.7419 95.024 86.4648 95.1093 86.1877C96.1964 82.5433 97.3261 78.8989 98.3705 75.2544C100.737 66.8786 103.422 58.5667 103.849 49.7647C103.891 48.8696 103.998 48.0384 103.508 47.2072C101.802 44.3726 97.049 43.1578 94.1714 44.8628C90.4412 47.0793 87.0094 49.7007 83.8121 52.6206C82.0642 54.219 81.2116 56.3289 81.4887 58.7372C82.1708 64.3211 82.7037 69.9476 83.8121 75.4889C84.4089 78.43 84.9845 81.3711 85.5813 84.3122C85.6879 84.8877 85.8797 85.5697 85.155 85.8254C84.2811 86.1451 83.9613 85.3779 83.7908 84.7598C83.4284 83.5024 83.194 82.2023 82.9169 80.9022C82.6824 79.8579 82.4266 78.7923 80.9772 78.1316C80.9985 82.2662 81.3822 86.0812 82.2348 89.8535C83.3645 94.8832 84.8992 99.7638 88.2457 103.834C88.6507 104.325 88.9065 104.921 88.3097 105.39C87.6915 105.859 87.2226 105.326 86.8176 104.879C86.4339 104.453 86.0715 103.962 85.7518 103.493C81.915 97.9735 80.4443 91.6437 79.5704 85.1647C79.3785 83.7155 79.208 82.7138 77.4175 82.5007C75.7762 82.3089 74.881 81.0514 74.2841 78.9841C75.7549 80.476 76.3944 82.4154 78.9948 82.0105C77.8864 81.6055 77.183 81.4137 76.6928 80.8383C75.9254 79.9645 74.8596 79.1333 75.2007 77.8332C75.4991 76.6184 76.6715 76.6397 77.7372 76.5971C78.6112 76.5545 78.8669 75.979 78.9096 75.0839C78.9948 72.8887 79.2506 70.7149 79.4425 68.5197C79.6982 65.2162 80.5935 61.8915 79.1654 58.3323C77.0338 60.2291 74.2415 61.2734 73.5381 64.3211C73.0478 66.3884 72.3871 68.4771 72.3657 70.5657C72.3231 74.1888 69.8505 78.025 73.2184 81.435C73.9857 82.2236 74.1349 83.6515 75.6057 83.7155C75.9894 83.7368 76.3944 83.7155 76.4583 84.1844C76.5222 84.7172 76.0959 84.9516 75.6696 85.0795C74.5825 85.4205 73.6873 84.9942 72.8134 84.3549C72.2592 83.9499 72.0247 83.0548 71.0016 83.2253C70.8524 84.5893 70.3621 86.0172 71.3426 87.2107C71.8755 87.8501 71.8542 86.3795 72.4723 86.55C72.6002 87.2747 72.3871 87.8714 71.8968 88.1911C70.085 89.3846 70.0637 91.2175 69.9997 93.0717C69.9571 94.1799 69.9784 95.2668 69.8505 96.3538C68.4011 109.93 70.3834 123.08 74.881 135.888C76.3304 140.023 79.0161 143.135 83.0448 144.904C88.2244 147.163 96.1964 144.648 100.054 139.469C103.721 134.546 107.302 129.537 110.797 124.465C112.567 121.886 114.783 120.224 117.938 119.968C118.407 119.925 119.089 120.053 119.089 119.307C119.089 118.817 118.556 118.668 118.173 118.476C115.423 117.219 112.396 117.688 110.265 119.861C108.922 121.204 107.749 122.717 106.534 124.188C102.42 129.239 98.7755 134.674 94.2353 139.362C91.7201 141.963 88.672 143.348 85.0271 143.369C84.345 143.369 83.3645 143.604 83.3005 142.538C83.2366 141.643 84.1532 141.579 84.7713 141.579C89.9296 141.622 93.0417 138.318 95.9832 134.78C97.1769 133.331 98.605 131.967 99.1805 130.049C98.4132 130.518 97.7737 131.114 97.1129 131.669C95.1519 133.331 93.1696 134.972 90.8249 136.038C90.2494 136.315 89.4394 136.592 89.0983 135.782C88.7147 134.951 89.482 134.674 90.1002 134.375C92.5941 133.203 94.683 131.477 96.6653 129.644C99.8839 126.639 103.017 123.549 106.108 120.458C107.899 118.668 109.753 117.07 112.289 116.473C112.801 116.345 113.867 116.324 113.632 115.407C113.398 114.533 112.545 114.32 111.65 114.512C105.533 115.748 99.5002 117.24 94.1501 120.671C91.6988 122.227 90.0575 122.185 88.0112 120.202C84.345 116.707 81.915 112.359 79.9327 107.756C79.7196 107.266 79.5917 106.712 80.1459 106.371C80.8066 105.987 81.2756 106.392 81.574 106.967C81.979 107.735 82.32 108.566 82.725 109.333C84.3876 112.594 86.2421 115.748 88.7999 118.434C90.228 119.925 91.7201 120.16 93.4893 118.988C94.7043 118.178 96.0258 117.538 97.3261 116.856C100.928 114.981 104.978 114.278 108.73 112.722ZM93.0417 146.992C90.3986 147.12 88.0965 148.42 85.5387 147.866C80.4869 146.8 76.778 143.902 74.2415 139.512C72.1952 135.995 71.4066 131.988 70.2981 128.131C69.9358 126.809 69.5734 126.127 68.1027 126.831C67.3993 127.172 66.568 127.3 65.7793 127.491C65.0333 127.662 64.3298 127.896 64.2233 128.791C64.0314 130.816 63.5199 132.777 63.9462 134.887C64.7348 138.744 66.4827 142.41 66.0138 146.502C65.9072 147.419 66.7598 147.696 67.4206 147.973C69.7226 148.91 72.0034 149.933 74.3481 150.743C78.5685 152.171 82.789 152.875 87.2652 151.532C94.1714 149.486 99.4576 154.281 98.2 161.272C98.0721 161.996 97.8803 162.7 97.795 163.424C97.6671 164.511 97.5605 165.619 97.5819 166.706C97.6032 168.049 98.5411 169.008 99.6495 169.264C100.864 169.541 100.609 168.049 101.014 167.367C101.376 166.749 101.547 166.003 101.781 165.321C105.469 154.921 110.883 145.692 119.771 138.787C123.395 135.995 127.21 133.565 131.58 132.137C132.283 131.903 133.157 131.605 133.52 132.478C133.967 133.544 132.901 133.629 132.283 133.842C127.764 135.334 123.864 137.892 120.176 140.833C114.187 145.586 107.728 154.43 105.746 160.931C106.342 159.993 106.726 159.375 107.11 158.757C112.162 150.424 118.3 143.199 127.359 138.915C130.216 137.572 133.072 136.251 136.163 135.569C136.866 135.42 137.804 135.036 138.081 135.974C138.422 137.125 137.229 137.103 136.546 137.359C135.459 137.764 134.308 138.02 133.2 138.425C122.627 142.154 115.21 149.465 109.156 158.693C104.829 165.257 102.399 172.695 98.605 179.473C98.2853 180.048 98.0082 180.645 97.7311 181.241C97.1342 182.499 96.8785 183.756 97.7098 184.992C98.3492 185.93 98.0082 186.783 97.5819 187.678C97.3048 188.275 96.4095 188.658 96.7292 189.511C97.1982 189.745 97.4966 189.511 97.7311 189.255C99.9692 186.719 101.738 183.863 103.209 180.837C105.511 176.169 107.792 171.502 109.646 166.642C109.881 166.024 110.201 165.278 111.053 165.619C111.884 165.939 111.629 166.706 111.394 167.324C110.883 168.624 110.307 169.882 109.774 171.161C108.154 175.04 106.364 178.854 104.573 182.691C105.724 181.966 106.364 180.837 107.046 179.771C112.503 171.054 118.578 163.019 128.276 158.458C134.351 155.603 140.149 152.129 146.82 150.615C150.892 149.699 153.364 150.999 154.409 155.006C154.878 156.775 155.283 158.565 155.709 160.355C156.071 159.439 155.922 158.522 156.093 157.691C156.604 155.112 155.752 153.173 153.663 151.617C152.235 150.551 152.021 148.953 152.064 147.269C152.085 146.268 152.235 145.245 151.19 144.499C149.378 143.241 149.123 141.344 149.549 139.384C149.826 138.084 149.549 136.911 149.208 135.718C148.909 134.759 148.568 134.12 147.375 134.844C146.032 135.654 144.433 135.697 142.92 135.952C142.174 136.08 141.3 136.123 141.214 135.121C141.151 134.269 141.982 134.162 142.621 134.056C143.858 133.864 145.2 134.013 146.629 132.883C144.071 132.095 141.918 132.244 139.744 132.585C139.04 132.692 138.102 132.969 137.847 132.052C137.57 131.072 138.593 130.965 139.253 130.752C141.79 129.942 141.854 129.623 139.957 127.619C139.083 126.681 137.932 126.468 136.781 126.255C130.94 125.19 125.121 124.103 119.281 123.122C116.723 122.675 114.57 123.25 113.057 125.701C111.437 128.323 109.604 130.795 107.792 133.267C103.763 138.851 99.6921 144.413 94.1501 148.655C93.2761 149.337 92.3383 149.912 91.2512 150.168C90.7396 150.296 90.1641 150.317 89.9296 149.72C89.6738 149.102 90.1641 148.783 90.633 148.548C91.443 148.164 92.3809 147.93 93.0417 146.992ZM84.1958 219.774C84.0892 220.712 84.4942 221.245 84.9205 221.757C86.1994 223.248 87.9473 223.93 89.8017 223.866C91.5922 223.802 90.3773 222.119 90.8249 221.245C94.5551 214.105 93.9796 206.88 90.8888 199.655C89.546 196.523 90.0788 195.073 93.1056 193.411C93.6172 193.134 94.3846 192.942 94.1714 192.239C93.468 190.065 94.4698 188.402 95.6422 186.761C96.0898 186.143 95.8766 185.547 95.6635 184.886C95.1093 183.138 95.1732 181.455 96.1111 179.814C97.1556 177.959 98.0295 176.02 99.1379 174.208C99.9266 172.887 99.8626 171.992 98.4984 171.139C95.5569 169.306 94.7682 166.728 95.7274 163.403C96.2177 161.741 96.2816 159.95 96.5161 158.203C96.6013 157.542 96.58 156.903 96.1964 156.306C95.0453 154.516 90.8888 152.683 88.8212 153.301C85.3894 154.302 81.9364 154.665 78.398 153.961C76.9912 153.684 75.968 154.26 75.222 155.389C74.7531 156.114 74.9449 156.86 75.8188 156.775C79.1867 156.455 81.0837 159.055 83.4711 160.568C87.0947 162.849 89.0131 166.493 90.5265 170.372C90.7396 170.905 90.9954 171.608 90.292 171.928C89.482 172.312 89.1196 171.587 88.8212 170.99C88.5868 170.543 88.4376 170.052 88.2244 169.584C87.1373 167.154 85.8158 164.895 83.7695 163.126C83.4071 162.806 83.0874 162.209 82.5332 162.38C81.915 162.593 82.1708 163.254 82.1282 163.723C81.979 165.854 82.6184 167.751 83.8761 169.477C85.1337 171.182 86.4765 172.844 87.5423 174.677C90.2067 179.281 89.7378 182.669 85.965 186.314C79.1014 192.921 76.7993 191.408 71.6197 187.912C67.2074 184.929 62.923 181.774 61.1325 176.489C60.1733 173.654 58.5534 172.439 55.5479 172.269C49.878 171.928 45.9986 167.388 46.0412 161.655C46.0412 160.483 46.1478 159.311 46.0199 158.139C45.8068 156.327 44.2294 155.411 42.0553 155.624C40.1369 155.794 39.4121 156.732 39.6679 158.672C40.2221 162.7 41.1387 166.472 44.0802 169.626C47.5546 173.377 50.7093 177.427 53.9919 181.369C55.1855 182.797 55.9103 184.46 54.9511 186.229C53.5229 188.914 53.2245 191.77 53.1393 194.711C53.1179 195.585 52.9901 196.523 52.6277 197.268C51.5193 199.57 52.308 201.446 53.8853 203.044C57.786 206.944 62.0917 210.354 67.2287 212.528C68.3585 212.997 69.7226 213.764 70.9163 212.763C72.1739 211.718 73.6234 211.292 75.1367 211.058C77.2683 210.738 78.2488 209.353 78.8456 207.498C79.0588 206.816 79.2506 206.113 79.4851 205.41C79.6556 204.898 79.9967 204.408 80.5935 204.557C81.3395 204.749 81.2543 205.389 81.169 206.007C80.6574 209.481 78.1209 212.187 74.7957 212.912C73.8365 213.125 72.4297 213.104 72.3871 214.361C72.3444 215.555 73.3036 216.428 74.4333 216.961C75.3286 217.387 76.2451 217.473 77.2043 217.174C81.4887 215.832 85.0484 217.835 88.672 219.625C89.141 219.86 89.5886 220.243 89.3115 220.84C89.0344 221.437 88.4802 221.309 87.9686 221.16C86.7323 220.84 85.6879 219.881 84.1958 219.774ZM133.562 161.762C133.37 161.101 134.074 159.822 133.243 159.311C132.283 158.714 131.367 159.822 130.493 160.249C121.221 164.767 114.826 172.269 109.177 180.623C105.149 186.591 101.44 192.963 93.9582 195.457C92.1464 196.054 92.1891 197.332 92.7646 198.995C94.619 204.302 96.7506 209.608 95.024 215.427C94.7043 216.471 94.4698 217.558 94.3206 218.645C94.1288 219.988 95.024 220.691 96.175 220.094C96.6866 219.817 97.049 219.774 97.5819 219.924C98.8821 220.286 99.5429 219.54 99.7347 218.41C100.673 212.954 103.465 208.116 104.957 202.831C105.469 200.977 106.449 199.336 107.643 197.844C112.098 192.303 116.744 186.889 121.945 182.094C125.484 178.854 128.425 175.167 131.665 171.715C132.411 170.905 133.008 169.988 133.072 168.816C133.2 166.515 133.392 164.255 133.562 161.762ZM144.732 156.988C145.52 165.577 142.834 173.271 138.806 180.687C137.335 183.415 136.802 186.463 136.674 189.575C136.461 195.521 136.93 201.424 137.271 207.349C137.463 210.738 136.184 213.317 133.584 215.341C131.836 216.705 130.77 218.474 130.13 220.563C129.15 223.717 128.532 226.786 129.065 230.196C129.32 231.795 129.555 232.583 131.047 232.924C134.33 233.67 137.612 234.437 140.873 235.183C141.769 235.396 142.451 235.141 142.834 234.246C143.538 232.605 143.985 230.836 143.708 229.109C143.495 227.894 141.854 227.873 140.895 227.276C140.703 227.17 140.511 227.063 140.319 226.957C138.678 225.955 138.209 224.719 139.168 222.907C140.255 220.84 141.236 218.709 142.152 216.556C142.771 215.086 143.666 213.7 143.602 211.995C143.282 203.747 144.774 195.67 145.904 187.55C147.375 177.32 147.183 167.154 144.732 156.988ZM154.728 185.163C154.643 175.849 154.11 167.687 152.767 159.588C152.469 157.798 152.149 155.965 150.828 154.537C149.719 153.343 148.291 152.811 146.842 153.45C145.179 154.175 146.735 155.475 146.629 156.519C146.607 156.647 146.714 156.796 146.735 156.945C148.909 166.387 149.272 175.935 148.035 185.504C146.991 193.624 145.371 201.744 145.414 209.928C145.435 213.402 144.263 216.087 143.069 219.007C142.685 219.945 142.174 220.84 141.726 221.778C140.191 224.975 140.596 225.848 144.049 226.594C144.902 226.786 145.819 226.808 146.671 226.701C149.421 226.296 152.149 225.806 154.899 225.337C156.455 225.06 156.327 224.165 155.688 223.099C154.366 220.904 153.172 218.624 151.723 216.514C149.336 213.082 148.462 209.587 150.423 205.644C150.913 204.685 151.084 203.556 151.382 202.511C153.108 196.459 155.858 190.619 154.728 185.163ZM136.12 70.5444C136.205 71.3116 137.442 72.2067 135.758 72.7396C134.948 72.9953 135.502 73.6773 135.779 73.9757C137.591 75.9364 137.868 78.1955 137.335 80.7104C137.165 81.5203 137.25 82.5859 137.655 83.2679C139.786 86.891 138.316 89.683 135.822 92.3257C135.481 92.688 135.204 93.1356 134.884 93.5405C129.193 100.51 124.588 108.267 119.11 115.407C118.897 115.706 118.535 116.174 118.919 116.345C121.05 117.197 121.924 118.732 121.775 120.948C121.775 121.098 122.052 121.268 122.222 121.396C125.1 123.527 130.599 122.526 132.113 119.393C137.399 108.502 141.769 97.2702 144.007 85.3139C144.668 81.84 145.563 78.3234 144.561 74.679C143.985 72.6117 142.387 71.6526 140.895 70.5231C139.808 69.6919 138.912 70.1607 137.889 70.6935C137.399 70.9067 136.717 70.6083 136.12 70.5444ZM142.813 160.654C142.813 160.078 142.813 159.481 142.813 158.906C142.749 154.558 142.493 154.388 138.55 156.199C137.229 156.817 135.95 157.371 135.822 159.247C135.289 168.006 134.266 176.723 133.37 185.44C132.688 192.153 130.898 198.291 126.954 203.833C123.501 208.692 120.752 213.914 119.089 219.689C118.13 223.057 118.535 224.122 121.775 225.465C122.798 225.891 123.821 226.232 124.844 226.658C126.166 227.212 126.741 226.914 127.04 225.38C127.935 220.584 129.171 215.938 133.52 212.869C134.99 211.825 135.459 210.141 135.374 208.372C135.161 204.131 134.862 199.911 134.649 195.67C134.351 189.447 135.054 183.458 138.124 177.831C141.023 172.525 142.941 166.856 142.813 160.654ZM117.341 99.5293C117.256 99.4015 117.149 99.2736 117.064 99.167C115.082 99.6572 113.121 100.211 111.117 100.638C110.456 100.787 109.455 100.979 109.263 100.02C109.071 99.0392 110.051 98.9752 110.755 98.826C115.444 97.9735 119.622 95.9702 123.693 93.5619C125.569 92.4536 125.846 90.7486 126.315 89.0223C126.528 88.2124 125.995 87.7435 125.249 87.6583C121.583 87.232 118.109 85.3992 114.272 86.1025C113.163 86.2943 112.098 86.1025 111.501 84.8664C111.181 84.2057 110.478 83.6302 109.71 83.822C108.794 84.0565 109.113 85.0369 109.05 85.7189C108.474 91.388 107.941 97.0784 107.366 102.748C107.195 104.453 109.497 109.376 111.075 109.887C112.588 110.377 113.547 111.379 114.528 112.466C116.787 114.917 117.277 114.917 119.238 112.125C122.606 107.308 125.207 102.066 127.423 96.6095C127.722 95.8636 128.148 94.9685 127.21 94.457C126.358 93.9881 125.931 94.9258 125.441 95.3734C121.945 98.6342 118.045 101.341 113.867 103.685C113.291 104.005 112.46 104.708 111.948 103.834C111.352 102.833 112.396 102.492 113.057 102.087C114.485 101.234 115.913 100.382 117.341 99.5293ZM150.082 39.6412C148.504 40.0675 148.185 40.8347 148.398 41.7512C148.632 42.8168 149.527 42.9873 150.465 42.9447C151.361 42.9234 151.872 42.2201 152.554 41.8151C154.046 40.9626 155.837 41.6233 156.263 43.2004C156.498 44.0103 156.306 44.7349 155.538 45.0546C154.622 45.4596 154.43 44.7776 154.345 44.0316C154.302 43.6267 154.153 43.2857 153.663 43.4136C153.258 43.5201 153.108 43.8611 153.108 44.2661C153.087 45.1825 153.577 45.7792 154.323 46.2055C155.155 46.6744 155.879 46.3547 156.519 45.7792C157.393 44.9907 157.542 43.8824 157.755 42.7955C157.841 42.3479 158.054 41.943 158.608 41.9643C159.119 42.0069 159.354 42.4119 159.439 42.8381C159.716 44.1595 159.333 45.3743 158.48 46.3121C157.222 47.6974 155.197 48.6991 157.18 51.0434C157.478 51.3844 156.519 52.6206 158.011 52.6206C159.226 52.6206 160.611 52.5353 160.91 51.1926C161.272 49.5302 161.613 47.6547 161.208 46.0776C160.761 44.33 161.102 42.7316 161.421 41.1757C161.613 40.1741 161.4 39.7904 160.739 39.4707C158.629 38.4264 157.819 36.5083 157.158 34.441C156.05 30.9458 153.343 28.8358 149.996 28.9211C147.14 28.985 144.497 28.4309 141.747 28.1538C136.056 27.5784 130.578 31.7769 128.702 37.6379C129.363 37.4247 129.747 36.3591 130.599 36.9346C131.836 37.7657 129.917 38.5117 130.408 39.3855C132.496 38.9379 134.053 40.1101 134.031 42.1348C134.031 44.0316 132.241 45.2251 131.857 47.1219C133.243 47.0367 134.479 46.9941 135.694 46.8662C138.912 46.5252 140.852 43.9037 140.298 40.7282C140.085 39.5347 140.511 38.5543 141.406 37.7871C142.387 36.9559 143.495 36.6362 144.625 37.4674C145.605 38.192 145.691 39.215 145.179 40.2167C144.497 41.6233 143.389 41.1971 142.302 40.5364C144.199 42.3266 145.52 42.0709 146.693 39.8117C147.353 38.533 148.291 37.6805 149.826 37.8936C150.956 38.0428 151.659 38.8101 151.894 39.9183C152.128 40.9839 151.68 41.7725 150.721 42.284C150.146 42.6037 149.57 42.4971 149.122 42.0069C148.376 41.1331 149.293 40.5577 150.082 39.6412ZM37.6216 157.883C35.9377 159.481 36.0443 161.677 35.7672 163.68C34.7014 171.331 34.5522 179.089 32.8044 186.655C32.6338 187.337 32.7831 187.87 33.5078 187.998C35.8738 188.445 36.9182 190.321 38.0906 192.09C38.7087 193.049 39.3695 194.008 40.4566 194.583C42.375 187.507 43.3768 186.868 50.4535 188.104C50.6027 188.125 50.7306 188.168 50.8798 188.211C51.6259 188.424 52.1801 188.168 52.4998 187.486C53.3737 185.632 53.9492 183.884 52.2866 182.03C49.6222 179.025 47.2349 175.785 44.4852 172.844C40.5845 168.646 37.7069 164.064 37.8988 158.075C37.8988 158.053 37.7922 158.011 37.6216 157.883ZM122.67 184.907C122.5 184.822 122.308 184.758 122.137 184.673C120.837 186.037 119.601 187.443 118.258 188.765C111.97 195.009 106.513 201.744 104.275 210.589C103.913 212.038 103.955 212.72 105.447 213.189C106.833 213.615 108.176 214.233 109.518 214.809C113.462 216.471 114.101 216.215 115.87 212.251C116.084 211.782 116.212 211.292 116.382 210.802C118.087 205.964 119.11 200.956 120.261 195.99C121.135 192.303 121.881 188.594 122.67 184.907ZM48.9614 237.911C47.4054 237.208 45.8707 236.782 44.6557 235.908C40.4779 232.946 35.7246 231.262 30.9712 229.557C29.8628 229.152 28.7118 229.003 27.5181 228.96C21.8483 228.747 17.6917 231.859 13.7058 235.269C12.0858 236.633 10.5085 237.357 8.33429 237.059C6.77827 236.846 5.07303 236.462 3.06939 237.911C18.6296 237.911 33.657 237.911 48.9614 237.911ZM132.091 174.038C129.96 176.489 128.212 178.535 126.422 180.517C125.633 181.369 125.207 182.307 125.015 183.415C123.672 190.981 121.924 198.462 120.048 205.9C118.876 210.61 117.49 215.235 113.76 218.709C113.078 219.327 112.737 220.201 113.249 221.096C113.611 221.778 114.272 222.14 115.06 222.183C116.297 222.247 116.382 221.202 116.617 220.393C118.578 213.487 122.009 207.307 126.059 201.424C128.106 198.462 129.811 195.286 130.365 191.663C130.834 188.637 131.409 185.611 131.644 182.542C131.836 179.941 132.518 177.363 132.091 174.038ZM61.7081 152.512C64.2233 147.887 64.4577 143.177 62.6672 138.318C61.6015 135.441 59.9815 134.226 56.8695 134.503C56.3579 134.546 55.8676 134.674 55.3561 134.738C54.8232 134.802 54.269 134.738 54.1198 134.12C53.9706 133.523 54.4182 133.182 54.9298 132.99C56.2726 132.478 57.6581 132.606 59.0436 132.692C59.8962 132.756 61.0686 133.821 61.5162 132.5C61.9852 131.114 62.6459 129.218 61.2604 128.195C58.7452 126.34 56.3153 124.401 53.6721 121.993C53.6721 124.06 53.6082 125.658 53.6935 127.236C53.8853 131.093 53.7148 134.887 51.3061 138.126C49.3664 140.769 49.537 143.689 49.8141 146.907C50.3256 145.692 50.6454 144.648 51.1782 143.731C51.6259 142.986 52.308 142.282 53.3311 142.602C54.2477 142.9 54.7166 143.668 54.8232 144.605C54.9084 145.394 54.9298 146.204 54.8871 147.014C54.8232 149.017 54.6953 151.02 54.61 153.024C55.484 150.978 55.8676 148.868 56.3579 146.779C56.5071 146.14 56.4218 145.032 57.4876 145.266C58.4255 145.458 58.1697 146.459 58.0844 147.141C57.8286 148.996 57.4663 150.85 57.1039 152.981C58.6173 151.106 58.596 148.996 59.1076 147.078C59.4273 145.905 59.6618 144.584 61.2604 144.968C62.7099 145.309 62.7312 146.566 62.518 147.823C62.1983 149.379 61.9638 150.956 61.7081 152.512ZM114.037 62.3817C112.886 67.3049 112.098 72.2707 111.522 77.2578C110.883 82.5646 109.902 81.6269 115.743 83.5237C116.467 83.7581 117.192 83.7794 117.874 83.4171C118.727 82.9695 119.345 83.0122 120.197 83.7155C122.073 85.2713 124.056 84.3335 124.418 81.9252C124.695 80.1137 124.972 78.3021 125.356 76.5332C125.74 74.8495 125.377 73.3789 124.546 71.9084C122.414 68.1574 122.286 68.0934 118.556 70.0968C116.126 71.3969 114.869 70.8214 114.464 68.0508C114.208 66.1753 114.187 64.2785 114.037 62.3817ZM125.526 57.0749C126.741 57.0962 127.232 56.0732 127.892 56.6912C128.617 57.3732 127.978 58.0552 127.637 58.652C126.997 59.7816 126.763 61.0816 125.697 62.0407C124.972 62.7014 125.249 63.7244 125.761 64.4916C126.272 65.2802 126.976 65.9409 127.573 66.6655C128.574 67.9229 129.576 68.0295 130.493 66.6016C132.028 64.1932 134.138 64.6195 136.291 65.4294C137.101 65.7277 137.847 66.2606 138.614 66.6655C139.232 66.9852 139.914 67.7737 140.575 67.1344C141.534 66.1753 142.92 65.0457 143.005 63.9162C143.197 61.2308 139.296 57.5011 136.397 57.0749C133.456 56.6273 131.601 53.4091 132.688 50.6385C132.88 50.1483 133.52 49.7434 132.752 48.5925C129.981 51.0647 127.999 53.9846 125.526 57.0749ZM130.429 96.0128C132.433 93.3274 134.202 91.0044 135.95 88.66C136.291 88.1911 136.717 87.637 136.504 87.0615C135.481 84.1844 135.033 81.2645 135.438 78.2169C135.502 77.684 135.161 77.2152 134.628 77.0447C134.159 76.8955 134.116 77.407 133.882 77.6627C132.731 78.9628 131.623 78.8775 130.962 77.2152C130.322 75.6807 129.939 74.0183 129.555 72.3772C128.894 69.5853 126.422 68.7328 124.439 67.2836C124.631 68.1361 124.993 68.8181 125.484 69.4148C127.701 72.2494 127.935 75.4036 127.232 78.7923C126.912 80.2842 126.72 81.8187 126.443 83.3319C126.23 84.4401 126.294 85.3779 127.594 85.8041C128.574 86.1238 129.107 87.0189 128.766 87.8714C127.637 90.5568 128.34 92.752 130.109 94.8193C130.216 95.0111 130.237 95.3521 130.429 96.0128ZM145.691 44.3726C146.266 45.4382 146.65 46.0563 146.948 46.717C147.225 47.3137 147.503 48.0597 146.778 48.4859C145.968 48.9548 145.627 48.1876 145.328 47.6121C144.859 46.7809 144.39 45.9284 143.474 45.5235C142.877 45.2464 142.302 45.3104 141.961 45.9497C141.577 46.6531 142.174 46.8236 142.6 47.058C142.92 47.2285 143.239 47.4203 143.517 47.6547C144.54 48.4859 144.859 49.5516 144.454 50.7877C144.156 51.7467 143.303 51.8107 142.472 51.8107C141.151 51.832 140.042 51.2779 139.893 49.9352C139.722 48.5499 139.275 48.5286 138.252 49.104C137.42 49.5729 136.568 49.9778 135.715 50.4041C134.841 50.8516 134.436 51.5762 134.5 52.5566C134.585 53.6009 135.14 54.5387 136.12 54.6666C139.68 55.1567 141.982 57.629 144.54 59.7602C144.774 59.9521 144.987 60.2291 145.264 60.0373C146.16 59.4192 147.098 58.8012 147.865 58.0552C148.654 57.288 147.524 56.7978 147.396 56.1584C147.225 55.1994 146.501 54.1764 147.46 53.3026C148.313 52.514 149.357 52.6206 150.337 53.0681C150.785 53.2812 151.169 53.6436 151.552 53.9846C151.936 54.3256 152.256 54.8584 152.789 54.219C153.215 53.6862 153.215 53.1534 152.682 52.6632C152.064 52.1091 151.297 51.8746 150.529 51.6189C149.932 51.4057 149.037 51.2779 149.293 50.4041C149.57 49.4876 150.465 49.6794 151.169 49.9139C152.213 50.2549 153.236 50.6811 154.771 51.2566C152.618 47.4629 149.826 45.4596 145.691 44.3726ZM126.699 52.0451C125.015 52.6206 123.778 53.0681 122.521 53.4731C116.148 55.5191 116.105 55.5191 116.126 62.3391C116.169 69.8197 116.51 68.1361 121.711 65.9196C122.883 65.4294 123.48 64.8752 123.139 63.4686C122.159 59.5045 122.926 55.9453 126.017 53.0894C126.23 52.8763 126.358 52.5779 126.699 52.0451ZM51.1996 235.311C51.1782 235.588 51.1569 235.865 51.1356 236.142C59.1289 236.803 67.1435 237.464 75.1367 238.146C67.3566 234.992 59.5765 232.008 51.1996 235.311ZM50.1977 135.462C50.5175 134.972 50.7946 134.695 50.9011 134.375C52.4998 129.175 51.2209 123.932 51.029 118.732C51.0077 118.156 50.4748 117.325 49.7714 117.389C48.9401 117.453 49.0254 118.391 48.9828 118.988C48.663 123.357 48.5778 127.747 48.9401 132.137C49.0254 133.182 49.3664 134.247 50.1977 135.462ZM108.367 221.501C109.668 221.671 110.627 221.629 111.011 219.86C111.394 218.091 110.67 217.43 109.327 216.919C107.685 216.3 106.044 215.725 104.424 215.022C103.06 214.425 102.442 215.022 102.399 216.279C102.378 217.238 100.673 218.688 103.124 219.071C104.126 219.22 105.234 219.476 105.767 220.414C106.385 221.522 107.28 221.693 108.367 221.501ZM148.845 232.86C150.977 232.775 152.917 232.285 154.238 230.431C154.686 229.791 154.878 229.067 154.537 228.363C154.11 227.49 153.279 227.745 152.597 227.894C151.318 228.214 150.039 228.598 148.718 228.555C146.799 228.47 146.415 229.557 146.437 231.198C146.458 233.031 147.652 232.86 148.845 232.86Z" fill="#DE9082"/>
<path d="M23.5961 210.482C23.5748 205.431 26.1966 203.108 31.227 203.705C34.4669 204.088 37.4298 205.303 40.286 206.859C42.2044 207.903 44.1654 208.926 46.1051 209.928C46.4888 210.12 47.043 210.504 47.2988 210.354C49.9845 209.012 51.1356 211.207 52.5637 212.613C55.5905 215.576 58.5747 218.602 61.5375 221.629C62.0277 222.119 62.8804 222.652 62.3475 223.44C61.8146 224.207 60.9833 223.568 60.3225 223.376C59.7683 223.227 59.2994 222.822 58.7665 222.588C57.1892 221.863 55.6758 221.629 54.4821 223.312C53.8 224.293 52.7555 224.655 51.6685 224.826C47.9383 225.444 44.2933 226.381 40.755 227.703C39.199 228.278 37.8561 227.66 36.4919 227.255C34.1259 226.531 31.7812 225.635 29.4578 224.804C28.1789 224.357 26.8787 223.653 26.5802 222.311C25.8129 218.751 24.6832 215.299 23.6387 211.804C23.4895 211.377 23.5961 210.908 23.5961 210.482ZM39.4761 226.04C39.945 225.976 40.2008 225.998 40.3713 225.891C45.1033 223.206 50.3256 221.714 55.4413 220.009C56.6563 219.604 56.1234 218.965 55.5692 218.389C53.8853 216.663 52.1374 215 50.4748 213.253C49.3025 212.017 48.3646 212.422 47.6825 213.636C46.5741 215.64 44.8262 216.748 42.7799 217.451C38.4529 218.901 34.0833 220.137 29.4578 219.029C28.1149 218.709 27.9231 219.412 28.1363 220.478C28.3494 221.543 28.8397 222.396 29.9481 222.758C31.1204 223.163 32.2928 223.589 33.4651 223.973C35.5327 224.719 37.6216 225.401 39.4761 226.04ZM33.1454 217.324C33.1454 217.302 33.1454 217.26 33.1454 217.238C34.0193 217.238 34.9146 217.345 35.7672 217.217C38.8153 216.812 41.8634 216.322 44.4639 214.51C45.146 214.041 46.6593 213.125 45.2099 212.23C40.6271 209.374 35.959 206.539 30.3104 206.305C26.2818 206.134 25.9621 206.539 26.5376 210.461C26.6442 211.249 26.7081 212.059 26.8573 212.848C27.5821 216.983 27.9444 217.281 32.2501 217.302C32.5699 217.345 32.8683 217.324 33.1454 217.324Z" fill="#DE9082"/>
<g opacity="0.33">
<path d="M159.951 76.6397C160.036 79.2612 157.713 81.8187 155.134 81.9466C152.448 82.0744 149.847 79.6022 149.783 76.8316C149.719 74.2741 152.149 71.7166 154.75 71.6526C157.563 71.5887 159.844 73.7626 159.951 76.6397Z" fill="#DE9082"/>
<path d="M159.972 65.7491C159.844 63.0211 162.125 60.5488 164.853 60.4422C167.56 60.3357 170.054 62.7014 170.118 65.4294C170.182 68.0295 167.795 70.5657 165.216 70.6509C162.381 70.7362 160.121 68.6049 159.972 65.7491Z" fill="#DE9082"/>
<path d="M170.118 54.0059C170.012 51.1713 172.122 48.8056 174.829 48.699C177.728 48.5712 180.009 50.6598 180.115 53.5583C180.222 56.3929 178.026 58.8012 175.255 58.8651C172.42 58.929 170.225 56.8617 170.118 54.0059Z" fill="#DE9082"/>
<path d="M157.095 14.1515C157.201 16.8795 154.899 19.4796 152.256 19.5862C149.634 19.7141 147.012 17.2418 146.948 14.5991C146.884 11.9137 149.272 9.37751 151.936 9.29226C154.409 9.20701 157.009 11.6579 157.095 14.1515Z" fill="#DE9082"/>
<path d="M116.872 36.9559C117 39.6412 114.613 42.3692 111.991 42.3053C109.348 42.2414 107.11 40.5577 106.939 37.4674C106.769 34.5689 108.922 32.1606 111.693 32.054C114.378 31.9687 116.744 34.2066 116.872 36.9559Z" fill="#DE9082"/>
<path d="M132.774 9.29226C135.566 9.16439 137.953 11.2743 138.081 13.981C138.209 16.6664 135.886 19.2026 133.2 19.3518C130.727 19.4796 128.106 17.1139 127.956 14.6204C127.786 11.8071 129.96 9.42014 132.774 9.29226Z" fill="#DE9082"/>
<path d="M164.15 19.2878C166.921 19.1813 169.223 21.3125 169.372 24.1044C169.5 26.8111 167.305 29.2408 164.576 29.3686C161.848 29.4965 159.397 27.2161 159.269 24.4454C159.162 21.7601 161.4 19.3944 164.15 19.2878Z" fill="#DE9082"/>
<path d="M122.265 30.4768C119.473 30.6047 117 28.3882 116.894 25.6602C116.787 22.9748 119.004 20.5452 121.711 20.4173C124.354 20.2895 126.869 22.5486 127.019 25.1913C127.168 27.8554 124.93 30.349 122.265 30.4768Z" fill="#DE9082"/>
<path d="M169.266 34.2066C169.138 31.3294 171.12 29.0703 173.934 28.9211C176.747 28.7719 179.092 30.9244 179.22 33.7803C179.326 36.5509 177.195 38.8953 174.445 39.0232C171.632 39.1084 169.394 37.0411 169.266 34.2066Z" fill="#DE9082"/>
<path d="M186.979 59.8668C187.043 61.6144 185.487 63.2981 183.781 63.362C181.884 63.426 180.328 61.998 180.222 60.0799C180.115 58.3749 181.842 56.4568 183.483 56.4355C185.316 56.4355 186.915 57.9913 186.979 59.8668Z" fill="#DE9082"/>
<path d="M163.532 86.3156C161.763 86.3796 160.1 84.8664 160.015 83.1401C159.929 81.3498 161.528 79.4956 163.212 79.4317C164.96 79.3891 166.772 81.1154 166.857 82.9056C166.9 84.6106 165.301 86.273 163.532 86.3156Z" fill="#DE9082"/>
<path d="M182.737 40.0462C184.464 39.9396 186.126 41.4741 186.233 43.2857C186.339 45.0546 184.847 46.8023 183.142 46.9088C181.351 47.0367 179.54 45.4596 179.454 43.6906C179.39 41.9217 180.968 40.1528 182.737 40.0462Z" fill="#DE9082"/>
<path d="M125.121 3.81494C126.805 3.751 128.511 5.37075 128.596 7.09707C128.681 8.67419 127.04 10.5923 125.526 10.6776C123.757 10.7841 121.924 9.16438 121.839 7.43807C121.754 5.6265 123.331 3.90019 125.121 3.81494Z" fill="#DE9082"/>
<path d="M170.161 12.2121C171.866 12.1907 173.614 13.8318 173.657 15.4942C173.699 17.3484 172.101 19.0107 170.289 19.0107C168.605 19.0107 166.921 17.4336 166.857 15.8352C166.793 14.0876 168.477 12.2334 170.161 12.2121Z" fill="#DE9082"/>
<path d="M176.811 71.5247C176.896 73.4641 175.575 74.956 173.72 75.0413C171.696 75.1265 170.267 73.8264 170.182 71.8231C170.118 70.0755 171.632 68.3918 173.379 68.3278C175.234 68.2426 176.726 69.6279 176.811 71.5247Z" fill="#DE9082"/>
<path d="M161.358 5.62648C161.443 7.31017 159.78 9.16436 158.16 9.20698C156.476 9.24961 154.729 7.60855 154.643 5.92486C154.558 4.19855 156.114 2.4083 157.777 2.32305C159.588 2.2378 161.272 3.79361 161.358 5.62648Z" fill="#DE9082"/>
<path d="M176.854 25.3832C176.769 23.4437 178.069 21.9945 179.987 21.9305C181.991 21.8666 183.44 23.2093 183.483 25.1913C183.526 26.9177 182.055 28.5374 180.371 28.6227C178.389 28.7505 176.961 27.4292 176.854 25.3832Z" fill="#DE9082"/>
<path d="M104.211 33.5246C102.506 33.6098 100.715 32.054 100.63 30.3916C100.566 28.644 102.079 26.939 103.806 26.8111C105.618 26.6833 107.387 28.2391 107.43 30.0293C107.472 31.7983 105.959 33.4393 104.211 33.5246Z" fill="#DE9082"/>
<path d="M113.973 15.068C115.7 14.9827 117.427 16.5172 117.533 18.2009C117.64 19.842 115.998 21.7175 114.4 21.824C112.588 21.9306 110.883 20.3961 110.797 18.5845C110.691 16.8156 112.204 15.1532 113.973 15.068Z" fill="#DE9082"/>
<path d="M144.774 3.26081C144.838 5.13631 143.453 6.6495 141.577 6.71344C139.786 6.77737 138.209 5.2855 138.145 3.47394C138.102 1.57713 139.488 0.0639392 141.342 1.70377e-06C143.133 -0.0639358 144.71 1.44925 144.774 3.26081Z" fill="#DE9082"/>
</g>
</g>
<defs>
<clipPath id="clip0_10_1602">
<rect width="187" height="240" fill="white"/>
</clipPath>
</defs>
</svg>
