<svg width="304" height="222" viewBox="0 0 304 222" fill="none" xmlns="http://www.w3.org/2000/svg">
<g clip-path="url(#clip0_10_3179)">
<g opacity="0.56">
<path d="M222.232 70.2454C221.827 66.4346 224.391 63.096 227.966 62.6914C231.778 62.2867 234.983 64.8834 235.388 68.7615C235.792 72.5723 233.094 76.012 229.451 76.3155C225.706 76.6865 222.603 74.0898 222.232 70.2454Z" fill="#15A34A"/>
<path d="M201.452 17.7046C201.823 21.3467 199.024 25.0562 195.549 25.4609C192.108 25.8319 188.431 22.763 188.094 19.2221C187.757 15.6137 190.692 12.0053 194.2 11.6681C197.438 11.2971 201.081 14.366 201.452 17.7046Z" fill="#15A34A"/>
<path d="M152.337 54.5641C152.742 58.1725 149.841 62.0506 146.367 62.1855C142.892 62.3204 139.789 60.2633 139.249 56.1154C138.777 52.2372 141.374 48.7974 145.051 48.4265C148.593 48.0555 151.899 50.8545 152.337 54.5641Z" fill="#15A34A"/>
<path d="M150.415 79.1146C150.819 82.723 147.918 86.6012 144.444 86.7361C140.969 86.871 137.866 84.8138 137.326 80.6659C136.854 76.7877 139.451 73.3479 143.128 72.977C146.67 72.606 150.01 75.4051 150.415 79.1146Z" fill="#15A34A"/>
<path d="M168.867 13.2531C172.543 12.8485 175.883 15.4789 176.288 19.0873C176.693 22.6956 173.859 26.304 170.317 26.7424C167.079 27.1471 163.402 24.1795 162.963 20.8071C162.525 17.0639 165.156 13.6915 168.867 13.2531Z" fill="#15A34A"/>
<path d="M211.201 24.0446C214.844 23.6736 218.082 26.3378 218.521 30.0811C218.926 33.7232 216.261 37.1629 212.685 37.6013C209.11 38.006 205.635 35.1395 205.23 31.43C204.859 27.7879 207.592 24.4156 211.201 24.0446Z" fill="#15A34A"/>
<path d="M156.891 42.6935C153.214 43.0982 149.774 40.3329 149.369 36.6908C148.964 33.0824 151.696 29.6426 155.272 29.2042C158.747 28.7996 162.289 31.6323 162.693 35.1732C163.132 38.7479 160.4 42.3226 156.891 42.6935Z" fill="#15A34A"/>
<path d="M219.331 43.6715C218.892 39.827 221.321 36.6233 225.031 36.1512C228.742 35.6791 232.048 38.4107 232.453 42.2214C232.857 45.9647 230.226 49.3033 226.617 49.6742C222.873 50.0789 219.735 47.4822 219.331 43.6715Z" fill="#15A34A"/>
<path d="M245.035 76.6865C245.271 79.0472 243.382 81.4415 241.122 81.6776C238.626 81.9474 236.467 80.16 236.13 77.5633C235.86 75.2702 237.951 72.5723 240.11 72.37C242.505 72.2013 244.765 74.191 245.035 76.6865Z" fill="#15A34A"/>
<path d="M237.648 50.3824C239.941 50.0789 242.269 52.0012 242.539 54.4292C242.842 56.8236 241.021 59.2854 238.761 59.5889C236.4 59.9261 233.87 57.9364 233.6 55.5758C233.364 53.1815 235.32 50.6859 237.648 50.3824Z" fill="#15A34A"/>
<path d="M158.274 6.57591C160.501 6.33985 162.896 8.36324 163.166 10.7239C163.436 12.8484 161.412 15.58 159.421 15.8161C157.094 16.1196 154.53 14.0962 154.26 11.7693C153.99 9.30749 155.913 6.81197 158.274 6.57591Z" fill="#15A34A"/>
<path d="M218.521 13.9614C220.781 13.7927 223.244 15.8499 223.412 18.1093C223.615 20.6048 221.658 22.9992 219.297 23.1341C217.071 23.269 214.709 21.313 214.473 19.1547C214.237 16.7941 216.295 14.1637 218.521 13.9614Z" fill="#15A34A"/>
<path d="M206.31 5.8677C206.546 8.12716 204.522 10.7913 202.397 10.9599C200.17 11.1622 197.708 9.10513 197.438 6.84568C197.168 4.5525 199.091 1.98953 201.25 1.71975C203.645 1.44996 206.006 3.40591 206.31 5.8677Z" fill="#15A34A"/>
<path d="M228.54 31.1264C228.236 28.5297 229.822 26.4726 232.352 26.2028C234.983 25.933 237.04 27.6192 237.277 30.2833C237.479 32.6102 235.691 34.9034 233.465 35.1732C230.867 35.5441 228.843 33.858 228.54 31.1264Z" fill="#15A34A"/>
<path d="M133.312 48.359C131.052 48.6287 128.556 46.6728 128.32 44.4471C128.05 42.0864 129.905 39.6921 132.199 39.3549C134.594 39.0176 137.056 40.9736 137.259 43.3679C137.495 45.7286 135.64 48.0892 133.312 48.359Z" fill="#15A34A"/>
<path d="M144.545 22.662C146.805 22.4259 149.234 24.3144 149.538 26.5738C149.841 28.7659 147.851 31.4637 145.726 31.7335C143.331 32.037 140.936 30.1148 140.666 27.653C140.396 25.2924 142.251 22.9317 144.545 22.662Z" fill="#15A34A"/>
<path d="M184.181 4.11412C184.451 6.64336 182.731 8.80165 180.268 9.03771C177.907 9.27378 175.681 7.38527 175.444 4.9572C175.208 2.42796 176.895 0.269674 179.324 0.0336117C181.685 -0.236174 183.945 1.68605 184.181 4.11412Z" fill="#15A34A"/>
<path d="M136.652 66.6707C136.921 69.3011 135.302 71.3245 132.772 71.5605C130.175 71.7966 128.185 70.1104 127.948 67.5475C127.746 65.1194 129.534 62.8262 131.895 62.5564C134.189 62.2866 136.415 64.2426 136.652 66.6707Z" fill="#15A34A"/>
</g>
<path d="M88.5824 199.169C91.4159 199.102 94.2832 199.001 97.1168 198.967C97.7577 198.967 97.8926 198.832 97.9601 198.124C98.4998 192.931 97.083 187.906 96.6782 182.814C96.2397 177.789 96.0711 172.764 96.0373 167.739C95.9699 160.084 95.9024 152.429 96.2397 144.774C96.4759 139.344 97.2517 133.949 97.6228 128.553C97.9264 124.371 98.2637 120.19 99.2757 116.109C99.8491 113.816 100.591 111.556 101.738 109.466C103.425 106.464 105.955 104.34 108.89 102.586C114.152 99.4497 119.988 98.0671 125.925 96.988C130.242 96.2123 134.56 95.7065 138.979 95.7402C139.384 95.7402 139.789 95.7402 140.194 95.8076C140.767 95.9088 141.071 95.6727 141.273 95.1669C142.386 91.8957 144.14 88.8607 145.49 85.6907C146.94 82.2846 149.133 79.2158 150.651 75.8435C150.887 75.3714 150.954 75.0004 150.819 74.4271C150.246 72.0328 150.651 69.7059 151.528 67.4464C152.607 64.6811 153.99 62.0844 155.812 59.7238C158.038 56.8573 159.556 53.6199 161.007 50.2813C162.929 45.8973 165.426 41.8842 170.047 39.7259C172.004 38.8154 173.994 38.4782 176.085 39.2201C177.603 39.7259 179.054 39.6585 180.572 39.0852C183 38.1747 185.497 37.6014 188.162 37.6351C190.084 37.6688 191.771 38.1746 193.12 39.5573C194.672 41.1423 196.494 41.5807 198.619 41.2772C200.946 40.94 203.206 41.4458 205.365 42.2552C207.389 43.0308 208.772 44.6158 209.177 46.7403C209.649 49.3033 211.066 50.7871 213.529 51.4616C214.676 51.7651 215.721 52.4059 216.733 53.114C218.858 54.5979 219.567 56.7899 219.466 59.2179C219.398 61.4774 217.577 63.2647 215.215 63.5008C213.529 63.6694 211.808 63.6694 210.088 63.7706C209.514 63.8043 208.975 63.6694 208.536 63.3659C207.929 62.9612 207.659 63.0287 207.322 63.7706C205.062 68.8965 202.768 74.0224 200.474 79.1484C198.45 83.6336 196.392 88.085 193.694 92.233C191.096 96.246 188.769 97.1903 184.046 96.3135C182.258 95.9763 180.504 95.4704 178.851 94.6948C178.447 94.4924 178.143 94.3913 177.907 94.9646C177.333 96.3472 176.726 97.6961 176.085 99.0451C175.782 99.6521 176.052 99.6521 176.558 99.7195C181.213 100.158 185.834 100.698 190.32 102.114C193.964 103.26 196.797 105.554 199.226 108.386C203.577 113.479 205.905 119.616 207.693 125.956C209.177 131.183 210.695 136.377 212.314 141.57C214.203 147.708 215.924 153.879 217.138 160.185C217.88 163.996 218.993 167.773 219.23 171.685C219.297 172.663 219.87 172.494 220.511 172.494C227.663 172.258 234.814 172.022 241.965 172.157C244.63 172.191 247.295 171.752 249.926 172.09C250.803 172.191 251.849 172.09 252.186 173.236C252.423 174.079 251.714 174.99 250.5 175.496C249.387 175.968 248.273 176.339 247.025 176.811C248.206 177.249 249.285 177.62 250.297 178.025C250.77 178.193 251.242 178.43 251.647 178.733C252.861 179.542 252.794 180.419 251.444 181.431C251.815 181.734 252.186 181.97 252.49 182.274C252.895 182.645 253.064 183.117 252.861 183.657C252.659 184.23 252.22 184.432 251.68 184.432C250.736 184.466 249.791 184.365 248.813 184.601C248.982 185.039 249.42 185.039 249.724 185.174C250.399 185.545 251.174 185.882 251.073 186.827C251.006 187.771 250.162 187.973 249.454 188.209C248.273 188.58 247.025 188.648 245.777 188.614C238.457 188.378 231.205 189.019 223.918 189.626C222.637 189.727 222.637 189.727 223.041 190.941C223.379 192.02 223.716 193.099 224.02 194.178C224.155 194.684 224.424 194.853 224.964 194.819C235.016 194.111 245.069 193.942 255.121 193.234C259.034 192.964 262.981 192.796 266.928 192.627C267.872 192.593 268.108 192.29 268.176 191.346C268.682 181.566 268.716 171.719 269.458 161.939C270.065 154.115 270.739 146.325 271.38 138.501C271.549 136.646 271.482 134.792 271.785 132.937C271.853 132.566 271.785 132.296 271.313 132.296C268.142 132.431 264.971 132.566 261.8 132.465C261.159 132.431 261.396 132.937 261.396 133.24C261.396 136.006 261.497 138.771 261.193 141.536C261.092 142.379 260.923 143.256 260.653 144.066C260.384 144.976 259.506 144.909 258.798 144.841C257.921 144.774 257.786 145.077 257.786 145.853C257.854 148.281 258.056 150.743 257.685 153.171C257.584 153.778 257.55 154.452 256.707 154.52C256.167 154.587 256.268 155.026 256.234 155.363C256.133 156.375 256.167 157.386 255.931 158.398C255.762 159.072 255.391 159.477 254.716 159.612C253.502 159.882 252.321 159.612 251.174 159.207C250.534 158.971 250.399 158.331 250.399 157.757C250.365 156.914 250.399 156.071 250.432 155.228C250.466 154.756 250.331 154.621 249.825 154.587C248.004 154.554 248.004 154.554 247.97 156.341C247.97 156.509 247.97 156.712 247.97 156.88C248.037 158.904 248.375 159.477 245.339 159.275C242.404 159.072 242.134 158.769 242.404 155.801C242.471 155.026 242.606 154.419 241.459 154.351C240.414 154.284 240.245 153.373 240.211 152.463C240.144 149.832 240.346 147.202 240.515 144.605C240.549 143.863 240.346 143.762 239.705 143.695C237.108 143.391 237.142 143.391 236.973 140.761C236.939 140.356 236.939 139.951 236.906 139.547C236.838 138.029 236.838 138.063 235.354 137.928C234.814 137.861 234.679 138.063 234.51 138.501C234.241 139.277 233.836 139.951 233.33 140.592C232.217 142.008 230.463 141.907 229.687 140.289C228.236 137.186 228.135 133.949 229.046 130.677C229.349 129.666 229.99 128.755 231.272 128.789C232.554 128.823 233.229 129.632 233.701 130.677C234.308 132.06 234.814 132.296 236.298 132.128C236.703 132.06 236.771 131.891 236.771 131.554C236.838 129.059 237.007 126.597 237.31 124.135C237.411 123.427 236.906 123.36 236.501 123.225C232.419 121.808 228.472 119.987 224.424 118.436C223.008 117.896 221.726 117.121 220.511 116.278C219.263 115.468 219.162 114.895 219.702 113.479C220.241 112.029 221.051 110.747 221.827 109.432C222.164 108.892 222.164 108.555 221.557 108.218C215.114 104.812 209.211 100.495 202.835 96.9205C201.655 96.2798 200.508 95.5716 199.192 95.2006C198.585 95.032 198.484 94.5936 198.754 94.0878C199.901 91.8957 201.216 89.7712 202.768 87.849C203.24 87.2419 203.847 87.1408 204.691 87.5454C210.56 90.2433 215.957 93.818 221.692 96.7856C223.345 97.6287 224.863 98.7078 226.448 99.6858C227.056 100.057 227.46 100.023 227.865 99.3486C228.405 98.4043 229.046 97.5275 229.687 96.617C230.024 96.1786 230.024 95.8751 229.518 95.6053C227.325 94.3913 225.301 92.84 223.075 91.6934C218.352 89.2316 213.9 86.2977 209.481 83.3638C207.558 82.0823 207.558 82.0823 208.739 80.1263C209.717 78.5076 210.83 76.9564 211.943 75.4051C212.483 74.6632 213.023 74.562 213.799 74.9667C216.565 76.3156 219.398 77.5971 222.131 79.0809C226.684 81.6102 231.441 83.7347 235.826 86.5675C236.467 87.0059 236.872 86.9047 237.378 86.2977C239.638 83.5998 239.638 83.6673 242.944 84.7127C246.519 85.8593 249.994 87.2757 253.536 88.5572C255.256 89.1979 257.01 89.6363 258.697 90.3108C261.497 91.3899 261.294 91.3562 261.53 94.2901C261.902 99.3149 261.396 104.34 261.632 109.398C261.699 110.477 261.665 111.59 261.665 112.669C261.665 113.243 261.834 113.58 262.441 113.614C265.342 113.782 268.277 113.748 271.178 114.221C271.853 114.322 271.684 113.782 271.718 113.411C272.089 109.735 272.291 106.06 272.494 102.384C272.73 98.3369 272.966 94.2901 273.202 90.277C273.236 89.7712 273.236 89.2316 273.135 88.7595C272.898 87.8827 273.303 87.478 274.045 87.3768C276.811 86.9722 279.544 86.9384 282.31 87.3768C283.221 87.5117 283.322 88.2536 283.288 88.9618C283.254 92.3679 283.221 95.7402 283.119 99.1462C282.951 104.104 282.715 109.061 282.479 114.018C282.445 114.828 282.715 114.996 283.423 115.03C284.536 115.064 285.683 115.198 286.796 115.3C288.044 115.401 288.415 115.873 288.753 117.053C289.866 121.066 289.191 125.012 288.415 128.958C288.146 130.408 286.965 131.251 285.076 131.419C284.233 131.487 283.389 131.588 282.58 131.622C282.006 131.655 281.838 131.891 281.871 132.431C282.074 137.692 281.838 142.919 281.467 148.18C280.961 155.397 280.589 162.58 279.847 169.763C279.139 176.777 278.599 183.792 277.79 190.772C277.655 191.851 278.296 191.582 278.802 191.548C283.221 191.278 287.606 190.975 292.025 190.705C295.027 190.536 297.996 190.368 300.998 190.233C301.875 190.199 302.752 190.165 303.528 190.739C303.764 190.907 304.067 191.109 303.933 191.447C303.764 191.851 303.46 191.615 303.19 191.548C301.639 191.143 300.087 191.514 298.535 191.649C291.924 192.189 285.312 192.762 278.667 193.268C277.823 193.335 277.419 193.571 277.419 194.482C277.419 195.257 277.351 195.999 277.216 196.775C277.115 197.449 277.317 197.686 277.992 197.686C281.028 197.719 284.064 197.82 287.066 197.854C288.82 197.888 289.326 198.427 289.259 200.181C289.191 202.103 289.225 204.059 288.719 205.948C288.517 206.723 288.078 207.128 287.201 206.993C282.31 206.319 277.351 206.521 272.46 206.285C262.913 205.813 253.367 205.543 243.821 204.902C240.076 204.666 236.298 204.767 232.554 204.363C229.889 204.059 227.224 204.093 224.593 203.823C222.906 203.655 222.603 203.182 223.075 201.53C223.277 200.788 223.615 200.046 223.615 199.304C223.615 198.326 224.121 198.191 224.897 198.09C228.945 197.618 233.026 197.382 237.108 197.281C243.214 197.146 249.285 197.078 255.391 197.18C259.135 197.247 262.913 197.382 266.658 197.551C267.467 197.584 267.704 197.382 267.771 196.573C267.94 194.212 267.973 194.178 265.646 194.313C249.387 195.224 233.161 196.202 216.902 197.112C206.006 197.719 195.111 197.989 184.215 198.36C173.285 198.697 162.356 199.169 151.393 199.641C142.825 200.012 134.257 200.08 125.688 200.383C113.342 200.855 100.962 200.99 88.6161 201.395C88.4812 200.721 88.3125 199.945 88.5824 199.169ZM199.462 73.1794C199.395 73.2131 199.361 73.2468 199.293 73.2805C199.327 73.2805 199.327 73.3143 199.327 73.3143C199.395 73.2805 199.428 73.2468 199.462 73.1794C199.361 73.5503 199.26 73.9213 199.192 74.326C199.158 74.5283 198.754 74.7306 199.158 74.933C199.428 75.0679 199.698 75.1016 199.968 74.933C200.238 74.7643 200.204 74.5283 200.103 74.2922C199.901 73.8876 199.766 73.4829 199.462 73.1794ZM197.91 80.2612C198.686 78.9123 199.327 77.5297 199.901 76.0121C198.956 75.9784 198.146 75.8435 197.371 75.54C196.595 75.2365 195.954 74.7306 195.313 74.0562C195.111 75.8772 194.739 77.4959 194.301 79.0809C194.132 79.4182 193.964 79.7554 193.761 80.1263C193.39 80.7334 192.884 81.2055 192.277 81.5427C190.287 82.6556 187.419 82.4532 186.947 79.6205C186.846 79.0472 186.779 78.4402 187.487 78.2716C188.229 78.1029 188.364 78.71 188.431 79.2833C188.6 80.4636 189.241 80.902 190.422 80.6996C192.075 80.4299 192.817 79.2833 193.154 77.7994C193.66 75.6074 194.132 73.3817 194.638 71.1897C194.706 70.8525 194.908 70.1105 195.279 70.6501C195.751 71.3246 196.089 71.0211 196.595 70.9199C197.438 70.785 198.248 70.9199 198.99 71.4258C199.766 71.9653 200.44 72.6061 201.149 73.3817C201.554 72.5386 201.925 71.7967 202.296 71.0548C203.443 68.7279 203.24 68.3232 200.71 67.5476C200.407 67.4464 200.069 67.379 199.766 67.3452C199.192 67.2778 198.72 67.1429 198.754 66.4684C198.821 65.6591 199.428 65.7265 200.002 65.794C201.25 65.9289 202.363 66.4684 203.409 67.1429C203.814 67.4127 204.016 67.4127 204.252 66.9743C204.994 65.5242 205.736 64.0741 206.512 62.624C206.681 62.2868 206.748 62.017 206.512 61.6123C205.332 59.5215 203.814 58.1051 201.216 58.4086C200.879 58.4423 200.508 58.3411 200.137 58.3074C197.978 58.0714 196.257 57.1271 195.077 55.2723C194.672 54.6653 194.166 54.1257 193.66 53.6199C192.21 52.1698 190.557 51.6302 188.499 52.3721C186.677 53.0466 184.822 53.1478 183.034 52.0012C182.09 51.3942 180.336 52.1698 179.965 53.3164C177.907 59.454 174.702 64.9846 171.396 70.4815C170.486 71.999 169.271 73.3817 167.72 74.326C167.18 74.6632 166.606 74.933 165.965 74.5957C165.257 74.2248 165.257 73.5503 165.257 72.8759C165.291 72.0328 165.594 71.2234 165.763 70.4141C166.336 67.9185 167.281 65.5242 167.45 62.9612C167.517 61.7809 167.079 61.2413 165.932 60.9715C164.92 60.7355 163.739 61.3088 162.963 62.3879C162.356 63.2647 162.356 64.4113 163.098 65.3218C164.582 67.1092 164.953 67.1429 162.896 69.6384C162.66 69.9082 162.39 70.178 162.154 70.4478C159.927 72.6735 157.06 73.8201 154.159 74.8318C152.776 75.3039 152.068 76.1807 151.562 77.361C149.504 82.3521 146.94 87.107 144.511 91.8957C143.634 93.6494 142.724 95.403 142.116 97.2577C141.948 97.4601 142.049 97.6624 142.116 97.8648C144.241 102.923 145.388 108.285 146.805 113.546C148.593 120.122 149.706 126.867 151.595 133.409C153.855 141.3 155.677 149.293 157.431 157.285C157.836 159.14 157.971 161.13 158.882 162.748C160.973 166.458 163.57 169.864 166.438 173.034C167.112 173.809 168.023 174.012 168.968 174.079C169.777 174.147 170.148 173.843 170.148 172.966C170.182 170.774 170.249 168.582 170.317 166.39C170.553 159.106 171.16 151.856 171.666 144.571C172.341 134.792 172.51 124.978 172.813 115.165C172.948 110.612 173.522 106.093 174.162 101.574C174.264 100.9 174.5 100.225 174.095 99.5846C175.073 97.3589 176.085 95.1332 177.064 92.9074C177.367 92.233 177.806 91.8957 178.514 92.3679C180.302 93.5145 182.326 94.0203 184.35 94.4587C188.094 95.2681 189.949 94.5936 191.771 91.6934C193.424 89.0967 194.942 86.3651 196.257 83.5661C196.46 83.1277 196.966 82.6219 196.662 82.1497C196.359 81.6776 195.718 82.0823 195.245 82.116C194.942 82.116 194.47 82.4195 194.605 81.7113C195.785 81.5427 196.898 81.0031 197.91 80.2612ZM154.732 156.105C154.834 156.071 154.935 156.037 155.002 156.004C154.935 155.666 154.901 155.295 154.8 154.958C154.024 151.687 153.248 148.45 152.439 145.178C150.786 138.535 148.795 131.959 147.244 125.315C145.186 116.547 143.162 107.779 140.801 99.1125C140.362 97.5275 140.092 97.3589 138.507 97.5275C138.237 97.5612 138.001 97.595 137.731 97.6287C137.36 97.6624 137.158 97.7636 137.124 98.202C136.989 100.529 136.618 102.856 136.112 105.115C135.977 105.722 136.179 106.026 136.787 106.194C138.271 106.633 139.755 107.172 141.239 107.712C142.352 108.117 142.521 108.589 141.88 109.6C140.834 111.185 139.789 112.77 138.709 114.322C138.372 114.794 138.305 115.232 138.541 115.738C139.317 117.627 139.991 119.549 140.801 121.404C143.364 127.238 146.637 132.735 149.099 138.636C149.301 139.142 150.111 139.816 149.234 140.221C148.424 140.592 148.323 139.58 148.087 139.075C145.793 134.623 143.533 130.104 141.239 125.653C139.586 122.483 138.372 119.11 137.124 115.772C136.854 115.064 136.955 114.524 137.36 113.951C138.305 112.568 139.215 111.152 140.194 109.803C140.531 109.331 140.565 109.128 139.924 108.926C138.473 108.454 137.056 107.881 135.606 107.341C134.628 106.97 134.189 106.397 134.459 105.25C134.999 103.092 135.336 100.9 135.808 98.7078C135.943 98.0334 135.808 97.831 135.066 97.8985C132.199 98.1008 129.298 98.3369 126.498 98.9102C120.224 100.192 114.253 102.451 108.552 105.385C106.798 106.296 105.179 107.442 104.369 109.499C101.704 116.176 100.22 123.09 99.7142 130.205C99.2082 137.456 98.5335 144.673 98.2637 151.923C97.9938 158.465 97.724 164.974 97.9938 171.516C98.2974 178.43 98.7697 185.343 99.5455 192.256C99.7817 194.313 99.8829 196.404 100.827 198.293C101.03 198.697 101.198 198.9 101.704 198.866C105.82 198.765 109.935 198.697 114.084 198.596C123.631 198.36 133.211 198.158 142.757 197.888C145.827 197.82 148.863 197.652 151.933 197.517C150.921 197.112 149.909 196.91 148.93 196.505C145.422 195.089 142.622 192.728 140.059 190.03C135.909 185.646 132.03 181.06 128.488 176.204C122.619 168.178 118.099 159.342 113.713 150.439C110.104 143.121 107.304 135.534 104.774 127.811C104.504 127.002 104.268 126.192 104.201 125.349C104.167 124.978 104.201 124.574 104.639 124.472C105.111 124.337 105.28 124.641 105.381 125.046C105.415 125.214 105.516 125.383 105.584 125.552C107.743 130.745 109.632 136.006 111.723 141.199C113.949 146.629 116.614 151.856 119.279 157.083C125.655 169.695 133.953 180.858 144.107 190.671C147.176 193.639 150.921 195.19 155.238 195.392C160.366 195.662 165.459 195.291 170.519 194.65C175.107 194.043 179.661 193.2 184.249 192.593C192.884 191.447 201.419 189.659 210.088 188.547C210.729 188.479 210.897 188.176 210.931 187.569C211.066 183.758 211.673 180.015 212.146 176.271C212.281 175.327 212.179 175.023 211.1 175.091C204.252 175.428 197.404 175.597 190.557 176.001C183.945 176.406 177.266 176.103 170.688 177.216C169.98 177.35 169.271 177.384 168.529 177.485C167.348 177.654 166.471 176.878 165.696 176.103C161.277 171.584 157.802 166.39 154.665 160.927C153.147 158.297 152 155.498 150.55 152.867C144.882 142.582 139.856 131.993 134.83 121.404C134.594 120.898 134.425 120.392 134.223 119.886C134.088 119.481 133.784 118.975 134.324 118.739C134.864 118.47 135.1 119.009 135.302 119.38C136.989 122.145 138.743 124.877 140.092 127.845C141.374 130.711 142.892 133.443 144.343 136.242C146.265 139.918 148.256 143.56 150.212 147.236C151.831 150.169 153.585 153.002 154.732 156.105ZM180.673 101.912C181.449 103.969 182.056 105.958 183.102 107.779C183.54 108.521 183.439 109.128 182.731 109.668C181.584 110.511 180.538 111.489 179.391 112.298C178.716 112.737 178.716 113.074 179.121 113.681C180.099 115.097 181.01 116.547 181.921 117.964C182.326 118.571 182.36 119.212 182.191 119.953C180.673 126.192 179.425 132.465 177.468 138.569C176.558 141.401 176.22 144.335 175.478 147.202C175.377 147.539 175.309 148.011 174.803 147.876C174.331 147.741 174.399 147.337 174.466 146.966C174.837 145.111 175.107 143.222 175.579 141.401C177.401 134.522 179.29 127.676 180.74 120.729C181.01 119.515 180.943 118.571 180.167 117.593C179.155 116.311 178.278 114.929 177.468 113.479C177.03 112.703 177.165 112.163 177.907 111.624C179.02 110.814 180.066 109.87 181.145 109.027C181.55 108.724 181.719 108.454 181.415 107.948C180.639 106.667 180.133 105.216 179.897 103.766C179.661 102.114 178.885 101.338 177.198 101.136C175.377 100.934 175.411 100.799 175.411 102.653C175.411 107.442 174.905 112.197 174.871 116.986C174.837 123.865 174.466 130.745 174.196 137.658C173.96 143.897 173.117 150.068 172.746 156.307C172.375 161.973 172.375 167.672 171.869 173.337C171.801 174.012 172.004 174.147 172.611 174.147C174.331 174.113 176.052 174.113 177.772 174.113C182.562 174.18 187.318 173.708 192.108 173.573C192.614 173.573 192.918 173.472 192.918 172.831C192.952 171.044 193.154 169.257 193.188 167.469C193.289 156.779 192.918 146.089 193.458 135.432C193.491 134.657 193.491 133.915 193.559 133.139C193.593 132.802 193.626 132.33 194.132 132.33C194.605 132.33 194.672 132.768 194.706 133.106C194.807 134.016 194.908 134.927 194.976 135.837C195.313 140.221 195.212 144.571 195.313 148.955C195.448 156.813 195.718 164.704 194.976 172.562C194.908 173.304 195.111 173.439 195.785 173.405C199.26 173.27 202.7 173.169 206.175 173.034C209.514 172.899 212.888 172.764 216.227 172.595C216.834 172.562 217.475 172.629 217.273 171.584C216.261 165.547 214.912 159.578 213.529 153.609C211.842 146.494 209.514 139.547 207.423 132.532C205.703 126.799 204.218 120.999 201.587 115.502C197.371 106.7 190.118 102.788 180.673 101.912ZM279.847 139.951C279.915 139.951 280.016 139.951 280.083 139.951C280.083 137.624 280.05 135.298 280.117 132.971C280.151 132.195 279.881 131.993 279.139 132.026C277.452 132.161 275.799 132.262 274.113 132.195C273.033 132.161 272.865 132.566 272.932 133.51C273.371 138.771 272.865 143.998 272.595 149.259C272.359 154.081 271.718 158.836 271.414 163.659C271.111 168.549 270.874 173.405 270.672 178.295C270.402 184.466 270.2 190.604 269.626 196.741C269.559 197.517 269.795 197.753 270.571 197.686C271.853 197.618 273.135 197.652 274.416 197.686C275.057 197.719 275.327 197.551 275.361 196.842C275.462 195.055 275.631 193.268 275.833 191.514C276.373 186.827 276.575 182.139 277.048 177.452C277.587 172.224 278.093 166.997 278.464 161.77C278.903 154.52 279.375 147.236 279.847 139.951ZM250.196 173.607C248.645 173.337 247.329 173.675 245.98 173.809C241.055 174.248 236.13 173.978 231.205 174.214C226.044 174.45 220.849 174.518 215.688 174.855C214.473 174.922 214.237 175.462 214.17 176.44C213.9 180.048 213.664 183.623 213.326 187.231C213.259 188.142 213.495 188.277 214.372 188.209C219.398 187.737 224.391 187.198 229.417 186.928C235.32 186.624 241.223 186.051 247.127 186.725C247.7 186.793 248.341 186.827 249.15 186.422C247.363 185.781 245.811 185.275 244.124 185.174C243.18 185.107 242.235 185.073 241.291 185.006C240.852 184.972 240.481 184.702 240.515 184.23C240.549 183.758 240.886 183.589 241.358 183.555C242.336 183.522 243.315 183.454 244.293 183.387C246.384 183.185 248.51 183.421 250.736 182.982C249.791 182.51 248.914 182.341 248.037 182.24C246.182 182.072 244.327 181.903 242.471 181.734C241.898 181.667 241.325 181.6 241.358 180.824C241.392 180.116 241.898 179.947 242.539 179.981C244.36 179.981 246.182 180.015 248.004 180.015C248.611 180.015 249.252 180.015 249.859 180.015C249.859 179.913 249.859 179.812 249.859 179.711C249.353 179.542 248.847 179.34 248.341 179.171C246.654 178.564 244.9 178.295 243.112 177.957C242.471 177.856 241.729 177.721 241.729 176.845C241.729 176.001 242.471 176.001 243.079 175.867C244.866 175.462 246.621 175.057 248.375 174.484C248.982 174.282 249.589 174.18 250.196 173.607ZM274.619 99.8207C274.518 103.935 274.45 108.791 273.708 113.647C273.573 114.524 273.843 114.726 274.652 114.726C276.305 114.76 277.925 114.828 279.577 114.962C280.421 115.03 280.623 114.726 280.657 113.951C280.994 105.992 281.332 97.9997 281.703 90.041C281.736 89.2316 281.433 89.063 280.724 89.063C279.004 89.0967 277.284 89.063 275.597 89.0967C274.248 89.1304 274.214 89.1304 274.349 90.5468C274.653 93.3796 274.653 96.2123 274.619 99.8207ZM231.137 94.4587C231.508 94.4587 231.643 94.1215 231.812 93.8517C232.925 92.3341 234.004 90.7829 235.151 89.2653C235.624 88.6583 235.219 88.5572 234.848 88.3211C229.046 84.7127 222.906 81.6102 217.037 78.1367C216.632 77.9006 216.362 77.7994 216.16 78.4065C215.62 80.1263 214.676 81.6439 213.63 83.094C213.09 83.8359 213.293 84.1057 214.001 84.5441C218.892 87.7141 224.155 90.2096 229.079 93.3458C229.788 93.7168 230.463 94.0878 231.137 94.4587ZM208.401 91.1538C208.098 91.1876 208.03 91.3899 207.895 91.5922C206.985 93.0086 206.141 94.4587 205.163 95.8076C204.758 96.3809 204.961 96.5158 205.467 96.8193C207.659 98.1008 209.987 99.18 212.112 100.596C215.418 102.822 218.96 104.576 222.4 106.532C222.974 106.835 223.277 106.903 223.649 106.194C224.289 104.98 225.032 103.8 225.841 102.687C226.347 101.979 226.178 101.743 225.504 101.271C220.174 97.6961 214.372 94.9308 208.975 91.4574C208.84 91.3562 208.604 91.255 208.401 91.1538ZM242.505 148.989C242.471 149.461 242.471 149.933 242.471 150.406C242.471 152.631 242.471 152.631 244.664 152.665C247.936 152.699 251.208 152.665 254.514 152.732C255.83 152.766 255.965 152.766 255.796 151.417C255.56 149.495 255.56 147.573 255.796 145.651C255.897 144.976 255.627 144.841 255.054 144.841C251.04 144.875 247.059 144.437 243.045 144.066C242.37 143.998 242.235 144.234 242.303 144.841C242.404 146.224 242.438 147.607 242.505 148.989ZM205.365 195.999C205.365 195.932 205.365 195.864 205.365 195.797C207.558 195.696 209.751 195.628 211.909 195.493C214.945 195.325 217.948 195.156 220.984 195.021C221.692 194.988 221.827 194.785 221.625 194.111C221.287 193.099 221.051 192.087 220.849 191.042C220.68 190.199 220.309 189.963 219.466 190.03C211.842 190.705 204.252 191.683 196.73 193.2C196.19 193.301 195.853 193.504 195.92 194.111C195.954 194.482 195.92 194.853 195.853 195.19C195.718 195.898 195.988 196.033 196.662 195.999C199.53 195.966 202.431 195.999 205.365 195.999ZM174.028 196.674C179.897 196.505 185.767 196.37 191.636 196.202C193.12 196.168 193.053 196.134 193.222 194.684C193.356 193.706 192.985 193.74 192.21 193.841C188.431 194.414 184.653 194.92 180.875 195.527C178.581 195.898 176.254 195.999 174.028 196.674ZM273.303 123.056C273.269 124.911 274.855 126.159 277.149 126.192C278.802 126.192 280.117 124.472 280.117 122.247C280.117 120.729 278.464 119.178 276.811 119.11C275.091 119.077 273.303 121.066 273.303 123.056ZM230.463 135.028C230.53 136.343 230.496 137.726 231.07 139.041C231.171 139.311 231.272 139.648 231.576 139.715C231.981 139.783 232.082 139.344 232.217 139.075C233.431 136.377 232.554 133.713 231.846 131.116C231.643 130.34 231.137 130.947 230.969 131.318C230.496 132.465 230.496 133.713 230.463 135.028ZM261.834 122.82C261.767 122.82 261.733 122.82 261.665 122.82C261.665 120.931 261.699 119.043 261.632 117.121C261.632 116.649 261.935 115.772 261.328 115.738C260.822 115.704 260.957 116.615 260.957 117.154C260.89 121.302 260.788 125.45 260.518 129.598C260.485 130.003 260.35 130.509 260.89 130.576C261.463 130.644 261.396 130.07 261.429 129.699C261.564 127.406 261.699 125.113 261.834 122.82ZM240.852 135.095C240.987 132.869 240.616 132.33 238.963 132.465C238.525 132.499 237.951 132.499 237.985 133.072C238.019 133.746 238.558 133.679 239.064 133.578C239.739 133.443 240.009 133.679 239.941 134.387C239.908 134.691 239.941 134.96 239.941 135.264C239.908 136.039 240.279 137.119 238.761 136.748C238.525 136.68 238.187 136.883 238.187 137.253C238.187 137.523 238.39 137.624 238.592 137.658C239.874 137.962 240.684 137.355 240.785 136.039C240.818 135.736 240.819 135.399 240.852 135.095ZM185.733 45.2565C186.306 45.2903 186.947 45.1216 187.521 44.8181C187.892 44.6158 188.6 44.6158 188.33 43.9413C188.094 43.368 187.554 43.7053 187.183 43.8739C185.935 44.4472 184.653 44.3797 183.338 44.0088C182.899 43.8739 182.427 43.739 181.989 43.6378C181.82 43.6041 181.617 43.5704 181.55 43.8402C181.516 44.0088 181.617 44.1099 181.752 44.1774C183.068 44.5821 184.249 45.2565 185.733 45.2565ZM201.688 46.909C201.621 46.7741 201.587 46.6392 201.52 46.538C200.542 44.953 197.641 43.975 195.853 44.6495C195.684 44.717 195.347 44.6832 195.38 44.9867C195.414 45.2903 195.684 45.1891 195.92 45.1554C197.404 44.8181 198.619 45.4251 199.732 46.3357C200.069 46.6055 200.339 46.9764 200.71 47.2125C201.115 47.4823 201.486 47.4485 201.688 46.909ZM201.351 53.5187C201.587 53.5187 201.925 53.5862 202.026 53.1815C202.127 52.7431 201.823 52.6082 201.486 52.507C200.036 52.2035 199.057 51.293 198.214 50.1127C198.113 49.9778 197.978 49.8429 197.843 49.708C197.674 49.5394 197.472 49.4045 197.269 49.5394C197.033 49.708 197.202 49.9103 197.337 50.0789C197.877 50.7871 198.248 51.5628 198.855 52.2035C199.53 52.9454 200.339 53.3838 201.351 53.5187ZM259.304 95.2681C259.27 95.2681 259.27 95.2681 259.237 95.2681C259.237 94.8971 259.27 94.5262 259.237 94.1889C259.203 93.818 259.135 93.4133 258.663 93.4133C258.225 93.4133 257.988 93.7168 257.955 94.1215C257.854 94.9983 257.786 95.8414 257.752 96.7182C257.719 97.1228 257.955 97.4264 258.393 97.4264C258.832 97.4601 259.068 97.1903 259.135 96.7856C259.237 96.2798 259.27 95.7402 259.304 95.2681ZM236.939 135.095C236.534 134.691 237.479 133.578 236.197 133.746C235.657 133.814 234.679 133.274 234.612 134.421C234.544 136.208 234.814 136.512 236.13 136.545C237.411 136.512 236.602 135.534 236.939 135.095ZM169.474 46.2682C171.127 44.6495 172.982 43.9076 175.208 44.8518C175.411 44.953 175.647 44.7844 175.714 44.5483C175.815 44.2448 175.546 44.1099 175.309 44.0088C173.42 43.0308 170.452 44.0762 169.474 46.2682ZM207.963 57.0934C208.705 58.0376 209.683 58.6446 210.763 59.0831C211.032 59.1842 211.437 59.3191 211.606 58.8807C211.741 58.476 211.471 58.2737 211.1 58.2062C210.02 57.9365 209.008 57.5318 207.963 57.0934ZM205.601 51.6977C206.377 51.8663 206.951 52.3721 207.592 52.7431C207.828 52.878 208.064 52.9791 208.233 52.7094C208.368 52.507 208.368 52.271 208.131 52.1361C207.356 51.7314 206.58 51.2255 205.601 51.6977ZM197.033 74.1911C197.135 73.348 197.674 73.0445 198.18 72.5723C197.472 72.4375 196.865 71.999 196.426 72.5723C196.055 73.0782 196.527 73.5503 197.033 74.1911ZM258.866 99.4497C258.899 99.0788 259 98.5392 258.427 98.5729C257.82 98.6067 257.854 99.2137 257.786 99.6521C257.719 100.057 257.854 100.428 258.292 100.428C258.866 100.394 258.899 99.9219 258.866 99.4497ZM187.757 41.4121C188.533 41.3784 189.106 41.3446 189.713 41.3109C189.983 41.3109 190.287 41.3446 190.287 40.9737C190.287 40.6027 189.983 40.5353 189.646 40.569C189.039 40.6702 188.431 40.8388 187.757 41.4121Z" fill="#221F1C"/>
<path d="M75.4939 97.7299C76.3035 97.3252 77.1131 97.0891 77.8215 97.831C78.7998 98.809 78.0239 99.7532 77.6866 100.664C77.5179 100.832 77.2143 101.001 77.6191 101.237L77.5179 101.136C75.9325 102.485 75.359 104.474 74.347 106.194C70.8388 112.197 67.4318 118.267 63.9911 124.337C63.2489 124.911 62.9453 124.641 63.0128 123.798C63.1815 123.528 63.3501 123.292 63.4851 122.989C67.2294 114.49 71.3448 106.093 75.4939 97.7299Z" fill="#221F1C"/>
<path d="M19.7337 61.7134C20.3409 61.1739 20.9818 60.6343 21.7914 61.2413C22.6347 61.8483 22.2974 62.7251 22.1287 63.5345C18.7217 69.3686 15.4159 75.3039 11.6378 80.9019C10.356 82.7904 9.27655 84.8476 7.18511 85.9942C6.94898 85.893 6.74659 85.7918 6.54419 85.6906C7.45498 83.1277 9.14161 80.9694 10.4572 78.6088C13.3582 73.4491 16.4954 68.3906 19.1603 63.0961C19.3964 62.6577 19.5651 62.1856 19.7337 61.7134Z" fill="#221F1C"/>
<path d="M154.732 156.105C153.586 152.969 151.865 150.169 150.313 147.236C148.391 143.56 146.4 139.918 144.444 136.242C142.993 133.476 141.476 130.711 140.194 127.845C138.844 124.877 137.09 122.179 135.404 119.38C135.167 119.009 134.965 118.503 134.425 118.739C133.886 119.009 134.189 119.515 134.324 119.886C134.493 120.392 134.695 120.931 134.931 121.404C139.958 131.993 144.984 142.582 150.651 152.867C152.101 155.498 153.248 158.297 154.766 160.927C157.903 166.39 161.378 171.584 165.797 176.103C166.573 176.912 167.45 177.688 168.63 177.485C169.339 177.384 170.081 177.317 170.789 177.216C177.367 176.136 184.013 176.406 190.658 176.001C197.506 175.597 204.353 175.428 211.201 175.091C212.281 175.023 212.348 175.327 212.247 176.271C211.775 180.015 211.167 183.792 211.033 187.569C210.999 188.176 210.864 188.445 210.189 188.547C201.554 189.659 193.019 191.447 184.35 192.593C179.762 193.2 175.208 194.077 170.621 194.65C165.561 195.325 160.467 195.662 155.34 195.392C151.022 195.156 147.311 193.639 144.208 190.671C134.054 180.858 125.756 169.695 119.381 157.083C116.716 151.856 114.051 146.629 111.824 141.199C109.699 136.006 107.81 130.711 105.685 125.552C105.618 125.383 105.516 125.214 105.483 125.046C105.381 124.641 105.213 124.337 104.74 124.472C104.302 124.607 104.268 124.978 104.302 125.349C104.369 126.192 104.606 127.002 104.875 127.811C107.405 135.534 110.205 143.155 113.815 150.439C118.2 159.342 122.72 168.144 128.59 176.204C132.132 181.06 136.011 185.68 140.16 190.03C142.69 192.694 145.523 195.089 149.032 196.505C150.01 196.91 151.022 197.112 152.034 197.517C148.964 197.652 145.928 197.82 142.859 197.888C133.312 198.124 123.732 198.36 114.186 198.596C110.07 198.697 105.955 198.765 101.806 198.866C101.333 198.866 101.131 198.697 100.929 198.293C99.9842 196.37 99.8492 194.313 99.6468 192.256C98.871 185.377 98.3987 178.463 98.0951 171.516C97.7915 164.974 98.0951 158.465 98.365 151.923C98.6686 144.673 99.3095 137.456 99.8155 130.205C100.321 123.09 101.806 116.143 104.471 109.499C105.28 107.442 106.899 106.296 108.653 105.385C114.321 102.451 120.291 100.158 126.599 98.9102C129.399 98.3369 132.3 98.1008 135.167 97.8985C135.91 97.831 136.045 98.0671 135.91 98.7078C135.437 100.866 135.1 103.092 134.56 105.25C134.29 106.397 134.729 106.97 135.707 107.341C137.124 107.881 138.574 108.454 140.025 108.926C140.666 109.128 140.666 109.297 140.295 109.803C139.317 111.185 138.406 112.568 137.461 113.951C137.057 114.524 136.955 115.097 137.225 115.772C138.507 119.11 139.721 122.449 141.341 125.653C143.634 130.104 145.895 134.623 148.188 139.075C148.424 139.547 148.559 140.558 149.335 140.221C150.212 139.816 149.403 139.142 149.2 138.636C146.738 132.768 143.499 127.238 140.902 121.404C140.092 119.549 139.384 117.627 138.642 115.738C138.44 115.232 138.507 114.794 138.811 114.322C139.89 112.77 140.97 111.185 141.981 109.6C142.622 108.589 142.454 108.117 141.341 107.712C139.856 107.172 138.406 106.633 136.888 106.194C136.247 105.992 136.078 105.722 136.213 105.115C136.719 102.822 137.09 100.529 137.225 98.202C137.259 97.7636 137.461 97.6287 137.832 97.6287C138.102 97.6287 138.338 97.5613 138.608 97.5275C140.194 97.3589 140.464 97.5275 140.902 99.1125C143.263 107.779 145.287 116.547 147.345 125.315C148.93 131.993 150.887 138.535 152.54 145.178C153.349 148.416 154.125 151.687 154.901 154.958C154.969 155.295 155.036 155.666 155.104 156.004C154.901 156.037 154.8 156.071 154.732 156.105ZM102.48 145.01C103.357 146.73 104.875 147.505 106.596 148.011C106.798 148.079 107.068 148.045 107.136 147.775C107.237 147.438 107.034 147.202 106.731 147.134C105.145 146.73 103.661 146.19 102.48 145.01ZM108.687 123.832C108.384 122.685 108.046 121.572 107.743 120.459C107.709 120.324 107.574 120.19 107.405 120.257C107.203 120.324 107.136 120.527 107.169 120.695C107.405 121.808 107.642 122.887 107.911 123.967C107.979 124.169 108.181 124.337 108.417 124.236C108.586 124.169 108.687 124.034 108.687 123.832ZM161.985 176.946C161.951 176.878 161.918 176.71 161.816 176.642C161.007 176.136 160.096 175.9 159.151 175.698C158.983 175.664 158.848 175.765 158.848 175.934C158.848 176.069 158.915 176.238 159.017 176.305C159.792 176.777 160.602 177.216 161.479 177.418C161.749 177.519 161.951 177.35 161.985 176.946ZM102.48 138.704C102.211 138.872 102.143 139.041 102.244 139.344C102.447 139.985 103.762 140.997 104.437 140.997C104.606 140.997 104.808 140.963 104.875 140.761C105.01 140.457 104.774 140.289 104.538 140.187C103.83 139.884 103.121 139.614 102.717 138.872C102.717 138.805 102.582 138.771 102.48 138.704Z" fill="#F9F7F5"/>
<path d="M180.673 101.912C190.152 102.788 197.371 106.7 201.587 115.569C204.185 121.066 205.703 126.867 207.423 132.6C209.514 139.614 211.876 146.561 213.529 153.677C214.912 159.646 216.261 165.615 217.273 171.651C217.442 172.663 216.834 172.629 216.227 172.663C212.888 172.831 209.514 172.966 206.175 173.101C202.7 173.236 199.26 173.337 195.785 173.472C195.111 173.506 194.908 173.371 194.976 172.629C195.751 164.772 195.448 156.88 195.313 149.023C195.245 144.639 195.313 140.255 194.976 135.905C194.908 134.994 194.807 134.083 194.706 133.173C194.672 132.802 194.605 132.397 194.132 132.397C193.626 132.397 193.593 132.869 193.559 133.207C193.491 133.982 193.491 134.724 193.458 135.5C192.918 146.19 193.289 156.88 193.188 167.537C193.188 169.324 192.985 171.112 192.918 172.899C192.918 173.506 192.614 173.607 192.108 173.641C187.318 173.776 182.562 174.214 177.772 174.18C176.051 174.147 174.331 174.18 172.611 174.214C172.004 174.214 171.801 174.079 171.869 173.405C172.375 167.739 172.408 162.04 172.746 156.375C173.15 150.169 173.96 143.964 174.196 137.726C174.466 130.846 174.837 123.967 174.871 117.053C174.871 112.265 175.411 107.51 175.411 102.721C175.411 100.866 175.377 101.001 177.198 101.203C178.885 101.372 179.661 102.181 179.897 103.834C180.099 105.318 180.639 106.734 181.415 108.015C181.719 108.521 181.55 108.791 181.145 109.095C180.066 109.938 179.02 110.882 177.907 111.691C177.165 112.231 177.03 112.804 177.468 113.546C178.278 114.962 179.155 116.345 180.167 117.66C180.909 118.638 180.976 119.582 180.74 120.797C179.256 127.744 177.367 134.589 175.579 141.469C175.107 143.29 174.837 145.178 174.466 147.033C174.399 147.404 174.331 147.809 174.803 147.944C175.309 148.079 175.377 147.64 175.478 147.269C176.22 144.403 176.557 141.469 177.468 138.636C179.425 132.532 180.673 126.226 182.191 120.021C182.359 119.279 182.326 118.638 181.921 118.031C181.01 116.581 180.066 115.165 179.121 113.748C178.716 113.141 178.716 112.804 179.391 112.366C180.572 111.556 181.617 110.578 182.731 109.735C183.439 109.196 183.54 108.589 183.102 107.847C182.022 105.958 181.449 103.969 180.673 101.912Z" fill="#F9F7F5"/>
<path d="M194.638 81.9811C194.503 82.6893 194.976 82.3858 195.279 82.3858C195.751 82.3858 196.392 81.9811 196.696 82.4195C196.999 82.8579 196.527 83.3637 196.291 83.8359C194.976 86.6349 193.458 89.3328 191.805 91.9632C189.949 94.8634 188.094 95.5041 184.383 94.7285C182.359 94.2901 180.335 93.7842 178.548 92.6376C177.839 92.1655 177.367 92.5027 177.097 93.1772C176.085 95.4029 175.107 97.6287 174.129 99.8544C173.353 99.8881 172.611 100.023 171.835 99.9556C168.158 99.7532 164.515 99.416 160.838 99.3148C155.576 99.1462 150.381 98.7415 145.253 97.6287C144.241 97.3926 143.196 97.1903 142.116 97.4263C142.723 95.5715 143.634 93.7842 144.511 92.0643C146.94 87.2756 149.504 82.5207 151.561 77.5296C152.067 76.3493 152.776 75.4725 154.159 75.0004C157.026 73.9887 159.893 72.8421 162.153 70.6164C162.423 70.3466 162.659 70.1105 162.896 69.807C164.953 67.2778 164.616 67.2778 163.098 65.4904C162.322 64.5799 162.356 63.3996 162.963 62.5565C163.705 61.4774 164.92 60.9041 165.932 61.1401C167.078 61.4099 167.517 61.9495 167.45 63.1298C167.281 65.6928 166.336 68.0871 165.763 70.5826C165.561 71.392 165.257 72.2014 165.257 73.0444C165.223 73.7189 165.257 74.3934 165.965 74.7643C166.606 75.1016 167.18 74.8318 167.719 74.4945C169.271 73.5166 170.452 72.1676 171.396 70.6501C174.702 65.1532 177.907 59.5889 179.964 53.485C180.335 52.3384 182.09 51.5627 183.034 52.1698C184.822 53.3163 186.677 53.1815 188.499 52.5407C190.557 51.7988 192.209 52.3047 193.66 53.7885C194.166 54.2943 194.672 54.8339 195.077 55.4409C196.257 57.2957 197.978 58.2399 200.137 58.476C200.508 58.5097 200.879 58.6109 201.216 58.5772C203.814 58.2737 205.365 59.69 206.512 61.7809C206.748 62.1856 206.681 62.4553 206.512 62.7926C205.736 64.2427 204.994 65.6928 204.252 67.1429C204.016 67.5813 203.813 67.5813 203.409 67.3115C202.363 66.637 201.25 66.0974 200.002 65.9626C199.462 65.8951 198.821 65.8277 198.754 66.637C198.72 67.3115 199.192 67.4464 199.766 67.5138C200.103 67.5476 200.406 67.615 200.71 67.7162C203.24 68.4918 203.442 68.8965 202.296 71.2234C201.924 71.9653 201.553 72.7072 201.149 73.5503C200.44 72.7746 199.766 72.1339 198.99 71.5943C198.248 71.0885 197.438 70.9536 196.595 71.0885C196.089 71.1897 195.751 71.4932 195.279 70.8187C194.908 70.2791 194.706 71.021 194.638 71.3583C194.132 73.5503 193.66 75.776 193.154 77.968C192.817 79.4519 192.074 80.5984 190.422 80.8682C189.241 81.0706 188.6 80.5984 188.431 79.4518C188.33 78.8448 188.195 78.2715 187.487 78.4402C186.812 78.6088 186.846 79.2158 186.947 79.7891C187.419 82.5881 190.32 82.8242 192.277 81.7113C192.884 81.3741 193.39 80.8682 193.761 80.2949C193.896 80.4973 194.031 80.7333 194.166 80.9357C194.2 81.0368 194.2 81.138 194.233 81.2392C194.267 81.4078 194.672 81.5764 194.638 81.9811ZM176.794 74.5957C176.659 74.6632 176.389 74.6294 176.422 74.8655C176.557 75.3376 176.996 75.0678 177.3 75.1353C177.367 75.4051 177.536 75.5737 177.772 75.7086C179.964 77.1249 182.359 77.9343 184.957 78.1029C186.205 78.1704 186.61 77.5296 186.036 76.4168C185.8 75.9784 185.53 75.6074 185.024 75.5062C184.856 75.1015 184.485 75.0678 184.114 75.0678C183.945 74.6632 183.608 74.5283 183.203 74.4945C183 74.2247 182.73 74.0899 182.393 74.1236C181.82 73.8538 181.213 73.5503 180.538 73.6177C180.268 73.4491 179.931 73.3817 179.627 73.4154C178.919 72.8084 178.075 72.9095 177.3 73.1793C176.726 73.4154 176.659 74.0224 176.794 74.5957ZM182.798 65.8277C181.01 65.7265 179.998 67.2103 180.673 68.6267C181.347 70.0093 183.945 71.4932 185.463 71.392C186.374 71.3246 187.183 70.9873 187.554 70.0768C187.892 69.2 187.554 68.4244 186.947 67.7836C185.766 66.5359 184.215 66.03 182.798 65.8277ZM184.08 58.9481C183.877 58.9481 183.641 58.9144 183.371 58.9144C182.832 58.8807 182.359 59.1505 182.292 59.6226C182.225 60.061 182.798 60.1284 183.135 60.2971C183.236 60.3308 183.338 60.3982 183.439 60.3982C185.733 60.4657 187.588 61.5785 189.275 62.9949C189.713 63.3659 190.219 63.5008 190.59 62.9275C190.961 62.3204 190.59 61.8146 190.118 61.4099C188.431 59.8587 186.475 58.9144 184.08 58.9481ZM185.294 86.1628C185.26 85.7918 185.564 85.0836 185.024 85.0162C184.485 84.9487 184.788 85.7244 184.62 86.0616C184.552 86.1965 184.518 86.3314 184.518 86.4663C184.316 87.714 184.62 88.5234 185.463 88.8606C186.407 89.2316 187.554 88.7595 188.128 87.7478C188.33 87.4105 188.701 86.9384 188.161 86.6349C187.622 86.3314 187.521 86.9047 187.386 87.2419C187.082 87.8489 186.61 88.1524 185.969 87.9838C185.294 87.8152 185.294 87.2082 185.294 86.6686C185.294 86.5337 185.294 86.3651 185.294 86.1628ZM182.494 71.6281C182.933 72.4711 185.126 73.0782 185.834 72.6398C186.003 72.5386 186.104 72.4037 186.036 72.2014C185.969 71.9653 185.766 71.999 185.564 72.0327C184.552 72.0665 183.506 72.1676 182.494 71.6281Z" fill="#F9F7F5"/>
<path d="M279.847 139.951C279.375 147.236 278.903 154.52 278.397 161.77C278.026 166.997 277.52 172.224 276.98 177.452C276.508 182.139 276.305 186.827 275.766 191.514C275.563 193.301 275.395 195.055 275.293 196.842C275.26 197.551 274.99 197.685 274.349 197.685C273.067 197.652 271.785 197.618 270.503 197.685C269.727 197.719 269.491 197.517 269.559 196.741C270.132 190.604 270.335 184.432 270.604 178.295C270.841 173.405 271.043 168.549 271.347 163.659C271.65 158.87 272.291 154.081 272.527 149.259C272.797 144.032 273.303 138.771 272.865 133.51C272.797 132.566 272.966 132.161 274.045 132.195C275.732 132.262 277.385 132.128 279.071 132.026C279.847 131.959 280.083 132.161 280.05 132.971C279.982 135.297 280.016 137.624 280.016 139.951C280.016 139.951 279.948 139.951 279.847 139.951Z" fill="#F9F7F5"/>
<path d="M250.196 173.607C249.589 174.18 248.982 174.282 248.408 174.484C246.688 175.091 244.9 175.496 243.112 175.867C242.505 176.001 241.763 175.968 241.763 176.845C241.763 177.721 242.505 177.856 243.146 177.957C244.9 178.261 246.654 178.564 248.375 179.171C248.881 179.34 249.387 179.542 249.893 179.711C249.893 179.812 249.893 179.913 249.893 180.014C249.285 180.014 248.644 180.014 248.037 180.014C246.216 180.014 244.394 180.014 242.573 179.981C241.965 179.981 241.459 180.149 241.392 180.824C241.358 181.599 241.965 181.667 242.505 181.734C244.36 181.903 246.216 182.072 248.071 182.24C248.982 182.341 249.859 182.51 250.77 182.982C248.543 183.387 246.418 183.184 244.327 183.387C243.348 183.488 242.37 183.522 241.392 183.555C240.92 183.589 240.582 183.758 240.549 184.23C240.515 184.702 240.886 184.972 241.324 185.006C242.269 185.073 243.213 185.14 244.158 185.174C245.845 185.275 247.396 185.815 249.184 186.422C248.375 186.827 247.734 186.793 247.16 186.725C241.257 186.051 235.354 186.591 229.45 186.928C224.424 187.198 219.432 187.737 214.406 188.209C213.529 188.277 213.292 188.142 213.36 187.231C213.697 183.623 213.933 180.048 214.203 176.44C214.271 175.462 214.473 174.922 215.721 174.855C220.882 174.518 226.077 174.45 231.238 174.214C236.163 173.978 241.088 174.248 246.013 173.809C247.329 173.675 248.644 173.337 250.196 173.607Z" fill="#F9F7F5"/>
<path d="M274.619 99.8207C274.652 96.2123 274.652 93.3796 274.315 90.5468C274.146 89.1642 274.214 89.1304 275.563 89.0967C277.284 89.063 279.004 89.0967 280.691 89.063C281.399 89.063 281.703 89.2316 281.669 90.041C281.298 97.9996 280.96 105.958 280.623 113.951C280.589 114.726 280.387 115.03 279.544 114.962C277.924 114.828 276.272 114.76 274.619 114.726C273.809 114.726 273.573 114.49 273.674 113.647C274.416 108.825 274.517 103.935 274.619 99.8207Z" fill="#F9F7F5"/>
<path d="M231.137 94.4587C230.462 94.054 229.754 93.7168 229.113 93.3121C224.188 90.2096 218.892 87.7141 214.035 84.5104C213.326 84.072 213.124 83.8022 213.664 83.0603C214.709 81.6102 215.654 80.0926 216.194 78.3727C216.396 77.7657 216.632 77.8669 217.071 78.103C222.94 81.6102 229.079 84.679 234.881 88.2874C235.253 88.5234 235.657 88.6583 235.185 89.2316C234.038 90.7154 232.959 92.3004 231.846 93.818C231.643 94.1215 231.508 94.4587 231.137 94.4587Z" fill="#F9F7F5"/>
<path d="M208.401 91.1538C208.604 91.255 208.84 91.3561 209.042 91.491C214.439 94.9645 220.241 97.7298 225.571 101.305C226.212 101.743 226.415 102.013 225.909 102.721C225.099 103.834 224.357 105.014 223.716 106.228C223.345 106.936 223.008 106.869 222.468 106.565C219.027 104.609 215.451 102.822 212.179 100.63C210.054 99.2137 207.727 98.1345 205.534 96.853C205.062 96.5495 204.826 96.4484 205.23 95.8413C206.209 94.4587 207.052 93.0423 207.963 91.6259C208.03 91.3899 208.098 91.1875 208.401 91.1538Z" fill="#F9F7F5"/>
<path d="M242.505 148.989C242.438 147.607 242.404 146.224 242.303 144.841C242.269 144.234 242.404 143.998 243.045 144.066C247.025 144.437 251.039 144.841 255.054 144.841C255.627 144.841 255.897 144.942 255.796 145.651C255.56 147.573 255.56 149.495 255.796 151.417C255.964 152.766 255.829 152.766 254.514 152.732C251.242 152.665 247.97 152.699 244.664 152.665C242.471 152.665 242.471 152.631 242.471 150.406C242.505 149.933 242.505 149.461 242.505 148.989Z" fill="#F9F7F5"/>
<path d="M205.365 195.999C202.464 195.999 199.53 195.966 196.628 196.033C195.954 196.033 195.684 195.932 195.819 195.224C195.886 194.886 195.92 194.482 195.886 194.145C195.853 193.538 196.19 193.335 196.696 193.234C204.218 191.75 211.808 190.739 219.432 190.064C220.309 189.997 220.68 190.233 220.815 191.076C221.017 192.121 221.253 193.133 221.591 194.145C221.827 194.819 221.692 195.021 220.95 195.055C217.914 195.19 214.912 195.392 211.876 195.527C209.683 195.628 207.49 195.73 205.332 195.831C205.365 195.864 205.365 195.932 205.365 195.999Z" fill="#F9F7F5"/>
<path d="M174.028 196.674C176.254 196.033 178.582 195.898 180.875 195.527C184.653 194.92 188.431 194.414 192.21 193.841C192.952 193.74 193.323 193.706 193.222 194.684C193.053 196.134 193.12 196.134 191.636 196.202C185.767 196.337 179.897 196.505 174.028 196.674Z" fill="#F9F7F5"/>
<path d="M273.303 123.056C273.337 121.066 275.125 119.077 276.811 119.11C278.464 119.178 280.117 120.729 280.117 122.247C280.117 124.439 278.802 126.192 277.149 126.192C274.855 126.159 273.27 124.911 273.303 123.056ZM276.98 125.113C278.195 125.181 279.207 124.034 279.274 122.449C279.308 121.538 278.329 120.392 277.452 120.324C275.766 120.223 274.551 121.235 274.45 122.854C274.349 124.135 275.361 125.012 276.98 125.113Z" fill="#F9F7F5"/>
<path d="M194.233 79.0809C194.706 77.4959 195.043 75.8772 195.245 74.0562C195.92 74.7643 196.561 75.2365 197.303 75.54C198.079 75.8435 198.889 75.9784 199.833 76.0121C199.26 77.5297 198.619 78.9123 197.843 80.2612C197.505 79.9914 197.269 79.5868 196.763 79.6205C196.628 79.553 196.46 79.4856 196.325 79.3844C195.751 78.6762 195.009 78.9123 194.233 79.0809Z" fill="#F9F7F5"/>
<path d="M230.462 135.028C230.496 133.713 230.496 132.465 231.002 131.318C231.171 130.947 231.643 130.34 231.879 131.116C232.588 133.713 233.465 136.377 232.25 139.075C232.115 139.344 232.048 139.783 231.609 139.715C231.306 139.682 231.205 139.311 231.103 139.041C230.496 137.726 230.53 136.343 230.462 135.028Z" fill="#F9F7F5"/>
<path d="M261.834 122.82C261.699 125.113 261.564 127.406 261.429 129.699C261.396 130.07 261.463 130.644 260.89 130.576C260.35 130.509 260.485 130.003 260.518 129.598C260.788 125.45 260.89 121.302 260.957 117.154C260.957 116.649 260.856 115.738 261.328 115.738C261.969 115.772 261.632 116.649 261.632 117.121C261.665 119.009 261.665 120.898 261.665 122.82C261.699 122.82 261.767 122.82 261.834 122.82Z" fill="#F9F7F5"/>
<path d="M240.852 135.095C240.818 135.432 240.818 135.736 240.785 136.073C240.683 137.388 239.84 137.995 238.592 137.692C238.356 137.624 238.187 137.523 238.187 137.287C238.187 136.916 238.525 136.714 238.761 136.781C240.279 137.152 239.908 136.073 239.941 135.298C239.941 134.994 239.908 134.724 239.941 134.421C240.009 133.746 239.739 133.477 239.064 133.611C238.558 133.713 238.019 133.78 237.985 133.106C237.951 132.532 238.525 132.532 238.963 132.499C240.616 132.296 240.987 132.836 240.852 135.095Z" fill="#F9F7F5"/>
<path d="M185.733 45.2565C184.249 45.2565 183.068 44.5821 181.786 44.1437C181.651 44.11 181.55 43.9751 181.584 43.8064C181.651 43.5704 181.82 43.5704 182.022 43.6041C182.494 43.7053 182.933 43.8402 183.372 43.9751C184.653 44.346 185.935 44.4135 187.217 43.8402C187.588 43.6715 188.128 43.3343 188.364 43.9076C188.634 44.5821 187.925 44.6158 187.554 44.7844C186.947 45.0879 186.306 45.2565 185.733 45.2565Z" fill="#F9F7F5"/>
<path d="M201.689 46.9089C201.452 47.4485 201.081 47.4485 200.71 47.1787C200.373 46.9089 200.069 46.5717 199.732 46.3019C198.619 45.3914 197.404 44.7844 195.92 45.1216C195.718 45.1553 195.448 45.2565 195.381 44.953C195.347 44.6495 195.65 44.6832 195.853 44.6158C197.607 43.9413 200.542 44.9193 201.52 46.5043C201.621 46.6729 201.655 46.8078 201.689 46.9089Z" fill="#F9F7F5"/>
<path d="M201.351 53.5187C200.339 53.3838 199.53 52.9792 198.855 52.2373C198.248 51.5965 197.877 50.7872 197.337 50.1127C197.202 49.9441 197.033 49.7417 197.269 49.5731C197.472 49.4382 197.674 49.5731 197.843 49.7417C197.978 49.8766 198.113 50.0115 198.214 50.1464C199.024 51.293 200.036 52.2373 201.486 52.5408C201.823 52.6082 202.127 52.7768 202.026 53.2152C201.925 53.5862 201.587 53.485 201.351 53.5187Z" fill="#F9F7F5"/>
<path d="M259.304 95.2681C259.237 95.774 259.237 96.2798 259.135 96.7857C259.068 97.1566 258.798 97.4601 258.393 97.4264C257.955 97.3927 257.719 97.1229 257.752 96.7182C257.786 95.8414 257.854 94.9983 257.955 94.1215C257.989 93.7168 258.225 93.4133 258.663 93.4133C259.135 93.4133 259.203 93.818 259.237 94.189C259.27 94.5599 259.237 94.8971 259.237 95.2681C259.27 95.2681 259.304 95.2681 259.304 95.2681Z" fill="#F9F7F5"/>
<path d="M236.939 135.095C236.602 135.567 237.412 136.545 236.163 136.512C234.848 136.478 234.578 136.174 234.645 134.387C234.679 133.24 235.691 133.78 236.231 133.713C237.479 133.578 236.535 134.691 236.939 135.095Z" fill="#F9F7F5"/>
<path d="M169.474 46.2682C170.452 44.0762 173.42 43.0308 175.343 44.0087C175.579 44.1436 175.815 44.2448 175.748 44.5483C175.68 44.7844 175.444 44.9193 175.242 44.8518C172.982 43.9076 171.127 44.6495 169.474 46.2682Z" fill="#F9F7F5"/>
<path d="M207.963 57.0934C209.008 57.5318 210.02 57.9365 211.1 58.2062C211.437 58.3074 211.741 58.476 211.606 58.8807C211.437 59.3191 211.032 59.1842 210.762 59.0831C209.683 58.6784 208.739 58.0376 207.963 57.0934Z" fill="#F9F7F5"/>
<path d="M205.602 51.6977C206.58 51.2255 207.356 51.7314 208.132 52.1361C208.368 52.271 208.368 52.4733 208.233 52.7094C208.03 53.0129 207.828 52.9117 207.592 52.7431C206.951 52.3721 206.377 51.8663 205.602 51.6977Z" fill="#F9F7F5"/>
<path d="M197.033 74.191C196.527 73.5503 196.055 73.0781 196.426 72.5723C196.831 71.999 197.472 72.4374 198.18 72.5723C197.674 73.0444 197.134 73.3479 197.033 74.191Z" fill="#F9F7F5"/>
<path d="M258.865 99.4497C258.899 99.9218 258.865 100.394 258.292 100.428C257.854 100.428 257.685 100.057 257.786 99.6521C257.887 99.2137 257.82 98.6066 258.427 98.5729C259 98.5392 258.899 99.0788 258.865 99.4497Z" fill="#F9F7F5"/>
<path d="M187.757 41.4121C188.398 40.8725 189.005 40.6702 189.646 40.6028C189.949 40.569 190.287 40.6365 190.287 41.0074C190.287 41.3447 189.983 41.311 189.713 41.3447C189.14 41.3447 188.533 41.3784 187.757 41.4121Z" fill="#F9F7F5"/>
<path d="M199.462 73.1793C199.799 73.4828 199.934 73.8875 200.103 74.2585C200.238 74.5282 200.238 74.7306 199.968 74.8992C199.698 75.0678 199.395 75.0341 199.158 74.8992C198.754 74.6969 199.192 74.4945 199.192 74.2922C199.226 73.955 199.361 73.584 199.462 73.1793Z" fill="#F9F7F5"/>
<path d="M199.462 73.1793C199.428 73.213 199.395 73.2805 199.327 73.3142L199.293 73.2805C199.327 73.2805 199.395 73.213 199.462 73.1793Z" fill="#F9F7F5"/>
<path d="M69.7595 92.3678C66.1164 100.9 61.1239 108.724 56.6375 116.817C56.2664 117.525 55.9628 118.267 55.6255 119.009C54.4786 119.481 54.2424 118.874 54.3436 117.896C55.3894 116.48 55.8616 114.794 56.5363 113.209C59.7409 105.756 64.1599 98.9439 67.0272 91.3561C68.5789 90.0409 69.2198 91.0864 69.7595 92.3678Z" fill="#221F1C"/>
<path d="M26.8513 68.6942C23.9166 74.5283 20.3072 79.9915 17.2037 85.7581C16.3942 87.2757 15.4496 88.7258 14.5726 90.2096C13.6955 90.8166 13.0546 90.7829 12.9197 89.5351C16.3942 82.0486 20.712 75.0679 24.5575 67.7836C24.7599 67.4127 25.0298 67.0755 25.2659 66.7045C26.8851 66.5359 26.9525 67.5476 26.8513 68.6942Z" fill="#221F1C"/>
<path d="M61.0228 89.7037C60.1457 92.3004 58.3916 94.4249 57.076 96.7856C54.7484 101.068 52.3197 105.318 49.6548 109.398C49.3512 109.87 49.0139 110.781 48.3392 110.443C47.5296 110.005 48.2043 109.263 48.4741 108.69C51.6788 102.148 54.9846 95.639 58.4928 89.2653C59.5722 88.321 60.4493 88.1187 61.0228 89.7037Z" fill="#221F1C"/>
<path d="M31.574 76.147C28.3694 81.2729 25.2322 86.3988 22.3987 91.7608C21.8252 91.8283 21.353 94.3575 20.6108 91.862C22.9384 87.9501 24.3552 83.5998 26.8851 79.7891C28.2682 77.732 29.6512 75.6074 30.5283 73.213C31.1692 72.8421 31.8101 72.37 32.4511 73.0781C33.0245 73.7189 32.586 74.3259 32.2824 74.8992C32.08 75.3376 31.8101 75.7423 31.574 76.147Z" fill="#221F1C"/>
<path d="M43.3804 102.653C45.0333 98.9776 46.8548 95.4366 48.8451 91.9294C49.2499 91.2212 49.6884 90.5468 49.4185 89.7037C51.2401 87.6466 51.4762 87.6129 52.5557 89.2653C50.7341 94.1214 47.5295 98.1345 44.8309 102.485C44.561 102.923 44.1562 103.463 43.4816 102.991C43.5153 102.856 43.5153 102.755 43.3804 102.653Z" fill="#221F1C"/>
<path d="M29.0776 91.019C31.0341 87.7141 33.0244 84.443 33.834 80.6322C35.723 80.4636 36.1278 80.9357 35.3857 82.6556C35.0483 83.4313 34.6098 84.1732 34.205 84.9488C32.9569 86.8036 31.4727 88.5235 30.5281 90.5806C30.0222 90.7492 29.8872 91.8958 29.0776 91.019Z" fill="#221F1C"/>
<path d="M77.653 101.271C77.2145 101.035 77.5518 100.866 77.7205 100.698C77.8217 100.9 78.0241 101.102 77.653 101.271Z" fill="#F9F7F5"/>
<path d="M102.48 145.01C103.661 146.19 105.145 146.73 106.731 147.134C107.068 147.202 107.237 147.438 107.135 147.775C107.068 148.045 106.832 148.079 106.596 148.011C104.875 147.505 103.357 146.73 102.48 145.01Z" fill="#221F1C"/>
<path d="M108.687 123.832C108.687 124.034 108.586 124.169 108.417 124.27C108.147 124.371 107.945 124.203 107.911 124C107.641 122.921 107.405 121.808 107.169 120.729C107.135 120.56 107.203 120.358 107.405 120.291C107.574 120.223 107.709 120.358 107.743 120.493C108.046 121.572 108.35 122.685 108.687 123.832Z" fill="#221F1C"/>
<path d="M161.985 176.946C161.951 177.35 161.715 177.485 161.445 177.418C160.568 177.182 159.758 176.743 158.983 176.305C158.881 176.238 158.814 176.069 158.814 175.934C158.814 175.799 158.949 175.664 159.118 175.698C160.062 175.9 160.973 176.136 161.782 176.642C161.917 176.71 161.951 176.878 161.985 176.946Z" fill="#221F1C"/>
<path d="M102.48 138.704C102.582 138.737 102.716 138.771 102.75 138.872C103.121 139.614 103.863 139.884 104.572 140.187C104.808 140.289 105.01 140.457 104.909 140.761C104.842 140.963 104.639 140.963 104.471 140.997C103.796 140.997 102.514 140.019 102.278 139.344C102.143 139.041 102.21 138.872 102.48 138.704Z" fill="#221F1C"/>
<path d="M182.798 65.8277C184.249 66.03 185.767 66.5358 186.947 67.7836C187.554 68.4243 187.926 69.1663 187.554 70.0768C187.183 70.9873 186.374 71.3245 185.463 71.392C183.911 71.5269 181.314 70.0093 180.673 68.6267C179.998 67.2103 180.977 65.7265 182.798 65.8277ZM183.372 69.436C183.405 69.4698 183.473 69.5035 183.507 69.5035C183.507 69.4698 183.507 69.436 183.507 69.4023C183.439 69.436 183.405 69.436 183.372 69.436C183.608 68.9976 183.338 68.3906 183.844 68.0197C184.586 67.4801 184.215 67.244 183.574 67.1429C182.967 67.0417 182.258 66.8393 181.921 67.4801C181.584 68.1208 182.191 68.5255 182.596 68.8965C182.798 69.1325 183.001 69.436 183.372 69.436ZM186.273 68.9302C186.273 69.5372 186.036 69.9419 185.665 70.3128C186.509 70.1779 186.914 69.8744 186.273 68.9302Z" fill="#221F1C"/>
<path d="M64.0586 124.371C64.9357 125.248 66.15 125.417 67.2295 125.788C69.2535 126.496 70.0968 127.676 69.6582 129.126C69.2197 130.576 68.0728 131.15 66.0151 130.543C55.2206 127.373 46.4163 121.64 40.9854 111.388C38.4554 106.633 36.87 101.608 35.9592 96.3472C35.6893 94.661 35.2508 94.3575 33.463 94.9645C23.5455 98.3031 14.3027 96.9542 6.10565 90.2433C4.04795 88.5571 2.09145 86.7361 0.573473 84.5103C0.101214 83.8021 -0.337312 83.0265 0.371076 82.3183C1.14693 81.5764 1.88905 82.2509 2.52998 82.723C3.87929 83.701 5.0262 84.9487 6.54418 85.6906C6.74658 85.7918 6.94897 85.893 7.1851 85.9941C8.87174 87.5791 10.9294 88.5234 12.9534 89.5351C13.0883 90.7828 13.7293 90.8166 14.6063 90.2095C16.6303 90.7491 18.6543 91.3224 20.6445 91.862C21.3529 94.3912 21.8251 91.862 22.4323 91.7608C24.6587 91.5247 26.8851 91.255 29.0777 91.0189C29.8873 91.8957 30.0559 90.7491 30.4945 90.5468C31.81 90.277 33.0582 89.7711 34.2725 89.1641C34.8797 88.8606 35.2508 88.4222 35.0147 87.714C34.7448 86.8035 34.4412 85.8593 34.1713 84.9487C34.5761 84.1731 35.0147 83.4312 35.352 82.6555C36.0941 80.9357 35.7231 80.4635 33.8003 80.6322C33.0582 79.1483 32.316 77.6645 31.5739 76.1807C31.81 75.776 32.0799 75.3713 32.2823 74.9329C32.6196 74.3596 33.0244 73.7189 32.451 73.1119C31.81 72.37 31.1354 72.8421 30.5282 73.213C28.8416 72.0665 28.1669 70.1442 26.8176 68.6941C26.9188 67.5475 26.8176 66.5358 25.2659 66.7045C24.2202 65.659 23.1407 64.6136 22.095 63.5345C22.2974 62.7251 22.6347 61.8483 21.7577 61.2413C20.9481 60.6343 20.3072 61.1738 19.7 61.7134C18.6543 61.2076 17.5411 60.7354 16.5628 60.1284C15.2472 59.3191 14.7412 58.0713 15.4496 56.6212C16.158 55.1711 17.4399 54.9351 18.7555 55.5083C21.2517 56.6212 23.7142 57.8015 25.7381 59.6563C27.3236 61.1401 28.8416 62.6577 30.4945 64.074C36.6676 69.3686 39.5686 76.0795 39.6023 84.1394C39.6023 86.9384 39.8722 86.9384 42.5033 86.1628C49.5872 84.1056 56.7723 83.1951 64.0923 84.915C71.4461 86.6686 76.5397 91.5248 80.8913 97.3251C82.1057 98.9439 83.2188 100.664 84.3657 102.35C85.1753 103.53 85.2428 104.845 84.0622 105.655C82.8815 106.43 81.6334 106.161 80.6889 104.879C79.7106 103.564 79.1034 101.945 77.518 101.136L77.6192 101.237C77.9902 101.068 77.7879 100.866 77.6867 100.664C77.9902 99.7195 78.7661 98.809 77.8216 97.831C77.0795 97.0891 76.2699 97.2914 75.494 97.7298C73.5713 95.9425 71.6822 94.1552 69.7594 92.3678C69.2197 91.0863 68.5788 90.0409 67.0271 91.3224C65.1381 90.3107 63.2827 89.2653 61.0227 89.7037C60.4492 88.1187 59.5721 88.321 58.5602 89.299C56.5362 88.692 54.546 89.4339 52.522 89.2653C51.4425 87.6129 51.2064 87.6466 49.3848 89.7037C47.8669 90.0747 46.3151 90.4456 44.7972 90.8503C40.3107 92.098 40.2432 92.1318 41.2215 96.6844C41.66 98.7415 41.8962 100.934 43.3467 102.653C43.4816 102.721 43.5153 102.822 43.4479 102.957C43.4141 103.598 43.7515 104.137 44.0213 104.677C46.4163 109.87 50.0595 114.119 54.3436 117.863C54.2424 118.841 54.4785 119.448 55.6254 118.975C57.9867 120.797 60.3817 122.516 63.0466 123.832C63.0129 124.708 63.3165 124.944 64.0586 124.371Z" fill="#15A34A"/>
<path d="M142.083 97.4263C143.128 97.1565 144.208 97.3926 145.22 97.6287C150.347 98.7415 155.576 99.1462 160.804 99.3148C164.481 99.4497 168.124 99.7532 171.801 99.9556C172.543 99.9893 173.319 99.8881 174.095 99.8544C174.5 100.495 174.264 101.17 174.163 101.844C173.522 106.363 172.948 110.882 172.813 115.435C172.51 125.248 172.341 135.061 171.666 144.841C171.16 152.125 170.553 159.376 170.317 166.66C170.25 168.852 170.182 171.044 170.148 173.236C170.148 174.079 169.777 174.383 168.968 174.349C167.989 174.282 167.112 174.079 166.438 173.304C163.57 170.134 161.007 166.728 158.882 163.018C157.971 161.399 157.836 159.376 157.431 157.555C155.643 149.562 153.855 141.57 151.595 133.679C149.706 127.136 148.593 120.392 146.805 113.816C145.355 108.555 144.242 103.193 142.116 98.1345C142.015 97.831 141.914 97.6287 142.083 97.4263ZM145.152 103.429C144.815 104.171 144.984 104.542 145.186 104.879C147.345 108.892 149.47 112.905 151.629 116.918C152.068 117.728 152.607 117.728 153.08 116.952C153.822 115.704 154.53 114.423 155.272 113.175C156.79 110.578 158.342 107.982 160.197 105.587C160.366 105.385 160.501 105.014 160.838 105.149C161.175 105.284 161.074 105.655 161.074 105.925C161.074 106.093 161.074 106.296 161.074 106.464C160.636 113.344 160.298 120.223 159.725 127.069C158.78 138.569 159.657 150.001 160.028 161.5C160.028 161.905 159.995 162.512 160.568 162.512C161.175 162.478 161.074 161.905 161.04 161.467C160.838 158.398 160.973 155.363 160.737 152.294C160.096 143.357 160.433 134.421 161.074 125.518C161.546 118.942 161.783 112.332 161.951 105.756C161.951 105.351 161.749 104.677 162.154 104.576C162.693 104.441 162.761 105.183 162.963 105.554C164.279 108.184 164.92 111.051 165.864 113.782C166.337 115.097 166.843 116.379 167.382 117.66C167.517 117.998 167.753 118.335 168.158 118.368C168.563 118.402 168.732 118.099 168.866 117.795C170.013 115.435 171.363 113.175 172.172 110.68C172.307 110.241 172.408 109.769 171.869 109.567C171.363 109.398 171.194 109.87 171.059 110.241C170.89 110.713 170.688 111.185 170.553 111.691C170.182 113.006 169.541 114.187 168.9 115.367C168.765 115.569 168.698 115.873 168.394 115.907C168.023 115.94 168.023 115.536 167.888 115.3C167.45 114.423 167.112 113.479 166.843 112.534C165.763 108.96 164.245 105.587 162.356 102.384C161.85 101.541 161.513 101.574 160.973 102.384C158.308 106.633 155.34 110.68 152.911 115.097C152.574 115.738 152.304 115.805 151.899 115.097C150.415 112.501 148.93 109.938 147.412 107.341C146.738 106.059 145.996 104.845 145.152 103.429Z" fill="#15A34A"/>
<path d="M196.797 79.6542C197.303 79.5867 197.539 80.0251 197.877 80.2949C196.865 81.0368 195.751 81.5427 194.605 82.0148C194.638 81.6101 194.234 81.4415 194.132 81.1043C194.74 80.9019 195.38 80.6996 195.988 80.531C196.494 80.3961 196.797 80.16 196.797 79.6542Z" fill="#15A34A"/>
<path d="M194.234 79.0809C194.976 78.9123 195.752 78.6762 196.359 79.4181C195.617 79.8565 194.841 80.3287 194.099 80.7671C193.964 80.5647 193.829 80.3287 193.694 80.1263C193.896 79.7891 194.065 79.4181 194.234 79.0809Z" fill="#15A34A"/>
<path d="M251.849 211.748C253.873 211.681 255.796 211.478 257.719 211.782C258.36 211.883 259.034 211.95 259.608 212.288C260.519 212.794 261.227 213.401 261.294 214.615C261.362 215.829 261.598 217.076 261.463 218.324C261.396 218.965 261.126 219.37 260.519 219.639C258.663 220.516 256.639 220.718 254.683 220.921C250.5 221.359 246.351 221.899 242.168 222C239.334 222.067 236.568 221.764 233.802 221.325C232.149 221.056 231.61 220.213 231.711 218.526C231.744 217.852 231.812 217.144 231.913 216.469C232.149 214.851 232.622 214.244 234.207 213.974C240.043 212.895 245.879 211.579 251.849 211.748ZM243.079 220.347C248.071 220.246 253.03 219.572 257.955 218.864C259.844 218.594 259.979 218.29 259.405 216.503C259.27 216.065 259.068 215.896 258.629 216.031C256.1 216.941 253.468 217.346 250.837 217.616C245.373 218.155 239.874 218.628 234.409 217.481C233.87 217.38 233.701 217.515 233.6 218.021C233.431 219.032 233.735 219.504 234.713 219.639C237.479 219.977 240.245 220.415 243.079 220.347ZM234.882 215.795C236.029 216.2 237.007 216.334 237.985 216.368C243.281 216.402 248.543 216.436 253.772 215.458C255.222 215.188 256.74 215.053 258.09 214.378C258.326 214.277 258.63 214.142 258.596 213.873C258.562 213.569 258.225 213.603 257.989 213.535C257.314 213.333 256.606 213.333 255.931 213.367C251.309 213.434 246.688 213.738 242.1 214.513C239.807 214.884 237.445 215.323 234.882 215.795Z" fill="#15A34A"/>
<path d="M183.203 74.5283C183.608 74.5283 183.945 74.6969 184.114 75.1016C183.371 75.4051 182.629 75.7086 181.921 76.0121C181.752 76.0795 181.584 76.1807 181.617 76.4168C181.651 76.4842 181.786 76.6191 181.82 76.6191C182.865 76.147 184.147 76.5179 185.024 75.5737C185.53 75.6749 185.834 76.0458 186.036 76.4842C186.61 77.5971 186.205 78.2378 184.957 78.1704C182.359 78.0018 179.964 77.1924 177.772 75.776C177.569 75.6411 177.367 75.4725 177.3 75.2027C178.109 74.9667 178.885 74.6969 179.695 74.5283C180.201 74.4271 180.47 74.191 180.538 73.6852C181.213 73.6177 181.786 73.9212 182.393 74.191C181.314 74.6969 180.133 74.9329 179.189 75.7086C180.234 75.8772 181.111 75.4388 182.056 75.2365C182.494 75.1016 183.034 75.1016 183.203 74.5283Z" fill="#15A34A"/>
<path d="M184.08 58.9482C186.509 58.9144 188.431 59.8587 190.118 61.4099C190.557 61.8146 190.961 62.3205 190.59 62.9275C190.253 63.5008 189.713 63.3659 189.275 62.9949C187.588 61.5448 185.733 60.4657 183.439 60.3983C183.338 60.3983 183.237 60.3645 183.135 60.2971C182.798 60.1285 182.225 60.061 182.292 59.6226C182.36 59.1505 182.866 58.9144 183.372 58.9144C183.641 58.9482 183.878 58.9482 184.08 58.9482Z" fill="#221F1C"/>
<path d="M185.294 86.1627C185.294 86.3651 185.261 86.5337 185.261 86.6686C185.261 87.2419 185.261 87.8152 185.935 87.9838C186.576 88.1524 187.048 87.8152 187.352 87.2419C187.521 86.9047 187.588 86.3314 188.128 86.6349C188.701 86.9384 188.33 87.4105 188.094 87.7477C187.487 88.7594 186.34 89.2316 185.429 88.8606C184.586 88.5234 184.249 87.714 184.485 86.4662C184.518 86.3314 184.518 86.1627 184.586 86.0616C184.755 85.6906 184.451 84.9487 184.991 85.0161C185.598 85.0836 185.261 85.7918 185.294 86.1627Z" fill="#221F1C"/>
<path d="M183.203 74.5283C183.034 75.1016 182.495 75.1016 182.056 75.2027C181.111 75.4051 180.234 75.8435 179.189 75.6749C180.133 74.8992 181.314 74.6294 182.393 74.1573C182.731 74.1236 183.001 74.2248 183.203 74.5283Z" fill="#221F1C"/>
<path d="M176.794 74.5958C176.625 74.0225 176.692 73.4155 177.266 73.2131C178.042 72.9433 178.885 72.8422 179.593 73.4492C178.716 73.955 177.806 74.3597 176.794 74.5958Z" fill="#15A34A"/>
<path d="M176.794 74.5957C177.772 74.3596 178.716 73.955 179.594 73.4491C179.931 73.3817 180.234 73.4828 180.504 73.6514C180.437 74.1573 180.167 74.3596 179.661 74.4945C178.851 74.6631 178.076 74.9329 177.266 75.169C176.962 75.0678 176.524 75.3713 176.389 74.8992C176.389 74.6294 176.659 74.6631 176.794 74.5957Z" fill="#221F1C"/>
<path d="M182.494 71.6281C183.506 72.1676 184.518 72.0665 185.564 71.999C185.733 71.999 185.935 71.9653 186.036 72.1676C186.104 72.37 186.003 72.5049 185.834 72.606C185.126 73.0782 182.967 72.4711 182.494 71.6281Z" fill="#221F1C"/>
<path d="M185.024 75.54C184.147 76.4505 182.866 76.1133 181.82 76.5854C181.786 76.5854 181.617 76.4505 181.617 76.3831C181.584 76.1807 181.719 76.0458 181.921 75.9784C182.663 75.6749 183.405 75.3714 184.114 75.0679C184.485 75.1016 184.856 75.1016 185.024 75.54Z" fill="#221F1C"/>
<path d="M194.099 80.767C194.841 80.3286 195.617 79.8565 196.359 79.4181C196.494 79.4855 196.662 79.553 196.797 79.6542C196.797 80.16 196.46 80.3961 196.021 80.531C195.414 80.6996 194.773 80.9019 194.166 81.1043C194.132 80.9694 194.132 80.8682 194.099 80.767Z" fill="#221F1C"/>
<path d="M145.152 103.429C145.996 104.845 146.738 106.093 147.48 107.307C148.998 109.87 150.516 112.467 151.966 115.064C152.371 115.772 152.641 115.704 152.978 115.064C155.407 110.68 158.342 106.599 161.04 102.35C161.58 101.507 161.917 101.473 162.423 102.35C164.279 105.587 165.83 108.926 166.91 112.501C167.18 113.445 167.517 114.389 167.956 115.266C168.091 115.502 168.057 115.907 168.462 115.873C168.765 115.873 168.833 115.569 168.968 115.333C169.608 114.153 170.249 112.973 170.62 111.658C170.755 111.152 170.958 110.68 171.126 110.207C171.261 109.837 171.43 109.364 171.936 109.533C172.51 109.702 172.375 110.207 172.24 110.646C171.43 113.141 170.081 115.401 168.934 117.761C168.799 118.065 168.596 118.369 168.225 118.335C167.821 118.301 167.585 117.964 167.45 117.627C166.91 116.345 166.404 115.064 165.932 113.748C164.953 111.017 164.312 108.15 163.031 105.52C162.828 105.149 162.761 104.407 162.221 104.542C161.782 104.643 162.019 105.318 162.019 105.722C161.85 112.332 161.614 118.908 161.142 125.484C160.534 134.387 160.163 143.324 160.804 152.26C161.04 155.329 160.905 158.398 161.108 161.433C161.142 161.838 161.243 162.445 160.636 162.478C160.028 162.512 160.096 161.905 160.096 161.467C159.725 150.001 158.848 138.535 159.792 127.035C160.366 120.156 160.703 113.276 161.142 106.43C161.142 106.262 161.175 106.06 161.142 105.891C161.108 105.621 161.209 105.25 160.905 105.115C160.568 104.98 160.399 105.351 160.264 105.554C158.409 107.948 156.857 110.545 155.34 113.141C154.597 114.389 153.889 115.671 153.147 116.918C152.675 117.694 152.135 117.694 151.696 116.885C149.537 112.872 147.412 108.859 145.253 104.845C144.984 104.508 144.815 104.137 145.152 103.429Z" fill="#F9F7F5"/>
<path d="M276.98 125.113C275.361 125.012 274.349 124.135 274.45 122.854C274.551 121.235 275.766 120.223 277.452 120.324C278.329 120.358 279.308 121.505 279.274 122.449C279.206 124.034 278.194 125.214 276.98 125.113ZM278.127 122.516C277.992 122.011 277.688 121.538 277.047 121.572C276.474 121.606 276.103 121.909 276.069 122.55C276.035 123.225 276.474 123.596 277.047 123.629C277.655 123.596 278.026 123.191 278.127 122.516Z" fill="#221F1C"/>
<path d="M102.48 87.1407C102.885 85.1173 103.762 83.2288 105.111 81.5764C105.348 81.2729 105.685 81.1042 106.056 81.4078C106.393 81.6775 106.292 81.9811 106.09 82.2846C104.943 84.0044 103.83 85.7581 103.155 87.7477C103.087 87.9501 102.919 88.1861 102.683 88.0512C102.413 87.8826 102.548 87.5117 102.48 87.1407Z" fill="#221F1C"/>
<path d="M105.752 86.2302C106.056 84.7801 106.798 83.4986 107.473 82.1834C107.675 81.8461 107.945 81.745 108.282 81.9136C108.552 82.0485 108.62 82.352 108.485 82.5543C107.675 83.8695 106.798 85.151 105.955 86.4325C105.921 86.3651 105.854 86.2976 105.752 86.2302Z" fill="#221F1C"/>
<path d="M183.372 69.4361C183 69.4361 182.798 69.1326 182.596 68.9302C182.191 68.5593 181.584 68.1546 181.921 67.5139C182.258 66.8394 182.967 67.0755 183.574 67.1766C184.215 67.2778 184.586 67.4801 183.844 68.0534C183.338 68.3907 183.608 68.9977 183.372 69.4361Z" fill="#F9F7F5"/>
<path d="M186.272 68.9302C186.88 69.8744 186.509 70.1779 185.665 70.3128C186.07 69.9419 186.272 69.5709 186.272 68.9302Z" fill="#F9F7F5"/>
<path d="M183.338 69.4698C183.372 69.4698 183.439 69.436 183.473 69.436C183.473 69.4698 183.473 69.5035 183.473 69.5372C183.473 69.4698 183.405 69.4698 183.338 69.4698Z" fill="#F9F7F5"/>
<path d="M278.127 122.516C278.026 123.225 277.655 123.629 277.048 123.596C276.44 123.562 276.036 123.191 276.069 122.516C276.103 121.909 276.508 121.572 277.048 121.538C277.689 121.505 277.992 121.977 278.127 122.516Z" fill="#F9F7F5"/>
</g>
<defs>
<clipPath id="clip0_10_3179">
<rect width="304" height="222" fill="white"/>
</clipPath>
</defs>
</svg>
